<?xml version="1.0" standalone="no"?>
<!DOCTYPE svg PUBLIC "-//W3C//DTD SVG 20010904//EN"
 "http://www.w3.org/TR/2001/REC-SVG-20010904/DTD/svg10.dtd">
<svg version="1.0" xmlns="http://www.w3.org/2000/svg"
 width="640.000000pt" height="640.000000pt" viewBox="0 0 640.000000 640.000000"
 preserveAspectRatio="xMidYMid meet">
<metadata>
Created by potrace 1.11, written by Peter Selinger 2001-2013
</metadata>
<g transform="translate(0.000000,640.000000) scale(0.100000,-0.100000)"
fill="#000000" stroke="none">
<path d="M1600 5425 c-76 -23 -708 -346 -740 -378 -91 -91 -96 -243 -10 -334
11 -12 115 -81 232 -153 117 -73 231 -144 253 -158 22 -15 42 -27 45 -27 3 0
25 -14 50 -29 25 -16 69 -44 98 -62 29 -19 57 -34 62 -34 6 0 10 -4 10 -10 0
-5 5 -10 11 -10 5 0 44 -22 86 -50 42 -27 79 -50 83 -50 4 0 19 -9 33 -20 14
-12 36 -26 49 -33 13 -7 74 -44 136 -82 145 -90 169 -105 220 -135 23 -14 42
-27 42 -30 0 -3 -188 -98 -417 -211 l-417 -206 -135 67 c-565 282 -570 285
-647 284 -69 -1 -76 -3 -280 -104 -232 -114 -297 -153 -316 -190 -7 -14 -15
-27 -18 -30 -12 -12 -30 -79 -30 -111 0 -61 28 -134 68 -177 20 -22 82 -88
137 -147 55 -59 129 -137 165 -175 36 -38 117 -124 180 -191 300 -321 324
-342 425 -380 27 -9 141 -23 173 -20 18 2 136 3 172 2 8 0 35 0 60 0 25 0 54
0 65 -1 11 -1 27 -1 35 -1 32 1 151 1 158 0 4 -1 12 0 17 1 12 2 118 2 131 -1
5 -1 14 -1 19 0 27 6 255 2 264 -4 6 -3 11 -3 11 2 0 7 124 9 140 3 3 -1 9 -2
14 -1 4 1 65 4 135 6 123 4 221 23 282 56 13 7 25 12 26 11 5 -3 198 93 201
101 2 4 8 7 14 7 16 0 222 103 230 115 4 5 8 7 8 4 0 -4 165 75 368 176 799
397 981 487 988 485 4 -1 10 2 13 7 8 11 224 118 234 115 4 -1 7 3 7 8 0 6 4
10 10 10 5 0 208 99 450 219 381 190 593 308 652 364 7 6 30 25 51 40 54 41
203 194 240 247 17 25 37 51 44 58 41 42 176 311 172 342 0 3 5 19 11 35 16
39 21 181 9 236 -21 99 -85 194 -179 267 -71 55 -221 111 -340 127 -25 4 -61
9 -80 12 -45 6 -284 6 -330 0 -81 -12 -167 -27 -198 -36 -18 -5 -36 -10 -40
-11 -21 -2 -92 -23 -127 -36 -22 -9 -42 -16 -45 -16 -3 0 -15 -4 -28 -9 -13
-5 -25 -9 -27 -9 -3 0 -67 -30 -142 -67 -76 -36 -140 -67 -143 -68 -3 -1 -183
-90 -401 -199 l-396 -197 -49 16 c-27 9 -63 23 -81 31 -17 8 -34 14 -37 14 -6
0 -517 185 -551 200 -21 9 -228 85 -480 176 -82 30 -157 57 -165 61 -8 3 -19
7 -25 9 -5 1 -39 14 -75 27 -36 13 -166 62 -290 107 -124 45 -254 94 -290 107
-36 14 -82 32 -104 39 -43 16 -102 16 -156 -1z m265 -381 c83 -31 173 -64 200
-74 28 -10 102 -38 165 -60 63 -23 174 -64 245 -90 72 -27 182 -67 245 -90 63
-23 129 -48 147 -56 17 -8 37 -14 45 -14 8 0 18 -3 22 -7 3 -4 12 -8 19 -9 7
-1 41 -13 77 -27 36 -14 106 -39 155 -57 50 -17 99 -35 110 -40 39 -16 430
-159 570 -209 53 -19 80 -17 103 5 7 8 17 12 22 9 5 -3 10 -2 12 2 1 5 82 46
178 93 96 47 177 88 178 93 2 4 8 7 14 7 6 0 108 48 227 107 119 59 218 106
220 104 2 -1 7 1 10 6 19 28 345 168 439 188 12 3 31 7 42 10 53 13 67 16 95
20 17 2 50 7 75 11 25 3 79 6 120 6 227 1 396 -45 447 -121 41 -61 17 -168
-73 -322 -21 -35 -40 -66 -44 -69 -3 -3 -23 -28 -43 -57 -55 -76 -203 -211
-309 -282 -58 -39 -322 -177 -698 -363 -805 -400 -1690 -838 -1715 -849 -11
-5 -27 -13 -35 -18 -20 -13 -574 -285 -625 -307 -35 -15 -84 -18 -400 -20
-198 -1 -364 -3 -370 -4 -5 -1 -14 -1 -20 0 -24 5 -186 1 -195 -5 -5 -3 -10
-2 -10 2 0 5 -27 6 -60 3 -34 -3 -63 -4 -65 -1 -3 2 -31 3 -62 2 -67 -2 -101
-1 -196 2 l-68 2 -77 81 c-169 180 -304 323 -370 394 -38 41 -108 115 -155
165 -47 49 -83 93 -80 98 2 4 64 37 136 73 l132 66 40 -21 c119 -61 737 -361
744 -361 5 0 174 83 377 183 203 101 387 192 409 202 22 11 43 23 46 28 3 5 9
8 13 8 10 -2 646 312 646 319 0 3 -41 30 -90 60 -50 30 -109 67 -133 82 -23
15 -49 31 -57 35 -13 6 -165 100 -230 141 -14 9 -27 17 -30 17 -3 1 -30 16
-60 35 -31 19 -64 40 -75 47 -50 31 -276 170 -325 200 -83 52 -310 191 -450
276 -69 42 -129 80 -135 85 -5 4 -25 15 -42 22 -18 8 -33 18 -33 21 0 4 -16
14 -36 24 -20 9 -33 20 -29 23 3 4 111 59 238 124 166 83 239 115 257 112 14
-3 93 -30 175 -60z"/>
<path d="M103 1282 c-28 -2 -49 -11 -67 -29 -24 -24 -26 -32 -26 -125 0 -93
15 -156 38 -159 4 0 16 -2 27 -5 11 -2 65 -4 120 -4 55 0 132 0 170 0 39 0 90
0 115 1 25 0 51 0 58 0 6 -1 18 -1 25 -2 19 -1 139 0 172 2 17 0 37 1 45 0 88
-4 321 -1 329 4 6 3 11 3 11 -2 0 -4 28 -7 62 -5 162 6 198 7 198 2 0 -3 27
-3 60 0 34 3 63 4 65 2 4 -4 207 -5 223 -1 4 1 11 1 16 0 27 -6 316 -2 325 4
6 3 11 3 11 -2 0 -4 24 -7 52 -6 29 2 96 3 148 2 52 0 111 1 130 2 19 0 41 1
48 0 6 -1 18 -1 25 -2 19 -1 139 0 172 2 17 0 37 1 45 0 88 -4 321 -1 329 4 6
3 11 3 11 -2 0 -4 28 -7 62 -5 162 6 198 7 198 2 0 -3 27 -3 60 0 34 3 63 4
65 2 4 -4 207 -5 223 -1 4 1 11 1 16 0 27 -6 316 -2 325 4 6 3 11 3 11 -2 0
-4 24 -7 52 -6 29 2 96 3 148 2 52 0 111 1 130 2 19 0 41 1 48 0 6 -1 18 -1
25 -2 19 -1 139 0 172 2 17 0 37 1 45 0 88 -4 321 -1 329 4 6 3 11 3 11 -2 0
-8 125 -7 147 2 7 2 13 1 13 -3 0 -8 126 -6 147 3 7 2 13 1 13 -3 0 -4 24 -6
52 -5 29 2 96 3 148 2 52 0 111 1 130 2 19 0 41 1 48 0 6 -1 18 -1 25 -2 19
-1 139 0 172 2 17 0 37 1 45 0 88 -4 321 -1 329 4 6 3 11 2 11 -2 0 -9 51 -7
98 3 12 2 31 13 42 24 18 18 20 34 20 130 0 101 -2 111 -24 133 -17 17 -36 24
-71 26 -27 1 -52 4 -56 7 -4 2 -10 0 -13 -4 -3 -5 -25 -6 -49 -2 -24 3 -52 4
-61 0 -10 -3 -42 -3 -72 0 -31 3 -57 3 -59 0 -2 -4 -24 -4 -48 0 -24 3 -52 4
-62 0 -9 -3 -39 -3 -66 0 -27 4 -54 3 -60 0 -6 -4 -27 -4 -47 0 -20 3 -48 4
-61 0 -14 -3 -49 -3 -79 0 -29 4 -55 3 -57 0 -2 -4 -24 -4 -48 0 -24 3 -52 4
-62 0 -9 -3 -38 -3 -64 0 -25 3 -60 3 -77 0 -16 -4 -38 -4 -47 -1 -9 4 -49 4
-88 1 -39 -3 -72 -3 -75 -1 -6 6 -215 2 -225 -5 -5 -3 -9 -2 -9 3 0 4 -25 8
-55 8 -30 0 -55 -2 -55 -5 0 -4 -124 -4 -140 0 -16 4 -214 -1 -221 -6 -5 -3
-9 -2 -9 3 0 4 -25 8 -55 8 -30 0 -55 -2 -55 -5 0 -4 -124 -4 -140 0 -16 4
-214 -1 -221 -6 -5 -3 -9 -2 -9 3 0 4 -25 8 -55 8 -30 0 -55 -2 -55 -5 0 -4
-124 -4 -140 0 -16 4 -214 -1 -221 -6 -5 -3 -9 -2 -9 3 0 4 -25 8 -55 8 -30 0
-55 -2 -55 -5 0 -4 -124 -4 -140 0 -16 4 -214 -1 -221 -6 -5 -3 -9 -2 -9 3 0
4 -25 8 -55 8 -30 0 -55 -2 -55 -5 0 -4 -124 -4 -140 0 -16 4 -214 -1 -221 -6
-5 -3 -9 -2 -9 3 0 4 -25 8 -55 8 -30 0 -55 -2 -55 -5 0 -4 -124 -4 -140 0
-16 4 -214 -1 -221 -6 -5 -3 -9 -2 -9 3 0 4 -25 8 -55 8 -30 0 -55 -2 -55 -5
0 -4 -124 -4 -140 0 -16 4 -214 -1 -221 -6 -5 -3 -9 -2 -9 3 0 4 -25 8 -55 8
-30 0 -55 -2 -55 -5 0 -4 -124 -4 -140 0 -16 4 -214 -1 -221 -6 -5 -3 -9 -2
-9 3 0 4 -25 8 -55 8 -30 0 -55 -2 -55 -5 0 -4 -124 -4 -140 0 -16 4 -214 -1
-221 -6 -5 -3 -9 -2 -9 3 0 4 -25 8 -55 8 -30 0 -55 -2 -55 -5 0 -6 -129 -4
-136 2 -2 3 -26 2 -54 -2 -27 -3 -51 -4 -52 -1 -2 3 -22 5 -45 3z"/>
</g>
</svg>
