<svg width="12" height="19" viewBox="0 0 12 19" fill="none" xmlns="http://www.w3.org/2000/svg">
    <path d="M6 9.25898C5.43168 9.25898 4.88663 9.02193 4.48477 8.59997C4.08291 8.17802 3.85714 7.60572 3.85714 7.00898C3.85714 6.41225 4.08291 5.83995 4.48477 5.41799C4.88663 4.99604 5.43168 4.75898 6 4.75898C6.56832 4.75898 7.11337 4.99604 7.51523 5.41799C7.91709 5.83995 8.14286 6.41225 8.14286 7.00898C8.14286 7.30446 8.08743 7.59704 7.97974 7.87002C7.87205 8.143 7.71421 8.39104 7.51523 8.59997C7.31625 8.80891 7.08002 8.97464 6.82004 9.08771C6.56005 9.20079 6.2814 9.25898 6 9.25898ZM6 0.708984C4.4087 0.708984 2.88258 1.37273 1.75736 2.55421C0.632141 3.73569 0 5.33812 0 7.00898C0 11.734 6 18.709 6 18.709C6 18.709 12 11.734 12 7.00898C12 5.33812 11.3679 3.73569 10.2426 2.55421C9.11742 1.37273 7.5913 0.708984 6 0.708984Z" fill="#1777FA"/>
</svg>