<?xml version="1.0" encoding="utf-8"?>
<!-- Generator: Adobe Illustrator 22.1.0, SVG Export Plug-In . SVG Version: 6.00 Build 0)  -->
<svg version="1.1" id="Слой_1" xmlns="http://www.w3.org/2000/svg" xmlns:xlink="http://www.w3.org/1999/xlink" x="0px" y="0px"
	 width="30.1px" height="30.1px" viewBox="0 0 30.1 30.1" style="enable-background:new 0 0 30.1 30.1;" xml:space="preserve">
<style type="text/css">
	.st0{fill:url(#SVGID_1_);}
	.st1{fill:#FFFFFF;}
</style>
<g>
	
		<linearGradient id="SVGID_1_" gradientUnits="userSpaceOnUse" x1="1.6701" y1="38.1328" x2="35.2634" y2="1.5311" gradientTransform="matrix(1 0 0 -1 0 38.6054)">
		<stop  offset="0" style="stop-color:#FCD64F"/>
		<stop  offset="1" style="stop-color:#FF7B7B"/>
	</linearGradient>
	<path class="st0" d="M6,0h18.1c3.3,0,6,2.7,6,6v18.1c0,3.3-2.7,6-6,6H6c-3.3,0-6-2.7-6-6V6C0,2.7,2.7,0,6,0z"/>
</g>
<path class="st1" d="M10,15c0,2.8,2.3,5,5,5s5-2.3,5-5s-2.3-5-5-5S10,12.3,10,15z M14,22.1h2v3h-2V22.1z M14,5h2v3h-2V5z M5,14h3v2
	H5V14z M22.1,14h3v2h-3V14z"/>
<path class="st1" d="M7.2,21.4l2.1-2.1l1.4,1.4l-2.1,2.1L7.2,21.4z"/>
<path class="st1" d="M19.3,9.4l2.1-2.1l1.4,1.4l-2.1,2.1L19.3,9.4z"/>
<path class="st1" d="M9.4,10.8L7.2,8.7l1.4-1.4l2.1,2.1L9.4,10.8z"/>
<path class="st1" d="M22.8,21.4l-1.4,1.4l-2.1-2.1l1.4-1.4L22.8,21.4z"/>
</svg>
