<svg width="25" height="25" viewBox="0 0 25 25" fill="none" xmlns="http://www.w3.org/2000/svg">
	<path d="M12.375 7.88731C9.88875 7.88731 7.875 9.90421 7.875 12.3943C7.875 14.8845 9.88875 16.9014 12.375 16.9014C14.8612 16.9014 16.875 14.8845 16.875 12.3943C16.875 9.90421 14.8612 7.88731 12.375 7.88731ZM22.4325 11.2676C22.1777 8.98266 21.1547 6.85243 19.5315 5.22669C17.9083 3.60095 15.7814 2.57635 13.5 2.32112V0H11.25V2.32112C8.96864 2.57635 6.84173 3.60095 5.21853 5.22669C3.59533 6.85243 2.57233 8.98266 2.3175 11.2676H0V13.5211H2.3175C2.57233 15.806 3.59533 17.9363 5.21853 19.562C6.84173 21.1877 8.96864 22.2123 11.25 22.4676V24.7887H13.5V22.4676C15.7814 22.2123 17.9083 21.1877 19.5315 19.562C21.1547 17.9363 22.1777 15.806 22.4325 13.5211H24.75V11.2676H22.4325ZM12.375 20.2817C8.02125 20.2817 4.5 16.7549 4.5 12.3943C4.5 8.03379 8.02125 4.50704 12.375 4.50704C16.7288 4.50704 20.25 8.03379 20.25 12.3943C20.25 16.7549 16.7288 20.2817 12.375 20.2817Z" fill="black"/>
</svg>