<?xml version="1.0" encoding="utf-8"?>
<!-- Generator: Adobe Illustrator 22.1.0, SVG Export Plug-In . SVG Version: 6.00 Build 0)  -->
<svg version="1.1" id="Слой_1" xmlns="http://www.w3.org/2000/svg" xmlns:xlink="http://www.w3.org/1999/xlink" x="0px" y="0px"
	 width="30px" height="30px" viewBox="0 0 30 30" style="enable-background:new 0 0 30 30;" xml:space="preserve">
<style type="text/css">
	.st0{fill:url(#SVGID_1_);}
	.st1{fill:url(#SVGID_2_);filter:url(#Adobe_OpacityMaskFilter);}
	.st2{mask:url(#mask0_1_);}
	.st3{fill:#FFFFFF;}
</style>
<g>
	
		<linearGradient id="SVGID_1_" gradientUnits="userSpaceOnUse" x1="2.1586" y1="39.1345" x2="30.1586" y2="6.1345" gradientTransform="matrix(1 0 0 -1 0 39)">
		<stop  offset="0" style="stop-color:#72F28E"/>
		<stop  offset="1" style="stop-color:#0E4BE8"/>
	</linearGradient>
	<path class="st0" d="M6,0h18c3.3,0,6,2.7,6,6v18c0,3.3-2.7,6-6,6H6c-3.3,0-6-2.7-6-6V6C0,2.7,2.7,0,6,0z"/>
</g>
<defs>
	<filter id="Adobe_OpacityMaskFilter" filterUnits="userSpaceOnUse" x="0" y="0" width="30" height="30">
		<feColorMatrix  type="matrix" values="1 0 0 0 0  0 1 0 0 0  0 0 1 0 0  0 0 0 1 0"/>
	</filter>
</defs>
<mask maskUnits="userSpaceOnUse" x="0" y="0" width="30" height="30" id="mask0_1_">
	
		<linearGradient id="SVGID_2_" gradientUnits="userSpaceOnUse" x1="2.1586" y1="39.1345" x2="30.1586" y2="6.1345" gradientTransform="matrix(1 0 0 -1 0 39)">
		<stop  offset="0" style="stop-color:#FF6565"/>
		<stop  offset="1" style="stop-color:#E6207F"/>
	</linearGradient>
	<path class="st1" d="M6,0h18c3.3,0,6,2.7,6,6v18c0,3.3-2.7,6-6,6H6c-3.3,0-6-2.7-6-6V6C0,2.7,2.7,0,6,0z"/>
</mask>
<g class="st2">
	<path class="st3" d="M21.5,8.5c0.2,0.5,0.3,1.1,0.3,1.7c0,0.3,0,0.7,0,1L30,3.1c-0.3-0.7-0.7-1.3-1.2-1.8l-4.1,4L19.4,0h-3l6.9,6.8
		L21.5,8.5z M17,20.3l2.3,2.3L11.9,30h3.2l5.8-5.7l5.7,5.6c0.7-0.2,1.4-0.5,2-0.9L18.3,18.7C17.8,19.3,17.4,19.9,17,20.3z M8.5,10.3
		c0-0.3,0-0.8,0.1-1.1L1.1,1.6c-0.5,0.6-0.9,1.2-1,2L8,11.5l-8,8v2.8l9.1-9C8.6,12.3,8.4,11.2,8.5,10.3z"/>
</g>
<path class="st3" d="M20,10c0-0.1,0-0.2,0-0.3C19.8,7.1,17.7,5,15,5c-2.7,0-5,2.2-5,5c0,0.2,0,0.4,0,0.4c0,1.4,0.6,3,1.4,4.5
	c1.1,2,2.5,3.8,3.5,5.1c0.2-0.3,0.4-0.4,0.7-0.8c0.4-0.4,0.9-1.1,1.3-1.7c0.9-1.2,1.7-2.6,2.3-4C19.8,12.3,20.1,11.1,20,10z M15,7.8
	c1.3,0,2.3,1.1,2.3,2.3c0,1.3-1.1,2.3-2.3,2.3c-1.2,0-2.3-1-2.3-2.3C12.7,8.8,13.7,7.8,15,7.8z"/>
</svg>
