<?xml version="1.0" encoding="utf-8"?>
<!-- Generator: Adobe Illustrator 22.1.0, SVG Export Plug-In . SVG Version: 6.00 Build 0)  -->
<svg version="1.1" id="Слой_1" xmlns="http://www.w3.org/2000/svg" xmlns:xlink="http://www.w3.org/1999/xlink" x="0px" y="0px"
	 width="30.1px" height="30.1px" viewBox="0 0 30.1 30.1" style="enable-background:new 0 0 30.1 30.1;" xml:space="preserve">
<style type="text/css">
	.st0{fill:url(#SVGID_1_);}
	.st1{fill:#FFFFFF;}
</style>
<g>
	
		<linearGradient id="SVGID_1_" gradientUnits="userSpaceOnUse" x1="1.6702" y1="38.4433" x2="35.2635" y2="1.8417" gradientTransform="matrix(1 0 0 -1 0 38.916)">
		<stop  offset="0" style="stop-color:#FCD64F"/>
		<stop  offset="1" style="stop-color:#FF7B7B"/>
	</linearGradient>
	<path class="st0" d="M6,0h18.1c3.3,0,6,2.7,6,6v18.1c0,3.3-2.7,6-6,6H6c-3.3,0-6-2.7-6-6V6C0,2.7,2.7,0,6,0z"/>
</g>
<path class="st1" d="M15.6,8c-2.5,0-5.5,2.5-5.5,6.5c0,4,3,7,7,7s6.5-3,6.5-5.5C18.1,19.6,12.1,13.5,15.6,8z"/>
</svg>
