<svg width="27" height="27" viewBox="0 0 27 27" fill="none" xmlns="http://www.w3.org/2000/svg">
<mask id="path-1-outside-1" maskUnits="userSpaceOnUse" x="-0.535534" y="-0.142135" width="27.5772" height="27.5772" fill="black">
    <rect fill="white" x="-0.535534" y="-0.142135" width="27.5772" height="27.5772"/>
    <path d="M16.4434 19.6237L15.8334 20.2337C15.7721 20.295 15.6964 20.3399 15.6132 20.3644C15.53 20.3889 15.4421 20.3921 15.3573 20.3738C15.2726 20.3555 15.1938 20.3162 15.1282 20.2596C15.0625 20.203 15.0121 20.1308 14.9816 20.0497L13.1988 15.3125L10.9314 17.4814L11.1026 19.2705C11.1422 19.6186 11.1056 19.8281 10.7916 20.142L10.3809 20.5527C10.318 20.6198 10.2398 20.6708 10.153 20.7013C10.0662 20.7317 9.97333 20.7408 9.88225 20.7278C9.75414 20.7088 9.57585 20.6377 9.45026 20.4076L8.27736 18.3263C8.26865 18.3107 8.26063 18.2945 8.2533 18.278C8.25239 18.2766 8.25122 18.2754 8.24986 18.2745C8.23322 18.2673 8.217 18.2592 8.20128 18.2502L6.10917 17.0675C5.8855 16.9423 5.81743 16.7666 5.79979 16.6408C5.78791 16.5562 5.79603 16.4701 5.8235 16.3893C5.85096 16.3085 5.897 16.2353 5.95791 16.1755L6.39151 15.7419C6.62595 15.5075 6.95871 15.3851 7.26236 15.4211L9.01827 15.5925L11.2156 13.3292L6.48455 11.5518C6.40342 11.5213 6.33122 11.4709 6.27456 11.4053C6.2179 11.3397 6.17859 11.261 6.16022 11.1763C6.14184 11.0916 6.145 11.0036 6.16939 10.9204C6.19378 10.8373 6.23863 10.7615 6.29984 10.7002L6.91654 10.0835C7.00431 9.99915 7.10994 9.9357 7.22559 9.89781C7.34124 9.85992 7.46394 9.84857 7.58458 9.8646L13.9338 10.4822L15.2229 9.12346C15.3145 9.02125 15.5813 8.75083 15.6434 8.68872C16.9105 7.423 18.0779 7.07787 18.7668 7.76676C18.9836 7.98356 19.2989 8.47215 18.9751 9.30748C18.7842 9.80089 18.4042 10.3339 17.846 10.8922C17.7846 10.9536 17.5148 11.2197 17.4112 11.3127L16.0522 12.6011L16.6628 18.9574C16.6784 19.0778 16.6669 19.2002 16.6289 19.3155C16.591 19.4308 16.5276 19.5361 16.4434 19.6237Z"/>
</mask>
<path d="M16.4434 19.6237L15.8334 20.2337C15.7721 20.295 15.6964 20.3399 15.6132 20.3644C15.53 20.3889 15.4421 20.3921 15.3573 20.3738C15.2726 20.3555 15.1938 20.3162 15.1282 20.2596C15.0625 20.203 15.0121 20.1308 14.9816 20.0497L13.1988 15.3125L10.9314 17.4814L11.1026 19.2705C11.1422 19.6186 11.1056 19.8281 10.7916 20.142L10.3809 20.5527C10.318 20.6198 10.2398 20.6708 10.153 20.7013C10.0662 20.7317 9.97333 20.7408 9.88225 20.7278C9.75414 20.7088 9.57585 20.6377 9.45026 20.4076L8.27736 18.3263C8.26865 18.3107 8.26063 18.2945 8.2533 18.278C8.25239 18.2766 8.25122 18.2754 8.24986 18.2745C8.23322 18.2673 8.217 18.2592 8.20128 18.2502L6.10917 17.0675C5.8855 16.9423 5.81743 16.7666 5.79979 16.6408C5.78791 16.5562 5.79603 16.4701 5.8235 16.3893C5.85096 16.3085 5.897 16.2353 5.95791 16.1755L6.39151 15.7419C6.62595 15.5075 6.95871 15.3851 7.26236 15.4211L9.01827 15.5925L11.2156 13.3292L6.48455 11.5518C6.40342 11.5213 6.33122 11.4709 6.27456 11.4053C6.2179 11.3397 6.17859 11.261 6.16022 11.1763C6.14184 11.0916 6.145 11.0036 6.16939 10.9204C6.19378 10.8373 6.23863 10.7615 6.29984 10.7002L6.91654 10.0835C7.00431 9.99915 7.10994 9.9357 7.22559 9.89781C7.34124 9.85992 7.46394 9.84857 7.58458 9.8646L13.9338 10.4822L15.2229 9.12346C15.3145 9.02125 15.5813 8.75083 15.6434 8.68872C16.9105 7.423 18.0779 7.07787 18.7668 7.76676C18.9836 7.98356 19.2989 8.47215 18.9751 9.30748C18.7842 9.80089 18.4042 10.3339 17.846 10.8922C17.7846 10.9536 17.5148 11.2197 17.4112 11.3127L16.0522 12.6011L16.6628 18.9574C16.6784 19.0778 16.6669 19.2002 16.6289 19.3155C16.591 19.4308 16.5276 19.5361 16.4434 19.6237Z" fill="#1777FA"/>
<path d="M15.8334 20.2337L17.2471 21.6484L17.2476 21.6479L15.8334 20.2337ZM14.9816 20.0497L13.1097 20.7541L13.1099 20.7546L14.9816 20.0497ZM13.1988 15.3125L15.0707 14.6081C14.8341 13.9794 14.2977 13.5115 13.6428 13.3624C12.9878 13.2133 12.3018 13.4029 11.8164 13.8672L13.1988 15.3125ZM10.9314 17.4814L9.54894 16.0361C9.10637 16.4594 8.88216 17.0622 8.94049 17.6719L10.9314 17.4814ZM11.1026 19.2705L9.11168 19.461C9.11283 19.4729 9.11408 19.4849 9.11544 19.4968L11.1026 19.2705ZM10.3809 20.5527L8.96672 19.1385C8.95155 19.1537 8.93662 19.1691 8.92195 19.1847L10.3809 20.5527ZM9.88225 20.7278L9.58851 22.7061L9.59869 22.7076L9.88225 20.7278ZM9.45026 20.4076L11.2058 19.4495C11.2015 19.4415 11.1971 19.4336 11.1926 19.4258L9.45026 20.4076ZM8.27736 18.3263L6.53146 19.302L6.53498 19.3082L8.27736 18.3263ZM8.2533 18.278L10.0809 17.4657C10.0353 17.363 9.98104 17.2643 9.91881 17.1707L8.2533 18.278ZM8.24986 18.2745L9.35713 16.609C9.25733 16.5426 9.15176 16.4854 9.04171 16.438L8.24986 18.2745ZM8.20128 18.2502L9.19544 16.5148L9.18555 16.5092L8.20128 18.2502ZM6.10917 17.0675L7.09345 15.3264L7.08561 15.322L6.10917 17.0675ZM5.79979 16.6408L7.7804 16.363L7.78034 16.3625L5.79979 16.6408ZM5.95791 16.1755L7.35866 17.6031C7.36317 17.5987 7.36766 17.5942 7.37213 17.5897L5.95791 16.1755ZM7.26236 15.4211L7.02702 17.4072C7.04068 17.4088 7.05435 17.4103 7.06803 17.4116L7.26236 15.4211ZM9.01827 15.5925L8.82395 17.5831C9.42966 17.6422 10.0293 17.4223 10.4533 16.9857L9.01827 15.5925ZM11.2156 13.3292L12.6506 14.7224C13.1204 14.2384 13.3147 13.5502 13.1672 12.892C13.0197 12.2338 12.5504 11.6942 11.919 11.457L11.2156 13.3292ZM6.48455 11.5518L5.78091 13.4239L5.78115 13.424L6.48455 11.5518ZM6.29984 10.7002L4.88562 9.28595L4.88379 9.28779L6.29984 10.7002ZM6.91654 10.0835L5.53103 8.64112C5.52136 8.6504 5.5118 8.65977 5.50233 8.66925L6.91654 10.0835ZM7.58458 9.8646L7.32112 11.8472C7.34434 11.8503 7.36762 11.8529 7.39094 11.8552L7.58458 9.8646ZM13.9338 10.4822L13.7401 12.4728C14.3537 12.5325 14.9604 12.3059 15.3847 11.8587L13.9338 10.4822ZM15.2229 9.12346L16.6738 10.5C16.6866 10.4864 16.6993 10.4727 16.7118 10.4588L15.2229 9.12346ZM15.6434 8.68872L14.23 7.27374L14.2292 7.27451L15.6434 8.68872ZM18.9751 9.30748L17.1103 8.58459L17.1098 8.58581L18.9751 9.30748ZM17.4112 11.3127L16.0748 9.82484C16.0614 9.83683 16.0482 9.84899 16.0352 9.86133L17.4112 11.3127ZM16.0522 12.6011L14.6762 11.1497C14.2293 11.5734 14.0025 12.1794 14.0614 12.7924L16.0522 12.6011ZM16.6628 18.9574L14.6719 19.1487C14.6741 19.1711 14.6766 19.1935 14.6795 19.2159L16.6628 18.9574ZM15.0292 18.2094L14.4192 18.8195L17.2476 21.6479L17.8577 21.0379L15.0292 18.2094ZM14.4196 18.819C14.5948 18.644 14.8111 18.5156 15.0487 18.4457L16.1777 22.2831C16.5816 22.1642 16.9493 21.946 17.2471 21.6484L14.4196 18.819ZM15.0487 18.4457C15.2863 18.3758 15.5376 18.3666 15.7797 18.4189L14.935 22.3287C15.3465 22.4176 15.7738 22.4019 16.1777 22.2831L15.0487 18.4457ZM15.7797 18.4189C16.0217 18.4712 16.2468 18.5833 16.4344 18.7451L13.8219 21.7741C14.1408 22.0491 14.5235 22.2398 14.935 22.3287L15.7797 18.4189ZM16.4344 18.7451C16.6219 18.9068 16.7659 19.113 16.8532 19.3448L13.1099 20.7546C13.2583 21.1486 13.5031 21.4992 13.8219 21.7741L16.4344 18.7451ZM16.8534 19.3453L15.0707 14.6081L11.327 16.0169L13.1097 20.7541L16.8534 19.3453ZM11.8164 13.8672L9.54894 16.0361L12.3139 18.9266L14.5813 16.7577L11.8164 13.8672ZM8.94049 17.6719L9.11168 19.461L13.0935 19.08L12.9223 17.2909L8.94049 17.6719ZM9.11544 19.4968C9.12469 19.578 9.08837 19.3784 9.17574 19.1068C9.26574 18.8269 9.41175 18.6935 9.37739 18.7278L12.2058 21.5563C12.4854 21.2767 12.8068 20.8815 12.9837 20.3314C13.1579 19.7895 13.1201 19.3111 13.0897 19.0442L9.11544 19.4968ZM9.37739 18.7278L8.96672 19.1385L11.7951 21.9669L12.2058 21.5563L9.37739 18.7278ZM8.92195 19.1847C9.07892 19.0173 9.27393 18.8902 9.49045 18.8142L10.8156 22.5883C11.2057 22.4514 11.5571 22.2223 11.8399 21.9207L8.92195 19.1847ZM9.49045 18.8142C9.70698 18.7382 9.93864 18.7155 10.1658 18.748L9.59869 22.7076C10.008 22.7662 10.4254 22.7253 10.8156 22.5883L9.49045 18.8142ZM10.176 18.7495C10.3355 18.7732 10.5392 18.8314 10.7446 18.9631C10.9593 19.1007 11.1124 19.2784 11.2058 19.4495L7.69474 21.3658C8.17454 22.2449 8.96038 22.6128 9.58851 22.7061L10.176 18.7495ZM11.1926 19.4258L10.0197 17.3444L6.53498 19.3082L7.70788 21.3895L11.1926 19.4258ZM10.0232 17.3507C10.0482 17.3953 10.067 17.4343 10.0809 17.4657L6.42568 19.0902C6.45427 19.1546 6.48914 19.2262 6.53147 19.302L10.0232 17.3507ZM9.91881 17.1707C9.77077 16.948 9.57982 16.757 9.35713 16.609L7.14259 19.94C6.92263 19.7938 6.73402 19.6052 6.58778 19.3852L9.91881 17.1707ZM9.04171 16.438C9.09435 16.4606 9.14567 16.4863 9.19542 16.5148L7.20713 19.9856C7.28833 20.0322 7.3721 20.074 7.45802 20.1111L9.04171 16.438ZM9.18555 16.5092L7.09344 15.3264L5.12489 18.8085L7.217 19.9913L9.18555 16.5092ZM7.08561 15.322C7.25935 15.4192 7.43648 15.5761 7.57209 15.7926C7.70171 15.9995 7.75806 16.2037 7.7804 16.363L3.81917 16.9185C3.9063 17.5398 4.26265 18.3262 5.13272 18.8129L7.08561 15.322ZM7.78034 16.3625C7.812 16.5879 7.79034 16.8175 7.7171 17.033L3.9299 15.7457C3.80173 16.1228 3.76383 16.5246 3.81923 16.919L7.78034 16.3625ZM7.7171 17.033C7.64386 17.2484 7.52109 17.4437 7.35866 17.6031L4.55717 14.748C4.27291 15.0269 4.05806 15.3686 3.9299 15.7457L7.7171 17.033ZM7.37213 17.5897L7.80572 17.1562L4.97729 14.3277L4.5437 14.7613L7.37213 17.5897ZM7.80572 17.1562C7.7142 17.2477 7.60792 17.3143 7.49209 17.3569C7.37763 17.3991 7.21952 17.43 7.02702 17.4072L7.49769 13.435C6.53051 13.3204 5.60414 13.7009 4.97729 14.3277L7.80572 17.1562ZM7.06803 17.4116L8.82395 17.5831L9.2126 13.602L7.45669 13.4306L7.06803 17.4116ZM10.4533 16.9857L12.6506 14.7224L9.78059 11.9361L7.58329 14.1994L10.4533 16.9857ZM11.919 11.457L7.18795 9.67954L5.78115 13.424L10.5122 15.2014L11.919 11.457ZM7.18819 9.67963C7.41998 9.76675 7.62624 9.91058 7.7881 10.098L4.76102 12.7127C5.0362 13.0313 5.38685 13.2758 5.78091 13.4239L7.18819 9.67963ZM7.7881 10.098C7.94997 10.2854 8.06228 10.5103 8.11477 10.7523L4.20566 11.6002C4.2949 12.0116 4.48583 12.3941 4.76102 12.7127L7.7881 10.098ZM8.11477 10.7523C8.16726 10.9943 8.15825 11.2456 8.08857 11.4832L4.25021 10.3576C4.13174 10.7616 4.11643 11.1888 4.20566 11.6002L8.11477 10.7523ZM8.08857 11.4832C8.01889 11.7209 7.89076 11.9372 7.71589 12.1125L4.88379 9.28779C4.5865 9.58585 4.36867 9.95367 4.25021 10.3576L8.08857 11.4832ZM7.71405 12.1144L8.33075 11.4977L5.50233 8.66925L4.88562 9.28595L7.71405 12.1144ZM8.30205 11.5258C8.17318 11.6496 8.01807 11.7428 7.84825 11.7984L6.60292 7.99721C6.2018 8.12862 5.83543 8.34871 5.53103 8.64112L8.30205 11.5258ZM7.84825 11.7984C7.67843 11.854 7.49826 11.8707 7.32112 11.8472L7.84803 7.88203C7.42961 7.82643 7.00404 7.86579 6.60292 7.99721L7.84825 11.7984ZM7.39094 11.8552L13.7401 12.4728L14.1274 8.49161L7.77821 7.874L7.39094 11.8552ZM15.3847 11.8587L16.6738 10.5L13.7719 7.74693L12.4829 9.10569L15.3847 11.8587ZM16.7118 10.4588C16.7102 10.4606 16.7138 10.4565 16.725 10.4446C16.7353 10.4336 16.7486 10.4195 16.7648 10.4025C16.7974 10.3684 16.8362 10.3283 16.8765 10.287C16.9579 10.2034 17.034 10.1266 17.0576 10.1029L14.2292 7.27451C14.1756 7.32808 13.8686 7.638 13.734 7.78811L16.7118 10.4588ZM17.0568 10.1037C17.2998 9.86101 17.5106 9.69021 17.681 9.57623C17.8546 9.46014 17.958 9.42185 17.9883 9.41288C18.0158 9.40476 17.9331 9.43483 17.7781 9.40416C17.6058 9.37008 17.4535 9.28189 17.3526 9.18098L20.181 6.35255C19.2059 5.37745 17.9274 5.26012 16.8555 5.57665C15.873 5.86679 14.9844 6.52015 14.23 7.27374L17.0568 10.1037ZM17.3526 9.18098C17.2761 9.10455 17.1822 8.97966 17.1371 8.8049C17.1148 8.71862 17.1115 8.64504 17.1153 8.59421C17.119 8.54541 17.1276 8.54007 17.1103 8.58459L20.8399 10.0304C21.1356 9.26756 21.1916 8.50835 21.0102 7.80545C20.8342 7.12336 20.4742 6.64577 20.181 6.35255L17.3526 9.18098ZM17.1098 8.58581C17.0565 8.7237 16.8817 9.02806 16.4318 9.47799L19.2602 12.3064C19.9268 11.6398 20.5119 10.8781 20.8404 10.0292L17.1098 8.58581ZM16.4318 9.47799C16.4085 9.50126 16.332 9.57696 16.2485 9.65834C16.2072 9.69855 16.167 9.73745 16.1327 9.77022C16.1156 9.78655 16.1014 9.80002 16.0902 9.81052C16.0781 9.8218 16.0736 9.8259 16.0748 9.82484L18.7477 12.8006C18.8983 12.6654 19.2066 12.36 19.2602 12.3064L16.4318 9.47799ZM16.0352 9.86133L14.6762 11.1497L17.4283 14.0525L18.7873 12.7641L16.0352 9.86133ZM14.0614 12.7924L14.6719 19.1487L18.6536 18.7662L18.0431 12.4099L14.0614 12.7924ZM14.6795 19.2159C14.6565 19.0391 14.6735 18.8594 14.7292 18.6901L18.5286 19.9409C18.6603 19.541 18.7004 19.1165 18.646 18.699L14.6795 19.2159ZM14.7292 18.6901C14.785 18.5208 14.878 18.3662 15.0016 18.2376L17.8853 21.0097C18.1771 20.7061 18.397 20.3409 18.5286 19.9409L14.7292 18.6901Z" fill="#F0F4FE" mask="url(#path-1-outside-1)"/>
</svg>