<svg width="14" height="12" viewBox="0 0 14 12" fill="none" xmlns="http://www.w3.org/2000/svg">
    <path d="M9.58492 4.53936C9.63082 4.48478 9.65339 4.41623 9.64822 4.34699C9.64306 4.27776 9.61054 4.21279 9.55698 4.16468C9.50341 4.11658 9.43262 4.08878 9.35835 4.08667C9.28407 4.08457 9.21161 4.10831 9.15502 4.15329L3.78132 8.42316L0.943585 7.39816C0.82014 7.35404 0.712853 7.27775 0.634473 7.17835C0.556092 7.07895 0.509914 6.96062 0.501425 6.83743C0.492937 6.71424 0.522494 6.59136 0.586586 6.4834C0.650677 6.37543 0.746608 6.28693 0.862979 6.22839L12.6438 0.0648773C12.7364 0.0182965 12.8408 -0.00393018 12.9458 0.000569634C13.0509 0.00506945 13.1527 0.0361269 13.2403 0.0904271C13.3279 0.144727 13.3981 0.220232 13.4434 0.308884C13.4887 0.397535 13.5073 0.496005 13.4974 0.593785L12.464 10.6546C12.4536 10.7578 12.4176 10.8573 12.3589 10.9452C12.3001 11.0331 12.2202 11.107 12.1254 11.161C12.0307 11.215 11.9238 11.2476 11.8132 11.2562C11.7026 11.2648 11.5914 11.2491 11.4885 11.2105L8.03481 9.96163L5.86673 11.8591C5.78671 11.929 5.68653 11.9753 5.57859 11.9925C5.47064 12.0098 5.35966 11.997 5.25938 11.9559C5.15909 11.9149 5.0739 11.8472 5.01434 11.7614C4.95478 11.6756 4.92346 11.5753 4.92426 11.4731V9.98286L9.58492 4.53936Z" fill="white"/>
</svg>