<svg width="23" height="14" viewBox="0 0 23 14" fill="none" xmlns="http://www.w3.org/2000/svg">
    <path d="M17.5434 2.89823C17.4095 2.89823 17.2752 2.90328 17.1413 2.91327C16.5748 2.11347 15.8453 1.43905 15.0054 0.942866C13.9613 0.32603 12.7681 0 11.5547 0C8.71864 0 6.19802 1.77113 5.1654 4.39716C5.02089 4.3837 4.87551 4.37689 4.72979 4.37689C2.12177 4.37689 0 6.53536 0 9.18847C0 11.8416 2.12177 14 4.72979 14H9.89535V10.92L8.49601 10.92C8.06918 10.6694 7.92294 10.1142 8.16936 9.67994L10.2045 6.0941C10.5052 5.56424 10.9774 4.7425 11.5 4.7425C12.0225 4.74253 12.4947 5.56427 12.7954 6.09413L14.8306 9.67988C15.077 10.1141 14.9308 10.6693 14.504 10.92H13.1047V14H17.5434C20.5522 14 23 11.5099 23 8.44908C23 5.38832 20.5522 2.89823 17.5434 2.89823Z" fill="#899BCA"/>
</svg>