<svg width="14" height="20" viewBox="0 0 14 20" fill="none" xmlns="http://www.w3.org/2000/svg">
    <path d="M6.69633 9.07162C6.07893 9.07162 5.48682 8.8207 5.05026 8.37406C4.61369 7.92743 4.36843 7.32165 4.36843 6.69001C4.36843 6.05836 4.61369 5.45259 5.05026 5.00595C5.48682 4.55931 6.07893 4.30839 6.69633 4.30839C7.31372 4.30839 7.90583 4.55931 8.3424 5.00595C8.77896 5.45259 9.02422 6.05836 9.02422 6.69001C9.02422 7.00277 8.96401 7.31246 8.84702 7.60141C8.73004 7.89036 8.55856 8.15291 8.3424 8.37406C8.12623 8.59522 7.86961 8.77065 7.58718 8.89033C7.30474 9.01002 7.00203 9.07162 6.69633 9.07162ZM6.69633 0.0214844C4.96762 0.0214844 3.30971 0.724059 2.08733 1.97465C0.86495 3.22524 0.178223 4.92141 0.178223 6.69001C0.178223 11.6914 6.69633 19.0744 6.69633 19.0744C6.69633 19.0744 13.2144 11.6914 13.2144 6.69001C13.2144 4.92141 12.5277 3.22524 11.3053 1.97465C10.0829 0.724059 8.42504 0.0214844 6.69633 0.0214844Z" fill="white"/>
</svg>