<svg width="27" height="36" viewBox="0 0 27 36" fill="none" xmlns="http://www.w3.org/2000/svg">
    <ellipse cx="13.5" cy="27.5" rx="4.5" ry="3.5" fill="#414144" fill-opacity="0.24"/>
    <g filter="url(#filter0_d)">
        <path d="M13.5 13.3C12.6002 13.3 11.7372 12.9313 11.1009 12.2749C10.4646 11.6185 10.1071 10.7283 10.1071 9.8C10.1071 8.87174 10.4646 7.9815 11.1009 7.32513C11.7372 6.66875 12.6002 6.3 13.5 6.3C14.3998 6.3 15.2628 6.66875 15.8991 7.32513C16.5354 7.9815 16.8929 8.87174 16.8929 9.8C16.8929 10.2596 16.8051 10.7148 16.6346 11.1394C16.4641 11.564 16.2142 11.9499 15.8991 12.2749C15.5841 12.5999 15.21 12.8577 14.7984 13.0336C14.3868 13.2095 13.9456 13.3 13.5 13.3ZM13.5 0C10.9804 0 8.56408 1.0325 6.78249 2.87035C5.00089 4.70821 4 7.20088 4 9.8C4 17.15 13.5 28 13.5 28C13.5 28 23 17.15 23 9.8C23 7.20088 21.9991 4.70821 20.2175 2.87035C18.4359 1.0325 16.0196 0 13.5 0Z" fill="white"/>
        <path d="M10.7419 12.6229C11.4707 13.3747 12.4624 13.8 13.5 13.8C14.0134 13.8 14.5214 13.6957 14.9949 13.4934C15.4683 13.2911 15.8974 12.995 16.2581 12.6229C16.6188 12.2508 16.9042 11.8099 17.0986 11.3257C17.293 10.8416 17.3929 10.3232 17.3929 9.8C17.3929 8.74406 16.9864 7.72836 16.2581 6.97711C15.5293 6.22533 14.5376 5.8 13.5 5.8C12.4624 5.8 11.4707 6.22533 10.7419 6.97711C10.0136 7.72836 9.60714 8.74406 9.60714 9.8C9.60714 10.8559 10.0136 11.8716 10.7419 12.6229ZM13.5 27.2282C13.492 27.2186 13.4838 27.2088 13.4756 27.1989C13.2185 26.8912 12.8505 26.4424 12.4086 25.8807C11.5242 24.7566 10.3459 23.1828 9.16845 21.3826C7.99011 19.581 6.81855 17.5614 5.94299 15.5454C5.06472 13.523 4.5 11.5394 4.5 9.8C4.5 7.32856 5.45187 4.96135 7.14149 3.21837C8.8306 1.47592 11.1182 0.5 13.5 0.5C15.8818 0.5 18.1694 1.47592 19.8585 3.21837C21.5481 4.96135 22.5 7.32856 22.5 9.8C22.5 11.5394 21.9353 13.523 21.057 15.5454C20.1815 17.5614 19.0099 19.581 17.8316 21.3826C16.6541 23.1828 15.4758 24.7566 14.5914 25.8807C14.1495 26.4424 13.7815 26.8912 13.5244 27.1989C13.5162 27.2088 13.508 27.2186 13.5 27.2282Z" stroke="white"/>
    </g>
    <defs>
        <filter id="filter0_d" x="0" y="0" width="27" height="36" filterUnits="userSpaceOnUse" color-interpolation-filters="sRGB">
        <feFlood flood-opacity="0" result="BackgroundImageFix"/>
        <feColorMatrix in="SourceAlpha" type="matrix" values="0 0 0 0 0 0 0 0 0 0 0 0 0 0 0 0 0 0 127 0"/>
        <feOffset dy="4"/>
        <feGaussianBlur stdDeviation="2"/>
        <feColorMatrix type="matrix" values="0 0 0 0 0 0 0 0 0 0 0 0 0 0 0 0 0 0 0.22 0"/>
        <feBlend mode="normal" in2="BackgroundImageFix" result="effect1_dropShadow"/>
        <feBlend mode="normal" in="SourceGraphic" in2="effect1_dropShadow" result="shape"/>
        </filter>
    </defs>
</svg>