0
SECTION
2
HEADER
9
$ACADVER
1
AC1009
0
ENDSEC
0
SECTION
2
TABLES
0
TABLE
2
VPORT
70
1
0
VPORT
2
*ACTIVE
70
0
10
0.0
20
0.0
11
1.0
21
1.0
12
0.0
22
0.0
13
0.0
23
0.0
14
1.0
24
1.0
15
0.0
25
0.0
16
0.0
26
0.0
36
1.0
17
0.0
27
0.0
37
0.0
40
100.0
41
1.5
42
50.0
43
0.0
44
0.0
50
0.0
51
0.0
71
0
72
100
73
1
74
1
75
0
76
0
77
0
78
0
0
ENDTAB
0
TABLE
2
LAYER
70
27
0
LAYER
2
0
70
64
62
7
6
CONTINUOUS
0
LAYER
2
CONTOUR_60-0
70
64
62
4
6
CONTINUOUS
0
LAYER
2
CONTOUR_65-0
70
64
62
5
6
CONTINUOUS
0
LAYER
2
CONTOUR_LABELS
70
64
62
250
6
CONTINUOUS
0
LAYER
2
RUNWAY
70
64
62
8
6
CONTINUOUS
0
LAYER
2
RUNWAY_LABELS
70
64
62
250
6
CONTINUOUS
0
LAYER
2
TRACK_LABELS
70
64
62
250
6
CONTINUOUS
0
ENDTAB
0
TABLE
2
STYLE
70
1
0
STYLE
2
STANDARD
70
0
40
0.0
41
1.0
50
0.0
71
0
42
0.2
3
TXT
4

0
ENDTAB
0
TABLE
2
VIEW
70
0
0
ENDTAB
0
TABLE
2
UCS
70
0
0
ENDTAB
0
TABLE
2
APPID
70
1
0
APPID
2
ACAD
70
64
0
ENDTAB
0
TABLE
2
DIMSTYLE
70
0
0
ENDTAB
0
ENDSEC
0
SECTION
2
ENTITIES
0
POLYLINE
8
CONTOUR_60-0
66
1
10
0.0
20
0.0
0
VERTEX
8
CONTOUR_60-0
10
31.973944
20
47.089830
0
VERTEX
8
CONTOUR_60-0
10
31.973562
20
47.089878
0
VERTEX
8
CONTOUR_60-0
10
31.973181
20
47.089865
0
VERTEX
8
CONTOUR_60-0
10
31.972800
20
47.089797
0
VERTEX
8
CONTOUR_60-0
10
31.972730
20
47.089782
0
VERTEX
8
CONTOUR_60-0
10
31.972419
20
47.089716
0
VERTEX
8
CONTOUR_60-0
10
31.972038
20
47.089605
0
VERTEX
8
CONTOUR_60-0
10
31.971813
20
47.089522
0
VERTEX
8
CONTOUR_60-0
10
31.971656
20
47.089468
0
VERTEX
8
CONTOUR_60-0
10
31.971275
20
47.089335
0
VERTEX
8
CONTOUR_60-0
10
31.971196
20
47.089289
0
VERTEX
8
CONTOUR_60-0
10
31.970805
20
47.089123
0
VERTEX
8
CONTOUR_60-0
10
31.970513
20
47.089038
0
VERTEX
8
CONTOUR_60-0
10
31.970437
20
47.089002
0
VERTEX
8
CONTOUR_60-0
10
31.970131
20
47.088866
0
VERTEX
8
CONTOUR_60-0
10
31.969853
20
47.088742
0
VERTEX
8
CONTOUR_60-0
10
31.969750
20
47.088696
0
VERTEX
8
CONTOUR_60-0
10
31.969292
20
47.088482
0
VERTEX
8
CONTOUR_60-0
10
31.969177
20
47.088417
0
VERTEX
8
CONTOUR_60-0
10
31.969068
20
47.088372
0
VERTEX
8
CONTOUR_60-0
10
31.968988
20
47.088350
0
VERTEX
8
CONTOUR_60-0
10
31.968842
20
47.088284
0
VERTEX
8
CONTOUR_60-0
10
31.968504
20
47.088102
0
VERTEX
8
CONTOUR_60-0
10
31.968225
20
47.087996
0
VERTEX
8
CONTOUR_60-0
10
31.968158
20
47.087962
0
VERTEX
8
CONTOUR_60-0
10
31.967897
20
47.087814
0
VERTEX
8
CONTOUR_60-0
10
31.967463
20
47.087627
0
VERTEX
8
CONTOUR_60-0
10
31.967084
20
47.087442
0
VERTEX
8
CONTOUR_60-0
10
31.966804
20
47.087300
0
VERTEX
8
CONTOUR_60-0
10
31.966700
20
47.087261
0
VERTEX
8
CONTOUR_60-0
10
31.966338
20
47.087098
0
VERTEX
8
CONTOUR_60-0
10
31.965989
20
47.086922
0
VERTEX
8
CONTOUR_60-0
10
31.965969
20
47.086911
0
VERTEX
8
CONTOUR_60-0
10
31.965938
20
47.086898
0
VERTEX
8
CONTOUR_60-0
10
31.965175
20
47.086531
0
VERTEX
8
CONTOUR_60-0
10
31.964912
20
47.086401
0
VERTEX
8
CONTOUR_60-0
10
31.964413
20
47.086161
0
VERTEX
8
CONTOUR_60-0
10
31.963846
20
47.085881
0
VERTEX
8
CONTOUR_60-0
10
31.963650
20
47.085784
0
VERTEX
8
CONTOUR_60-0
10
31.962888
20
47.085397
0
VERTEX
8
CONTOUR_60-0
10
31.962820
20
47.085361
0
VERTEX
8
CONTOUR_60-0
10
31.962324
20
47.085089
0
VERTEX
8
CONTOUR_60-0
10
31.962125
20
47.085002
0
VERTEX
8
CONTOUR_60-0
10
31.961819
20
47.084841
0
VERTEX
8
CONTOUR_60-0
10
31.961650
20
47.084743
0
VERTEX
8
CONTOUR_60-0
10
31.961363
20
47.084609
0
VERTEX
8
CONTOUR_60-0
10
31.960806
20
47.084321
0
VERTEX
8
CONTOUR_60-0
10
31.960658
20
47.084242
0
VERTEX
8
CONTOUR_60-0
10
31.960600
20
47.084218
0
VERTEX
8
CONTOUR_60-0
10
31.960214
20
47.084028
0
VERTEX
8
CONTOUR_60-0
10
31.959838
20
47.083829
0
VERTEX
8
CONTOUR_60-0
10
31.959784
20
47.083800
0
VERTEX
8
CONTOUR_60-0
10
31.959075
20
47.083440
0
VERTEX
8
CONTOUR_60-0
10
31.958774
20
47.083280
0
VERTEX
8
CONTOUR_60-0
10
31.958439
20
47.083108
0
VERTEX
8
CONTOUR_60-0
10
31.958313
20
47.083047
0
VERTEX
8
CONTOUR_60-0
10
31.958040
20
47.082908
0
VERTEX
8
CONTOUR_60-0
10
31.957882
20
47.082827
0
VERTEX
8
CONTOUR_60-0
10
31.957756
20
47.082760
0
VERTEX
8
CONTOUR_60-0
10
31.957550
20
47.082655
0
VERTEX
8
CONTOUR_60-0
10
31.957372
20
47.082561
0
VERTEX
8
CONTOUR_60-0
10
31.956788
20
47.082259
0
VERTEX
8
CONTOUR_60-0
10
31.956752
20
47.082240
0
VERTEX
8
CONTOUR_60-0
10
31.956226
20
47.081967
0
VERTEX
8
CONTOUR_60-0
10
31.956026
20
47.081863
0
VERTEX
8
CONTOUR_60-0
10
31.955758
20
47.081719
0
VERTEX
8
CONTOUR_60-0
10
31.955563
20
47.081617
0
VERTEX
8
CONTOUR_60-0
10
31.955263
20
47.081463
0
VERTEX
8
CONTOUR_60-0
10
31.954741
20
47.081199
0
VERTEX
8
CONTOUR_60-0
10
31.954564
20
47.081113
0
VERTEX
8
CONTOUR_60-0
10
31.954501
20
47.081080
0
VERTEX
8
CONTOUR_60-0
10
31.953739
20
47.080679
0
VERTEX
8
CONTOUR_60-0
10
31.953738
20
47.080679
0
VERTEX
8
CONTOUR_60-0
10
31.952976
20
47.080290
0
VERTEX
8
CONTOUR_60-0
10
31.952728
20
47.080159
0
VERTEX
8
CONTOUR_60-0
10
31.952214
20
47.079886
0
VERTEX
8
CONTOUR_60-0
10
31.951768
20
47.079638
0
VERTEX
8
CONTOUR_60-0
10
31.951451
20
47.079466
0
VERTEX
8
CONTOUR_60-0
10
31.950848
20
47.079118
0
VERTEX
8
CONTOUR_60-0
10
31.950689
20
47.079028
0
VERTEX
8
CONTOUR_60-0
10
31.949968
20
47.078598
0
VERTEX
8
CONTOUR_60-0
10
31.949927
20
47.078574
0
VERTEX
8
CONTOUR_60-0
10
31.949165
20
47.078137
0
VERTEX
8
CONTOUR_60-0
10
31.949059
20
47.078077
0
VERTEX
8
CONTOUR_60-0
10
31.948402
20
47.077702
0
VERTEX
8
CONTOUR_60-0
10
31.948160
20
47.077557
0
VERTEX
8
CONTOUR_60-0
10
31.948021
20
47.077480
0
VERTEX
8
CONTOUR_60-0
10
31.947701
20
47.077297
0
VERTEX
8
CONTOUR_60-0
10
31.947640
20
47.077263
0
VERTEX
8
CONTOUR_60-0
10
31.947259
20
47.077050
0
VERTEX
8
CONTOUR_60-0
10
31.947235
20
47.077036
0
VERTEX
8
CONTOUR_60-0
10
31.946878
20
47.076840
0
VERTEX
8
CONTOUR_60-0
10
31.946806
20
47.076801
0
VERTEX
8
CONTOUR_60-0
10
31.946440
20
47.076594
0
VERTEX
8
CONTOUR_60-0
10
31.946306
20
47.076516
0
VERTEX
8
CONTOUR_60-0
10
31.946115
20
47.076408
0
VERTEX
8
CONTOUR_60-0
10
31.945856
20
47.076256
0
VERTEX
8
CONTOUR_60-0
10
31.945734
20
47.076184
0
VERTEX
8
CONTOUR_60-0
10
31.945411
20
47.075996
0
VERTEX
8
CONTOUR_60-0
10
31.945353
20
47.075962
0
VERTEX
8
CONTOUR_60-0
10
31.944980
20
47.075736
0
VERTEX
8
CONTOUR_60-0
10
31.944972
20
47.075730
0
VERTEX
8
CONTOUR_60-0
10
31.944782
20
47.075605
0
VERTEX
8
CONTOUR_60-0
10
31.944591
20
47.075478
0
VERTEX
8
CONTOUR_60-0
10
31.944588
20
47.075475
0
VERTEX
8
CONTOUR_60-0
10
31.944210
20
47.075241
0
VERTEX
8
CONTOUR_60-0
10
31.944168
20
47.075215
0
VERTEX
8
CONTOUR_60-0
10
31.943829
20
47.075004
0
VERTEX
8
CONTOUR_60-0
10
31.943751
20
47.074955
0
VERTEX
8
CONTOUR_60-0
10
31.943448
20
47.074773
0
VERTEX
8
CONTOUR_60-0
10
31.943321
20
47.074695
0
VERTEX
8
CONTOUR_60-0
10
31.943066
20
47.074536
0
VERTEX
8
CONTOUR_60-0
10
31.942904
20
47.074434
0
VERTEX
8
CONTOUR_60-0
10
31.942685
20
47.074309
0
VERTEX
8
CONTOUR_60-0
10
31.942462
20
47.074174
0
VERTEX
8
CONTOUR_60-0
10
31.942304
20
47.074074
0
VERTEX
8
CONTOUR_60-0
10
31.942048
20
47.073914
0
VERTEX
8
CONTOUR_60-0
10
31.941923
20
47.073840
0
VERTEX
8
CONTOUR_60-0
10
31.941624
20
47.073654
0
VERTEX
8
CONTOUR_60-0
10
31.941542
20
47.073601
0
VERTEX
8
CONTOUR_60-0
10
31.941235
20
47.073394
0
VERTEX
8
CONTOUR_60-0
10
31.941161
20
47.073346
0
VERTEX
8
CONTOUR_60-0
10
31.940845
20
47.073133
0
VERTEX
8
CONTOUR_60-0
10
31.940780
20
47.073091
0
VERTEX
8
CONTOUR_60-0
10
31.940454
20
47.072873
0
VERTEX
8
CONTOUR_60-0
10
31.940399
20
47.072839
0
VERTEX
8
CONTOUR_60-0
10
31.940052
20
47.072613
0
VERTEX
8
CONTOUR_60-0
10
31.940018
20
47.072589
0
VERTEX
8
CONTOUR_60-0
10
31.939672
20
47.072353
0
VERTEX
8
CONTOUR_60-0
10
31.939637
20
47.072330
0
VERTEX
8
CONTOUR_60-0
10
31.939278
20
47.072093
0
VERTEX
8
CONTOUR_60-0
10
31.939266
20
47.072085
0
VERTEX
8
CONTOUR_60-0
10
31.939255
20
47.072078
0
VERTEX
8
CONTOUR_60-0
10
31.938888
20
47.071832
0
VERTEX
8
CONTOUR_60-0
10
31.938874
20
47.071823
0
VERTEX
8
CONTOUR_60-0
10
31.938514
20
47.071572
0
VERTEX
8
CONTOUR_60-0
10
31.938493
20
47.071558
0
VERTEX
8
CONTOUR_60-0
10
31.938151
20
47.071312
0
VERTEX
8
CONTOUR_60-0
10
31.938112
20
47.071284
0
VERTEX
8
CONTOUR_60-0
10
31.937792
20
47.071052
0
VERTEX
8
CONTOUR_60-0
10
31.937731
20
47.071009
0
VERTEX
8
CONTOUR_60-0
10
31.937430
20
47.070791
0
VERTEX
8
CONTOUR_60-0
10
31.937350
20
47.070735
0
VERTEX
8
CONTOUR_60-0
10
31.937065
20
47.070531
0
VERTEX
8
CONTOUR_60-0
10
31.937016
20
47.070499
0
VERTEX
8
CONTOUR_60-0
10
31.936969
20
47.070464
0
VERTEX
8
CONTOUR_60-0
10
31.936700
20
47.070271
0
VERTEX
8
CONTOUR_60-0
10
31.936588
20
47.070190
0
VERTEX
8
CONTOUR_60-0
10
31.936350
20
47.070011
0
VERTEX
8
CONTOUR_60-0
10
31.936207
20
47.069901
0
VERTEX
8
CONTOUR_60-0
10
31.936015
20
47.069750
0
VERTEX
8
CONTOUR_60-0
10
31.935826
20
47.069600
0
VERTEX
8
CONTOUR_60-0
10
31.935686
20
47.069490
0
VERTEX
8
CONTOUR_60-0
10
31.935445
20
47.069301
0
VERTEX
8
CONTOUR_60-0
10
31.935350
20
47.069230
0
VERTEX
8
CONTOUR_60-0
10
31.935064
20
47.069017
0
VERTEX
8
CONTOUR_60-0
10
31.934993
20
47.068970
0
VERTEX
8
CONTOUR_60-0
10
31.934683
20
47.068752
0
VERTEX
8
CONTOUR_60-0
10
31.934608
20
47.068709
0
VERTEX
8
CONTOUR_60-0
10
31.934302
20
47.068527
0
VERTEX
8
CONTOUR_60-0
10
31.933921
20
47.068471
0
VERTEX
8
CONTOUR_60-0
10
31.933718
20
47.068449
0
VERTEX
8
CONTOUR_60-0
10
31.933540
20
47.068433
0
VERTEX
8
CONTOUR_60-0
10
31.933211
20
47.068414
0
VERTEX
8
CONTOUR_60-0
10
31.933159
20
47.068410
0
VERTEX
8
CONTOUR_60-0
10
31.933102
20
47.068411
0
VERTEX
8
CONTOUR_60-0
10
31.932778
20
47.068397
0
VERTEX
8
CONTOUR_60-0
10
31.932397
20
47.068369
0
VERTEX
8
CONTOUR_60-0
10
31.932016
20
47.068328
0
VERTEX
8
CONTOUR_60-0
10
31.931635
20
47.068262
0
VERTEX
8
CONTOUR_60-0
10
31.931358
20
47.068189
0
VERTEX
8
CONTOUR_60-0
10
31.931254
20
47.068163
0
VERTEX
8
CONTOUR_60-0
10
31.930873
20
47.068040
0
VERTEX
8
CONTOUR_60-0
10
31.930593
20
47.067929
0
VERTEX
8
CONTOUR_60-0
10
31.930492
20
47.067889
0
VERTEX
8
CONTOUR_60-0
10
31.930111
20
47.067719
0
VERTEX
8
CONTOUR_60-0
10
31.930009
20
47.067669
0
VERTEX
8
CONTOUR_60-0
10
31.929730
20
47.067533
0
VERTEX
8
CONTOUR_60-0
10
31.929494
20
47.067408
0
VERTEX
8
CONTOUR_60-0
10
31.929349
20
47.067334
0
VERTEX
8
CONTOUR_60-0
10
31.928990
20
47.067148
0
VERTEX
8
CONTOUR_60-0
10
31.928968
20
47.067136
0
VERTEX
8
CONTOUR_60-0
10
31.928587
20
47.066923
0
VERTEX
8
CONTOUR_60-0
10
31.928525
20
47.066888
0
VERTEX
8
CONTOUR_60-0
10
31.928206
20
47.066708
0
VERTEX
8
CONTOUR_60-0
10
31.928070
20
47.066628
0
VERTEX
8
CONTOUR_60-0
10
31.927825
20
47.066476
0
VERTEX
8
CONTOUR_60-0
10
31.927653
20
47.066367
0
VERTEX
8
CONTOUR_60-0
10
31.927444
20
47.066229
0
VERTEX
8
CONTOUR_60-0
10
31.927259
20
47.066107
0
VERTEX
8
CONTOUR_60-0
10
31.927063
20
47.065976
0
VERTEX
8
CONTOUR_60-0
10
31.926864
20
47.065847
0
VERTEX
8
CONTOUR_60-0
10
31.926682
20
47.065730
0
VERTEX
8
CONTOUR_60-0
10
31.926461
20
47.065587
0
VERTEX
8
CONTOUR_60-0
10
31.926301
20
47.065484
0
VERTEX
8
CONTOUR_60-0
10
31.926051
20
47.065326
0
VERTEX
8
CONTOUR_60-0
10
31.925920
20
47.065243
0
VERTEX
8
CONTOUR_60-0
10
31.925784
20
47.065159
0
VERTEX
8
CONTOUR_60-0
10
31.925643
20
47.065066
0
VERTEX
8
CONTOUR_60-0
10
31.925539
20
47.064997
0
VERTEX
8
CONTOUR_60-0
10
31.925397
20
47.064903
0
VERTEX
8
CONTOUR_60-0
10
31.925258
20
47.064806
0
VERTEX
8
CONTOUR_60-0
10
31.925158
20
47.064736
0
VERTEX
8
CONTOUR_60-0
10
31.924874
20
47.064546
0
VERTEX
8
CONTOUR_60-0
10
31.924777
20
47.064483
0
VERTEX
8
CONTOUR_60-0
10
31.924467
20
47.064285
0
VERTEX
8
CONTOUR_60-0
10
31.924396
20
47.064240
0
VERTEX
8
CONTOUR_60-0
10
31.924070
20
47.064025
0
VERTEX
8
CONTOUR_60-0
10
31.924015
20
47.063989
0
VERTEX
8
CONTOUR_60-0
10
31.923681
20
47.063765
0
VERTEX
8
CONTOUR_60-0
10
31.923634
20
47.063732
0
VERTEX
8
CONTOUR_60-0
10
31.923303
20
47.063504
0
VERTEX
8
CONTOUR_60-0
10
31.923253
20
47.063471
0
VERTEX
8
CONTOUR_60-0
10
31.922934
20
47.063244
0
VERTEX
8
CONTOUR_60-0
10
31.922872
20
47.063200
0
VERTEX
8
CONTOUR_60-0
10
31.922711
20
47.063094
0
VERTEX
8
CONTOUR_60-0
10
31.922566
20
47.062984
0
VERTEX
8
CONTOUR_60-0
10
31.922491
20
47.062931
0
VERTEX
8
CONTOUR_60-0
10
31.922156
20
47.062724
0
VERTEX
8
CONTOUR_60-0
10
31.922110
20
47.062698
0
VERTEX
8
CONTOUR_60-0
10
31.921730
20
47.062474
0
VERTEX
8
CONTOUR_60-0
10
31.921711
20
47.062463
0
VERTEX
8
CONTOUR_60-0
10
31.921349
20
47.062260
0
VERTEX
8
CONTOUR_60-0
10
31.921241
20
47.062203
0
VERTEX
8
CONTOUR_60-0
10
31.920968
20
47.062070
0
VERTEX
8
CONTOUR_60-0
10
31.920718
20
47.061943
0
VERTEX
8
CONTOUR_60-0
10
31.920640
20
47.061906
0
VERTEX
8
CONTOUR_60-0
10
31.920587
20
47.061877
0
VERTEX
8
CONTOUR_60-0
10
31.920224
20
47.061682
0
VERTEX
8
CONTOUR_60-0
10
31.920206
20
47.061672
0
VERTEX
8
CONTOUR_60-0
10
31.919825
20
47.061446
0
VERTEX
8
CONTOUR_60-0
10
31.919786
20
47.061422
0
VERTEX
8
CONTOUR_60-0
10
31.919444
20
47.061200
0
VERTEX
8
CONTOUR_60-0
10
31.919388
20
47.061162
0
VERTEX
8
CONTOUR_60-0
10
31.919063
20
47.060939
0
VERTEX
8
CONTOUR_60-0
10
31.919004
20
47.060902
0
VERTEX
8
CONTOUR_60-0
10
31.918682
20
47.060710
0
VERTEX
8
CONTOUR_60-0
10
31.918563
20
47.060641
0
VERTEX
8
CONTOUR_60-0
10
31.918301
20
47.060493
0
VERTEX
8
CONTOUR_60-0
10
31.918101
20
47.060381
0
VERTEX
8
CONTOUR_60-0
10
31.917920
20
47.060282
0
VERTEX
8
CONTOUR_60-0
10
31.917616
20
47.060121
0
VERTEX
8
CONTOUR_60-0
10
31.917539
20
47.060080
0
VERTEX
8
CONTOUR_60-0
10
31.917159
20
47.059865
0
VERTEX
8
CONTOUR_60-0
10
31.917150
20
47.059860
0
VERTEX
8
CONTOUR_60-0
10
31.916778
20
47.059664
0
VERTEX
8
CONTOUR_60-0
10
31.916651
20
47.059600
0
VERTEX
8
CONTOUR_60-0
10
31.916397
20
47.059483
0
VERTEX
8
CONTOUR_60-0
10
31.916114
20
47.059340
0
VERTEX
8
CONTOUR_60-0
10
31.916016
20
47.059290
0
VERTEX
8
CONTOUR_60-0
10
31.915637
20
47.059079
0
VERTEX
8
CONTOUR_60-0
10
31.915635
20
47.059078
0
VERTEX
8
CONTOUR_60-0
10
31.915254
20
47.058848
0
VERTEX
8
CONTOUR_60-0
10
31.915206
20
47.058819
0
VERTEX
8
CONTOUR_60-0
10
31.914873
20
47.058611
0
VERTEX
8
CONTOUR_60-0
10
31.914782
20
47.058559
0
VERTEX
8
CONTOUR_60-0
10
31.914492
20
47.058398
0
VERTEX
8
CONTOUR_60-0
10
31.914315
20
47.058298
0
VERTEX
8
CONTOUR_60-0
10
31.914112
20
47.058183
0
VERTEX
8
CONTOUR_60-0
10
31.913852
20
47.058038
0
VERTEX
8
CONTOUR_60-0
10
31.913731
20
47.057971
0
VERTEX
8
CONTOUR_60-0
10
31.913377
20
47.057778
0
VERTEX
8
CONTOUR_60-0
10
31.913350
20
47.057763
0
VERTEX
8
CONTOUR_60-0
10
31.912969
20
47.057567
0
VERTEX
8
CONTOUR_60-0
10
31.912862
20
47.057518
0
VERTEX
8
CONTOUR_60-0
10
31.912588
20
47.057405
0
VERTEX
8
CONTOUR_60-0
10
31.912237
20
47.057257
0
VERTEX
8
CONTOUR_60-0
10
31.912207
20
47.057244
0
VERTEX
8
CONTOUR_60-0
10
31.911826
20
47.057075
0
VERTEX
8
CONTOUR_60-0
10
31.911666
20
47.056997
0
VERTEX
8
CONTOUR_60-0
10
31.911446
20
47.056890
0
VERTEX
8
CONTOUR_60-0
10
31.911152
20
47.056737
0
VERTEX
8
CONTOUR_60-0
10
31.911065
20
47.056690
0
VERTEX
8
CONTOUR_60-0
10
31.910684
20
47.056479
0
VERTEX
8
CONTOUR_60-0
10
31.910678
20
47.056476
0
VERTEX
8
CONTOUR_60-0
10
31.910303
20
47.056264
0
VERTEX
8
CONTOUR_60-0
10
31.910216
20
47.056216
0
VERTEX
8
CONTOUR_60-0
10
31.909922
20
47.056064
0
VERTEX
8
CONTOUR_60-0
10
31.909700
20
47.055956
0
VERTEX
8
CONTOUR_60-0
10
31.909541
20
47.055878
0
VERTEX
8
CONTOUR_60-0
10
31.909160
20
47.055707
0
VERTEX
8
CONTOUR_60-0
10
31.909133
20
47.055695
0
VERTEX
8
CONTOUR_60-0
10
31.908780
20
47.055548
0
VERTEX
8
CONTOUR_60-0
10
31.908515
20
47.055435
0
VERTEX
8
CONTOUR_60-0
10
31.908399
20
47.055386
0
VERTEX
8
CONTOUR_60-0
10
31.908018
20
47.055218
0
VERTEX
8
CONTOUR_60-0
10
31.907926
20
47.055174
0
VERTEX
8
CONTOUR_60-0
10
31.907637
20
47.055037
0
VERTEX
8
CONTOUR_60-0
10
31.907383
20
47.054914
0
VERTEX
8
CONTOUR_60-0
10
31.907256
20
47.054852
0
VERTEX
8
CONTOUR_60-0
10
31.906875
20
47.054666
0
VERTEX
8
CONTOUR_60-0
10
31.906849
20
47.054654
0
VERTEX
8
CONTOUR_60-0
10
31.906495
20
47.054502
0
VERTEX
8
CONTOUR_60-0
10
31.906251
20
47.054393
0
VERTEX
8
CONTOUR_60-0
10
31.906114
20
47.054334
0
VERTEX
8
CONTOUR_60-0
10
31.905733
20
47.054160
0
VERTEX
8
CONTOUR_60-0
10
31.905676
20
47.054133
0
VERTEX
8
CONTOUR_60-0
10
31.905352
20
47.053978
0
VERTEX
8
CONTOUR_60-0
10
31.905154
20
47.053873
0
VERTEX
8
CONTOUR_60-0
10
31.904971
20
47.053777
0
VERTEX
8
CONTOUR_60-0
10
31.904657
20
47.053612
0
VERTEX
8
CONTOUR_60-0
10
31.904591
20
47.053578
0
VERTEX
8
CONTOUR_60-0
10
31.904210
20
47.053369
0
VERTEX
8
CONTOUR_60-0
10
31.904196
20
47.053362
0
VERTEX
8
CONTOUR_60-0
10
31.904180
20
47.053352
0
VERTEX
8
CONTOUR_60-0
10
31.903829
20
47.053152
0
VERTEX
8
CONTOUR_60-0
10
31.903719
20
47.053092
0
VERTEX
8
CONTOUR_60-0
10
31.903448
20
47.052938
0
VERTEX
8
CONTOUR_60-0
10
31.903267
20
47.052831
0
VERTEX
8
CONTOUR_60-0
10
31.903067
20
47.052710
0
VERTEX
8
CONTOUR_60-0
10
31.902852
20
47.052571
0
VERTEX
8
CONTOUR_60-0
10
31.902687
20
47.052457
0
VERTEX
8
CONTOUR_60-0
10
31.902478
20
47.052311
0
VERTEX
8
CONTOUR_60-0
10
31.902306
20
47.052174
0
VERTEX
8
CONTOUR_60-0
10
31.902155
20
47.052050
0
VERTEX
8
CONTOUR_60-0
10
31.901925
20
47.051838
0
VERTEX
8
CONTOUR_60-0
10
31.901871
20
47.051790
0
VERTEX
8
CONTOUR_60-0
10
31.901628
20
47.051530
0
VERTEX
8
CONTOUR_60-0
10
31.901544
20
47.051434
0
VERTEX
8
CONTOUR_60-0
10
31.901391
20
47.051269
0
VERTEX
8
CONTOUR_60-0
10
31.901164
20
47.051027
0
VERTEX
8
CONTOUR_60-0
10
31.901145
20
47.051009
0
VERTEX
8
CONTOUR_60-0
10
31.900874
20
47.050749
0
VERTEX
8
CONTOUR_60-0
10
31.900783
20
47.050672
0
VERTEX
8
CONTOUR_60-0
10
31.900562
20
47.050488
0
VERTEX
8
CONTOUR_60-0
10
31.900402
20
47.050371
0
VERTEX
8
CONTOUR_60-0
10
31.900192
20
47.050228
0
VERTEX
8
CONTOUR_60-0
10
31.900022
20
47.050114
0
VERTEX
8
CONTOUR_60-0
10
31.899796
20
47.049967
0
VERTEX
8
CONTOUR_60-0
10
31.899641
20
47.049887
0
VERTEX
8
CONTOUR_60-0
10
31.899284
20
47.049707
0
VERTEX
8
CONTOUR_60-0
10
31.899260
20
47.049696
0
VERTEX
8
CONTOUR_60-0
10
31.898879
20
47.049498
0
VERTEX
8
CONTOUR_60-0
10
31.898781
20
47.049447
0
VERTEX
8
CONTOUR_60-0
10
31.898499
20
47.049307
0
VERTEX
8
CONTOUR_60-0
10
31.898257
20
47.049186
0
VERTEX
8
CONTOUR_60-0
10
31.898118
20
47.049117
0
VERTEX
8
CONTOUR_60-0
10
31.897737
20
47.048935
0
VERTEX
8
CONTOUR_60-0
10
31.897718
20
47.048926
0
VERTEX
8
CONTOUR_60-0
10
31.897356
20
47.048748
0
VERTEX
8
CONTOUR_60-0
10
31.897176
20
47.048666
0
VERTEX
8
CONTOUR_60-0
10
31.896976
20
47.048571
0
VERTEX
8
CONTOUR_60-0
10
31.896647
20
47.048405
0
VERTEX
8
CONTOUR_60-0
10
31.896595
20
47.048379
0
VERTEX
8
CONTOUR_60-0
10
31.896389
20
47.048285
0
VERTEX
8
CONTOUR_60-0
10
31.896214
20
47.048204
0
VERTEX
8
CONTOUR_60-0
10
31.896095
20
47.048145
0
VERTEX
8
CONTOUR_60-0
10
31.895833
20
47.048006
0
VERTEX
8
CONTOUR_60-0
10
31.895590
20
47.047884
0
VERTEX
8
CONTOUR_60-0
10
31.895453
20
47.047817
0
VERTEX
8
CONTOUR_60-0
10
31.895090
20
47.047624
0
VERTEX
8
CONTOUR_60-0
10
31.895072
20
47.047613
0
VERTEX
8
CONTOUR_60-0
10
31.894691
20
47.047418
0
VERTEX
8
CONTOUR_60-0
10
31.894587
20
47.047364
0
VERTEX
8
CONTOUR_60-0
10
31.894310
20
47.047216
0
VERTEX
8
CONTOUR_60-0
10
31.894092
20
47.047103
0
VERTEX
8
CONTOUR_60-0
10
31.893930
20
47.047019
0
VERTEX
8
CONTOUR_60-0
10
31.893587
20
47.046843
0
VERTEX
8
CONTOUR_60-0
10
31.893549
20
47.046823
0
VERTEX
8
CONTOUR_60-0
10
31.893168
20
47.046627
0
VERTEX
8
CONTOUR_60-0
10
31.893080
20
47.046582
0
VERTEX
8
CONTOUR_60-0
10
31.892788
20
47.046432
0
VERTEX
8
CONTOUR_60-0
10
31.892569
20
47.046322
0
VERTEX
8
CONTOUR_60-0
10
31.892407
20
47.046239
0
VERTEX
8
CONTOUR_60-0
10
31.892064
20
47.046061
0
VERTEX
8
CONTOUR_60-0
10
31.892026
20
47.046042
0
VERTEX
8
CONTOUR_60-0
10
31.891645
20
47.045845
0
VERTEX
8
CONTOUR_60-0
10
31.891565
20
47.045801
0
VERTEX
8
CONTOUR_60-0
10
31.891265
20
47.045637
0
VERTEX
8
CONTOUR_60-0
10
31.891083
20
47.045541
0
VERTEX
8
CONTOUR_60-0
10
31.890884
20
47.045431
0
VERTEX
8
CONTOUR_60-0
10
31.890764
20
47.045362
0
VERTEX
8
CONTOUR_60-0
10
31.890622
20
47.045280
0
VERTEX
8
CONTOUR_60-0
10
31.890557
20
47.045243
0
VERTEX
8
CONTOUR_60-0
10
31.890503
20
47.045212
0
VERTEX
8
CONTOUR_60-0
10
31.890348
20
47.045126
0
VERTEX
8
CONTOUR_60-0
10
31.890158
20
47.045020
0
VERTEX
8
CONTOUR_60-0
10
31.890123
20
47.045000
0
VERTEX
8
CONTOUR_60-0
10
31.889742
20
47.044779
0
VERTEX
8
CONTOUR_60-0
10
31.889707
20
47.044759
0
VERTEX
8
CONTOUR_60-0
10
31.889361
20
47.044565
0
VERTEX
8
CONTOUR_60-0
10
31.889246
20
47.044499
0
VERTEX
8
CONTOUR_60-0
10
31.888981
20
47.044348
0
VERTEX
8
CONTOUR_60-0
10
31.888783
20
47.044239
0
VERTEX
8
CONTOUR_60-0
10
31.888600
20
47.044136
0
VERTEX
8
CONTOUR_60-0
10
31.888317
20
47.043978
0
VERTEX
8
CONTOUR_60-0
10
31.888219
20
47.043923
0
VERTEX
8
CONTOUR_60-0
10
31.887841
20
47.043718
0
VERTEX
8
CONTOUR_60-0
10
31.887839
20
47.043716
0
VERTEX
8
CONTOUR_60-0
10
31.887458
20
47.043506
0
VERTEX
8
CONTOUR_60-0
10
31.887363
20
47.043457
0
VERTEX
8
CONTOUR_60-0
10
31.887077
20
47.043305
0
VERTEX
8
CONTOUR_60-0
10
31.886885
20
47.043197
0
VERTEX
8
CONTOUR_60-0
10
31.886697
20
47.043093
0
VERTEX
8
CONTOUR_60-0
10
31.886395
20
47.042936
0
VERTEX
8
CONTOUR_60-0
10
31.886316
20
47.042894
0
VERTEX
8
CONTOUR_60-0
10
31.885935
20
47.042679
0
VERTEX
8
CONTOUR_60-0
10
31.885930
20
47.042676
0
VERTEX
8
CONTOUR_60-0
10
31.885555
20
47.042468
0
VERTEX
8
CONTOUR_60-0
10
31.885466
20
47.042416
0
VERTEX
8
CONTOUR_60-0
10
31.885174
20
47.042252
0
VERTEX
8
CONTOUR_60-0
10
31.885002
20
47.042155
0
VERTEX
8
CONTOUR_60-0
10
31.884793
20
47.042023
0
VERTEX
8
CONTOUR_60-0
10
31.884585
20
47.041895
0
VERTEX
8
CONTOUR_60-0
10
31.884413
20
47.041791
0
VERTEX
8
CONTOUR_60-0
10
31.884159
20
47.041634
0
VERTEX
8
CONTOUR_60-0
10
31.884032
20
47.041556
0
VERTEX
8
CONTOUR_60-0
10
31.883726
20
47.041374
0
VERTEX
8
CONTOUR_60-0
10
31.883652
20
47.041328
0
VERTEX
8
CONTOUR_60-0
10
31.883302
20
47.041113
0
VERTEX
8
CONTOUR_60-0
10
31.883286
20
47.041103
0
VERTEX
8
CONTOUR_60-0
10
31.883271
20
47.041094
0
VERTEX
8
CONTOUR_60-0
10
31.882890
20
47.040855
0
VERTEX
8
CONTOUR_60-0
10
31.882887
20
47.040853
0
VERTEX
8
CONTOUR_60-0
10
31.882510
20
47.040624
0
VERTEX
8
CONTOUR_60-0
10
31.882459
20
47.040593
0
VERTEX
8
CONTOUR_60-0
10
31.882129
20
47.040386
0
VERTEX
8
CONTOUR_60-0
10
31.882040
20
47.040332
0
VERTEX
8
CONTOUR_60-0
10
31.881749
20
47.040156
0
VERTEX
8
CONTOUR_60-0
10
31.881610
20
47.040072
0
VERTEX
8
CONTOUR_60-0
10
31.881368
20
47.039920
0
VERTEX
8
CONTOUR_60-0
10
31.881187
20
47.039811
0
VERTEX
8
CONTOUR_60-0
10
31.880987
20
47.039690
0
VERTEX
8
CONTOUR_60-0
10
31.880757
20
47.039551
0
VERTEX
8
CONTOUR_60-0
10
31.880607
20
47.039456
0
VERTEX
8
CONTOUR_60-0
10
31.880336
20
47.039290
0
VERTEX
8
CONTOUR_60-0
10
31.880226
20
47.039223
0
VERTEX
8
CONTOUR_60-0
10
31.879906
20
47.039030
0
VERTEX
8
CONTOUR_60-0
10
31.879846
20
47.038993
0
VERTEX
8
CONTOUR_60-0
10
31.879611
20
47.038850
0
VERTEX
8
CONTOUR_60-0
10
31.879085
20
47.038524
0
VERTEX
8
CONTOUR_60-0
10
31.879059
20
47.038509
0
VERTEX
8
CONTOUR_60-0
10
31.878323
20
47.038052
0
VERTEX
8
CONTOUR_60-0
10
31.878217
20
47.037988
0
VERTEX
8
CONTOUR_60-0
10
31.877562
20
47.037577
0
VERTEX
8
CONTOUR_60-0
10
31.877380
20
47.037467
0
VERTEX
8
CONTOUR_60-0
10
31.876801
20
47.037101
0
VERTEX
8
CONTOUR_60-0
10
31.876546
20
47.036946
0
VERTEX
8
CONTOUR_60-0
10
31.876040
20
47.036618
0
VERTEX
8
CONTOUR_60-0
10
31.875728
20
47.036425
0
VERTEX
8
CONTOUR_60-0
10
31.875435
20
47.036211
0
VERTEX
8
CONTOUR_60-0
10
31.875279
20
47.036117
0
VERTEX
8
CONTOUR_60-0
10
31.874943
20
47.035905
0
VERTEX
8
CONTOUR_60-0
10
31.874815
20
47.035803
0
VERTEX
8
CONTOUR_60-0
10
31.874518
20
47.035607
0
VERTEX
8
CONTOUR_60-0
10
31.874179
20
47.035384
0
VERTEX
8
CONTOUR_60-0
10
31.873905
20
47.035182
0
VERTEX
8
CONTOUR_60-0
10
31.873757
20
47.035092
0
VERTEX
8
CONTOUR_60-0
10
31.873425
20
47.034863
0
VERTEX
8
CONTOUR_60-0
10
31.873297
20
47.034760
0
VERTEX
8
CONTOUR_60-0
10
31.872996
20
47.034559
0
VERTEX
8
CONTOUR_60-0
10
31.872685
20
47.034342
0
VERTEX
8
CONTOUR_60-0
10
31.872398
20
47.034118
0
VERTEX
8
CONTOUR_60-0
10
31.872235
20
47.034012
0
VERTEX
8
CONTOUR_60-0
10
31.871957
20
47.033821
0
VERTEX
8
CONTOUR_60-0
10
31.871817
20
47.033703
0
VERTEX
8
CONTOUR_60-0
10
31.871474
20
47.033471
0
VERTEX
8
CONTOUR_60-0
10
31.871220
20
47.033300
0
VERTEX
8
CONTOUR_60-0
10
31.870899
20
47.033046
0
VERTEX
8
CONTOUR_60-0
10
31.870713
20
47.032926
0
VERTEX
8
CONTOUR_60-0
10
31.870500
20
47.032779
0
VERTEX
8
CONTOUR_60-0
10
31.870353
20
47.032642
0
VERTEX
8
CONTOUR_60-0
10
31.869952
20
47.032352
0
VERTEX
8
CONTOUR_60-0
10
31.869821
20
47.032258
0
VERTEX
8
CONTOUR_60-0
10
31.869439
20
47.031919
0
VERTEX
8
CONTOUR_60-0
10
31.869191
20
47.031762
0
VERTEX
8
CONTOUR_60-0
10
31.869156
20
47.031737
0
VERTEX
8
CONTOUR_60-0
10
31.868811
20
47.031479
0
VERTEX
8
CONTOUR_60-0
10
31.868809
20
47.031477
0
VERTEX
8
CONTOUR_60-0
10
31.868472
20
47.031217
0
VERTEX
8
CONTOUR_60-0
10
31.868431
20
47.031182
0
VERTEX
8
CONTOUR_60-0
10
31.868124
20
47.030956
0
VERTEX
8
CONTOUR_60-0
10
31.868050
20
47.030901
0
VERTEX
8
CONTOUR_60-0
10
31.867772
20
47.030696
0
VERTEX
8
CONTOUR_60-0
10
31.867670
20
47.030607
0
VERTEX
8
CONTOUR_60-0
10
31.867466
20
47.030435
0
VERTEX
8
CONTOUR_60-0
10
31.867289
20
47.030283
0
VERTEX
8
CONTOUR_60-0
10
31.867162
20
47.030175
0
VERTEX
8
CONTOUR_60-0
10
31.866933
20
47.029914
0
VERTEX
8
CONTOUR_60-0
10
31.866909
20
47.029886
0
VERTEX
8
CONTOUR_60-0
10
31.866709
20
47.029654
0
VERTEX
8
CONTOUR_60-0
10
31.866579
20
47.029394
0
VERTEX
8
CONTOUR_60-0
10
31.866529
20
47.029161
0
VERTEX
8
CONTOUR_60-0
10
31.866523
20
47.029133
0
VERTEX
8
CONTOUR_60-0
10
31.866529
20
47.029106
0
VERTEX
8
CONTOUR_60-0
10
31.866620
20
47.028873
0
VERTEX
8
CONTOUR_60-0
10
31.866910
20
47.028700
0
VERTEX
8
CONTOUR_60-0
10
31.867291
20
47.028616
0
VERTEX
8
CONTOUR_60-0
10
31.867329
20
47.028613
0
VERTEX
8
CONTOUR_60-0
10
31.867672
20
47.028596
0
VERTEX
8
CONTOUR_60-0
10
31.867827
20
47.028613
0
VERTEX
8
CONTOUR_60-0
10
31.868052
20
47.028643
0
VERTEX
8
CONTOUR_60-0
10
31.868433
20
47.028698
0
VERTEX
8
CONTOUR_60-0
10
31.868813
20
47.028776
0
VERTEX
8
CONTOUR_60-0
10
31.869194
20
47.028871
0
VERTEX
8
CONTOUR_60-0
10
31.869208
20
47.028874
0
VERTEX
8
CONTOUR_60-0
10
31.869575
20
47.028972
0
VERTEX
8
CONTOUR_60-0
10
31.869955
20
47.029084
0
VERTEX
8
CONTOUR_60-0
10
31.870111
20
47.029135
0
VERTEX
8
CONTOUR_60-0
10
31.870336
20
47.029215
0
VERTEX
8
CONTOUR_60-0
10
31.870716
20
47.029353
0
VERTEX
8
CONTOUR_60-0
10
31.870769
20
47.029377
0
VERTEX
8
CONTOUR_60-0
10
31.871192
20
47.029526
0
VERTEX
8
CONTOUR_60-0
10
31.871478
20
47.029595
0
VERTEX
8
CONTOUR_60-0
10
31.871675
20
47.029656
0
VERTEX
8
CONTOUR_60-0
10
31.871858
20
47.029712
0
VERTEX
8
CONTOUR_60-0
10
31.872239
20
47.029830
0
VERTEX
8
CONTOUR_60-0
10
31.872525
20
47.029917
0
VERTEX
8
CONTOUR_60-0
10
31.872619
20
47.029945
0
VERTEX
8
CONTOUR_60-0
10
31.873000
20
47.030078
0
VERTEX
8
CONTOUR_60-0
10
31.873267
20
47.030177
0
VERTEX
8
CONTOUR_60-0
10
31.873380
20
47.030220
0
VERTEX
8
CONTOUR_60-0
10
31.873761
20
47.030361
0
VERTEX
8
CONTOUR_60-0
10
31.873854
20
47.030406
0
VERTEX
8
CONTOUR_60-0
10
31.874239
20
47.030565
0
VERTEX
8
CONTOUR_60-0
10
31.874522
20
47.030665
0
VERTEX
8
CONTOUR_60-0
10
31.874600
20
47.030699
0
VERTEX
8
CONTOUR_60-0
10
31.874903
20
47.030829
0
VERTEX
8
CONTOUR_60-0
10
31.875204
20
47.030959
0
VERTEX
8
CONTOUR_60-0
10
31.875283
20
47.030993
0
VERTEX
8
CONTOUR_60-0
10
31.875825
20
47.031220
0
VERTEX
8
CONTOUR_60-0
10
31.875917
20
47.031263
0
VERTEX
8
CONTOUR_60-0
10
31.875991
20
47.031293
0
VERTEX
8
CONTOUR_60-0
10
31.876044
20
47.031311
0
VERTEX
8
CONTOUR_60-0
10
31.876140
20
47.031350
0
VERTEX
8
CONTOUR_60-0
10
31.876568
20
47.031545
0
VERTEX
8
CONTOUR_60-0
10
31.876805
20
47.031634
0
VERTEX
8
CONTOUR_60-0
10
31.877050
20
47.031741
0
VERTEX
8
CONTOUR_60-0
10
31.877257
20
47.031847
0
VERTEX
8
CONTOUR_60-0
10
31.877567
20
47.031977
0
VERTEX
8
CONTOUR_60-0
10
31.878211
20
47.032262
0
VERTEX
8
CONTOUR_60-0
10
31.878298
20
47.032302
0
VERTEX
8
CONTOUR_60-0
10
31.878328
20
47.032313
0
VERTEX
8
CONTOUR_60-0
10
31.878713
20
47.032482
0
VERTEX
8
CONTOUR_60-0
10
31.879089
20
47.032661
0
VERTEX
8
CONTOUR_60-0
10
31.879342
20
47.032783
0
VERTEX
8
CONTOUR_60-0
10
31.879850
20
47.033018
0
VERTEX
8
CONTOUR_60-0
10
31.880436
20
47.033304
0
VERTEX
8
CONTOUR_60-0
10
31.880611
20
47.033387
0
VERTEX
8
CONTOUR_60-0
10
31.881372
20
47.033763
0
VERTEX
8
CONTOUR_60-0
10
31.881491
20
47.033825
0
VERTEX
8
CONTOUR_60-0
10
31.882134
20
47.034146
0
VERTEX
8
CONTOUR_60-0
10
31.882524
20
47.034345
0
VERTEX
8
CONTOUR_60-0
10
31.882794
20
47.034483
0
VERTEX
8
CONTOUR_60-0
10
31.882895
20
47.034529
0
VERTEX
8
CONTOUR_60-0
10
31.883558
20
47.034866
0
VERTEX
8
CONTOUR_60-0
10
31.883597
20
47.034887
0
VERTEX
8
CONTOUR_60-0
10
31.883656
20
47.034915
0
VERTEX
8
CONTOUR_60-0
10
31.884417
20
47.035302
0
VERTEX
8
CONTOUR_60-0
10
31.884579
20
47.035387
0
VERTEX
8
CONTOUR_60-0
10
31.885178
20
47.035693
0
VERTEX
8
CONTOUR_60-0
10
31.885591
20
47.035908
0
VERTEX
8
CONTOUR_60-0
10
31.885940
20
47.036085
0
VERTEX
8
CONTOUR_60-0
10
31.886605
20
47.036429
0
VERTEX
8
CONTOUR_60-0
10
31.886675
20
47.036464
0
VERTEX
8
CONTOUR_60-0
10
31.886701
20
47.036477
0
VERTEX
8
CONTOUR_60-0
10
31.886756
20
47.036505
0
VERTEX
8
CONTOUR_60-0
10
31.887232
20
47.036744
0
VERTEX
8
CONTOUR_60-0
10
31.887462
20
47.036864
0
VERTEX
8
CONTOUR_60-0
10
31.887623
20
47.036950
0
VERTEX
8
CONTOUR_60-0
10
31.887843
20
47.037061
0
VERTEX
8
CONTOUR_60-0
10
31.888140
20
47.037210
0
VERTEX
8
CONTOUR_60-0
10
31.888223
20
47.037252
0
VERTEX
8
CONTOUR_60-0
10
31.888604
20
47.037448
0
VERTEX
8
CONTOUR_60-0
10
31.888647
20
47.037471
0
VERTEX
8
CONTOUR_60-0
10
31.888985
20
47.037640
0
VERTEX
8
CONTOUR_60-0
10
31.889093
20
47.037694
0
VERTEX
8
CONTOUR_60-0
10
31.889446
20
47.037880
0
VERTEX
8
CONTOUR_60-0
10
31.889647
20
47.037992
0
VERTEX
8
CONTOUR_60-0
10
31.889746
20
47.038045
0
VERTEX
8
CONTOUR_60-0
10
31.890126
20
47.038248
0
VERTEX
8
CONTOUR_60-0
10
31.890135
20
47.038252
0
VERTEX
8
CONTOUR_60-0
10
31.890507
20
47.038445
0
VERTEX
8
CONTOUR_60-0
10
31.890623
20
47.038513
0
VERTEX
8
CONTOUR_60-0
10
31.890888
20
47.038667
0
VERTEX
8
CONTOUR_60-0
10
31.891075
20
47.038773
0
VERTEX
8
CONTOUR_60-0
10
31.891268
20
47.038885
0
VERTEX
8
CONTOUR_60-0
10
31.891512
20
47.039033
0
VERTEX
8
CONTOUR_60-0
10
31.891649
20
47.039112
0
VERTEX
8
CONTOUR_60-0
10
31.891964
20
47.039294
0
VERTEX
8
CONTOUR_60-0
10
31.892030
20
47.039331
0
VERTEX
8
CONTOUR_60-0
10
31.892410
20
47.039550
0
VERTEX
8
CONTOUR_60-0
10
31.892418
20
47.039554
0
VERTEX
8
CONTOUR_60-0
10
31.892791
20
47.039774
0
VERTEX
8
CONTOUR_60-0
10
31.892860
20
47.039815
0
VERTEX
8
CONTOUR_60-0
10
31.893172
20
47.039994
0
VERTEX
8
CONTOUR_60-0
10
31.893308
20
47.040075
0
VERTEX
8
CONTOUR_60-0
10
31.893552
20
47.040207
0
VERTEX
8
CONTOUR_60-0
10
31.893783
20
47.040335
0
VERTEX
8
CONTOUR_60-0
10
31.893933
20
47.040417
0
VERTEX
8
CONTOUR_60-0
10
31.894252
20
47.040596
0
VERTEX
8
CONTOUR_60-0
10
31.894314
20
47.040630
0
VERTEX
8
CONTOUR_60-0
10
31.894694
20
47.040843
0
VERTEX
8
CONTOUR_60-0
10
31.894718
20
47.040856
0
VERTEX
8
CONTOUR_60-0
10
31.895075
20
47.041053
0
VERTEX
8
CONTOUR_60-0
10
31.895186
20
47.041117
0
VERTEX
8
CONTOUR_60-0
10
31.895456
20
47.041267
0
VERTEX
8
CONTOUR_60-0
10
31.895650
20
47.041377
0
VERTEX
8
CONTOUR_60-0
10
31.895836
20
47.041484
0
VERTEX
8
CONTOUR_60-0
10
31.896105
20
47.041637
0
VERTEX
8
CONTOUR_60-0
10
31.896217
20
47.041701
0
VERTEX
8
CONTOUR_60-0
10
31.896563
20
47.041898
0
VERTEX
8
CONTOUR_60-0
10
31.896598
20
47.041917
0
VERTEX
8
CONTOUR_60-0
10
31.896978
20
47.042157
0
VERTEX
8
CONTOUR_60-0
10
31.896979
20
47.042158
0
VERTEX
8
CONTOUR_60-0
10
31.897359
20
47.042395
0
VERTEX
8
CONTOUR_60-0
10
31.897397
20
47.042418
0
VERTEX
8
CONTOUR_60-0
10
31.897740
20
47.042626
0
VERTEX
8
CONTOUR_60-0
10
31.897780
20
47.042651
0
VERTEX
8
CONTOUR_60-0
10
31.897824
20
47.042679
0
VERTEX
8
CONTOUR_60-0
10
31.898120
20
47.042861
0
VERTEX
8
CONTOUR_60-0
10
31.898248
20
47.042939
0
VERTEX
8
CONTOUR_60-0
10
31.898501
20
47.043094
0
VERTEX
8
CONTOUR_60-0
10
31.898674
20
47.043200
0
VERTEX
8
CONTOUR_60-0
10
31.898882
20
47.043321
0
VERTEX
8
CONTOUR_60-0
10
31.899111
20
47.043460
0
VERTEX
8
CONTOUR_60-0
10
31.899262
20
47.043552
0
VERTEX
8
CONTOUR_60-0
10
31.899540
20
47.043720
0
VERTEX
8
CONTOUR_60-0
10
31.899643
20
47.043780
0
VERTEX
8
CONTOUR_60-0
10
31.899979
20
47.043981
0
VERTEX
8
CONTOUR_60-0
10
31.900024
20
47.044008
0
VERTEX
8
CONTOUR_60-0
10
31.900392
20
47.044241
0
VERTEX
8
CONTOUR_60-0
10
31.900404
20
47.044249
0
VERTEX
8
CONTOUR_60-0
10
31.900785
20
47.044482
0
VERTEX
8
CONTOUR_60-0
10
31.900816
20
47.044501
0
VERTEX
8
CONTOUR_60-0
10
31.901166
20
47.044740
0
VERTEX
8
CONTOUR_60-0
10
31.901199
20
47.044762
0
VERTEX
8
CONTOUR_60-0
10
31.901547
20
47.044982
0
VERTEX
8
CONTOUR_60-0
10
31.901608
20
47.045022
0
VERTEX
8
CONTOUR_60-0
10
31.901927
20
47.045235
0
VERTEX
8
CONTOUR_60-0
10
31.901963
20
47.045258
0
VERTEX
8
CONTOUR_60-0
10
31.901998
20
47.045283
0
VERTEX
8
CONTOUR_60-0
10
31.902308
20
47.045480
0
VERTEX
8
CONTOUR_60-0
10
31.902356
20
47.045510
0
VERTEX
8
CONTOUR_60-0
10
31.902405
20
47.045543
0
VERTEX
8
CONTOUR_60-0
10
31.902689
20
47.045722
0
VERTEX
8
CONTOUR_60-0
10
31.902818
20
47.045803
0
VERTEX
8
CONTOUR_60-0
10
31.903069
20
47.045955
0
VERTEX
8
CONTOUR_60-0
10
31.903247
20
47.046064
0
VERTEX
8
CONTOUR_60-0
10
31.903450
20
47.046198
0
VERTEX
8
CONTOUR_60-0
10
31.903653
20
47.046324
0
VERTEX
8
CONTOUR_60-0
10
31.903831
20
47.046434
0
VERTEX
8
CONTOUR_60-0
10
31.904119
20
47.046584
0
VERTEX
8
CONTOUR_60-0
10
31.904174
20
47.046610
0
VERTEX
8
CONTOUR_60-0
10
31.904212
20
47.046634
0
VERTEX
8
CONTOUR_60-0
10
31.904592
20
47.046804
0
VERTEX
8
CONTOUR_60-0
10
31.904681
20
47.046845
0
VERTEX
8
CONTOUR_60-0
10
31.904973
20
47.046970
0
VERTEX
8
CONTOUR_60-0
10
31.905348
20
47.047105
0
VERTEX
8
CONTOUR_60-0
10
31.905354
20
47.047107
0
VERTEX
8
CONTOUR_60-0
10
31.905735
20
47.047214
0
VERTEX
8
CONTOUR_60-0
10
31.906116
20
47.047320
0
VERTEX
8
CONTOUR_60-0
10
31.906285
20
47.047365
0
VERTEX
8
CONTOUR_60-0
10
31.906496
20
47.047418
0
VERTEX
8
CONTOUR_60-0
10
31.906877
20
47.047518
0
VERTEX
8
CONTOUR_60-0
10
31.907223
20
47.047626
0
VERTEX
8
CONTOUR_60-0
10
31.907258
20
47.047636
0
VERTEX
8
CONTOUR_60-0
10
31.907504
20
47.047718
0
VERTEX
8
CONTOUR_60-0
10
31.907639
20
47.047769
0
VERTEX
8
CONTOUR_60-0
10
31.907915
20
47.047886
0
VERTEX
8
CONTOUR_60-0
10
31.908019
20
47.047929
0
VERTEX
8
CONTOUR_60-0
10
31.908400
20
47.048104
0
VERTEX
8
CONTOUR_60-0
10
31.908483
20
47.048147
0
VERTEX
8
CONTOUR_60-0
10
31.908658
20
47.048231
0
VERTEX
8
CONTOUR_60-0
10
31.908781
20
47.048301
0
VERTEX
8
CONTOUR_60-0
10
31.908977
20
47.048407
0
VERTEX
8
CONTOUR_60-0
10
31.909162
20
47.048507
0
VERTEX
8
CONTOUR_60-0
10
31.909443
20
47.048667
0
VERTEX
8
CONTOUR_60-0
10
31.909543
20
47.048722
0
VERTEX
8
CONTOUR_60-0
10
31.909911
20
47.048928
0
VERTEX
8
CONTOUR_60-0
10
31.909923
20
47.048935
0
VERTEX
8
CONTOUR_60-0
10
31.910304
20
47.049163
0
VERTEX
8
CONTOUR_60-0
10
31.910346
20
47.049188
0
VERTEX
8
CONTOUR_60-0
10
31.910685
20
47.049392
0
VERTEX
8
CONTOUR_60-0
10
31.910775
20
47.049448
0
VERTEX
8
CONTOUR_60-0
10
31.911066
20
47.049634
0
VERTEX
8
CONTOUR_60-0
10
31.911177
20
47.049709
0
VERTEX
8
CONTOUR_60-0
10
31.911447
20
47.049895
0
VERTEX
8
CONTOUR_60-0
10
31.911552
20
47.049969
0
VERTEX
8
CONTOUR_60-0
10
31.911827
20
47.050166
0
VERTEX
8
CONTOUR_60-0
10
31.911922
20
47.050229
0
VERTEX
8
CONTOUR_60-0
10
31.912208
20
47.050426
0
VERTEX
8
CONTOUR_60-0
10
31.912302
20
47.050490
0
VERTEX
8
CONTOUR_60-0
10
31.912589
20
47.050674
0
VERTEX
8
CONTOUR_60-0
10
31.912705
20
47.050750
0
VERTEX
8
CONTOUR_60-0
10
31.912970
20
47.050923
0
VERTEX
8
CONTOUR_60-0
10
31.913097
20
47.051010
0
VERTEX
8
CONTOUR_60-0
10
31.913351
20
47.051190
0
VERTEX
8
CONTOUR_60-0
10
31.913463
20
47.051270
0
VERTEX
8
CONTOUR_60-0
10
31.913731
20
47.051466
0
VERTEX
8
CONTOUR_60-0
10
31.913778
20
47.051499
0
VERTEX
8
CONTOUR_60-0
10
31.913821
20
47.051531
0
VERTEX
8
CONTOUR_60-0
10
31.914112
20
47.051747
0
VERTEX
8
CONTOUR_60-0
10
31.914173
20
47.051791
0
VERTEX
8
CONTOUR_60-0
10
31.914493
20
47.052010
0
VERTEX
8
CONTOUR_60-0
10
31.914560
20
47.052051
0
VERTEX
8
CONTOUR_60-0
10
31.914874
20
47.052239
0
VERTEX
8
CONTOUR_60-0
10
31.914999
20
47.052312
0
VERTEX
8
CONTOUR_60-0
10
31.915255
20
47.052451
0
VERTEX
8
CONTOUR_60-0
10
31.915467
20
47.052572
0
VERTEX
8
CONTOUR_60-0
10
31.915635
20
47.052666
0
VERTEX
8
CONTOUR_60-0
10
31.915916
20
47.052832
0
VERTEX
8
CONTOUR_60-0
10
31.916016
20
47.052892
0
VERTEX
8
CONTOUR_60-0
10
31.916337
20
47.053093
0
VERTEX
8
CONTOUR_60-0
10
31.916397
20
47.053132
0
VERTEX
8
CONTOUR_60-0
10
31.916722
20
47.053353
0
VERTEX
8
CONTOUR_60-0
10
31.916778
20
47.053393
0
VERTEX
8
CONTOUR_60-0
10
31.917074
20
47.053613
0
VERTEX
8
CONTOUR_60-0
10
31.917159
20
47.053677
0
VERTEX
8
CONTOUR_60-0
10
31.917440
20
47.053874
0
VERTEX
8
CONTOUR_60-0
10
31.917540
20
47.053937
0
VERTEX
8
CONTOUR_60-0
10
31.917866
20
47.054134
0
VERTEX
8
CONTOUR_60-0
10
31.917921
20
47.054166
0
VERTEX
8
CONTOUR_60-0
10
31.918301
20
47.054386
0
VERTEX
8
CONTOUR_60-0
10
31.918316
20
47.054394
0
VERTEX
8
CONTOUR_60-0
10
31.918682
20
47.054598
0
VERTEX
8
CONTOUR_60-0
10
31.918783
20
47.054654
0
VERTEX
8
CONTOUR_60-0
10
31.919063
20
47.054812
0
VERTEX
8
CONTOUR_60-0
10
31.919246
20
47.054915
0
VERTEX
8
CONTOUR_60-0
10
31.919444
20
47.055016
0
VERTEX
8
CONTOUR_60-0
10
31.919757
20
47.055175
0
VERTEX
8
CONTOUR_60-0
10
31.919825
20
47.055208
0
VERTEX
8
CONTOUR_60-0
10
31.920206
20
47.055412
0
VERTEX
8
CONTOUR_60-0
10
31.920247
20
47.055435
0
VERTEX
8
CONTOUR_60-0
10
31.920587
20
47.055635
0
VERTEX
8
CONTOUR_60-0
10
31.920685
20
47.055696
0
VERTEX
8
CONTOUR_60-0
10
31.920967
20
47.055880
0
VERTEX
8
CONTOUR_60-0
10
31.921088
20
47.055956
0
VERTEX
8
CONTOUR_60-0
10
31.921348
20
47.056117
0
VERTEX
8
CONTOUR_60-0
10
31.921516
20
47.056216
0
VERTEX
8
CONTOUR_60-0
10
31.921729
20
47.056339
0
VERTEX
8
CONTOUR_60-0
10
31.921968
20
47.056476
0
VERTEX
8
CONTOUR_60-0
10
31.922110
20
47.056559
0
VERTEX
8
CONTOUR_60-0
10
31.922417
20
47.056737
0
VERTEX
8
CONTOUR_60-0
10
31.922491
20
47.056779
0
VERTEX
8
CONTOUR_60-0
10
31.922872
20
47.056994
0
VERTEX
8
CONTOUR_60-0
10
31.922878
20
47.056997
0
VERTEX
8
CONTOUR_60-0
10
31.923253
20
47.057198
0
VERTEX
8
CONTOUR_60-0
10
31.923370
20
47.057257
0
VERTEX
8
CONTOUR_60-0
10
31.923634
20
47.057379
0
VERTEX
8
CONTOUR_60-0
10
31.923930
20
47.057518
0
VERTEX
8
CONTOUR_60-0
10
31.924015
20
47.057556
0
VERTEX
8
CONTOUR_60-0
10
31.924396
20
47.057744
0
VERTEX
8
CONTOUR_60-0
10
31.924458
20
47.057778
0
VERTEX
8
CONTOUR_60-0
10
31.924776
20
47.057950
0
VERTEX
8
CONTOUR_60-0
10
31.924928
20
47.058038
0
VERTEX
8
CONTOUR_60-0
10
31.925157
20
47.058177
0
VERTEX
8
CONTOUR_60-0
10
31.925353
20
47.058298
0
VERTEX
8
CONTOUR_60-0
10
31.925538
20
47.058417
0
VERTEX
8
CONTOUR_60-0
10
31.925768
20
47.058559
0
VERTEX
8
CONTOUR_60-0
10
31.925919
20
47.058648
0
VERTEX
8
CONTOUR_60-0
10
31.926232
20
47.058819
0
VERTEX
8
CONTOUR_60-0
10
31.926300
20
47.058856
0
VERTEX
8
CONTOUR_60-0
10
31.926681
20
47.059060
0
VERTEX
8
CONTOUR_60-0
10
31.926717
20
47.059079
0
VERTEX
8
CONTOUR_60-0
10
31.927062
20
47.059245
0
VERTEX
8
CONTOUR_60-0
10
31.927273
20
47.059340
0
VERTEX
8
CONTOUR_60-0
10
31.927443
20
47.059413
0
VERTEX
8
CONTOUR_60-0
10
31.927824
20
47.059582
0
VERTEX
8
CONTOUR_60-0
10
31.927864
20
47.059600
0
VERTEX
8
CONTOUR_60-0
10
31.928205
20
47.059753
0
VERTEX
8
CONTOUR_60-0
10
31.928438
20
47.059860
0
VERTEX
8
CONTOUR_60-0
10
31.928586
20
47.059927
0
VERTEX
8
CONTOUR_60-0
10
31.928967
20
47.060108
0
VERTEX
8
CONTOUR_60-0
10
31.928992
20
47.060120
0
VERTEX
8
CONTOUR_60-0
10
31.929348
20
47.060290
0
VERTEX
8
CONTOUR_60-0
10
31.929530
20
47.060381
0
VERTEX
8
CONTOUR_60-0
10
31.929728
20
47.060478
0
VERTEX
8
CONTOUR_60-0
10
31.930075
20
47.060641
0
VERTEX
8
CONTOUR_60-0
10
31.930109
20
47.060656
0
VERTEX
8
CONTOUR_60-0
10
31.930490
20
47.060828
0
VERTEX
8
CONTOUR_60-0
10
31.930640
20
47.060901
0
VERTEX
8
CONTOUR_60-0
10
31.930871
20
47.061012
0
VERTEX
8
CONTOUR_60-0
10
31.931171
20
47.061161
0
VERTEX
8
CONTOUR_60-0
10
31.931252
20
47.061202
0
VERTEX
8
CONTOUR_60-0
10
31.931633
20
47.061386
0
VERTEX
8
CONTOUR_60-0
10
31.931706
20
47.061421
0
VERTEX
8
CONTOUR_60-0
10
31.932014
20
47.061571
0
VERTEX
8
CONTOUR_60-0
10
31.932244
20
47.061682
0
VERTEX
8
CONTOUR_60-0
10
31.932395
20
47.061754
0
VERTEX
8
CONTOUR_60-0
10
31.932776
20
47.061937
0
VERTEX
8
CONTOUR_60-0
10
31.932787
20
47.061942
0
VERTEX
8
CONTOUR_60-0
10
31.933157
20
47.062121
0
VERTEX
8
CONTOUR_60-0
10
31.933312
20
47.062202
0
VERTEX
8
CONTOUR_60-0
10
31.933538
20
47.062320
0
VERTEX
8
CONTOUR_60-0
10
31.933791
20
47.062462
0
VERTEX
8
CONTOUR_60-0
10
31.933919
20
47.062533
0
VERTEX
8
CONTOUR_60-0
10
31.934255
20
47.062723
0
VERTEX
8
CONTOUR_60-0
10
31.934300
20
47.062749
0
VERTEX
8
CONTOUR_60-0
10
31.934676
20
47.062983
0
VERTEX
8
CONTOUR_60-0
10
31.934681
20
47.062986
0
VERTEX
8
CONTOUR_60-0
10
31.935062
20
47.063213
0
VERTEX
8
CONTOUR_60-0
10
31.935110
20
47.063243
0
VERTEX
8
CONTOUR_60-0
10
31.935443
20
47.063463
0
VERTEX
8
CONTOUR_60-0
10
31.935501
20
47.063503
0
VERTEX
8
CONTOUR_60-0
10
31.935824
20
47.063744
0
VERTEX
8
CONTOUR_60-0
10
31.935850
20
47.063764
0
VERTEX
8
CONTOUR_60-0
10
31.936146
20
47.064024
0
VERTEX
8
CONTOUR_60-0
10
31.936205
20
47.064087
0
VERTEX
8
CONTOUR_60-0
10
31.936389
20
47.064284
0
VERTEX
8
CONTOUR_60-0
10
31.936567
20
47.064544
0
VERTEX
8
CONTOUR_60-0
10
31.936586
20
47.064581
0
VERTEX
8
CONTOUR_60-0
10
31.936710
20
47.064805
0
VERTEX
8
CONTOUR_60-0
10
31.936830
20
47.065065
0
VERTEX
8
CONTOUR_60-0
10
31.936906
20
47.065283
0
VERTEX
8
CONTOUR_60-0
10
31.936919
20
47.065325
0
VERTEX
8
CONTOUR_60-0
10
31.936967
20
47.065431
0
VERTEX
8
CONTOUR_60-0
10
31.937046
20
47.065585
0
VERTEX
8
CONTOUR_60-0
10
31.937145
20
47.065846
0
VERTEX
8
CONTOUR_60-0
10
31.937348
20
47.066050
0
VERTEX
8
CONTOUR_60-0
10
31.937410
20
47.066106
0
VERTEX
8
CONTOUR_60-0
10
31.937729
20
47.066250
0
VERTEX
8
CONTOUR_60-0
10
31.937967
20
47.066366
0
VERTEX
8
CONTOUR_60-0
10
31.938110
20
47.066427
0
VERTEX
8
CONTOUR_60-0
10
31.938491
20
47.066590
0
VERTEX
8
CONTOUR_60-0
10
31.938578
20
47.066626
0
VERTEX
8
CONTOUR_60-0
10
31.938872
20
47.066741
0
VERTEX
8
CONTOUR_60-0
10
31.939238
20
47.066887
0
VERTEX
8
CONTOUR_60-0
10
31.939248
20
47.066890
0
VERTEX
8
CONTOUR_60-0
10
31.939254
20
47.066893
0
VERTEX
8
CONTOUR_60-0
10
31.939635
20
47.067038
0
VERTEX
8
CONTOUR_60-0
10
31.939901
20
47.067147
0
VERTEX
8
CONTOUR_60-0
10
31.940016
20
47.067193
0
VERTEX
8
CONTOUR_60-0
10
31.940397
20
47.067355
0
VERTEX
8
CONTOUR_60-0
10
31.940516
20
47.067407
0
VERTEX
8
CONTOUR_60-0
10
31.940778
20
47.067521
0
VERTEX
8
CONTOUR_60-0
10
31.941110
20
47.067667
0
VERTEX
8
CONTOUR_60-0
10
31.941159
20
47.067689
0
VERTEX
8
CONTOUR_60-0
10
31.941540
20
47.067852
0
VERTEX
8
CONTOUR_60-0
10
31.941715
20
47.067927
0
VERTEX
8
CONTOUR_60-0
10
31.941921
20
47.068015
0
VERTEX
8
CONTOUR_60-0
10
31.942080
20
47.068079
0
VERTEX
8
CONTOUR_60-0
10
31.942302
20
47.068180
0
VERTEX
8
CONTOUR_60-0
10
31.942318
20
47.068188
0
VERTEX
8
CONTOUR_60-0
10
31.942683
20
47.068347
0
VERTEX
8
CONTOUR_60-0
10
31.942906
20
47.068448
0
VERTEX
8
CONTOUR_60-0
10
31.943064
20
47.068521
0
VERTEX
8
CONTOUR_60-0
10
31.943445
20
47.068701
0
VERTEX
8
CONTOUR_60-0
10
31.943459
20
47.068708
0
VERTEX
8
CONTOUR_60-0
10
31.943826
20
47.068881
0
VERTEX
8
CONTOUR_60-0
10
31.944020
20
47.068968
0
VERTEX
8
CONTOUR_60-0
10
31.944207
20
47.069056
0
VERTEX
8
CONTOUR_60-0
10
31.944559
20
47.069228
0
VERTEX
8
CONTOUR_60-0
10
31.944588
20
47.069242
0
VERTEX
8
CONTOUR_60-0
10
31.944969
20
47.069420
0
VERTEX
8
CONTOUR_60-0
10
31.945118
20
47.069488
0
VERTEX
8
CONTOUR_60-0
10
31.945350
20
47.069597
0
VERTEX
8
CONTOUR_60-0
10
31.945678
20
47.069749
0
VERTEX
8
CONTOUR_60-0
10
31.945731
20
47.069773
0
VERTEX
8
CONTOUR_60-0
10
31.946112
20
47.069958
0
VERTEX
8
CONTOUR_60-0
10
31.946218
20
47.070009
0
VERTEX
8
CONTOUR_60-0
10
31.946493
20
47.070145
0
VERTEX
8
CONTOUR_60-0
10
31.946728
20
47.070269
0
VERTEX
8
CONTOUR_60-0
10
31.946874
20
47.070346
0
VERTEX
8
CONTOUR_60-0
10
31.947243
20
47.070529
0
VERTEX
8
CONTOUR_60-0
10
31.947255
20
47.070536
0
VERTEX
8
CONTOUR_60-0
10
31.947636
20
47.070742
0
VERTEX
8
CONTOUR_60-0
10
31.947732
20
47.070789
0
VERTEX
8
CONTOUR_60-0
10
31.948018
20
47.070931
0
VERTEX
8
CONTOUR_60-0
10
31.948246
20
47.071049
0
VERTEX
8
CONTOUR_60-0
10
31.948399
20
47.071131
0
VERTEX
8
CONTOUR_60-0
10
31.948759
20
47.071310
0
VERTEX
8
CONTOUR_60-0
10
31.948780
20
47.071320
0
VERTEX
8
CONTOUR_60-0
10
31.949161
20
47.071512
0
VERTEX
8
CONTOUR_60-0
10
31.949278
20
47.071570
0
VERTEX
8
CONTOUR_60-0
10
31.949542
20
47.071700
0
VERTEX
8
CONTOUR_60-0
10
31.949801
20
47.071830
0
VERTEX
8
CONTOUR_60-0
10
31.949923
20
47.071892
0
VERTEX
8
CONTOUR_60-0
10
31.950304
20
47.072087
0
VERTEX
8
CONTOUR_60-0
10
31.950309
20
47.072090
0
VERTEX
8
CONTOUR_60-0
10
31.950685
20
47.072288
0
VERTEX
8
CONTOUR_60-0
10
31.950802
20
47.072350
0
VERTEX
8
CONTOUR_60-0
10
31.951066
20
47.072498
0
VERTEX
8
CONTOUR_60-0
10
31.951269
20
47.072610
0
VERTEX
8
CONTOUR_60-0
10
31.951447
20
47.072710
0
VERTEX
8
CONTOUR_60-0
10
31.951736
20
47.072871
0
VERTEX
8
CONTOUR_60-0
10
31.951911
20
47.072972
0
VERTEX
8
CONTOUR_60-0
10
31.952069
20
47.073063
0
VERTEX
8
CONTOUR_60-0
10
31.952210
20
47.073143
0
VERTEX
8
CONTOUR_60-0
10
31.952547
20
47.073331
0
VERTEX
8
CONTOUR_60-0
10
31.952610
20
47.073365
0
VERTEX
8
CONTOUR_60-0
10
31.952654
20
47.073391
0
VERTEX
8
CONTOUR_60-0
10
31.952972
20
47.073573
0
VERTEX
8
CONTOUR_60-0
10
31.953062
20
47.073620
0
VERTEX
8
CONTOUR_60-0
10
31.953347
20
47.073779
0
VERTEX
8
CONTOUR_60-0
10
31.953587
20
47.073911
0
VERTEX
8
CONTOUR_60-0
10
31.953642
20
47.073943
0
VERTEX
8
CONTOUR_60-0
10
31.953734
20
47.073994
0
VERTEX
8
CONTOUR_60-0
10
31.954497
20
47.074406
0
VERTEX
8
CONTOUR_60-0
10
31.954545
20
47.074432
0
VERTEX
8
CONTOUR_60-0
10
31.955259
20
47.074813
0
VERTEX
8
CONTOUR_60-0
10
31.955520
20
47.074952
0
VERTEX
8
CONTOUR_60-0
10
31.956021
20
47.075224
0
VERTEX
8
CONTOUR_60-0
10
31.956481
20
47.075472
0
VERTEX
8
CONTOUR_60-0
10
31.956783
20
47.075647
0
VERTEX
8
CONTOUR_60-0
10
31.957368
20
47.075992
0
VERTEX
8
CONTOUR_60-0
10
31.957546
20
47.076100
0
VERTEX
8
CONTOUR_60-0
10
31.958226
20
47.076513
0
VERTEX
8
CONTOUR_60-0
10
31.958308
20
47.076564
0
VERTEX
8
CONTOUR_60-0
10
31.959070
20
47.077033
0
VERTEX
8
CONTOUR_60-0
10
31.959070
20
47.077033
0
VERTEX
8
CONTOUR_60-0
10
31.959071
20
47.077034
0
VERTEX
8
CONTOUR_60-0
10
31.959833
20
47.077492
0
VERTEX
8
CONTOUR_60-0
10
31.959934
20
47.077553
0
VERTEX
8
CONTOUR_60-0
10
31.960595
20
47.077973
0
VERTEX
8
CONTOUR_60-0
10
31.960766
20
47.078074
0
VERTEX
8
CONTOUR_60-0
10
31.961358
20
47.078428
0
VERTEX
8
CONTOUR_60-0
10
31.961635
20
47.078594
0
VERTEX
8
CONTOUR_60-0
10
31.962120
20
47.078895
0
VERTEX
8
CONTOUR_60-0
10
31.962483
20
47.079114
0
VERTEX
8
CONTOUR_60-0
10
31.962883
20
47.079366
0
VERTEX
8
CONTOUR_60-0
10
31.963323
20
47.079634
0
VERTEX
8
CONTOUR_60-0
10
31.963645
20
47.079840
0
VERTEX
8
CONTOUR_60-0
10
31.964157
20
47.080155
0
VERTEX
8
CONTOUR_60-0
10
31.964408
20
47.080317
0
VERTEX
8
CONTOUR_60-0
10
31.964988
20
47.080675
0
VERTEX
8
CONTOUR_60-0
10
31.965170
20
47.080795
0
VERTEX
8
CONTOUR_60-0
10
31.965817
20
47.081195
0
VERTEX
8
CONTOUR_60-0
10
31.965933
20
47.081273
0
VERTEX
8
CONTOUR_60-0
10
31.966643
20
47.081715
0
VERTEX
8
CONTOUR_60-0
10
31.966695
20
47.081751
0
VERTEX
8
CONTOUR_60-0
10
31.967450
20
47.082236
0
VERTEX
8
CONTOUR_60-0
10
31.967455
20
47.082240
0
VERTEX
8
CONTOUR_60-0
10
31.967458
20
47.082241
0
VERTEX
8
CONTOUR_60-0
10
31.967466
20
47.082247
0
VERTEX
8
CONTOUR_60-0
10
31.967706
20
47.082426
0
VERTEX
8
CONTOUR_60-0
10
31.967953
20
47.082601
0
VERTEX
8
CONTOUR_60-0
10
31.968216
20
47.082756
0
VERTEX
8
CONTOUR_60-0
10
31.968220
20
47.082760
0
VERTEX
8
CONTOUR_60-0
10
31.968431
20
47.082944
0
VERTEX
8
CONTOUR_60-0
10
31.968815
20
47.083219
0
VERTEX
8
CONTOUR_60-0
10
31.968890
20
47.083276
0
VERTEX
8
CONTOUR_60-0
10
31.968914
20
47.083300
0
VERTEX
8
CONTOUR_60-0
10
31.968946
20
47.083327
0
VERTEX
8
CONTOUR_60-0
10
31.968983
20
47.083353
0
VERTEX
8
CONTOUR_60-0
10
31.969124
20
47.083469
0
VERTEX
8
CONTOUR_60-0
10
31.969420
20
47.083721
0
VERTEX
8
CONTOUR_60-0
10
31.969524
20
47.083797
0
VERTEX
8
CONTOUR_60-0
10
31.969746
20
47.083988
0
VERTEX
8
CONTOUR_60-0
10
31.969799
20
47.084039
0
VERTEX
8
CONTOUR_60-0
10
31.969879
20
47.084102
0
VERTEX
8
CONTOUR_60-0
10
31.970130
20
47.084317
0
VERTEX
8
CONTOUR_60-0
10
31.970220
20
47.084415
0
VERTEX
8
CONTOUR_60-0
10
31.970350
20
47.084533
0
VERTEX
8
CONTOUR_60-0
10
31.970509
20
47.084655
0
VERTEX
8
CONTOUR_60-0
10
31.970713
20
47.084837
0
VERTEX
8
CONTOUR_60-0
10
31.970890
20
47.085003
0
VERTEX
8
CONTOUR_60-0
10
31.970992
20
47.085097
0
VERTEX
8
CONTOUR_60-0
10
31.971269
20
47.085358
0
VERTEX
8
CONTOUR_60-0
10
31.971271
20
47.085360
0
VERTEX
8
CONTOUR_60-0
10
31.971439
20
47.085561
0
VERTEX
8
CONTOUR_60-0
10
31.971699
20
47.085814
0
VERTEX
8
CONTOUR_60-0
10
31.971778
20
47.085878
0
VERTEX
8
CONTOUR_60-0
10
31.972026
20
47.086138
0
VERTEX
8
CONTOUR_60-0
10
31.972034
20
47.086147
0
VERTEX
8
CONTOUR_60-0
10
31.972279
20
47.086398
0
VERTEX
8
CONTOUR_60-0
10
31.972416
20
47.086541
0
VERTEX
8
CONTOUR_60-0
10
31.972529
20
47.086658
0
VERTEX
8
CONTOUR_60-0
10
31.972772
20
47.086919
0
VERTEX
8
CONTOUR_60-0
10
31.972797
20
47.086949
0
VERTEX
8
CONTOUR_60-0
10
31.972992
20
47.087179
0
VERTEX
8
CONTOUR_60-0
10
31.973179
20
47.087404
0
VERTEX
8
CONTOUR_60-0
10
31.973208
20
47.087439
0
VERTEX
8
CONTOUR_60-0
10
31.973421
20
47.087699
0
VERTEX
8
CONTOUR_60-0
10
31.973560
20
47.087873
0
VERTEX
8
CONTOUR_60-0
10
31.973632
20
47.087959
0
VERTEX
8
CONTOUR_60-0
10
31.973812
20
47.088220
0
VERTEX
8
CONTOUR_60-0
10
31.973942
20
47.088439
0
VERTEX
8
CONTOUR_60-0
10
31.973966
20
47.088480
0
VERTEX
8
CONTOUR_60-0
10
31.974115
20
47.088740
0
VERTEX
8
CONTOUR_60-0
10
31.974230
20
47.089000
0
VERTEX
8
CONTOUR_60-0
10
31.974268
20
47.089222
0
VERTEX
8
CONTOUR_60-0
10
31.974272
20
47.089261
0
VERTEX
8
CONTOUR_60-0
10
31.974276
20
47.089521
0
VERTEX
8
CONTOUR_60-0
10
31.974045
20
47.089781
0
VERTEX
8
CONTOUR_60-0
10
31.973944
20
47.089830
70
1
0
SEQEND
8
CONTOUR_60-0
0
TEXT
8
CONTOUR_LABELS
10
32.000944
20
47.062830
40
0.050
1
60.0
0
POLYLINE
8
CONTOUR_65-0
66
1
10
0.0
20
0.0
0
VERTEX
8
CONTOUR_65-0
10
31.951831
20
47.076475
0
VERTEX
8
CONTOUR_65-0
10
31.951450
20
47.076485
0
VERTEX
8
CONTOUR_65-0
10
31.951069
20
47.076420
0
VERTEX
8
CONTOUR_65-0
10
31.950688
20
47.076331
0
VERTEX
8
CONTOUR_65-0
10
31.950415
20
47.076255
0
VERTEX
8
CONTOUR_65-0
10
31.950306
20
47.076224
0
VERTEX
8
CONTOUR_65-0
10
31.949925
20
47.076096
0
VERTEX
8
CONTOUR_65-0
10
31.949630
20
47.075995
0
VERTEX
8
CONTOUR_65-0
10
31.949544
20
47.075966
0
VERTEX
8
CONTOUR_65-0
10
31.949163
20
47.075823
0
VERTEX
8
CONTOUR_65-0
10
31.948936
20
47.075735
0
VERTEX
8
CONTOUR_65-0
10
31.948782
20
47.075677
0
VERTEX
8
CONTOUR_65-0
10
31.948401
20
47.075524
0
VERTEX
8
CONTOUR_65-0
10
31.948287
20
47.075474
0
VERTEX
8
CONTOUR_65-0
10
31.948020
20
47.075360
0
VERTEX
8
CONTOUR_65-0
10
31.947690
20
47.075214
0
VERTEX
8
CONTOUR_65-0
10
31.947639
20
47.075191
0
VERTEX
8
CONTOUR_65-0
10
31.947258
20
47.075011
0
VERTEX
8
CONTOUR_65-0
10
31.947144
20
47.074954
0
VERTEX
8
CONTOUR_65-0
10
31.946877
20
47.074822
0
VERTEX
8
CONTOUR_65-0
10
31.946734
20
47.074743
0
VERTEX
8
CONTOUR_65-0
10
31.946395
20
47.074570
0
VERTEX
8
CONTOUR_65-0
10
31.946129
20
47.074434
0
VERTEX
8
CONTOUR_65-0
10
31.946114
20
47.074427
0
VERTEX
8
CONTOUR_65-0
10
31.945733
20
47.074227
0
VERTEX
8
CONTOUR_65-0
10
31.945633
20
47.074174
0
VERTEX
8
CONTOUR_65-0
10
31.945352
20
47.074029
0
VERTEX
8
CONTOUR_65-0
10
31.945136
20
47.073913
0
VERTEX
8
CONTOUR_65-0
10
31.944924
20
47.073799
0
VERTEX
8
CONTOUR_65-0
10
31.944739
20
47.073710
0
VERTEX
8
CONTOUR_65-0
10
31.944590
20
47.073640
0
VERTEX
8
CONTOUR_65-0
10
31.944267
20
47.073472
0
VERTEX
8
CONTOUR_65-0
10
31.944168
20
47.073421
0
VERTEX
8
CONTOUR_65-0
10
31.944117
20
47.073393
0
VERTEX
8
CONTOUR_65-0
10
31.943828
20
47.073249
0
VERTEX
8
CONTOUR_65-0
10
31.943602
20
47.073133
0
VERTEX
8
CONTOUR_65-0
10
31.943447
20
47.073056
0
VERTEX
8
CONTOUR_65-0
10
31.943101
20
47.072873
0
VERTEX
8
CONTOUR_65-0
10
31.943066
20
47.072854
0
VERTEX
8
CONTOUR_65-0
10
31.942685
20
47.072642
0
VERTEX
8
CONTOUR_65-0
10
31.942634
20
47.072612
0
VERTEX
8
CONTOUR_65-0
10
31.942303
20
47.072423
0
VERTEX
8
CONTOUR_65-0
10
31.942184
20
47.072352
0
VERTEX
8
CONTOUR_65-0
10
31.941922
20
47.072203
0
VERTEX
8
CONTOUR_65-0
10
31.941832
20
47.072154
0
VERTEX
8
CONTOUR_65-0
10
31.941733
20
47.072092
0
VERTEX
8
CONTOUR_65-0
10
31.941541
20
47.071985
0
VERTEX
8
CONTOUR_65-0
10
31.941275
20
47.071832
0
VERTEX
8
CONTOUR_65-0
10
31.941160
20
47.071770
0
VERTEX
8
CONTOUR_65-0
10
31.940807
20
47.071572
0
VERTEX
8
CONTOUR_65-0
10
31.940779
20
47.071557
0
VERTEX
8
CONTOUR_65-0
10
31.940398
20
47.071349
0
VERTEX
8
CONTOUR_65-0
10
31.940333
20
47.071311
0
VERTEX
8
CONTOUR_65-0
10
31.940017
20
47.071137
0
VERTEX
8
CONTOUR_65-0
10
31.939873
20
47.071051
0
VERTEX
8
CONTOUR_65-0
10
31.939636
20
47.070911
0
VERTEX
8
CONTOUR_65-0
10
31.939445
20
47.070791
0
VERTEX
8
CONTOUR_65-0
10
31.939255
20
47.070675
0
VERTEX
8
CONTOUR_65-0
10
31.939141
20
47.070608
0
VERTEX
8
CONTOUR_65-0
10
31.939029
20
47.070531
0
VERTEX
8
CONTOUR_65-0
10
31.938874
20
47.070436
0
VERTEX
8
CONTOUR_65-0
10
31.938608
20
47.070271
0
VERTEX
8
CONTOUR_65-0
10
31.938493
20
47.070203
0
VERTEX
8
CONTOUR_65-0
10
31.938175
20
47.070010
0
VERTEX
8
CONTOUR_65-0
10
31.938112
20
47.069974
0
VERTEX
8
CONTOUR_65-0
10
31.937736
20
47.069750
0
VERTEX
8
CONTOUR_65-0
10
31.937731
20
47.069747
0
VERTEX
8
CONTOUR_65-0
10
31.937350
20
47.069505
0
VERTEX
8
CONTOUR_65-0
10
31.937327
20
47.069490
0
VERTEX
8
CONTOUR_65-0
10
31.936969
20
47.069241
0
VERTEX
8
CONTOUR_65-0
10
31.936953
20
47.069230
0
VERTEX
8
CONTOUR_65-0
10
31.936588
20
47.068969
0
VERTEX
8
CONTOUR_65-0
10
31.936588
20
47.068969
0
VERTEX
8
CONTOUR_65-0
10
31.936216
20
47.068709
0
VERTEX
8
CONTOUR_65-0
10
31.936206
20
47.068703
0
VERTEX
8
CONTOUR_65-0
10
31.935831
20
47.068449
0
VERTEX
8
CONTOUR_65-0
10
31.935825
20
47.068445
0
VERTEX
8
CONTOUR_65-0
10
31.935621
20
47.068328
0
VERTEX
8
CONTOUR_65-0
10
31.935462
20
47.068189
0
VERTEX
8
CONTOUR_65-0
10
31.935444
20
47.068175
0
VERTEX
8
CONTOUR_65-0
10
31.935130
20
47.067928
0
VERTEX
8
CONTOUR_65-0
10
31.935063
20
47.067882
0
VERTEX
8
CONTOUR_65-0
10
31.934697
20
47.067668
0
VERTEX
8
CONTOUR_65-0
10
31.934682
20
47.067660
0
VERTEX
8
CONTOUR_65-0
10
31.934301
20
47.067464
0
VERTEX
8
CONTOUR_65-0
10
31.934190
20
47.067408
0
VERTEX
8
CONTOUR_65-0
10
31.933920
20
47.067271
0
VERTEX
8
CONTOUR_65-0
10
31.933634
20
47.067148
0
VERTEX
8
CONTOUR_65-0
10
31.933539
20
47.067105
0
VERTEX
8
CONTOUR_65-0
10
31.933317
20
47.067148
0
VERTEX
8
CONTOUR_65-0
10
31.933158
20
47.067191
0
VERTEX
8
CONTOUR_65-0
10
31.932777
20
47.067254
0
VERTEX
8
CONTOUR_65-0
10
31.932396
20
47.067284
0
VERTEX
8
CONTOUR_65-0
10
31.932015
20
47.067252
0
VERTEX
8
CONTOUR_65-0
10
31.931635
20
47.067170
0
VERTEX
8
CONTOUR_65-0
10
31.931567
20
47.067148
0
VERTEX
8
CONTOUR_65-0
10
31.931254
20
47.067047
0
VERTEX
8
CONTOUR_65-0
10
31.930897
20
47.066888
0
VERTEX
8
CONTOUR_65-0
10
31.930873
20
47.066877
0
VERTEX
8
CONTOUR_65-0
10
31.930492
20
47.066686
0
VERTEX
8
CONTOUR_65-0
10
31.930379
20
47.066628
0
VERTEX
8
CONTOUR_65-0
10
31.930111
20
47.066492
0
VERTEX
8
CONTOUR_65-0
10
31.929885
20
47.066367
0
VERTEX
8
CONTOUR_65-0
10
31.929797
20
47.066321
0
VERTEX
8
CONTOUR_65-0
10
31.929730
20
47.066275
0
VERTEX
8
CONTOUR_65-0
10
31.929457
20
47.066107
0
VERTEX
8
CONTOUR_65-0
10
31.929349
20
47.066041
0
VERTEX
8
CONTOUR_65-0
10
31.929025
20
47.065847
0
VERTEX
8
CONTOUR_65-0
10
31.928968
20
47.065810
0
VERTEX
8
CONTOUR_65-0
10
31.928643
20
47.065586
0
VERTEX
8
CONTOUR_65-0
10
31.928587
20
47.065545
0
VERTEX
8
CONTOUR_65-0
10
31.928292
20
47.065326
0
VERTEX
8
CONTOUR_65-0
10
31.928206
20
47.065259
0
VERTEX
8
CONTOUR_65-0
10
31.927936
20
47.065066
0
VERTEX
8
CONTOUR_65-0
10
31.927825
20
47.064992
0
VERTEX
8
CONTOUR_65-0
10
31.927528
20
47.064806
0
VERTEX
8
CONTOUR_65-0
10
31.927444
20
47.064754
0
VERTEX
8
CONTOUR_65-0
10
31.927090
20
47.064545
0
VERTEX
8
CONTOUR_65-0
10
31.927063
20
47.064531
0
VERTEX
8
CONTOUR_65-0
10
31.926682
20
47.064306
0
VERTEX
8
CONTOUR_65-0
10
31.926649
20
47.064285
0
VERTEX
8
CONTOUR_65-0
10
31.926301
20
47.064048
0
VERTEX
8
CONTOUR_65-0
10
31.926269
20
47.064025
0
VERTEX
8
CONTOUR_65-0
10
31.925925
20
47.063765
0
VERTEX
8
CONTOUR_65-0
10
31.925920
20
47.063761
0
VERTEX
8
CONTOUR_65-0
10
31.925539
20
47.063512
0
VERTEX
8
CONTOUR_65-0
10
31.925527
20
47.063504
0
VERTEX
8
CONTOUR_65-0
10
31.925329
20
47.063388
0
VERTEX
8
CONTOUR_65-0
10
31.925158
20
47.063269
0
VERTEX
8
CONTOUR_65-0
10
31.925119
20
47.063244
0
VERTEX
8
CONTOUR_65-0
10
31.924777
20
47.063036
0
VERTEX
8
CONTOUR_65-0
10
31.924693
20
47.062984
0
VERTEX
8
CONTOUR_65-0
10
31.924396
20
47.062807
0
VERTEX
8
CONTOUR_65-0
10
31.924264
20
47.062724
0
VERTEX
8
CONTOUR_65-0
10
31.924015
20
47.062576
0
VERTEX
8
CONTOUR_65-0
10
31.923846
20
47.062463
0
VERTEX
8
CONTOUR_65-0
10
31.923634
20
47.062318
0
VERTEX
8
CONTOUR_65-0
10
31.923473
20
47.062203
0
VERTEX
8
CONTOUR_65-0
10
31.923253
20
47.062052
0
VERTEX
8
CONTOUR_65-0
10
31.923068
20
47.061943
0
VERTEX
8
CONTOUR_65-0
10
31.922956
20
47.061885
0
VERTEX
8
CONTOUR_65-0
10
31.922872
20
47.061831
0
VERTEX
8
CONTOUR_65-0
10
31.922604
20
47.061682
0
VERTEX
8
CONTOUR_65-0
10
31.922539
20
47.061650
0
VERTEX
8
CONTOUR_65-0
10
31.922491
20
47.061619
0
VERTEX
8
CONTOUR_65-0
10
31.922118
20
47.061422
0
VERTEX
8
CONTOUR_65-0
10
31.922113
20
47.061420
0
VERTEX
8
CONTOUR_65-0
10
31.922110
20
47.061419
0
VERTEX
8
CONTOUR_65-0
10
31.921729
20
47.061245
0
VERTEX
8
CONTOUR_65-0
10
31.921558
20
47.061162
0
VERTEX
8
CONTOUR_65-0
10
31.921349
20
47.061059
0
VERTEX
8
CONTOUR_65-0
10
31.921056
20
47.060902
0
VERTEX
8
CONTOUR_65-0
10
31.920968
20
47.060852
0
VERTEX
8
CONTOUR_65-0
10
31.920625
20
47.060641
0
VERTEX
8
CONTOUR_65-0
10
31.920587
20
47.060617
0
VERTEX
8
CONTOUR_65-0
10
31.920246
20
47.060381
0
VERTEX
8
CONTOUR_65-0
10
31.920206
20
47.060352
0
VERTEX
8
CONTOUR_65-0
10
31.919883
20
47.060121
0
VERTEX
8
CONTOUR_65-0
10
31.919825
20
47.060082
0
VERTEX
8
CONTOUR_65-0
10
31.919458
20
47.059860
0
VERTEX
8
CONTOUR_65-0
10
31.919444
20
47.059852
0
VERTEX
8
CONTOUR_65-0
10
31.919230
20
47.059746
0
VERTEX
8
CONTOUR_65-0
10
31.919063
20
47.059640
0
VERTEX
8
CONTOUR_65-0
10
31.918992
20
47.059600
0
VERTEX
8
CONTOUR_65-0
10
31.918682
20
47.059432
0
VERTEX
8
CONTOUR_65-0
10
31.918507
20
47.059340
0
VERTEX
8
CONTOUR_65-0
10
31.918301
20
47.059233
0
VERTEX
8
CONTOUR_65-0
10
31.918013
20
47.059079
0
VERTEX
8
CONTOUR_65-0
10
31.917920
20
47.059032
0
VERTEX
8
CONTOUR_65-0
10
31.917540
20
47.058857
0
VERTEX
8
CONTOUR_65-0
10
31.917451
20
47.058819
0
VERTEX
8
CONTOUR_65-0
10
31.917159
20
47.058699
0
VERTEX
8
CONTOUR_65-0
10
31.916868
20
47.058559
0
VERTEX
8
CONTOUR_65-0
10
31.916778
20
47.058513
0
VERTEX
8
CONTOUR_65-0
10
31.916422
20
47.058299
0
VERTEX
8
CONTOUR_65-0
10
31.916397
20
47.058282
0
VERTEX
8
CONTOUR_65-0
10
31.916054
20
47.058038
0
VERTEX
8
CONTOUR_65-0
10
31.916016
20
47.058010
0
VERTEX
8
CONTOUR_65-0
10
31.915677
20
47.057778
0
VERTEX
8
CONTOUR_65-0
10
31.915635
20
47.057752
0
VERTEX
8
CONTOUR_65-0
10
31.915254
20
47.057526
0
VERTEX
8
CONTOUR_65-0
10
31.915239
20
47.057518
0
VERTEX
8
CONTOUR_65-0
10
31.915035
20
47.057407
0
VERTEX
8
CONTOUR_65-0
10
31.914873
20
47.057301
0
VERTEX
8
CONTOUR_65-0
10
31.914800
20
47.057257
0
VERTEX
8
CONTOUR_65-0
10
31.914493
20
47.057090
0
VERTEX
8
CONTOUR_65-0
10
31.914322
20
47.056997
0
VERTEX
8
CONTOUR_65-0
10
31.914112
20
47.056887
0
VERTEX
8
CONTOUR_65-0
10
31.913792
20
47.056737
0
VERTEX
8
CONTOUR_65-0
10
31.913731
20
47.056712
0
VERTEX
8
CONTOUR_65-0
10
31.913350
20
47.056564
0
VERTEX
8
CONTOUR_65-0
10
31.913143
20
47.056476
0
VERTEX
8
CONTOUR_65-0
10
31.912969
20
47.056400
0
VERTEX
8
CONTOUR_65-0
10
31.912593
20
47.056216
0
VERTEX
8
CONTOUR_65-0
10
31.912588
20
47.056214
0
VERTEX
8
CONTOUR_65-0
10
31.912207
20
47.056010
0
VERTEX
8
CONTOUR_65-0
10
31.912110
20
47.055956
0
VERTEX
8
CONTOUR_65-0
10
31.911948
20
47.055873
0
VERTEX
8
CONTOUR_65-0
10
31.911827
20
47.055796
0
VERTEX
8
CONTOUR_65-0
10
31.911657
20
47.055695
0
VERTEX
8
CONTOUR_65-0
10
31.911446
20
47.055570
0
VERTEX
8
CONTOUR_65-0
10
31.911223
20
47.055435
0
VERTEX
8
CONTOUR_65-0
10
31.911065
20
47.055340
0
VERTEX
8
CONTOUR_65-0
10
31.910766
20
47.055175
0
VERTEX
8
CONTOUR_65-0
10
31.910684
20
47.055134
0
VERTEX
8
CONTOUR_65-0
10
31.910303
20
47.054968
0
VERTEX
8
CONTOUR_65-0
10
31.910178
20
47.054914
0
VERTEX
8
CONTOUR_65-0
10
31.909922
20
47.054810
0
VERTEX
8
CONTOUR_65-0
10
31.909584
20
47.054654
0
VERTEX
8
CONTOUR_65-0
10
31.909542
20
47.054634
0
VERTEX
8
CONTOUR_65-0
10
31.909161
20
47.054451
0
VERTEX
8
CONTOUR_65-0
10
31.909046
20
47.054394
0
VERTEX
8
CONTOUR_65-0
10
31.908780
20
47.054257
0
VERTEX
8
CONTOUR_65-0
10
31.908542
20
47.054133
0
VERTEX
8
CONTOUR_65-0
10
31.908399
20
47.054061
0
VERTEX
8
CONTOUR_65-0
10
31.908023
20
47.053873
0
VERTEX
8
CONTOUR_65-0
10
31.908018
20
47.053871
0
VERTEX
8
CONTOUR_65-0
10
31.907637
20
47.053719
0
VERTEX
8
CONTOUR_65-0
10
31.907372
20
47.053613
0
VERTEX
8
CONTOUR_65-0
10
31.907257
20
47.053567
0
VERTEX
8
CONTOUR_65-0
10
31.906876
20
47.053409
0
VERTEX
8
CONTOUR_65-0
10
31.906750
20
47.053352
0
VERTEX
8
CONTOUR_65-0
10
31.906495
20
47.053237
0
VERTEX
8
CONTOUR_65-0
10
31.906207
20
47.053092
0
VERTEX
8
CONTOUR_65-0
10
31.906114
20
47.053046
0
VERTEX
8
CONTOUR_65-0
10
31.905733
20
47.052859
0
VERTEX
8
CONTOUR_65-0
10
31.905679
20
47.052832
0
VERTEX
8
CONTOUR_65-0
10
31.905353
20
47.052670
0
VERTEX
8
CONTOUR_65-0
10
31.905175
20
47.052571
0
VERTEX
8
CONTOUR_65-0
10
31.904972
20
47.052453
0
VERTEX
8
CONTOUR_65-0
10
31.904725
20
47.052311
0
VERTEX
8
CONTOUR_65-0
10
31.904591
20
47.052234
0
VERTEX
8
CONTOUR_65-0
10
31.904284
20
47.052051
0
VERTEX
8
CONTOUR_65-0
10
31.904210
20
47.052002
0
VERTEX
8
CONTOUR_65-0
10
31.903914
20
47.051790
0
VERTEX
8
CONTOUR_65-0
10
31.903829
20
47.051718
0
VERTEX
8
CONTOUR_65-0
10
31.903625
20
47.051530
0
VERTEX
8
CONTOUR_65-0
10
31.903449
20
47.051307
0
VERTEX
8
CONTOUR_65-0
10
31.903418
20
47.051270
0
VERTEX
8
CONTOUR_65-0
10
31.903278
20
47.051009
0
VERTEX
8
CONTOUR_65-0
10
31.903158
20
47.050749
0
VERTEX
8
CONTOUR_65-0
10
31.903068
20
47.050561
0
VERTEX
8
CONTOUR_65-0
10
31.903026
20
47.050489
0
VERTEX
8
CONTOUR_65-0
10
31.902821
20
47.050228
0
VERTEX
8
CONTOUR_65-0
10
31.902687
20
47.050154
0
VERTEX
8
CONTOUR_65-0
10
31.902376
20
47.049968
0
VERTEX
8
CONTOUR_65-0
10
31.902307
20
47.049930
0
VERTEX
8
CONTOUR_65-0
10
31.901926
20
47.049715
0
VERTEX
8
CONTOUR_65-0
10
31.901913
20
47.049708
0
VERTEX
8
CONTOUR_65-0
10
31.901545
20
47.049506
0
VERTEX
8
CONTOUR_65-0
10
31.901437
20
47.049447
0
VERTEX
8
CONTOUR_65-0
10
31.901164
20
47.049300
0
VERTEX
8
CONTOUR_65-0
10
31.900949
20
47.049187
0
VERTEX
8
CONTOUR_65-0
10
31.900784
20
47.049099
0
VERTEX
8
CONTOUR_65-0
10
31.900453
20
47.048926
0
VERTEX
8
CONTOUR_65-0
10
31.900403
20
47.048900
0
VERTEX
8
CONTOUR_65-0
10
31.900022
20
47.048698
0
VERTEX
8
CONTOUR_65-0
10
31.899963
20
47.048666
0
VERTEX
8
CONTOUR_65-0
10
31.899780
20
47.048571
0
VERTEX
8
CONTOUR_65-0
10
31.899641
20
47.048485
0
VERTEX
8
CONTOUR_65-0
10
31.899502
20
47.048406
0
VERTEX
8
CONTOUR_65-0
10
31.899261
20
47.048264
0
VERTEX
8
CONTOUR_65-0
10
31.899056
20
47.048145
0
VERTEX
8
CONTOUR_65-0
10
31.898880
20
47.048042
0
VERTEX
8
CONTOUR_65-0
10
31.898607
20
47.047885
0
VERTEX
8
CONTOUR_65-0
10
31.898499
20
47.047822
0
VERTEX
8
CONTOUR_65-0
10
31.898150
20
47.047625
0
VERTEX
8
CONTOUR_65-0
10
31.898118
20
47.047606
0
VERTEX
8
CONTOUR_65-0
10
31.897738
20
47.047396
0
VERTEX
8
CONTOUR_65-0
10
31.897682
20
47.047364
0
VERTEX
8
CONTOUR_65-0
10
31.897357
20
47.047184
0
VERTEX
8
CONTOUR_65-0
10
31.897212
20
47.047104
0
VERTEX
8
CONTOUR_65-0
10
31.896976
20
47.046969
0
VERTEX
8
CONTOUR_65-0
10
31.896760
20
47.046843
0
VERTEX
8
CONTOUR_65-0
10
31.896595
20
47.046742
0
VERTEX
8
CONTOUR_65-0
10
31.896333
20
47.046583
0
VERTEX
8
CONTOUR_65-0
10
31.896215
20
47.046507
0
VERTEX
8
CONTOUR_65-0
10
31.895924
20
47.046323
0
VERTEX
8
CONTOUR_65-0
10
31.895834
20
47.046263
0
VERTEX
8
CONTOUR_65-0
10
31.895513
20
47.046062
0
VERTEX
8
CONTOUR_65-0
10
31.895453
20
47.046023
0
VERTEX
8
CONTOUR_65-0
10
31.895098
20
47.045802
0
VERTEX
8
CONTOUR_65-0
10
31.895073
20
47.045786
0
VERTEX
8
CONTOUR_65-0
10
31.894693
20
47.045541
0
VERTEX
8
CONTOUR_65-0
10
31.894692
20
47.045541
0
VERTEX
8
CONTOUR_65-0
10
31.894683
20
47.045535
0
VERTEX
8
CONTOUR_65-0
10
31.894311
20
47.045314
0
VERTEX
8
CONTOUR_65-0
10
31.894285
20
47.045299
0
VERTEX
8
CONTOUR_65-0
10
31.894254
20
47.045281
0
VERTEX
8
CONTOUR_65-0
10
31.893931
20
47.045081
0
VERTEX
8
CONTOUR_65-0
10
31.893829
20
47.045021
0
VERTEX
8
CONTOUR_65-0
10
31.893550
20
47.044844
0
VERTEX
8
CONTOUR_65-0
10
31.893411
20
47.044760
0
VERTEX
8
CONTOUR_65-0
10
31.893169
20
47.044599
0
VERTEX
8
CONTOUR_65-0
10
31.893012
20
47.044500
0
VERTEX
8
CONTOUR_65-0
10
31.892789
20
47.044343
0
VERTEX
8
CONTOUR_65-0
10
31.892631
20
47.044240
0
VERTEX
8
CONTOUR_65-0
10
31.892408
20
47.044081
0
VERTEX
8
CONTOUR_65-0
10
31.892262
20
47.043979
0
VERTEX
8
CONTOUR_65-0
10
31.892027
20
47.043803
0
VERTEX
8
CONTOUR_65-0
10
31.891913
20
47.043719
0
VERTEX
8
CONTOUR_65-0
10
31.891647
20
47.043504
0
VERTEX
8
CONTOUR_65-0
10
31.891587
20
47.043458
0
VERTEX
8
CONTOUR_65-0
10
31.891275
20
47.043198
0
VERTEX
8
CONTOUR_65-0
10
31.891266
20
47.043189
0
VERTEX
8
CONTOUR_65-0
10
31.890982
20
47.042938
0
VERTEX
8
CONTOUR_65-0
10
31.890885
20
47.042840
0
VERTEX
8
CONTOUR_65-0
10
31.890705
20
47.042677
0
VERTEX
8
CONTOUR_65-0
10
31.890505
20
47.042468
0
VERTEX
8
CONTOUR_65-0
10
31.890450
20
47.042417
0
VERTEX
8
CONTOUR_65-0
10
31.890247
20
47.042157
0
VERTEX
8
CONTOUR_65-0
10
31.890124
20
47.041926
0
VERTEX
8
CONTOUR_65-0
10
31.890106
20
47.041896
0
VERTEX
8
CONTOUR_65-0
10
31.890124
20
47.041790
0
VERTEX
8
CONTOUR_65-0
10
31.890157
20
47.041658
0
VERTEX
8
CONTOUR_65-0
10
31.890219
20
47.041636
0
VERTEX
8
CONTOUR_65-0
10
31.890505
20
47.041582
0
VERTEX
8
CONTOUR_65-0
10
31.890886
20
47.041611
0
VERTEX
8
CONTOUR_65-0
10
31.891001
20
47.041636
0
VERTEX
8
CONTOUR_65-0
10
31.891267
20
47.041695
0
VERTEX
8
CONTOUR_65-0
10
31.891648
20
47.041799
0
VERTEX
8
CONTOUR_65-0
10
31.891977
20
47.041897
0
VERTEX
8
CONTOUR_65-0
10
31.892028
20
47.041912
0
VERTEX
8
CONTOUR_65-0
10
31.892409
20
47.042044
0
VERTEX
8
CONTOUR_65-0
10
31.892736
20
47.042157
0
VERTEX
8
CONTOUR_65-0
10
31.892790
20
47.042175
0
VERTEX
8
CONTOUR_65-0
10
31.893170
20
47.042319
0
VERTEX
8
CONTOUR_65-0
10
31.893425
20
47.042418
0
VERTEX
8
CONTOUR_65-0
10
31.893551
20
47.042467
0
VERTEX
8
CONTOUR_65-0
10
31.893932
20
47.042625
0
VERTEX
8
CONTOUR_65-0
10
31.894052
20
47.042678
0
VERTEX
8
CONTOUR_65-0
10
31.894312
20
47.042796
0
VERTEX
8
CONTOUR_65-0
10
31.894628
20
47.042938
0
VERTEX
8
CONTOUR_65-0
10
31.894693
20
47.042967
0
VERTEX
8
CONTOUR_65-0
10
31.895074
20
47.043148
0
VERTEX
8
CONTOUR_65-0
10
31.895174
20
47.043199
0
VERTEX
8
CONTOUR_65-0
10
31.895455
20
47.043339
0
VERTEX
8
CONTOUR_65-0
10
31.895688
20
47.043459
0
VERTEX
8
CONTOUR_65-0
10
31.895835
20
47.043533
0
VERTEX
8
CONTOUR_65-0
10
31.896199
20
47.043720
0
VERTEX
8
CONTOUR_65-0
10
31.896216
20
47.043728
0
VERTEX
8
CONTOUR_65-0
10
31.896597
20
47.043922
0
VERTEX
8
CONTOUR_65-0
10
31.896705
20
47.043980
0
VERTEX
8
CONTOUR_65-0
10
31.896977
20
47.044117
0
VERTEX
8
CONTOUR_65-0
10
31.897221
20
47.044241
0
VERTEX
8
CONTOUR_65-0
10
31.897358
20
47.044308
0
VERTEX
8
CONTOUR_65-0
10
31.897739
20
47.044499
0
VERTEX
8
CONTOUR_65-0
10
31.897743
20
47.044501
0
VERTEX
8
CONTOUR_65-0
10
31.898120
20
47.044687
0
VERTEX
8
CONTOUR_65-0
10
31.898263
20
47.044761
0
VERTEX
8
CONTOUR_65-0
10
31.898500
20
47.044880
0
VERTEX
8
CONTOUR_65-0
10
31.898783
20
47.045022
0
VERTEX
8
CONTOUR_65-0
10
31.898881
20
47.045070
0
VERTEX
8
CONTOUR_65-0
10
31.899262
20
47.045282
0
VERTEX
8
CONTOUR_65-0
10
31.899262
20
47.045282
0
VERTEX
8
CONTOUR_65-0
10
31.899642
20
47.045496
0
VERTEX
8
CONTOUR_65-0
10
31.899724
20
47.045542
0
VERTEX
8
CONTOUR_65-0
10
31.900023
20
47.045710
0
VERTEX
8
CONTOUR_65-0
10
31.900180
20
47.045803
0
VERTEX
8
CONTOUR_65-0
10
31.900404
20
47.045921
0
VERTEX
8
CONTOUR_65-0
10
31.900659
20
47.046063
0
VERTEX
8
CONTOUR_65-0
10
31.900785
20
47.046133
0
VERTEX
8
CONTOUR_65-0
10
31.900939
20
47.046218
0
VERTEX
8
CONTOUR_65-0
10
31.901122
20
47.046324
0
VERTEX
8
CONTOUR_65-0
10
31.901165
20
47.046346
0
VERTEX
8
CONTOUR_65-0
10
31.901546
20
47.046548
0
VERTEX
8
CONTOUR_65-0
10
31.901614
20
47.046584
0
VERTEX
8
CONTOUR_65-0
10
31.901927
20
47.046754
0
VERTEX
8
CONTOUR_65-0
10
31.902077
20
47.046844
0
VERTEX
8
CONTOUR_65-0
10
31.902308
20
47.046975
0
VERTEX
8
CONTOUR_65-0
10
31.902520
20
47.047105
0
VERTEX
8
CONTOUR_65-0
10
31.902688
20
47.047205
0
VERTEX
8
CONTOUR_65-0
10
31.902949
20
47.047365
0
VERTEX
8
CONTOUR_65-0
10
31.903069
20
47.047435
0
VERTEX
8
CONTOUR_65-0
10
31.903385
20
47.047625
0
VERTEX
8
CONTOUR_65-0
10
31.903450
20
47.047662
0
VERTEX
8
CONTOUR_65-0
10
31.903831
20
47.047883
0
VERTEX
8
CONTOUR_65-0
10
31.903833
20
47.047884
0
VERTEX
8
CONTOUR_65-0
10
31.903835
20
47.047886
0
VERTEX
8
CONTOUR_65-0
10
31.904211
20
47.048095
0
VERTEX
8
CONTOUR_65-0
10
31.904303
20
47.048146
0
VERTEX
8
CONTOUR_65-0
10
31.904592
20
47.048308
0
VERTEX
8
CONTOUR_65-0
10
31.904790
20
47.048406
0
VERTEX
8
CONTOUR_65-0
10
31.904973
20
47.048505
0
VERTEX
8
CONTOUR_65-0
10
31.905354
20
47.048571
0
VERTEX
8
CONTOUR_65-0
10
31.905734
20
47.048610
0
VERTEX
8
CONTOUR_65-0
10
31.906115
20
47.048641
0
VERTEX
8
CONTOUR_65-0
10
31.906374
20
47.048667
0
VERTEX
8
CONTOUR_65-0
10
31.906496
20
47.048677
0
VERTEX
8
CONTOUR_65-0
10
31.906877
20
47.048753
0
VERTEX
8
CONTOUR_65-0
10
31.907258
20
47.048870
0
VERTEX
8
CONTOUR_65-0
10
31.907400
20
47.048927
0
VERTEX
8
CONTOUR_65-0
10
31.907638
20
47.049025
0
VERTEX
8
CONTOUR_65-0
10
31.907961
20
47.049188
0
VERTEX
8
CONTOUR_65-0
10
31.908019
20
47.049217
0
VERTEX
8
CONTOUR_65-0
10
31.908400
20
47.049428
0
VERTEX
8
CONTOUR_65-0
10
31.908436
20
47.049448
0
VERTEX
8
CONTOUR_65-0
10
31.908781
20
47.049631
0
VERTEX
8
CONTOUR_65-0
10
31.908913
20
47.049708
0
VERTEX
8
CONTOUR_65-0
10
31.909162
20
47.049863
0
VERTEX
8
CONTOUR_65-0
10
31.909326
20
47.049969
0
VERTEX
8
CONTOUR_65-0
10
31.909542
20
47.050109
0
VERTEX
8
CONTOUR_65-0
10
31.909736
20
47.050229
0
VERTEX
8
CONTOUR_65-0
10
31.909923
20
47.050349
0
VERTEX
8
CONTOUR_65-0
10
31.910134
20
47.050489
0
VERTEX
8
CONTOUR_65-0
10
31.910304
20
47.050609
0
VERTEX
8
CONTOUR_65-0
10
31.910492
20
47.050750
0
VERTEX
8
CONTOUR_65-0
10
31.910685
20
47.050898
0
VERTEX
8
CONTOUR_65-0
10
31.910828
20
47.051010
0
VERTEX
8
CONTOUR_65-0
10
31.911066
20
47.051199
0
VERTEX
8
CONTOUR_65-0
10
31.911169
20
47.051270
0
VERTEX
8
CONTOUR_65-0
10
31.911446
20
47.051447
0
VERTEX
8
CONTOUR_65-0
10
31.911580
20
47.051531
0
VERTEX
8
CONTOUR_65-0
10
31.911827
20
47.051680
0
VERTEX
8
CONTOUR_65-0
10
31.912007
20
47.051791
0
VERTEX
8
CONTOUR_65-0
10
31.912208
20
47.051913
0
VERTEX
8
CONTOUR_65-0
10
31.912418
20
47.052051
0
VERTEX
8
CONTOUR_65-0
10
31.912589
20
47.052161
0
VERTEX
8
CONTOUR_65-0
10
31.912806
20
47.052312
0
VERTEX
8
CONTOUR_65-0
10
31.912970
20
47.052429
0
VERTEX
8
CONTOUR_65-0
10
31.913160
20
47.052572
0
VERTEX
8
CONTOUR_65-0
10
31.913350
20
47.052717
0
VERTEX
8
CONTOUR_65-0
10
31.913533
20
47.052832
0
VERTEX
8
CONTOUR_65-0
10
31.913731
20
47.052949
0
VERTEX
8
CONTOUR_65-0
10
31.913988
20
47.053093
0
VERTEX
8
CONTOUR_65-0
10
31.914112
20
47.053154
0
VERTEX
8
CONTOUR_65-0
10
31.914486
20
47.053353
0
VERTEX
8
CONTOUR_65-0
10
31.914490
20
47.053355
0
VERTEX
8
CONTOUR_65-0
10
31.914493
20
47.053356
0
VERTEX
8
CONTOUR_65-0
10
31.914874
20
47.053562
0
VERTEX
8
CONTOUR_65-0
10
31.914963
20
47.053613
0
VERTEX
8
CONTOUR_65-0
10
31.915255
20
47.053780
0
VERTEX
8
CONTOUR_65-0
10
31.915330
20
47.053822
0
VERTEX
8
CONTOUR_65-0
10
31.915407
20
47.053874
0
VERTEX
8
CONTOUR_65-0
10
31.915635
20
47.054015
0
VERTEX
8
CONTOUR_65-0
10
31.915806
20
47.054134
0
VERTEX
8
CONTOUR_65-0
10
31.916016
20
47.054286
0
VERTEX
8
CONTOUR_65-0
10
31.916157
20
47.054394
0
VERTEX
8
CONTOUR_65-0
10
31.916274
20
47.054478
0
VERTEX
8
CONTOUR_65-0
10
31.916397
20
47.054591
0
VERTEX
8
CONTOUR_65-0
10
31.916487
20
47.054654
0
VERTEX
8
CONTOUR_65-0
10
31.916778
20
47.054829
0
VERTEX
8
CONTOUR_65-0
10
31.916920
20
47.054915
0
VERTEX
8
CONTOUR_65-0
10
31.917159
20
47.055051
0
VERTEX
8
CONTOUR_65-0
10
31.917380
20
47.055175
0
VERTEX
8
CONTOUR_65-0
10
31.917540
20
47.055264
0
VERTEX
8
CONTOUR_65-0
10
31.917862
20
47.055435
0
VERTEX
8
CONTOUR_65-0
10
31.917921
20
47.055465
0
VERTEX
8
CONTOUR_65-0
10
31.918301
20
47.055666
0
VERTEX
8
CONTOUR_65-0
10
31.918363
20
47.055696
0
VERTEX
8
CONTOUR_65-0
10
31.918682
20
47.055832
0
VERTEX
8
CONTOUR_65-0
10
31.918964
20
47.055956
0
VERTEX
8
CONTOUR_65-0
10
31.919063
20
47.055999
0
VERTEX
8
CONTOUR_65-0
10
31.919444
20
47.056191
0
VERTEX
8
CONTOUR_65-0
10
31.919487
20
47.056216
0
VERTEX
8
CONTOUR_65-0
10
31.919825
20
47.056431
0
VERTEX
8
CONTOUR_65-0
10
31.919889
20
47.056477
0
VERTEX
8
CONTOUR_65-0
10
31.920206
20
47.056716
0
VERTEX
8
CONTOUR_65-0
10
31.920236
20
47.056737
0
VERTEX
8
CONTOUR_65-0
10
31.920587
20
47.056960
0
VERTEX
8
CONTOUR_65-0
10
31.920647
20
47.056997
0
VERTEX
8
CONTOUR_65-0
10
31.920968
20
47.057191
0
VERTEX
8
CONTOUR_65-0
10
31.921078
20
47.057257
0
VERTEX
8
CONTOUR_65-0
10
31.921348
20
47.057411
0
VERTEX
8
CONTOUR_65-0
10
31.921529
20
47.057518
0
VERTEX
8
CONTOUR_65-0
10
31.921729
20
47.057630
0
VERTEX
8
CONTOUR_65-0
10
31.921997
20
47.057778
0
VERTEX
8
CONTOUR_65-0
10
31.922110
20
47.057840
0
VERTEX
8
CONTOUR_65-0
10
31.922491
20
47.058036
0
VERTEX
8
CONTOUR_65-0
10
31.922496
20
47.058038
0
VERTEX
8
CONTOUR_65-0
10
31.922872
20
47.058193
0
VERTEX
8
CONTOUR_65-0
10
31.923108
20
47.058299
0
VERTEX
8
CONTOUR_65-0
10
31.923253
20
47.058366
0
VERTEX
8
CONTOUR_65-0
10
31.923633
20
47.058559
0
VERTEX
8
CONTOUR_65-0
10
31.923634
20
47.058559
0
VERTEX
8
CONTOUR_65-0
10
31.924015
20
47.058776
0
VERTEX
8
CONTOUR_65-0
10
31.924084
20
47.058819
0
VERTEX
8
CONTOUR_65-0
10
31.924396
20
47.059020
0
VERTEX
8
CONTOUR_65-0
10
31.924484
20
47.059079
0
VERTEX
8
CONTOUR_65-0
10
31.924777
20
47.059276
0
VERTEX
8
CONTOUR_65-0
10
31.924879
20
47.059340
0
VERTEX
8
CONTOUR_65-0
10
31.925157
20
47.059502
0
VERTEX
8
CONTOUR_65-0
10
31.925327
20
47.059600
0
VERTEX
8
CONTOUR_65-0
10
31.925538
20
47.059714
0
VERTEX
8
CONTOUR_65-0
10
31.925798
20
47.059860
0
VERTEX
8
CONTOUR_65-0
10
31.925919
20
47.059920
0
VERTEX
8
CONTOUR_65-0
10
31.926300
20
47.060086
0
VERTEX
8
CONTOUR_65-0
10
31.926332
20
47.060099
0
VERTEX
8
CONTOUR_65-0
10
31.926376
20
47.060120
0
VERTEX
8
CONTOUR_65-0
10
31.926681
20
47.060260
0
VERTEX
8
CONTOUR_65-0
10
31.926921
20
47.060381
0
VERTEX
8
CONTOUR_65-0
10
31.927062
20
47.060457
0
VERTEX
8
CONTOUR_65-0
10
31.927416
20
47.060641
0
VERTEX
8
CONTOUR_65-0
10
31.927443
20
47.060656
0
VERTEX
8
CONTOUR_65-0
10
31.927824
20
47.060851
0
VERTEX
8
CONTOUR_65-0
10
31.927923
20
47.060901
0
VERTEX
8
CONTOUR_65-0
10
31.928205
20
47.061039
0
VERTEX
8
CONTOUR_65-0
10
31.928454
20
47.061161
0
VERTEX
8
CONTOUR_65-0
10
31.928533
20
47.061197
0
VERTEX
8
CONTOUR_65-0
10
31.928586
20
47.061225
0
VERTEX
8
CONTOUR_65-0
10
31.928967
20
47.061398
0
VERTEX
8
CONTOUR_65-0
10
31.929025
20
47.061422
0
VERTEX
8
CONTOUR_65-0
10
31.929348
20
47.061552
0
VERTEX
8
CONTOUR_65-0
10
31.929623
20
47.061682
0
VERTEX
8
CONTOUR_65-0
10
31.929729
20
47.061732
0
VERTEX
8
CONTOUR_65-0
10
31.930110
20
47.061934
0
VERTEX
8
CONTOUR_65-0
10
31.930125
20
47.061942
0
VERTEX
8
CONTOUR_65-0
10
31.930491
20
47.062141
0
VERTEX
8
CONTOUR_65-0
10
31.930611
20
47.062202
0
VERTEX
8
CONTOUR_65-0
10
31.930872
20
47.062332
0
VERTEX
8
CONTOUR_65-0
10
31.931139
20
47.062463
0
VERTEX
8
CONTOUR_65-0
10
31.931253
20
47.062512
0
VERTEX
8
CONTOUR_65-0
10
31.931633
20
47.062668
0
VERTEX
8
CONTOUR_65-0
10
31.931764
20
47.062723
0
VERTEX
8
CONTOUR_65-0
10
31.932014
20
47.062826
0
VERTEX
8
CONTOUR_65-0
10
31.932354
20
47.062983
0
VERTEX
8
CONTOUR_65-0
10
31.932395
20
47.063003
0
VERTEX
8
CONTOUR_65-0
10
31.932776
20
47.063202
0
VERTEX
8
CONTOUR_65-0
10
31.932854
20
47.063243
0
VERTEX
8
CONTOUR_65-0
10
31.933157
20
47.063395
0
VERTEX
8
CONTOUR_65-0
10
31.933358
20
47.063504
0
VERTEX
8
CONTOUR_65-0
10
31.933538
20
47.063604
0
VERTEX
8
CONTOUR_65-0
10
31.933795
20
47.063764
0
VERTEX
8
CONTOUR_65-0
10
31.933919
20
47.063840
0
VERTEX
8
CONTOUR_65-0
10
31.934068
20
47.063922
0
VERTEX
8
CONTOUR_65-0
10
31.934216
20
47.064024
0
VERTEX
8
CONTOUR_65-0
10
31.934300
20
47.064080
0
VERTEX
8
CONTOUR_65-0
10
31.934587
20
47.064284
0
VERTEX
8
CONTOUR_65-0
10
31.934681
20
47.064367
0
VERTEX
8
CONTOUR_65-0
10
31.934866
20
47.064545
0
VERTEX
8
CONTOUR_65-0
10
31.935053
20
47.064805
0
VERTEX
8
CONTOUR_65-0
10
31.935062
20
47.064829
0
VERTEX
8
CONTOUR_65-0
10
31.935158
20
47.065065
0
VERTEX
8
CONTOUR_65-0
10
31.935180
20
47.065325
0
VERTEX
8
CONTOUR_65-0
10
31.935146
20
47.065586
0
VERTEX
8
CONTOUR_65-0
10
31.935159
20
47.065846
0
VERTEX
8
CONTOUR_65-0
10
31.935444
20
47.066028
0
VERTEX
8
CONTOUR_65-0
10
31.935555
20
47.066106
0
VERTEX
8
CONTOUR_65-0
10
31.935825
20
47.066267
0
VERTEX
8
CONTOUR_65-0
10
31.935985
20
47.066367
0
VERTEX
8
CONTOUR_65-0
10
31.936114
20
47.066429
0
VERTEX
8
CONTOUR_65-0
10
31.936206
20
47.066494
0
VERTEX
8
CONTOUR_65-0
10
31.936443
20
47.066627
0
VERTEX
8
CONTOUR_65-0
10
31.936587
20
47.066694
0
VERTEX
8
CONTOUR_65-0
10
31.936968
20
47.066845
0
VERTEX
8
CONTOUR_65-0
10
31.937067
20
47.066887
0
VERTEX
8
CONTOUR_65-0
10
31.937349
20
47.067004
0
VERTEX
8
CONTOUR_65-0
10
31.937650
20
47.067147
0
VERTEX
8
CONTOUR_65-0
10
31.937730
20
47.067184
0
VERTEX
8
CONTOUR_65-0
10
31.938111
20
47.067358
0
VERTEX
8
CONTOUR_65-0
10
31.938224
20
47.067407
0
VERTEX
8
CONTOUR_65-0
10
31.938492
20
47.067524
0
VERTEX
8
CONTOUR_65-0
10
31.938816
20
47.067668
0
VERTEX
8
CONTOUR_65-0
10
31.938873
20
47.067693
0
VERTEX
8
CONTOUR_65-0
10
31.939254
20
47.067864
0
VERTEX
8
CONTOUR_65-0
10
31.939388
20
47.067928
0
VERTEX
8
CONTOUR_65-0
10
31.939635
20
47.068050
0
VERTEX
8
CONTOUR_65-0
10
31.939900
20
47.068188
0
VERTEX
8
CONTOUR_65-0
10
31.940016
20
47.068250
0
VERTEX
8
CONTOUR_65-0
10
31.940389
20
47.068448
0
VERTEX
8
CONTOUR_65-0
10
31.940397
20
47.068452
0
VERTEX
8
CONTOUR_65-0
10
31.940778
20
47.068648
0
VERTEX
8
CONTOUR_65-0
10
31.940898
20
47.068708
0
VERTEX
8
CONTOUR_65-0
10
31.941159
20
47.068841
0
VERTEX
8
CONTOUR_65-0
10
31.941414
20
47.068969
0
VERTEX
8
CONTOUR_65-0
10
31.941540
20
47.069033
0
VERTEX
8
CONTOUR_65-0
10
31.941920
20
47.069229
0
VERTEX
8
CONTOUR_65-0
10
31.941921
20
47.069229
0
VERTEX
8
CONTOUR_65-0
10
31.942302
20
47.069436
0
VERTEX
8
CONTOUR_65-0
10
31.942398
20
47.069489
0
VERTEX
8
CONTOUR_65-0
10
31.942683
20
47.069653
0
VERTEX
8
CONTOUR_65-0
10
31.942854
20
47.069749
0
VERTEX
8
CONTOUR_65-0
10
31.943064
20
47.069870
0
VERTEX
8
CONTOUR_65-0
10
31.943311
20
47.070009
0
VERTEX
8
CONTOUR_65-0
10
31.943445
20
47.070086
0
VERTEX
8
CONTOUR_65-0
10
31.943776
20
47.070270
0
VERTEX
8
CONTOUR_65-0
10
31.943826
20
47.070298
0
VERTEX
8
CONTOUR_65-0
10
31.944208
20
47.070506
0
VERTEX
8
CONTOUR_65-0
10
31.944252
20
47.070530
0
VERTEX
8
CONTOUR_65-0
10
31.944589
20
47.070712
0
VERTEX
8
CONTOUR_65-0
10
31.944733
20
47.070790
0
VERTEX
8
CONTOUR_65-0
10
31.944970
20
47.070922
0
VERTEX
8
CONTOUR_65-0
10
31.945197
20
47.071050
0
VERTEX
8
CONTOUR_65-0
10
31.945351
20
47.071142
0
VERTEX
8
CONTOUR_65-0
10
31.945631
20
47.071310
0
VERTEX
8
CONTOUR_65-0
10
31.945732
20
47.071374
0
VERTEX
8
CONTOUR_65-0
10
31.946051
20
47.071571
0
VERTEX
8
CONTOUR_65-0
10
31.946113
20
47.071611
0
VERTEX
8
CONTOUR_65-0
10
31.946470
20
47.071831
0
VERTEX
8
CONTOUR_65-0
10
31.946494
20
47.071846
0
VERTEX
8
CONTOUR_65-0
10
31.946875
20
47.072079
0
VERTEX
8
CONTOUR_65-0
10
31.946896
20
47.072091
0
VERTEX
8
CONTOUR_65-0
10
31.947256
20
47.072310
0
VERTEX
8
CONTOUR_65-0
10
31.947325
20
47.072351
0
VERTEX
8
CONTOUR_65-0
10
31.947637
20
47.072542
0
VERTEX
8
CONTOUR_65-0
10
31.947757
20
47.072611
0
VERTEX
8
CONTOUR_65-0
10
31.948019
20
47.072771
0
VERTEX
8
CONTOUR_65-0
10
31.948190
20
47.072872
0
VERTEX
8
CONTOUR_65-0
10
31.948400
20
47.073001
0
VERTEX
8
CONTOUR_65-0
10
31.948538
20
47.073084
0
VERTEX
8
CONTOUR_65-0
10
31.948857
20
47.073288
0
VERTEX
8
CONTOUR_65-0
10
31.949039
20
47.073392
0
VERTEX
8
CONTOUR_65-0
10
31.949162
20
47.073476
0
VERTEX
8
CONTOUR_65-0
10
31.949433
20
47.073652
0
VERTEX
8
CONTOUR_65-0
10
31.949543
20
47.073730
0
VERTEX
8
CONTOUR_65-0
10
31.949809
20
47.073912
0
VERTEX
8
CONTOUR_65-0
10
31.949924
20
47.073999
0
VERTEX
8
CONTOUR_65-0
10
31.950072
20
47.074122
0
VERTEX
8
CONTOUR_65-0
10
31.950364
20
47.074353
0
VERTEX
8
CONTOUR_65-0
10
31.950499
20
47.074433
0
VERTEX
8
CONTOUR_65-0
10
31.950687
20
47.074590
0
VERTEX
8
CONTOUR_65-0
10
31.950821
20
47.074693
0
VERTEX
8
CONTOUR_65-0
10
31.951068
20
47.074904
0
VERTEX
8
CONTOUR_65-0
10
31.951131
20
47.074953
0
VERTEX
8
CONTOUR_65-0
10
31.951423
20
47.075213
0
VERTEX
8
CONTOUR_65-0
10
31.951449
20
47.075242
0
VERTEX
8
CONTOUR_65-0
10
31.951681
20
47.075474
0
VERTEX
8
CONTOUR_65-0
10
31.951830
20
47.075651
0
VERTEX
8
CONTOUR_65-0
10
31.951909
20
47.075734
0
VERTEX
8
CONTOUR_65-0
10
31.952069
20
47.075994
0
VERTEX
8
CONTOUR_65-0
10
31.952122
20
47.076254
0
VERTEX
8
CONTOUR_65-0
10
31.951831
20
47.076475
70
1
0
SEQEND
8
CONTOUR_65-0
0
TEXT
8
CONTOUR_LABELS
10
31.978831
20
47.049475
40
0.050
1
65.0
0
POLYLINE
8
RUNWAY
66
1
10
0.0
20
0.0
0
VERTEX
8
RUNWAY
10
31.906184
20
47.050911
0
VERTEX
8
RUNWAY
10
31.932172
20
47.065500
0
VERTEX
8
RUNWAY
10
31.932539
20
47.065195
0
VERTEX
8
RUNWAY
10
31.906551
20
47.050606
0
VERTEX
8
RUNWAY
10
31.906184
20
47.050911
70
1
0
SEQEND
8
RUNWAY
0
TEXT
8
RUNWAY_LABELS
10
31.933368
20
47.023759
40
0.050
1
05
0
TEXT
8
RUNWAY_LABELS
10
31.959356
20
47.038347
40
0.050
1
23
0
ENDSEC
0
EOF
