0
SECTION
2
HEADER
9
$ACADVER
1
AC1009
0
ENDSEC
0
SECTION
2
TABLES
0
TABLE
2
VPORT
70
1
0
VPORT
2
*ACTIVE
70
0
10
0.0
20
0.0
11
1.0
21
1.0
12
0.0
22
0.0
13
0.0
23
0.0
14
1.0
24
1.0
15
0.0
25
0.0
16
0.0
26
0.0
36
1.0
17
0.0
27
0.0
37
0.0
40
100.0
41
1.5
42
50.0
43
0.0
44
0.0
50
0.0
51
0.0
71
0
72
100
73
1
74
1
75
0
76
0
77
0
78
0
0
ENDTAB
0
TABLE
2
LAYER
70
27
0
LAYER
2
0
70
64
62
7
6
CONTINUOUS
0
LAYER
2
CONTOUR_60-0
70
64
62
5
6
CONTINUOUS
0
LAYER
2
CONTOUR_65-0
70
64
62
3
6
CONTINUOUS
0
LAYER
2
CONTOUR_LABELS
70
64
62
250
6
CONTINUOUS
0
LAYER
2
RUNWAY
70
64
62
8
6
CONTINUOUS
0
LAYER
2
RUNWAY_LABELS
70
64
62
250
6
CONTINUOUS
0
LAYER
2
TRACK_LABELS
70
64
62
250
6
CONTINUOUS
0
ENDTAB
0
TABLE
2
STYLE
70
1
0
STYLE
2
STANDARD
70
0
40
0.0
41
1.0
50
0.0
71
0
42
0.2
3
TXT
4

0
ENDTAB
0
TABLE
2
VIEW
70
0
0
ENDTAB
0
TABLE
2
UCS
70
0
0
ENDTAB
0
TABLE
2
APPID
70
1
0
APPID
2
ACAD
70
64
0
ENDTAB
0
TABLE
2
DIMSTYLE
70
0
0
ENDTAB
0
ENDSEC
0
SECTION
2
ENTITIES
0
POLYLINE
8
CONTOUR_60-0
66
1
10
0.0
20
0.0
0
VERTEX
8
CONTOUR_60-0
10
31.956023
20
47.078601
0
VERTEX
8
CONTOUR_60-0
10
31.955720
20
47.078649
0
VERTEX
8
CONTOUR_60-0
10
31.955642
20
47.078649
0
VERTEX
8
CONTOUR_60-0
10
31.955261
20
47.078637
0
VERTEX
8
CONTOUR_60-0
10
31.954982
20
47.078596
0
VERTEX
8
CONTOUR_60-0
10
31.954880
20
47.078581
0
VERTEX
8
CONTOUR_60-0
10
31.954853
20
47.078577
0
VERTEX
8
CONTOUR_60-0
10
31.954499
20
47.078510
0
VERTEX
8
CONTOUR_60-0
10
31.954118
20
47.078419
0
VERTEX
8
CONTOUR_60-0
10
31.953824
20
47.078336
0
VERTEX
8
CONTOUR_60-0
10
31.953737
20
47.078311
0
VERTEX
8
CONTOUR_60-0
10
31.953356
20
47.078196
0
VERTEX
8
CONTOUR_60-0
10
31.952975
20
47.078080
0
VERTEX
8
CONTOUR_60-0
10
31.952965
20
47.078076
0
VERTEX
8
CONTOUR_60-0
10
31.952594
20
47.077940
0
VERTEX
8
CONTOUR_60-0
10
31.952254
20
47.077816
0
VERTEX
8
CONTOUR_60-0
10
31.952213
20
47.077801
0
VERTEX
8
CONTOUR_60-0
10
31.951831
20
47.077660
0
VERTEX
8
CONTOUR_60-0
10
31.951551
20
47.077556
0
VERTEX
8
CONTOUR_60-0
10
31.951450
20
47.077520
0
VERTEX
8
CONTOUR_60-0
10
31.951069
20
47.077371
0
VERTEX
8
CONTOUR_60-0
10
31.950883
20
47.077296
0
VERTEX
8
CONTOUR_60-0
10
31.950688
20
47.077218
0
VERTEX
8
CONTOUR_60-0
10
31.950307
20
47.077065
0
VERTEX
8
CONTOUR_60-0
10
31.950238
20
47.077036
0
VERTEX
8
CONTOUR_60-0
10
31.949926
20
47.076908
0
VERTEX
8
CONTOUR_60-0
10
31.949775
20
47.076827
0
VERTEX
8
CONTOUR_60-0
10
31.949426
20
47.076677
0
VERTEX
8
CONTOUR_60-0
10
31.949164
20
47.076584
0
VERTEX
8
CONTOUR_60-0
10
31.948995
20
47.076515
0
VERTEX
8
CONTOUR_60-0
10
31.948783
20
47.076425
0
VERTEX
8
CONTOUR_60-0
10
31.948401
20
47.076259
0
VERTEX
8
CONTOUR_60-0
10
31.948396
20
47.076257
0
VERTEX
8
CONTOUR_60-0
10
31.948365
20
47.076243
0
VERTEX
8
CONTOUR_60-0
10
31.947820
20
47.075995
0
VERTEX
8
CONTOUR_60-0
10
31.947746
20
47.075959
0
VERTEX
8
CONTOUR_60-0
10
31.947685
20
47.075933
0
VERTEX
8
CONTOUR_60-0
10
31.947639
20
47.075916
0
VERTEX
8
CONTOUR_60-0
10
31.947553
20
47.075878
0
VERTEX
8
CONTOUR_60-0
10
31.947118
20
47.075666
0
VERTEX
8
CONTOUR_60-0
10
31.946877
20
47.075552
0
VERTEX
8
CONTOUR_60-0
10
31.946730
20
47.075475
0
VERTEX
8
CONTOUR_60-0
10
31.946485
20
47.075348
0
VERTEX
8
CONTOUR_60-0
10
31.946115
20
47.075171
0
VERTEX
8
CONTOUR_60-0
10
31.945701
20
47.074954
0
VERTEX
8
CONTOUR_60-0
10
31.945445
20
47.074828
0
VERTEX
8
CONTOUR_60-0
10
31.945353
20
47.074784
0
VERTEX
8
CONTOUR_60-0
10
31.944667
20
47.074434
0
VERTEX
8
CONTOUR_60-0
10
31.944636
20
47.074419
0
VERTEX
8
CONTOUR_60-0
10
31.944590
20
47.074398
0
VERTEX
8
CONTOUR_60-0
10
31.943828
20
47.074016
0
VERTEX
8
CONTOUR_60-0
10
31.943639
20
47.073914
0
VERTEX
8
CONTOUR_60-0
10
31.943066
20
47.073615
0
VERTEX
8
CONTOUR_60-0
10
31.942673
20
47.073393
0
VERTEX
8
CONTOUR_60-0
10
31.942304
20
47.073197
0
VERTEX
8
CONTOUR_60-0
10
31.941740
20
47.072873
0
VERTEX
8
CONTOUR_60-0
10
31.941597
20
47.072797
0
VERTEX
8
CONTOUR_60-0
10
31.941542
20
47.072766
0
VERTEX
8
CONTOUR_60-0
10
31.941403
20
47.072684
0
VERTEX
8
CONTOUR_60-0
10
31.941059
20
47.072491
0
VERTEX
8
CONTOUR_60-0
10
31.940844
20
47.072353
0
VERTEX
8
CONTOUR_60-0
10
31.940779
20
47.072316
0
VERTEX
8
CONTOUR_60-0
10
31.940398
20
47.072093
0
VERTEX
8
CONTOUR_60-0
10
31.940397
20
47.072092
0
VERTEX
8
CONTOUR_60-0
10
31.940017
20
47.071842
0
VERTEX
8
CONTOUR_60-0
10
31.940003
20
47.071832
0
VERTEX
8
CONTOUR_60-0
10
31.939636
20
47.071614
0
VERTEX
8
CONTOUR_60-0
10
31.939567
20
47.071572
0
VERTEX
8
CONTOUR_60-0
10
31.939255
20
47.071373
0
VERTEX
8
CONTOUR_60-0
10
31.939164
20
47.071312
0
VERTEX
8
CONTOUR_60-0
10
31.939012
20
47.071217
0
VERTEX
8
CONTOUR_60-0
10
31.938874
20
47.071124
0
VERTEX
8
CONTOUR_60-0
10
31.938767
20
47.071051
0
VERTEX
8
CONTOUR_60-0
10
31.938493
20
47.070868
0
VERTEX
8
CONTOUR_60-0
10
31.938382
20
47.070791
0
VERTEX
8
CONTOUR_60-0
10
31.938112
20
47.070608
0
VERTEX
8
CONTOUR_60-0
10
31.938002
20
47.070531
0
VERTEX
8
CONTOUR_60-0
10
31.937731
20
47.070340
0
VERTEX
8
CONTOUR_60-0
10
31.937637
20
47.070271
0
VERTEX
8
CONTOUR_60-0
10
31.937350
20
47.070055
0
VERTEX
8
CONTOUR_60-0
10
31.937291
20
47.070010
0
VERTEX
8
CONTOUR_60-0
10
31.936969
20
47.069772
0
VERTEX
8
CONTOUR_60-0
10
31.936939
20
47.069750
0
VERTEX
8
CONTOUR_60-0
10
31.936588
20
47.069500
0
VERTEX
8
CONTOUR_60-0
10
31.936574
20
47.069490
0
VERTEX
8
CONTOUR_60-0
10
31.936207
20
47.069258
0
VERTEX
8
CONTOUR_60-0
10
31.936161
20
47.069230
0
VERTEX
8
CONTOUR_60-0
10
31.935826
20
47.069030
0
VERTEX
8
CONTOUR_60-0
10
31.935726
20
47.068970
0
VERTEX
8
CONTOUR_60-0
10
31.935445
20
47.068804
0
VERTEX
8
CONTOUR_60-0
10
31.935287
20
47.068709
0
VERTEX
8
CONTOUR_60-0
10
31.935064
20
47.068581
0
VERTEX
8
CONTOUR_60-0
10
31.934957
20
47.068522
0
VERTEX
8
CONTOUR_60-0
10
31.934841
20
47.068449
0
VERTEX
8
CONTOUR_60-0
10
31.934682
20
47.068359
0
VERTEX
8
CONTOUR_60-0
10
31.934394
20
47.068189
0
VERTEX
8
CONTOUR_60-0
10
31.934301
20
47.068136
0
VERTEX
8
CONTOUR_60-0
10
31.933958
20
47.067929
0
VERTEX
8
CONTOUR_60-0
10
31.933920
20
47.067907
0
VERTEX
8
CONTOUR_60-0
10
31.933539
20
47.067675
0
VERTEX
8
CONTOUR_60-0
10
31.933529
20
47.067668
0
VERTEX
8
CONTOUR_60-0
10
31.933158
20
47.067444
0
VERTEX
8
CONTOUR_60-0
10
31.933102
20
47.067408
0
VERTEX
8
CONTOUR_60-0
10
31.932777
20
47.067208
0
VERTEX
8
CONTOUR_60-0
10
31.932683
20
47.067148
0
VERTEX
8
CONTOUR_60-0
10
31.932396
20
47.066966
0
VERTEX
8
CONTOUR_60-0
10
31.932276
20
47.066888
0
VERTEX
8
CONTOUR_60-0
10
31.932015
20
47.066723
0
VERTEX
8
CONTOUR_60-0
10
31.931864
20
47.066627
0
VERTEX
8
CONTOUR_60-0
10
31.931634
20
47.066486
0
VERTEX
8
CONTOUR_60-0
10
31.931539
20
47.066433
0
VERTEX
8
CONTOUR_60-0
10
31.931437
20
47.066367
0
VERTEX
8
CONTOUR_60-0
10
31.931253
20
47.066263
0
VERTEX
8
CONTOUR_60-0
10
31.930980
20
47.066107
0
VERTEX
8
CONTOUR_60-0
10
31.930872
20
47.066052
0
VERTEX
8
CONTOUR_60-0
10
31.930491
20
47.065890
0
VERTEX
8
CONTOUR_60-0
10
31.930386
20
47.065847
0
VERTEX
8
CONTOUR_60-0
10
31.930110
20
47.065730
0
VERTEX
8
CONTOUR_60-0
10
31.929818
20
47.065586
0
VERTEX
8
CONTOUR_60-0
10
31.929729
20
47.065538
0
VERTEX
8
CONTOUR_60-0
10
31.929363
20
47.065326
0
VERTEX
8
CONTOUR_60-0
10
31.929348
20
47.065317
0
VERTEX
8
CONTOUR_60-0
10
31.928967
20
47.065089
0
VERTEX
8
CONTOUR_60-0
10
31.928947
20
47.065080
0
VERTEX
8
CONTOUR_60-0
10
31.928924
20
47.065066
0
VERTEX
8
CONTOUR_60-0
10
31.928587
20
47.064882
0
VERTEX
8
CONTOUR_60-0
10
31.928502
20
47.064863
0
VERTEX
8
CONTOUR_60-0
10
31.928388
20
47.064806
0
VERTEX
8
CONTOUR_60-0
10
31.928206
20
47.064727
0
VERTEX
8
CONTOUR_60-0
10
31.927825
20
47.064797
0
VERTEX
8
CONTOUR_60-0
10
31.927755
20
47.064806
0
VERTEX
8
CONTOUR_60-0
10
31.927444
20
47.064838
0
VERTEX
8
CONTOUR_60-0
10
31.927063
20
47.064881
0
VERTEX
8
CONTOUR_60-0
10
31.926682
20
47.064896
0
VERTEX
8
CONTOUR_60-0
10
31.926301
20
47.064896
0
VERTEX
8
CONTOUR_60-0
10
31.926186
20
47.064885
0
VERTEX
8
CONTOUR_60-0
10
31.925920
20
47.064858
0
VERTEX
8
CONTOUR_60-0
10
31.925633
20
47.064806
0
VERTEX
8
CONTOUR_60-0
10
31.925539
20
47.064790
0
VERTEX
8
CONTOUR_60-0
10
31.925158
20
47.064696
0
VERTEX
8
CONTOUR_60-0
10
31.924777
20
47.064571
0
VERTEX
8
CONTOUR_60-0
10
31.924712
20
47.064546
0
VERTEX
8
CONTOUR_60-0
10
31.924396
20
47.064425
0
VERTEX
8
CONTOUR_60-0
10
31.924083
20
47.064285
0
VERTEX
8
CONTOUR_60-0
10
31.924015
20
47.064254
0
VERTEX
8
CONTOUR_60-0
10
31.923634
20
47.064057
0
VERTEX
8
CONTOUR_60-0
10
31.923578
20
47.064025
0
VERTEX
8
CONTOUR_60-0
10
31.923253
20
47.063846
0
VERTEX
8
CONTOUR_60-0
10
31.923109
20
47.063765
0
VERTEX
8
CONTOUR_60-0
10
31.922872
20
47.063621
0
VERTEX
8
CONTOUR_60-0
10
31.922685
20
47.063504
0
VERTEX
8
CONTOUR_60-0
10
31.922491
20
47.063381
0
VERTEX
8
CONTOUR_60-0
10
31.922292
20
47.063244
0
VERTEX
8
CONTOUR_60-0
10
31.922110
20
47.063107
0
VERTEX
8
CONTOUR_60-0
10
31.921953
20
47.062984
0
VERTEX
8
CONTOUR_60-0
10
31.921730
20
47.062797
0
VERTEX
8
CONTOUR_60-0
10
31.921637
20
47.062724
0
VERTEX
8
CONTOUR_60-0
10
31.921349
20
47.062505
0
VERTEX
8
CONTOUR_60-0
10
31.921293
20
47.062463
0
VERTEX
8
CONTOUR_60-0
10
31.920968
20
47.062213
0
VERTEX
8
CONTOUR_60-0
10
31.920954
20
47.062203
0
VERTEX
8
CONTOUR_60-0
10
31.920587
20
47.061945
0
VERTEX
8
CONTOUR_60-0
10
31.920583
20
47.061943
0
VERTEX
8
CONTOUR_60-0
10
31.920206
20
47.061683
0
VERTEX
8
CONTOUR_60-0
10
31.920205
20
47.061683
0
VERTEX
8
CONTOUR_60-0
10
31.920205
20
47.061682
0
VERTEX
8
CONTOUR_60-0
10
31.919825
20
47.061444
0
VERTEX
8
CONTOUR_60-0
10
31.919790
20
47.061422
0
VERTEX
8
CONTOUR_60-0
10
31.919444
20
47.061210
0
VERTEX
8
CONTOUR_60-0
10
31.919370
20
47.061162
0
VERTEX
8
CONTOUR_60-0
10
31.919063
20
47.060960
0
VERTEX
8
CONTOUR_60-0
10
31.918975
20
47.060902
0
VERTEX
8
CONTOUR_60-0
10
31.918682
20
47.060709
0
VERTEX
8
CONTOUR_60-0
10
31.918581
20
47.060641
0
VERTEX
8
CONTOUR_60-0
10
31.918301
20
47.060454
0
VERTEX
8
CONTOUR_60-0
10
31.918193
20
47.060381
0
VERTEX
8
CONTOUR_60-0
10
31.917920
20
47.060198
0
VERTEX
8
CONTOUR_60-0
10
31.917782
20
47.060121
0
VERTEX
8
CONTOUR_60-0
10
31.917539
20
47.060005
0
VERTEX
8
CONTOUR_60-0
10
31.917242
20
47.059860
0
VERTEX
8
CONTOUR_60-0
10
31.917159
20
47.059820
0
VERTEX
8
CONTOUR_60-0
10
31.916778
20
47.059634
0
VERTEX
8
CONTOUR_60-0
10
31.916709
20
47.059600
0
VERTEX
8
CONTOUR_60-0
10
31.916397
20
47.059439
0
VERTEX
8
CONTOUR_60-0
10
31.916217
20
47.059340
0
VERTEX
8
CONTOUR_60-0
10
31.916016
20
47.059231
0
VERTEX
8
CONTOUR_60-0
10
31.915746
20
47.059079
0
VERTEX
8
CONTOUR_60-0
10
31.915635
20
47.059017
0
VERTEX
8
CONTOUR_60-0
10
31.915294
20
47.058819
0
VERTEX
8
CONTOUR_60-0
10
31.915254
20
47.058796
0
VERTEX
8
CONTOUR_60-0
10
31.914873
20
47.058600
0
VERTEX
8
CONTOUR_60-0
10
31.914774
20
47.058559
0
VERTEX
8
CONTOUR_60-0
10
31.914492
20
47.058448
0
VERTEX
8
CONTOUR_60-0
10
31.914126
20
47.058298
0
VERTEX
8
CONTOUR_60-0
10
31.914112
20
47.058293
0
VERTEX
8
CONTOUR_60-0
10
31.913731
20
47.058138
0
VERTEX
8
CONTOUR_60-0
10
31.913493
20
47.058038
0
VERTEX
8
CONTOUR_60-0
10
31.913350
20
47.057979
0
VERTEX
8
CONTOUR_60-0
10
31.912969
20
47.057815
0
VERTEX
8
CONTOUR_60-0
10
31.912888
20
47.057778
0
VERTEX
8
CONTOUR_60-0
10
31.912588
20
47.057648
0
VERTEX
8
CONTOUR_60-0
10
31.912259
20
47.057517
0
VERTEX
8
CONTOUR_60-0
10
31.912207
20
47.057498
0
VERTEX
8
CONTOUR_60-0
10
31.911980
20
47.057412
0
VERTEX
8
CONTOUR_60-0
10
31.911826
20
47.057350
0
VERTEX
8
CONTOUR_60-0
10
31.911605
20
47.057257
0
VERTEX
8
CONTOUR_60-0
10
31.911445
20
47.057191
0
VERTEX
8
CONTOUR_60-0
10
31.911065
20
47.057019
0
VERTEX
8
CONTOUR_60-0
10
31.911020
20
47.056997
0
VERTEX
8
CONTOUR_60-0
10
31.910684
20
47.056840
0
VERTEX
8
CONTOUR_60-0
10
31.910470
20
47.056736
0
VERTEX
8
CONTOUR_60-0
10
31.910303
20
47.056653
0
VERTEX
8
CONTOUR_60-0
10
31.909997
20
47.056476
0
VERTEX
8
CONTOUR_60-0
10
31.909922
20
47.056435
0
VERTEX
8
CONTOUR_60-0
10
31.909541
20
47.056233
0
VERTEX
8
CONTOUR_60-0
10
31.909513
20
47.056216
0
VERTEX
8
CONTOUR_60-0
10
31.909160
20
47.055990
0
VERTEX
8
CONTOUR_60-0
10
31.909109
20
47.055955
0
VERTEX
8
CONTOUR_60-0
10
31.908943
20
47.055844
0
VERTEX
8
CONTOUR_60-0
10
31.908780
20
47.055708
0
VERTEX
8
CONTOUR_60-0
10
31.908764
20
47.055695
0
VERTEX
8
CONTOUR_60-0
10
31.908474
20
47.055435
0
VERTEX
8
CONTOUR_60-0
10
31.908399
20
47.055352
0
VERTEX
8
CONTOUR_60-0
10
31.908244
20
47.055175
0
VERTEX
8
CONTOUR_60-0
10
31.908076
20
47.054914
0
VERTEX
8
CONTOUR_60-0
10
31.908018
20
47.054762
0
VERTEX
8
CONTOUR_60-0
10
31.907974
20
47.054654
0
VERTEX
8
CONTOUR_60-0
10
31.907903
20
47.054394
0
VERTEX
8
CONTOUR_60-0
10
31.907864
20
47.054133
0
VERTEX
8
CONTOUR_60-0
10
31.907884
20
47.053873
0
VERTEX
8
CONTOUR_60-0
10
31.907912
20
47.053613
0
VERTEX
8
CONTOUR_60-0
10
31.908018
20
47.053360
0
VERTEX
8
CONTOUR_60-0
10
31.908021
20
47.053352
0
VERTEX
8
CONTOUR_60-0
10
31.908018
20
47.053350
0
VERTEX
8
CONTOUR_60-0
10
31.907689
20
47.053092
0
VERTEX
8
CONTOUR_60-0
10
31.907638
20
47.053063
0
VERTEX
8
CONTOUR_60-0
10
31.907440
20
47.052967
0
VERTEX
8
CONTOUR_60-0
10
31.907257
20
47.052846
0
VERTEX
8
CONTOUR_60-0
10
31.907233
20
47.052832
0
VERTEX
8
CONTOUR_60-0
10
31.906876
20
47.052646
0
VERTEX
8
CONTOUR_60-0
10
31.906739
20
47.052571
0
VERTEX
8
CONTOUR_60-0
10
31.906495
20
47.052443
0
VERTEX
8
CONTOUR_60-0
10
31.906251
20
47.052311
0
VERTEX
8
CONTOUR_60-0
10
31.906114
20
47.052238
0
VERTEX
8
CONTOUR_60-0
10
31.905766
20
47.052051
0
VERTEX
8
CONTOUR_60-0
10
31.905734
20
47.052033
0
VERTEX
8
CONTOUR_60-0
10
31.905353
20
47.051836
0
VERTEX
8
CONTOUR_60-0
10
31.905263
20
47.051790
0
VERTEX
8
CONTOUR_60-0
10
31.904972
20
47.051642
0
VERTEX
8
CONTOUR_60-0
10
31.904750
20
47.051530
0
VERTEX
8
CONTOUR_60-0
10
31.904591
20
47.051454
0
VERTEX
8
CONTOUR_60-0
10
31.904210
20
47.051296
0
VERTEX
8
CONTOUR_60-0
10
31.904145
20
47.051270
0
VERTEX
8
CONTOUR_60-0
10
31.903830
20
47.051147
0
VERTEX
8
CONTOUR_60-0
10
31.903496
20
47.051009
0
VERTEX
8
CONTOUR_60-0
10
31.903449
20
47.050989
0
VERTEX
8
CONTOUR_60-0
10
31.903068
20
47.050830
0
VERTEX
8
CONTOUR_60-0
10
31.902876
20
47.050749
0
VERTEX
8
CONTOUR_60-0
10
31.902687
20
47.050668
0
VERTEX
8
CONTOUR_60-0
10
31.902306
20
47.050502
0
VERTEX
8
CONTOUR_60-0
10
31.902277
20
47.050488
0
VERTEX
8
CONTOUR_60-0
10
31.901926
20
47.050327
0
VERTEX
8
CONTOUR_60-0
10
31.901712
20
47.050228
0
VERTEX
8
CONTOUR_60-0
10
31.901545
20
47.050149
0
VERTEX
8
CONTOUR_60-0
10
31.901164
20
47.049970
0
VERTEX
8
CONTOUR_60-0
10
31.901158
20
47.049968
0
VERTEX
8
CONTOUR_60-0
10
31.900783
20
47.049789
0
VERTEX
8
CONTOUR_60-0
10
31.900615
20
47.049707
0
VERTEX
8
CONTOUR_60-0
10
31.900403
20
47.049599
0
VERTEX
8
CONTOUR_60-0
10
31.900105
20
47.049447
0
VERTEX
8
CONTOUR_60-0
10
31.900022
20
47.049403
0
VERTEX
8
CONTOUR_60-0
10
31.899641
20
47.049208
0
VERTEX
8
CONTOUR_60-0
10
31.899595
20
47.049187
0
VERTEX
8
CONTOUR_60-0
10
31.899260
20
47.049019
0
VERTEX
8
CONTOUR_60-0
10
31.899091
20
47.048926
0
VERTEX
8
CONTOUR_60-0
10
31.898880
20
47.048812
0
VERTEX
8
CONTOUR_60-0
10
31.898602
20
47.048666
0
VERTEX
8
CONTOUR_60-0
10
31.898499
20
47.048609
0
VERTEX
8
CONTOUR_60-0
10
31.898133
20
47.048405
0
VERTEX
8
CONTOUR_60-0
10
31.898118
20
47.048397
0
VERTEX
8
CONTOUR_60-0
10
31.897737
20
47.048192
0
VERTEX
8
CONTOUR_60-0
10
31.897653
20
47.048145
0
VERTEX
8
CONTOUR_60-0
10
31.897357
20
47.047975
0
VERTEX
8
CONTOUR_60-0
10
31.897189
20
47.047885
0
VERTEX
8
CONTOUR_60-0
10
31.896976
20
47.047766
0
VERTEX
8
CONTOUR_60-0
10
31.896728
20
47.047624
0
VERTEX
8
CONTOUR_60-0
10
31.896595
20
47.047548
0
VERTEX
8
CONTOUR_60-0
10
31.896270
20
47.047364
0
VERTEX
8
CONTOUR_60-0
10
31.896214
20
47.047331
0
VERTEX
8
CONTOUR_60-0
10
31.895842
20
47.047103
0
VERTEX
8
CONTOUR_60-0
10
31.895834
20
47.047098
0
VERTEX
8
CONTOUR_60-0
10
31.895453
20
47.046870
0
VERTEX
8
CONTOUR_60-0
10
31.895410
20
47.046843
0
VERTEX
8
CONTOUR_60-0
10
31.895072
20
47.046625
0
VERTEX
8
CONTOUR_60-0
10
31.895027
20
47.046598
0
VERTEX
8
CONTOUR_60-0
10
31.894916
20
47.046529
0
VERTEX
8
CONTOUR_60-0
10
31.894577
20
47.046322
0
VERTEX
8
CONTOUR_60-0
10
31.894484
20
47.046263
0
VERTEX
8
CONTOUR_60-0
10
31.894311
20
47.046149
0
VERTEX
8
CONTOUR_60-0
10
31.893748
20
47.045802
0
VERTEX
8
CONTOUR_60-0
10
31.893615
20
47.045712
0
VERTEX
8
CONTOUR_60-0
10
31.893550
20
47.045670
0
VERTEX
8
CONTOUR_60-0
10
31.893370
20
47.045555
0
VERTEX
8
CONTOUR_60-0
10
31.893094
20
47.045383
0
VERTEX
8
CONTOUR_60-0
10
31.892936
20
47.045281
0
VERTEX
8
CONTOUR_60-0
10
31.892788
20
47.045182
0
VERTEX
8
CONTOUR_60-0
10
31.892534
20
47.045020
0
VERTEX
8
CONTOUR_60-0
10
31.892408
20
47.044934
0
VERTEX
8
CONTOUR_60-0
10
31.892155
20
47.044760
0
VERTEX
8
CONTOUR_60-0
10
31.892027
20
47.044671
0
VERTEX
8
CONTOUR_60-0
10
31.891859
20
47.044557
0
VERTEX
8
CONTOUR_60-0
10
31.891531
20
47.044330
0
VERTEX
8
CONTOUR_60-0
10
31.891405
20
47.044239
0
VERTEX
8
CONTOUR_60-0
10
31.891362
20
47.044206
0
VERTEX
8
CONTOUR_60-0
10
31.891266
20
47.044134
0
VERTEX
8
CONTOUR_60-0
10
31.890675
20
47.043718
0
VERTEX
8
CONTOUR_60-0
10
31.890567
20
47.043633
0
VERTEX
8
CONTOUR_60-0
10
31.890504
20
47.043588
0
VERTEX
8
CONTOUR_60-0
10
31.890303
20
47.043443
0
VERTEX
8
CONTOUR_60-0
10
31.890070
20
47.043271
0
VERTEX
8
CONTOUR_60-0
10
31.889959
20
47.043198
0
VERTEX
8
CONTOUR_60-0
10
31.889743
20
47.043032
0
VERTEX
8
CONTOUR_60-0
10
31.889611
20
47.042937
0
VERTEX
8
CONTOUR_60-0
10
31.889362
20
47.042760
0
VERTEX
8
CONTOUR_60-0
10
31.889247
20
47.042677
0
VERTEX
8
CONTOUR_60-0
10
31.888982
20
47.042474
0
VERTEX
8
CONTOUR_60-0
10
31.888931
20
47.042434
0
VERTEX
8
CONTOUR_60-0
10
31.888583
20
47.042181
0
VERTEX
8
CONTOUR_60-0
10
31.888544
20
47.042156
0
VERTEX
8
CONTOUR_60-0
10
31.888221
20
47.041903
0
VERTEX
8
CONTOUR_60-0
10
31.888211
20
47.041896
0
VERTEX
8
CONTOUR_60-0
10
31.887867
20
47.041635
0
VERTEX
8
CONTOUR_60-0
10
31.887840
20
47.041613
0
VERTEX
8
CONTOUR_60-0
10
31.887544
20
47.041375
0
VERTEX
8
CONTOUR_60-0
10
31.887459
20
47.041305
0
VERTEX
8
CONTOUR_60-0
10
31.887215
20
47.041115
0
VERTEX
8
CONTOUR_60-0
10
31.887079
20
47.040998
0
VERTEX
8
CONTOUR_60-0
10
31.886907
20
47.040854
0
VERTEX
8
CONTOUR_60-0
10
31.886698
20
47.040674
0
VERTEX
8
CONTOUR_60-0
10
31.886597
20
47.040594
0
VERTEX
8
CONTOUR_60-0
10
31.886318
20
47.040354
0
VERTEX
8
CONTOUR_60-0
10
31.886293
20
47.040333
0
VERTEX
8
CONTOUR_60-0
10
31.886003
20
47.040073
0
VERTEX
8
CONTOUR_60-0
10
31.885937
20
47.040007
0
VERTEX
8
CONTOUR_60-0
10
31.885736
20
47.039813
0
VERTEX
8
CONTOUR_60-0
10
31.885557
20
47.039623
0
VERTEX
8
CONTOUR_60-0
10
31.885488
20
47.039552
0
VERTEX
8
CONTOUR_60-0
10
31.885302
20
47.039292
0
VERTEX
8
CONTOUR_60-0
10
31.885176
20
47.039074
0
VERTEX
8
CONTOUR_60-0
10
31.885149
20
47.039032
0
VERTEX
8
CONTOUR_60-0
10
31.885167
20
47.038771
0
VERTEX
8
CONTOUR_60-0
10
31.885176
20
47.038762
0
VERTEX
8
CONTOUR_60-0
10
31.885557
20
47.038640
0
VERTEX
8
CONTOUR_60-0
10
31.885938
20
47.038662
0
VERTEX
8
CONTOUR_60-0
10
31.886319
20
47.038719
0
VERTEX
8
CONTOUR_60-0
10
31.886526
20
47.038772
0
VERTEX
8
CONTOUR_60-0
10
31.886699
20
47.038816
0
VERTEX
8
CONTOUR_60-0
10
31.887080
20
47.038928
0
VERTEX
8
CONTOUR_60-0
10
31.887411
20
47.039032
0
VERTEX
8
CONTOUR_60-0
10
31.887461
20
47.039048
0
VERTEX
8
CONTOUR_60-0
10
31.887841
20
47.039182
0
VERTEX
8
CONTOUR_60-0
10
31.888153
20
47.039293
0
VERTEX
8
CONTOUR_60-0
10
31.888222
20
47.039317
0
VERTEX
8
CONTOUR_60-0
10
31.888603
20
47.039452
0
VERTEX
8
CONTOUR_60-0
10
31.888890
20
47.039553
0
VERTEX
8
CONTOUR_60-0
10
31.888983
20
47.039586
0
VERTEX
8
CONTOUR_60-0
10
31.889266
20
47.039717
0
VERTEX
8
CONTOUR_60-0
10
31.889547
20
47.039824
0
VERTEX
8
CONTOUR_60-0
10
31.889745
20
47.039882
0
VERTEX
8
CONTOUR_60-0
10
31.890081
20
47.040014
0
VERTEX
8
CONTOUR_60-0
10
31.890148
20
47.040043
0
VERTEX
8
CONTOUR_60-0
10
31.890234
20
47.040074
0
VERTEX
8
CONTOUR_60-0
10
31.890506
20
47.040182
0
VERTEX
8
CONTOUR_60-0
10
31.890886
20
47.040335
0
VERTEX
8
CONTOUR_60-0
10
31.890887
20
47.040335
0
VERTEX
8
CONTOUR_60-0
10
31.891267
20
47.040499
0
VERTEX
8
CONTOUR_60-0
10
31.891491
20
47.040595
0
VERTEX
8
CONTOUR_60-0
10
31.891648
20
47.040662
0
VERTEX
8
CONTOUR_60-0
10
31.892029
20
47.040823
0
VERTEX
8
CONTOUR_60-0
10
31.892068
20
47.040842
0
VERTEX
8
CONTOUR_60-0
10
31.892481
20
47.041018
0
VERTEX
8
CONTOUR_60-0
10
31.892721
20
47.041116
0
VERTEX
8
CONTOUR_60-0
10
31.892790
20
47.041145
0
VERTEX
8
CONTOUR_60-0
10
31.893171
20
47.041308
0
VERTEX
8
CONTOUR_60-0
10
31.893326
20
47.041376
0
VERTEX
8
CONTOUR_60-0
10
31.893552
20
47.041473
0
VERTEX
8
CONTOUR_60-0
10
31.893912
20
47.041637
0
VERTEX
8
CONTOUR_60-0
10
31.894084
20
47.041715
0
VERTEX
8
CONTOUR_60-0
10
31.894216
20
47.041769
0
VERTEX
8
CONTOUR_60-0
10
31.894313
20
47.041807
0
VERTEX
8
CONTOUR_60-0
10
31.894494
20
47.041884
0
VERTEX
8
CONTOUR_60-0
10
31.894793
20
47.042022
0
VERTEX
8
CONTOUR_60-0
10
31.895074
20
47.042148
0
VERTEX
8
CONTOUR_60-0
10
31.895094
20
47.042158
0
VERTEX
8
CONTOUR_60-0
10
31.895404
20
47.042306
0
VERTEX
8
CONTOUR_60-0
10
31.895836
20
47.042501
0
VERTEX
8
CONTOUR_60-0
10
31.896193
20
47.042679
0
VERTEX
8
CONTOUR_60-0
10
31.896493
20
47.042821
0
VERTEX
8
CONTOUR_60-0
10
31.896597
20
47.042869
0
VERTEX
8
CONTOUR_60-0
10
31.897251
20
47.043199
0
VERTEX
8
CONTOUR_60-0
10
31.897295
20
47.043221
0
VERTEX
8
CONTOUR_60-0
10
31.897359
20
47.043250
0
VERTEX
8
CONTOUR_60-0
10
31.897913
20
47.043530
0
VERTEX
8
CONTOUR_60-0
10
31.898120
20
47.043633
0
VERTEX
8
CONTOUR_60-0
10
31.898286
20
47.043720
0
VERTEX
8
CONTOUR_60-0
10
31.898501
20
47.043826
0
VERTEX
8
CONTOUR_60-0
10
31.898812
20
47.043981
0
VERTEX
8
CONTOUR_60-0
10
31.898881
20
47.044015
0
VERTEX
8
CONTOUR_60-0
10
31.899262
20
47.044212
0
VERTEX
8
CONTOUR_60-0
10
31.899315
20
47.044241
0
VERTEX
8
CONTOUR_60-0
10
31.899643
20
47.044412
0
VERTEX
8
CONTOUR_60-0
10
31.899805
20
47.044501
0
VERTEX
8
CONTOUR_60-0
10
31.900024
20
47.044620
0
VERTEX
8
CONTOUR_60-0
10
31.900275
20
47.044762
0
VERTEX
8
CONTOUR_60-0
10
31.900404
20
47.044830
0
VERTEX
8
CONTOUR_60-0
10
31.900748
20
47.045022
0
VERTEX
8
CONTOUR_60-0
10
31.900785
20
47.045043
0
VERTEX
8
CONTOUR_60-0
10
31.901166
20
47.045264
0
VERTEX
8
CONTOUR_60-0
10
31.901196
20
47.045282
0
VERTEX
8
CONTOUR_60-0
10
31.901546
20
47.045478
0
VERTEX
8
CONTOUR_60-0
10
31.901598
20
47.045507
0
VERTEX
8
CONTOUR_60-0
10
31.901660
20
47.045543
0
VERTEX
8
CONTOUR_60-0
10
31.901927
20
47.045694
0
VERTEX
8
CONTOUR_60-0
10
31.902105
20
47.045803
0
VERTEX
8
CONTOUR_60-0
10
31.902308
20
47.045918
0
VERTEX
8
CONTOUR_60-0
10
31.902554
20
47.046063
0
VERTEX
8
CONTOUR_60-0
10
31.902689
20
47.046146
0
VERTEX
8
CONTOUR_60-0
10
31.902970
20
47.046324
0
VERTEX
8
CONTOUR_60-0
10
31.903069
20
47.046382
0
VERTEX
8
CONTOUR_60-0
10
31.903409
20
47.046584
0
VERTEX
8
CONTOUR_60-0
10
31.903450
20
47.046609
0
VERTEX
8
CONTOUR_60-0
10
31.903819
20
47.046845
0
VERTEX
8
CONTOUR_60-0
10
31.903831
20
47.046852
0
VERTEX
8
CONTOUR_60-0
10
31.904212
20
47.047087
0
VERTEX
8
CONTOUR_60-0
10
31.904239
20
47.047105
0
VERTEX
8
CONTOUR_60-0
10
31.904592
20
47.047345
0
VERTEX
8
CONTOUR_60-0
10
31.904620
20
47.047365
0
VERTEX
8
CONTOUR_60-0
10
31.904973
20
47.047601
0
VERTEX
8
CONTOUR_60-0
10
31.905008
20
47.047626
0
VERTEX
8
CONTOUR_60-0
10
31.905354
20
47.047859
0
VERTEX
8
CONTOUR_60-0
10
31.905392
20
47.047886
0
VERTEX
8
CONTOUR_60-0
10
31.905735
20
47.048130
0
VERTEX
8
CONTOUR_60-0
10
31.905756
20
47.048146
0
VERTEX
8
CONTOUR_60-0
10
31.906110
20
47.048407
0
VERTEX
8
CONTOUR_60-0
10
31.906115
20
47.048410
0
VERTEX
8
CONTOUR_60-0
10
31.906463
20
47.048667
0
VERTEX
8
CONTOUR_60-0
10
31.906496
20
47.048691
0
VERTEX
8
CONTOUR_60-0
10
31.906801
20
47.048927
0
VERTEX
8
CONTOUR_60-0
10
31.906877
20
47.048986
0
VERTEX
8
CONTOUR_60-0
10
31.907140
20
47.049188
0
VERTEX
8
CONTOUR_60-0
10
31.907258
20
47.049270
0
VERTEX
8
CONTOUR_60-0
10
31.907533
20
47.049448
0
VERTEX
8
CONTOUR_60-0
10
31.907638
20
47.049511
0
VERTEX
8
CONTOUR_60-0
10
31.907956
20
47.049708
0
VERTEX
8
CONTOUR_60-0
10
31.908019
20
47.049745
0
VERTEX
8
CONTOUR_60-0
10
31.908387
20
47.049969
0
VERTEX
8
CONTOUR_60-0
10
31.908400
20
47.049976
0
VERTEX
8
CONTOUR_60-0
10
31.908781
20
47.050200
0
VERTEX
8
CONTOUR_60-0
10
31.908829
20
47.050229
0
VERTEX
8
CONTOUR_60-0
10
31.909161
20
47.050423
0
VERTEX
8
CONTOUR_60-0
10
31.909273
20
47.050489
0
VERTEX
8
CONTOUR_60-0
10
31.909542
20
47.050649
0
VERTEX
8
CONTOUR_60-0
10
31.909716
20
47.050750
0
VERTEX
8
CONTOUR_60-0
10
31.909923
20
47.050870
0
VERTEX
8
CONTOUR_60-0
10
31.910191
20
47.051010
0
VERTEX
8
CONTOUR_60-0
10
31.910304
20
47.051070
0
VERTEX
8
CONTOUR_60-0
10
31.910685
20
47.051188
0
VERTEX
8
CONTOUR_60-0
10
31.911066
20
47.051031
0
VERTEX
8
CONTOUR_60-0
10
31.911218
20
47.051010
0
VERTEX
8
CONTOUR_60-0
10
31.911446
20
47.050982
0
VERTEX
8
CONTOUR_60-0
10
31.911827
20
47.050921
0
VERTEX
8
CONTOUR_60-0
10
31.912208
20
47.050902
0
VERTEX
8
CONTOUR_60-0
10
31.912589
20
47.050903
0
VERTEX
8
CONTOUR_60-0
10
31.912970
20
47.050931
0
VERTEX
8
CONTOUR_60-0
10
31.913351
20
47.050999
0
VERTEX
8
CONTOUR_60-0
10
31.913395
20
47.051010
0
VERTEX
8
CONTOUR_60-0
10
31.913731
20
47.051095
0
VERTEX
8
CONTOUR_60-0
10
31.914112
20
47.051223
0
VERTEX
8
CONTOUR_60-0
10
31.914232
20
47.051271
0
VERTEX
8
CONTOUR_60-0
10
31.914493
20
47.051376
0
VERTEX
8
CONTOUR_60-0
10
31.914632
20
47.051436
0
VERTEX
8
CONTOUR_60-0
10
31.914821
20
47.051531
0
VERTEX
8
CONTOUR_60-0
10
31.914874
20
47.051556
0
VERTEX
8
CONTOUR_60-0
10
31.915255
20
47.051763
0
VERTEX
8
CONTOUR_60-0
10
31.915301
20
47.051791
0
VERTEX
8
CONTOUR_60-0
10
31.915636
20
47.051981
0
VERTEX
8
CONTOUR_60-0
10
31.915759
20
47.052051
0
VERTEX
8
CONTOUR_60-0
10
31.916016
20
47.052211
0
VERTEX
8
CONTOUR_60-0
10
31.916168
20
47.052312
0
VERTEX
8
CONTOUR_60-0
10
31.916397
20
47.052465
0
VERTEX
8
CONTOUR_60-0
10
31.916560
20
47.052572
0
VERTEX
8
CONTOUR_60-0
10
31.916778
20
47.052725
0
VERTEX
8
CONTOUR_60-0
10
31.916927
20
47.052832
0
VERTEX
8
CONTOUR_60-0
10
31.917159
20
47.053011
0
VERTEX
8
CONTOUR_60-0
10
31.917265
20
47.053093
0
VERTEX
8
CONTOUR_60-0
10
31.917540
20
47.053311
0
VERTEX
8
CONTOUR_60-0
10
31.917594
20
47.053353
0
VERTEX
8
CONTOUR_60-0
10
31.917921
20
47.053592
0
VERTEX
8
CONTOUR_60-0
10
31.917937
20
47.053602
0
VERTEX
8
CONTOUR_60-0
10
31.917951
20
47.053613
0
VERTEX
8
CONTOUR_60-0
10
31.918301
20
47.053866
0
VERTEX
8
CONTOUR_60-0
10
31.918307
20
47.053870
0
VERTEX
8
CONTOUR_60-0
10
31.918311
20
47.053874
0
VERTEX
8
CONTOUR_60-0
10
31.918660
20
47.054134
0
VERTEX
8
CONTOUR_60-0
10
31.918682
20
47.054150
0
VERTEX
8
CONTOUR_60-0
10
31.919005
20
47.054394
0
VERTEX
8
CONTOUR_60-0
10
31.919063
20
47.054439
0
VERTEX
8
CONTOUR_60-0
10
31.919216
20
47.054550
0
VERTEX
8
CONTOUR_60-0
10
31.919344
20
47.054654
0
VERTEX
8
CONTOUR_60-0
10
31.919444
20
47.054732
0
VERTEX
8
CONTOUR_60-0
10
31.919724
20
47.054915
0
VERTEX
8
CONTOUR_60-0
10
31.919825
20
47.054970
0
VERTEX
8
CONTOUR_60-0
10
31.920198
20
47.055175
0
VERTEX
8
CONTOUR_60-0
10
31.920206
20
47.055179
0
VERTEX
8
CONTOUR_60-0
10
31.920587
20
47.055392
0
VERTEX
8
CONTOUR_60-0
10
31.920662
20
47.055435
0
VERTEX
8
CONTOUR_60-0
10
31.920967
20
47.055612
0
VERTEX
8
CONTOUR_60-0
10
31.921106
20
47.055696
0
VERTEX
8
CONTOUR_60-0
10
31.921348
20
47.055843
0
VERTEX
8
CONTOUR_60-0
10
31.921523
20
47.055956
0
VERTEX
8
CONTOUR_60-0
10
31.921729
20
47.056088
0
VERTEX
8
CONTOUR_60-0
10
31.921926
20
47.056216
0
VERTEX
8
CONTOUR_60-0
10
31.922110
20
47.056338
0
VERTEX
8
CONTOUR_60-0
10
31.922343
20
47.056476
0
VERTEX
8
CONTOUR_60-0
10
31.922491
20
47.056551
0
VERTEX
8
CONTOUR_60-0
10
31.922872
20
47.056730
0
VERTEX
8
CONTOUR_60-0
10
31.922878
20
47.056733
0
VERTEX
8
CONTOUR_60-0
10
31.922886
20
47.056737
0
VERTEX
8
CONTOUR_60-0
10
31.923253
20
47.056907
0
VERTEX
8
CONTOUR_60-0
10
31.923442
20
47.056997
0
VERTEX
8
CONTOUR_60-0
10
31.923634
20
47.057087
0
VERTEX
8
CONTOUR_60-0
10
31.923989
20
47.057257
0
VERTEX
8
CONTOUR_60-0
10
31.924015
20
47.057270
0
VERTEX
8
CONTOUR_60-0
10
31.924396
20
47.057460
0
VERTEX
8
CONTOUR_60-0
10
31.924506
20
47.057518
0
VERTEX
8
CONTOUR_60-0
10
31.924776
20
47.057656
0
VERTEX
8
CONTOUR_60-0
10
31.925035
20
47.057778
0
VERTEX
8
CONTOUR_60-0
10
31.925157
20
47.057833
0
VERTEX
8
CONTOUR_60-0
10
31.925538
20
47.058006
0
VERTEX
8
CONTOUR_60-0
10
31.925567
20
47.058019
0
VERTEX
8
CONTOUR_60-0
10
31.925609
20
47.058038
0
VERTEX
8
CONTOUR_60-0
10
31.925919
20
47.058169
0
VERTEX
8
CONTOUR_60-0
10
31.926235
20
47.058298
0
VERTEX
8
CONTOUR_60-0
10
31.926300
20
47.058324
0
VERTEX
8
CONTOUR_60-0
10
31.926681
20
47.058482
0
VERTEX
8
CONTOUR_60-0
10
31.926881
20
47.058559
0
VERTEX
8
CONTOUR_60-0
10
31.927062
20
47.058623
0
VERTEX
8
CONTOUR_60-0
10
31.927284
20
47.058710
0
VERTEX
8
CONTOUR_60-0
10
31.927472
20
47.058780
0
VERTEX
8
CONTOUR_60-0
10
31.927554
20
47.058819
0
VERTEX
8
CONTOUR_60-0
10
31.927824
20
47.058938
0
VERTEX
8
CONTOUR_60-0
10
31.928106
20
47.059079
0
VERTEX
8
CONTOUR_60-0
10
31.928205
20
47.059128
0
VERTEX
8
CONTOUR_60-0
10
31.928387
20
47.059215
0
VERTEX
8
CONTOUR_60-0
10
31.928586
20
47.059329
0
VERTEX
8
CONTOUR_60-0
10
31.928604
20
47.059339
0
VERTEX
8
CONTOUR_60-0
10
31.928966
20
47.059545
0
VERTEX
8
CONTOUR_60-0
10
31.929063
20
47.059600
0
VERTEX
8
CONTOUR_60-0
10
31.929347
20
47.059773
0
VERTEX
8
CONTOUR_60-0
10
31.929477
20
47.059860
0
VERTEX
8
CONTOUR_60-0
10
31.929728
20
47.060041
0
VERTEX
8
CONTOUR_60-0
10
31.929832
20
47.060120
0
VERTEX
8
CONTOUR_60-0
10
31.930109
20
47.060357
0
VERTEX
8
CONTOUR_60-0
10
31.930136
20
47.060380
0
VERTEX
8
CONTOUR_60-0
10
31.930387
20
47.060641
0
VERTEX
8
CONTOUR_60-0
10
31.930490
20
47.060779
0
VERTEX
8
CONTOUR_60-0
10
31.930582
20
47.060901
0
VERTEX
8
CONTOUR_60-0
10
31.930727
20
47.061161
0
VERTEX
8
CONTOUR_60-0
10
31.930808
20
47.061422
0
VERTEX
8
CONTOUR_60-0
10
31.930861
20
47.061682
0
VERTEX
8
CONTOUR_60-0
10
31.930871
20
47.061840
0
VERTEX
8
CONTOUR_60-0
10
31.930879
20
47.061942
0
VERTEX
8
CONTOUR_60-0
10
31.930909
20
47.062202
0
VERTEX
8
CONTOUR_60-0
10
31.930872
20
47.062334
0
VERTEX
8
CONTOUR_60-0
10
31.930835
20
47.062463
0
VERTEX
8
CONTOUR_60-0
10
31.930872
20
47.062490
0
VERTEX
8
CONTOUR_60-0
10
31.931148
20
47.062723
0
VERTEX
8
CONTOUR_60-0
10
31.931253
20
47.062782
0
VERTEX
8
CONTOUR_60-0
10
31.931422
20
47.062867
0
VERTEX
8
CONTOUR_60-0
10
31.931602
20
47.062983
0
VERTEX
8
CONTOUR_60-0
10
31.931634
20
47.062999
0
VERTEX
8
CONTOUR_60-0
10
31.932015
20
47.063196
0
VERTEX
8
CONTOUR_60-0
10
31.932097
20
47.063243
0
VERTEX
8
CONTOUR_60-0
10
31.932396
20
47.063407
0
VERTEX
8
CONTOUR_60-0
10
31.932546
20
47.063504
0
VERTEX
8
CONTOUR_60-0
10
31.932777
20
47.063657
0
VERTEX
8
CONTOUR_60-0
10
31.932920
20
47.063764
0
VERTEX
8
CONTOUR_60-0
10
31.933158
20
47.063953
0
VERTEX
8
CONTOUR_60-0
10
31.933265
20
47.064024
0
VERTEX
8
CONTOUR_60-0
10
31.933539
20
47.064181
0
VERTEX
8
CONTOUR_60-0
10
31.933723
20
47.064284
0
VERTEX
8
CONTOUR_60-0
10
31.933919
20
47.064390
0
VERTEX
8
CONTOUR_60-0
10
31.934217
20
47.064545
0
VERTEX
8
CONTOUR_60-0
10
31.934300
20
47.064586
0
VERTEX
8
CONTOUR_60-0
10
31.934493
20
47.064673
0
VERTEX
8
CONTOUR_60-0
10
31.934681
20
47.064777
0
VERTEX
8
CONTOUR_60-0
10
31.934738
20
47.064805
0
VERTEX
8
CONTOUR_60-0
10
31.935062
20
47.064961
0
VERTEX
8
CONTOUR_60-0
10
31.935271
20
47.065065
0
VERTEX
8
CONTOUR_60-0
10
31.935443
20
47.065151
0
VERTEX
8
CONTOUR_60-0
10
31.935782
20
47.065325
0
VERTEX
8
CONTOUR_60-0
10
31.935824
20
47.065347
0
VERTEX
8
CONTOUR_60-0
10
31.936205
20
47.065543
0
VERTEX
8
CONTOUR_60-0
10
31.936288
20
47.065586
0
VERTEX
8
CONTOUR_60-0
10
31.936586
20
47.065740
0
VERTEX
8
CONTOUR_60-0
10
31.936789
20
47.065846
0
VERTEX
8
CONTOUR_60-0
10
31.936967
20
47.065941
0
VERTEX
8
CONTOUR_60-0
10
31.937273
20
47.066106
0
VERTEX
8
CONTOUR_60-0
10
31.937348
20
47.066147
0
VERTEX
8
CONTOUR_60-0
10
31.937730
20
47.066355
0
VERTEX
8
CONTOUR_60-0
10
31.937752
20
47.066366
0
VERTEX
8
CONTOUR_60-0
10
31.938111
20
47.066557
0
VERTEX
8
CONTOUR_60-0
10
31.938242
20
47.066626
0
VERTEX
8
CONTOUR_60-0
10
31.938492
20
47.066758
0
VERTEX
8
CONTOUR_60-0
10
31.938737
20
47.066887
0
VERTEX
8
CONTOUR_60-0
10
31.938873
20
47.066958
0
VERTEX
8
CONTOUR_60-0
10
31.939237
20
47.067147
0
VERTEX
8
CONTOUR_60-0
10
31.939254
20
47.067155
0
VERTEX
8
CONTOUR_60-0
10
31.939485
20
47.067249
0
VERTEX
8
CONTOUR_60-0
10
31.939635
20
47.067320
0
VERTEX
8
CONTOUR_60-0
10
31.939835
20
47.067407
0
VERTEX
8
CONTOUR_60-0
10
31.940016
20
47.067484
0
VERTEX
8
CONTOUR_60-0
10
31.940397
20
47.067641
0
VERTEX
8
CONTOUR_60-0
10
31.940461
20
47.067667
0
VERTEX
8
CONTOUR_60-0
10
31.940778
20
47.067798
0
VERTEX
8
CONTOUR_60-0
10
31.941071
20
47.067927
0
VERTEX
8
CONTOUR_60-0
10
31.941159
20
47.067967
0
VERTEX
8
CONTOUR_60-0
10
31.941540
20
47.068142
0
VERTEX
8
CONTOUR_60-0
10
31.941641
20
47.068188
0
VERTEX
8
CONTOUR_60-0
10
31.941921
20
47.068317
0
VERTEX
8
CONTOUR_60-0
10
31.942200
20
47.068448
0
VERTEX
8
CONTOUR_60-0
10
31.942302
20
47.068497
0
VERTEX
8
CONTOUR_60-0
10
31.942683
20
47.068685
0
VERTEX
8
CONTOUR_60-0
10
31.942730
20
47.068708
0
VERTEX
8
CONTOUR_60-0
10
31.943064
20
47.068879
0
VERTEX
8
CONTOUR_60-0
10
31.943243
20
47.068968
0
VERTEX
8
CONTOUR_60-0
10
31.943445
20
47.069072
0
VERTEX
8
CONTOUR_60-0
10
31.943756
20
47.069228
0
VERTEX
8
CONTOUR_60-0
10
31.943826
20
47.069265
0
VERTEX
8
CONTOUR_60-0
10
31.944103
20
47.069394
0
VERTEX
8
CONTOUR_60-0
10
31.944588
20
47.069658
0
VERTEX
8
CONTOUR_60-0
10
31.944763
20
47.069749
0
VERTEX
8
CONTOUR_60-0
10
31.945183
20
47.069977
0
VERTEX
8
CONTOUR_60-0
10
31.945350
20
47.070077
0
VERTEX
8
CONTOUR_60-0
10
31.945701
20
47.070269
0
VERTEX
8
CONTOUR_60-0
10
31.945860
20
47.070355
0
VERTEX
8
CONTOUR_60-0
10
31.946112
20
47.070508
0
VERTEX
8
CONTOUR_60-0
10
31.946608
20
47.070790
0
VERTEX
8
CONTOUR_60-0
10
31.946794
20
47.070900
0
VERTEX
8
CONTOUR_60-0
10
31.946875
20
47.070951
0
VERTEX
8
CONTOUR_60-0
10
31.947470
20
47.071310
0
VERTEX
8
CONTOUR_60-0
10
31.947529
20
47.071347
0
VERTEX
8
CONTOUR_60-0
10
31.947637
20
47.071419
0
VERTEX
8
CONTOUR_60-0
10
31.948302
20
47.071830
0
VERTEX
8
CONTOUR_60-0
10
31.948367
20
47.071874
0
VERTEX
8
CONTOUR_60-0
10
31.948399
20
47.071894
0
VERTEX
8
CONTOUR_60-0
10
31.948485
20
47.071948
0
VERTEX
8
CONTOUR_60-0
10
31.948892
20
47.072198
0
VERTEX
8
CONTOUR_60-0
10
31.949142
20
47.072351
0
VERTEX
8
CONTOUR_60-0
10
31.949161
20
47.072363
0
VERTEX
8
CONTOUR_60-0
10
31.949542
20
47.072597
0
VERTEX
8
CONTOUR_60-0
10
31.949566
20
47.072611
0
VERTEX
8
CONTOUR_60-0
10
31.949924
20
47.072838
0
VERTEX
8
CONTOUR_60-0
10
31.949977
20
47.072871
0
VERTEX
8
CONTOUR_60-0
10
31.950222
20
47.073029
0
VERTEX
8
CONTOUR_60-0
10
31.950454
20
47.073187
0
VERTEX
8
CONTOUR_60-0
10
31.950686
20
47.073335
0
VERTEX
8
CONTOUR_60-0
10
31.950774
20
47.073391
0
VERTEX
8
CONTOUR_60-0
10
31.951067
20
47.073595
0
VERTEX
8
CONTOUR_60-0
10
31.951151
20
47.073652
0
VERTEX
8
CONTOUR_60-0
10
31.951448
20
47.073863
0
VERTEX
8
CONTOUR_60-0
10
31.951519
20
47.073912
0
VERTEX
8
CONTOUR_60-0
10
31.951734
20
47.074074
0
VERTEX
8
CONTOUR_60-0
10
31.951963
20
47.074250
0
VERTEX
8
CONTOUR_60-0
10
31.952210
20
47.074415
0
VERTEX
8
CONTOUR_60-0
10
31.952237
20
47.074432
0
VERTEX
8
CONTOUR_60-0
10
31.952586
20
47.074692
0
VERTEX
8
CONTOUR_60-0
10
31.952592
20
47.074697
0
VERTEX
8
CONTOUR_60-0
10
31.952932
20
47.074953
0
VERTEX
8
CONTOUR_60-0
10
31.952973
20
47.074985
0
VERTEX
8
CONTOUR_60-0
10
31.953171
20
47.075145
0
VERTEX
8
CONTOUR_60-0
10
31.953437
20
47.075360
0
VERTEX
8
CONTOUR_60-0
10
31.953606
20
47.075473
0
VERTEX
8
CONTOUR_60-0
10
31.953735
20
47.075584
0
VERTEX
8
CONTOUR_60-0
10
31.953925
20
47.075733
0
VERTEX
8
CONTOUR_60-0
10
31.954116
20
47.075887
0
VERTEX
8
CONTOUR_60-0
10
31.954251
20
47.075993
0
VERTEX
8
CONTOUR_60-0
10
31.954498
20
47.076212
0
VERTEX
8
CONTOUR_60-0
10
31.954529
20
47.076243
0
VERTEX
8
CONTOUR_60-0
10
31.954782
20
47.076448
0
VERTEX
8
CONTOUR_60-0
10
31.954861
20
47.076514
0
VERTEX
8
CONTOUR_60-0
10
31.954879
20
47.076531
0
VERTEX
8
CONTOUR_60-0
10
31.955136
20
47.076774
0
VERTEX
8
CONTOUR_60-0
10
31.955260
20
47.076894
0
VERTEX
8
CONTOUR_60-0
10
31.955415
20
47.077034
0
VERTEX
8
CONTOUR_60-0
10
31.955641
20
47.077275
0
VERTEX
8
CONTOUR_60-0
10
31.955660
20
47.077294
0
VERTEX
8
CONTOUR_60-0
10
31.955867
20
47.077555
0
VERTEX
8
CONTOUR_60-0
10
31.956023
20
47.077802
0
VERTEX
8
CONTOUR_60-0
10
31.956032
20
47.077815
0
VERTEX
8
CONTOUR_60-0
10
31.956172
20
47.078075
0
VERTEX
8
CONTOUR_60-0
10
31.956215
20
47.078335
0
VERTEX
8
CONTOUR_60-0
10
31.956037
20
47.078596
0
VERTEX
8
CONTOUR_60-0
10
31.956023
20
47.078601
70
1
0
SEQEND
8
CONTOUR_60-0
0
TEXT
8
CONTOUR_LABELS
10
31.983023
20
47.051601
40
0.050
1
60.0
0
POLYLINE
8
CONTOUR_65-0
66
1
10
0.0
20
0.0
0
VERTEX
8
CONTOUR_65-0
10
31.943827
20
47.071820
0
VERTEX
8
CONTOUR_65-0
10
31.943637
20
47.071831
0
VERTEX
8
CONTOUR_65-0
10
31.943446
20
47.071836
0
VERTEX
8
CONTOUR_65-0
10
31.943425
20
47.071831
0
VERTEX
8
CONTOUR_65-0
10
31.943065
20
47.071762
0
VERTEX
8
CONTOUR_65-0
10
31.942684
20
47.071653
0
VERTEX
8
CONTOUR_65-0
10
31.942446
20
47.071571
0
VERTEX
8
CONTOUR_65-0
10
31.942303
20
47.071525
0
VERTEX
8
CONTOUR_65-0
10
31.941922
20
47.071372
0
VERTEX
8
CONTOUR_65-0
10
31.941787
20
47.071311
0
VERTEX
8
CONTOUR_65-0
10
31.941541
20
47.071206
0
VERTEX
8
CONTOUR_65-0
10
31.941209
20
47.071051
0
VERTEX
8
CONTOUR_65-0
10
31.941160
20
47.071030
0
VERTEX
8
CONTOUR_65-0
10
31.940779
20
47.070854
0
VERTEX
8
CONTOUR_65-0
10
31.940653
20
47.070791
0
VERTEX
8
CONTOUR_65-0
10
31.940398
20
47.070673
0
VERTEX
8
CONTOUR_65-0
10
31.940125
20
47.070531
0
VERTEX
8
CONTOUR_65-0
10
31.940062
20
47.070500
0
VERTEX
8
CONTOUR_65-0
10
31.940017
20
47.070477
0
VERTEX
8
CONTOUR_65-0
10
31.939645
20
47.070270
0
VERTEX
8
CONTOUR_65-0
10
31.939639
20
47.070268
0
VERTEX
8
CONTOUR_65-0
10
31.939636
20
47.070266
0
VERTEX
8
CONTOUR_65-0
10
31.939255
20
47.070059
0
VERTEX
8
CONTOUR_65-0
10
31.939170
20
47.070010
0
VERTEX
8
CONTOUR_65-0
10
31.938874
20
47.069852
0
VERTEX
8
CONTOUR_65-0
10
31.938703
20
47.069750
0
VERTEX
8
CONTOUR_65-0
10
31.938493
20
47.069625
0
VERTEX
8
CONTOUR_65-0
10
31.938287
20
47.069490
0
VERTEX
8
CONTOUR_65-0
10
31.938112
20
47.069378
0
VERTEX
8
CONTOUR_65-0
10
31.937891
20
47.069229
0
VERTEX
8
CONTOUR_65-0
10
31.937730
20
47.069128
0
VERTEX
8
CONTOUR_65-0
10
31.937495
20
47.068969
0
VERTEX
8
CONTOUR_65-0
10
31.937349
20
47.068858
0
VERTEX
8
CONTOUR_65-0
10
31.937118
20
47.068709
0
VERTEX
8
CONTOUR_65-0
10
31.936968
20
47.068627
0
VERTEX
8
CONTOUR_65-0
10
31.936634
20
47.068449
0
VERTEX
8
CONTOUR_65-0
10
31.936587
20
47.068425
0
VERTEX
8
CONTOUR_65-0
10
31.936206
20
47.068225
0
VERTEX
8
CONTOUR_65-0
10
31.936139
20
47.068189
0
VERTEX
8
CONTOUR_65-0
10
31.935825
20
47.068029
0
VERTEX
8
CONTOUR_65-0
10
31.935639
20
47.067928
0
VERTEX
8
CONTOUR_65-0
10
31.935444
20
47.067830
0
VERTEX
8
CONTOUR_65-0
10
31.935144
20
47.067668
0
VERTEX
8
CONTOUR_65-0
10
31.935063
20
47.067627
0
VERTEX
8
CONTOUR_65-0
10
31.934682
20
47.067417
0
VERTEX
8
CONTOUR_65-0
10
31.934667
20
47.067408
0
VERTEX
8
CONTOUR_65-0
10
31.934301
20
47.067210
0
VERTEX
8
CONTOUR_65-0
10
31.934192
20
47.067148
0
VERTEX
8
CONTOUR_65-0
10
31.933920
20
47.067002
0
VERTEX
8
CONTOUR_65-0
10
31.933721
20
47.066887
0
VERTEX
8
CONTOUR_65-0
10
31.933539
20
47.066788
0
VERTEX
8
CONTOUR_65-0
10
31.933270
20
47.066627
0
VERTEX
8
CONTOUR_65-0
10
31.933158
20
47.066564
0
VERTEX
8
CONTOUR_65-0
10
31.932836
20
47.066367
0
VERTEX
8
CONTOUR_65-0
10
31.932777
20
47.066333
0
VERTEX
8
CONTOUR_65-0
10
31.932404
20
47.066107
0
VERTEX
8
CONTOUR_65-0
10
31.932396
20
47.066102
0
VERTEX
8
CONTOUR_65-0
10
31.932015
20
47.065869
0
VERTEX
8
CONTOUR_65-0
10
31.931976
20
47.065846
0
VERTEX
8
CONTOUR_65-0
10
31.931634
20
47.065665
0
VERTEX
8
CONTOUR_65-0
10
31.931483
20
47.065586
0
VERTEX
8
CONTOUR_65-0
10
31.931253
20
47.065492
0
VERTEX
8
CONTOUR_65-0
10
31.930872
20
47.065331
0
VERTEX
8
CONTOUR_65-0
10
31.930863
20
47.065326
0
VERTEX
8
CONTOUR_65-0
10
31.930491
20
47.065112
0
VERTEX
8
CONTOUR_65-0
10
31.930417
20
47.065066
0
VERTEX
8
CONTOUR_65-0
10
31.930110
20
47.064870
0
VERTEX
8
CONTOUR_65-0
10
31.930058
20
47.064841
0
VERTEX
8
CONTOUR_65-0
10
31.930007
20
47.064805
0
VERTEX
8
CONTOUR_65-0
10
31.929729
20
47.064646
0
VERTEX
8
CONTOUR_65-0
10
31.929567
20
47.064545
0
VERTEX
8
CONTOUR_65-0
10
31.929348
20
47.064428
0
VERTEX
8
CONTOUR_65-0
10
31.929094
20
47.064285
0
VERTEX
8
CONTOUR_65-0
10
31.928967
20
47.064217
0
VERTEX
8
CONTOUR_65-0
10
31.928622
20
47.064025
0
VERTEX
8
CONTOUR_65-0
10
31.928586
20
47.064005
0
VERTEX
8
CONTOUR_65-0
10
31.928370
20
47.063912
0
VERTEX
8
CONTOUR_65-0
10
31.928205
20
47.063802
0
VERTEX
8
CONTOUR_65-0
10
31.928128
20
47.063764
0
VERTEX
8
CONTOUR_65-0
10
31.927824
20
47.063617
0
VERTEX
8
CONTOUR_65-0
10
31.927443
20
47.063517
0
VERTEX
8
CONTOUR_65-0
10
31.927065
20
47.063765
0
VERTEX
8
CONTOUR_65-0
10
31.927063
20
47.063765
0
VERTEX
8
CONTOUR_65-0
10
31.926682
20
47.063849
0
VERTEX
8
CONTOUR_65-0
10
31.926301
20
47.063865
0
VERTEX
8
CONTOUR_65-0
10
31.925920
20
47.063828
0
VERTEX
8
CONTOUR_65-0
10
31.925645
20
47.063765
0
VERTEX
8
CONTOUR_65-0
10
31.925539
20
47.063741
0
VERTEX
8
CONTOUR_65-0
10
31.925158
20
47.063609
0
VERTEX
8
CONTOUR_65-0
10
31.924926
20
47.063504
0
VERTEX
8
CONTOUR_65-0
10
31.924777
20
47.063434
0
VERTEX
8
CONTOUR_65-0
10
31.924441
20
47.063244
0
VERTEX
8
CONTOUR_65-0
10
31.924396
20
47.063218
0
VERTEX
8
CONTOUR_65-0
10
31.924015
20
47.063004
0
VERTEX
8
CONTOUR_65-0
10
31.923984
20
47.062984
0
VERTEX
8
CONTOUR_65-0
10
31.923634
20
47.062730
0
VERTEX
8
CONTOUR_65-0
10
31.923626
20
47.062724
0
VERTEX
8
CONTOUR_65-0
10
31.923279
20
47.062463
0
VERTEX
8
CONTOUR_65-0
10
31.923253
20
47.062441
0
VERTEX
8
CONTOUR_65-0
10
31.922982
20
47.062203
0
VERTEX
8
CONTOUR_65-0
10
31.922872
20
47.062096
0
VERTEX
8
CONTOUR_65-0
10
31.922775
20
47.062009
0
VERTEX
8
CONTOUR_65-0
10
31.922704
20
47.061943
0
VERTEX
8
CONTOUR_65-0
10
31.922491
20
47.061774
0
VERTEX
8
CONTOUR_65-0
10
31.922423
20
47.061729
0
VERTEX
8
CONTOUR_65-0
10
31.922360
20
47.061682
0
VERTEX
8
CONTOUR_65-0
10
31.922110
20
47.061514
0
VERTEX
8
CONTOUR_65-0
10
31.921975
20
47.061422
0
VERTEX
8
CONTOUR_65-0
10
31.921729
20
47.061268
0
VERTEX
8
CONTOUR_65-0
10
31.921564
20
47.061162
0
VERTEX
8
CONTOUR_65-0
10
31.921349
20
47.061025
0
VERTEX
8
CONTOUR_65-0
10
31.921169
20
47.060902
0
VERTEX
8
CONTOUR_65-0
10
31.920968
20
47.060764
0
VERTEX
8
CONTOUR_65-0
10
31.920769
20
47.060641
0
VERTEX
8
CONTOUR_65-0
10
31.920587
20
47.060531
0
VERTEX
8
CONTOUR_65-0
10
31.920347
20
47.060381
0
VERTEX
8
CONTOUR_65-0
10
31.920206
20
47.060293
0
VERTEX
8
CONTOUR_65-0
10
31.919929
20
47.060121
0
VERTEX
8
CONTOUR_65-0
10
31.919825
20
47.060060
0
VERTEX
8
CONTOUR_65-0
10
31.919494
20
47.059860
0
VERTEX
8
CONTOUR_65-0
10
31.919444
20
47.059830
0
VERTEX
8
CONTOUR_65-0
10
31.919261
20
47.059725
0
VERTEX
8
CONTOUR_65-0
10
31.919097
20
47.059600
0
VERTEX
8
CONTOUR_65-0
10
31.919063
20
47.059578
0
VERTEX
8
CONTOUR_65-0
10
31.918682
20
47.059342
0
VERTEX
8
CONTOUR_65-0
10
31.918678
20
47.059340
0
VERTEX
8
CONTOUR_65-0
10
31.918301
20
47.059171
0
VERTEX
8
CONTOUR_65-0
10
31.918114
20
47.059079
0
VERTEX
8
CONTOUR_65-0
10
31.917920
20
47.058982
0
VERTEX
8
CONTOUR_65-0
10
31.917608
20
47.058819
0
VERTEX
8
CONTOUR_65-0
10
31.917540
20
47.058783
0
VERTEX
8
CONTOUR_65-0
10
31.917159
20
47.058572
0
VERTEX
8
CONTOUR_65-0
10
31.917135
20
47.058559
0
VERTEX
8
CONTOUR_65-0
10
31.916778
20
47.058361
0
VERTEX
8
CONTOUR_65-0
10
31.916671
20
47.058299
0
VERTEX
8
CONTOUR_65-0
10
31.916397
20
47.058139
0
VERTEX
8
CONTOUR_65-0
10
31.916234
20
47.058038
0
VERTEX
8
CONTOUR_65-0
10
31.916016
20
47.057902
0
VERTEX
8
CONTOUR_65-0
10
31.915760
20
47.057778
0
VERTEX
8
CONTOUR_65-0
10
31.915635
20
47.057728
0
VERTEX
8
CONTOUR_65-0
10
31.915254
20
47.057566
0
VERTEX
8
CONTOUR_65-0
10
31.915147
20
47.057518
0
VERTEX
8
CONTOUR_65-0
10
31.914873
20
47.057391
0
VERTEX
8
CONTOUR_65-0
10
31.914590
20
47.057257
0
VERTEX
8
CONTOUR_65-0
10
31.914493
20
47.057211
0
VERTEX
8
CONTOUR_65-0
10
31.914112
20
47.057032
0
VERTEX
8
CONTOUR_65-0
10
31.914036
20
47.056997
0
VERTEX
8
CONTOUR_65-0
10
31.913731
20
47.056855
0
VERTEX
8
CONTOUR_65-0
10
31.913430
20
47.056737
0
VERTEX
8
CONTOUR_65-0
10
31.913350
20
47.056710
0
VERTEX
8
CONTOUR_65-0
10
31.913119
20
47.056634
0
VERTEX
8
CONTOUR_65-0
10
31.912969
20
47.056578
0
VERTEX
8
CONTOUR_65-0
10
31.912691
20
47.056476
0
VERTEX
8
CONTOUR_65-0
10
31.912588
20
47.056438
0
VERTEX
8
CONTOUR_65-0
10
31.912207
20
47.056288
0
VERTEX
8
CONTOUR_65-0
10
31.912040
20
47.056216
0
VERTEX
8
CONTOUR_65-0
10
31.911826
20
47.056128
0
VERTEX
8
CONTOUR_65-0
10
31.911446
20
47.055972
0
VERTEX
8
CONTOUR_65-0
10
31.911411
20
47.055956
0
VERTEX
8
CONTOUR_65-0
10
31.911065
20
47.055789
0
VERTEX
8
CONTOUR_65-0
10
31.910900
20
47.055695
0
VERTEX
8
CONTOUR_65-0
10
31.910684
20
47.055579
0
VERTEX
8
CONTOUR_65-0
10
31.910428
20
47.055435
0
VERTEX
8
CONTOUR_65-0
10
31.910303
20
47.055358
0
VERTEX
8
CONTOUR_65-0
10
31.910031
20
47.055175
0
VERTEX
8
CONTOUR_65-0
10
31.909922
20
47.055087
0
VERTEX
8
CONTOUR_65-0
10
31.909731
20
47.054914
0
VERTEX
8
CONTOUR_65-0
10
31.909542
20
47.054668
0
VERTEX
8
CONTOUR_65-0
10
31.909531
20
47.054654
0
VERTEX
8
CONTOUR_65-0
10
31.909415
20
47.054394
0
VERTEX
8
CONTOUR_65-0
10
31.909406
20
47.054133
0
VERTEX
8
CONTOUR_65-0
10
31.909454
20
47.053873
0
VERTEX
8
CONTOUR_65-0
10
31.909542
20
47.053798
0
VERTEX
8
CONTOUR_65-0
10
31.909758
20
47.053613
0
VERTEX
8
CONTOUR_65-0
10
31.909664
20
47.053529
0
VERTEX
8
CONTOUR_65-0
10
31.909617
20
47.053353
0
VERTEX
8
CONTOUR_65-0
10
31.909542
20
47.053294
0
VERTEX
8
CONTOUR_65-0
10
31.909218
20
47.053092
0
VERTEX
8
CONTOUR_65-0
10
31.909161
20
47.053062
0
VERTEX
8
CONTOUR_65-0
10
31.908780
20
47.052859
0
VERTEX
8
CONTOUR_65-0
10
31.908756
20
47.052849
0
VERTEX
8
CONTOUR_65-0
10
31.908730
20
47.052832
0
VERTEX
8
CONTOUR_65-0
10
31.908399
20
47.052659
0
VERTEX
8
CONTOUR_65-0
10
31.908242
20
47.052572
0
VERTEX
8
CONTOUR_65-0
10
31.908019
20
47.052450
0
VERTEX
8
CONTOUR_65-0
10
31.907769
20
47.052311
0
VERTEX
8
CONTOUR_65-0
10
31.907638
20
47.052239
0
VERTEX
8
CONTOUR_65-0
10
31.907303
20
47.052051
0
VERTEX
8
CONTOUR_65-0
10
31.907257
20
47.052025
0
VERTEX
8
CONTOUR_65-0
10
31.906876
20
47.051805
0
VERTEX
8
CONTOUR_65-0
10
31.906850
20
47.051791
0
VERTEX
8
CONTOUR_65-0
10
31.906495
20
47.051588
0
VERTEX
8
CONTOUR_65-0
10
31.906395
20
47.051530
0
VERTEX
8
CONTOUR_65-0
10
31.906115
20
47.051370
0
VERTEX
8
CONTOUR_65-0
10
31.905940
20
47.051270
0
VERTEX
8
CONTOUR_65-0
10
31.905734
20
47.051152
0
VERTEX
8
CONTOUR_65-0
10
31.905486
20
47.051009
0
VERTEX
8
CONTOUR_65-0
10
31.905353
20
47.050935
0
VERTEX
8
CONTOUR_65-0
10
31.904974
20
47.050749
0
VERTEX
8
CONTOUR_65-0
10
31.904972
20
47.050748
0
VERTEX
8
CONTOUR_65-0
10
31.904591
20
47.050588
0
VERTEX
8
CONTOUR_65-0
10
31.904376
20
47.050489
0
VERTEX
8
CONTOUR_65-0
10
31.904211
20
47.050408
0
VERTEX
8
CONTOUR_65-0
10
31.903866
20
47.050228
0
VERTEX
8
CONTOUR_65-0
10
31.903830
20
47.050209
0
VERTEX
8
CONTOUR_65-0
10
31.903449
20
47.050012
0
VERTEX
8
CONTOUR_65-0
10
31.903364
20
47.049968
0
VERTEX
8
CONTOUR_65-0
10
31.903068
20
47.049810
0
VERTEX
8
CONTOUR_65-0
10
31.902883
20
47.049708
0
VERTEX
8
CONTOUR_65-0
10
31.902688
20
47.049592
0
VERTEX
8
CONTOUR_65-0
10
31.902438
20
47.049447
0
VERTEX
8
CONTOUR_65-0
10
31.902307
20
47.049368
0
VERTEX
8
CONTOUR_65-0
10
31.901995
20
47.049187
0
VERTEX
8
CONTOUR_65-0
10
31.901926
20
47.049145
0
VERTEX
8
CONTOUR_65-0
10
31.901560
20
47.048927
0
VERTEX
8
CONTOUR_65-0
10
31.901545
20
47.048917
0
VERTEX
8
CONTOUR_65-0
10
31.901165
20
47.048673
0
VERTEX
8
CONTOUR_65-0
10
31.901153
20
47.048666
0
VERTEX
8
CONTOUR_65-0
10
31.900784
20
47.048421
0
VERTEX
8
CONTOUR_65-0
10
31.900760
20
47.048406
0
VERTEX
8
CONTOUR_65-0
10
31.900403
20
47.048164
0
VERTEX
8
CONTOUR_65-0
10
31.900373
20
47.048145
0
VERTEX
8
CONTOUR_65-0
10
31.900022
20
47.047899
0
VERTEX
8
CONTOUR_65-0
10
31.900002
20
47.047885
0
VERTEX
8
CONTOUR_65-0
10
31.899657
20
47.047625
0
VERTEX
8
CONTOUR_65-0
10
31.899642
20
47.047611
0
VERTEX
8
CONTOUR_65-0
10
31.899333
20
47.047364
0
VERTEX
8
CONTOUR_65-0
10
31.899261
20
47.047296
0
VERTEX
8
CONTOUR_65-0
10
31.899042
20
47.047104
0
VERTEX
8
CONTOUR_65-0
10
31.898880
20
47.046927
0
VERTEX
8
CONTOUR_65-0
10
31.898792
20
47.046844
0
VERTEX
8
CONTOUR_65-0
10
31.898594
20
47.046583
0
VERTEX
8
CONTOUR_65-0
10
31.898500
20
47.046340
0
VERTEX
8
CONTOUR_65-0
10
31.898493
20
47.046323
0
VERTEX
8
CONTOUR_65-0
10
31.898500
20
47.046311
0
VERTEX
8
CONTOUR_65-0
10
31.898881
20
47.046169
0
VERTEX
8
CONTOUR_65-0
10
31.899261
20
47.046215
0
VERTEX
8
CONTOUR_65-0
10
31.899642
20
47.046298
0
VERTEX
8
CONTOUR_65-0
10
31.899722
20
47.046323
0
VERTEX
8
CONTOUR_65-0
10
31.900023
20
47.046414
0
VERTEX
8
CONTOUR_65-0
10
31.900404
20
47.046543
0
VERTEX
8
CONTOUR_65-0
10
31.900504
20
47.046584
0
VERTEX
8
CONTOUR_65-0
10
31.900784
20
47.046693
0
VERTEX
8
CONTOUR_65-0
10
31.901163
20
47.046844
0
VERTEX
8
CONTOUR_65-0
10
31.901165
20
47.046845
0
VERTEX
8
CONTOUR_65-0
10
31.901546
20
47.047013
0
VERTEX
8
CONTOUR_65-0
10
31.901738
20
47.047105
0
VERTEX
8
CONTOUR_65-0
10
31.901927
20
47.047188
0
VERTEX
8
CONTOUR_65-0
10
31.902301
20
47.047365
0
VERTEX
8
CONTOUR_65-0
10
31.902307
20
47.047368
0
VERTEX
8
CONTOUR_65-0
10
31.902688
20
47.047547
0
VERTEX
8
CONTOUR_65-0
10
31.902842
20
47.047625
0
VERTEX
8
CONTOUR_65-0
10
31.903069
20
47.047736
0
VERTEX
8
CONTOUR_65-0
10
31.903346
20
47.047886
0
VERTEX
8
CONTOUR_65-0
10
31.903450
20
47.047938
0
VERTEX
8
CONTOUR_65-0
10
31.903829
20
47.048146
0
VERTEX
8
CONTOUR_65-0
10
31.903830
20
47.048147
0
VERTEX
8
CONTOUR_65-0
10
31.904051
20
47.048255
0
VERTEX
8
CONTOUR_65-0
10
31.904211
20
47.048348
0
VERTEX
8
CONTOUR_65-0
10
31.904314
20
47.048406
0
VERTEX
8
CONTOUR_65-0
10
31.904477
20
47.048485
0
VERTEX
8
CONTOUR_65-0
10
31.904592
20
47.048557
0
VERTEX
8
CONTOUR_65-0
10
31.904772
20
47.048667
0
VERTEX
8
CONTOUR_65-0
10
31.904973
20
47.048783
0
VERTEX
8
CONTOUR_65-0
10
31.905204
20
47.048927
0
VERTEX
8
CONTOUR_65-0
10
31.905353
20
47.049014
0
VERTEX
8
CONTOUR_65-0
10
31.905632
20
47.049187
0
VERTEX
8
CONTOUR_65-0
10
31.905734
20
47.049249
0
VERTEX
8
CONTOUR_65-0
10
31.906023
20
47.049448
0
VERTEX
8
CONTOUR_65-0
10
31.906115
20
47.049512
0
VERTEX
8
CONTOUR_65-0
10
31.906388
20
47.049708
0
VERTEX
8
CONTOUR_65-0
10
31.906496
20
47.049779
0
VERTEX
8
CONTOUR_65-0
10
31.906814
20
47.049968
0
VERTEX
8
CONTOUR_65-0
10
31.906877
20
47.050002
0
VERTEX
8
CONTOUR_65-0
10
31.907257
20
47.050213
0
VERTEX
8
CONTOUR_65-0
10
31.907285
20
47.050229
0
VERTEX
8
CONTOUR_65-0
10
31.907638
20
47.050418
0
VERTEX
8
CONTOUR_65-0
10
31.907764
20
47.050489
0
VERTEX
8
CONTOUR_65-0
10
31.908019
20
47.050624
0
VERTEX
8
CONTOUR_65-0
10
31.908241
20
47.050749
0
VERTEX
8
CONTOUR_65-0
10
31.908400
20
47.050833
0
VERTEX
8
CONTOUR_65-0
10
31.908553
20
47.050905
0
VERTEX
8
CONTOUR_65-0
10
31.908709
20
47.051010
0
VERTEX
8
CONTOUR_65-0
10
31.908781
20
47.051049
0
VERTEX
8
CONTOUR_65-0
10
31.909160
20
47.051270
0
VERTEX
8
CONTOUR_65-0
10
31.909161
20
47.051271
0
VERTEX
8
CONTOUR_65-0
10
31.909542
20
47.051485
0
VERTEX
8
CONTOUR_65-0
10
31.909618
20
47.051530
0
VERTEX
8
CONTOUR_65-0
10
31.909923
20
47.051704
0
VERTEX
8
CONTOUR_65-0
10
31.910067
20
47.051791
0
VERTEX
8
CONTOUR_65-0
10
31.910304
20
47.051930
0
VERTEX
8
CONTOUR_65-0
10
31.910514
20
47.052051
0
VERTEX
8
CONTOUR_65-0
10
31.910685
20
47.052143
0
VERTEX
8
CONTOUR_65-0
10
31.911065
20
47.052293
0
VERTEX
8
CONTOUR_65-0
10
31.911446
20
47.052198
0
VERTEX
8
CONTOUR_65-0
10
31.911709
20
47.052051
0
VERTEX
8
CONTOUR_65-0
10
31.911827
20
47.052006
0
VERTEX
8
CONTOUR_65-0
10
31.912068
20
47.051956
0
VERTEX
8
CONTOUR_65-0
10
31.912208
20
47.051930
0
VERTEX
8
CONTOUR_65-0
10
31.912589
20
47.051925
0
VERTEX
8
CONTOUR_65-0
10
31.912970
20
47.051975
0
VERTEX
8
CONTOUR_65-0
10
31.913259
20
47.052051
0
VERTEX
8
CONTOUR_65-0
10
31.913350
20
47.052076
0
VERTEX
8
CONTOUR_65-0
10
31.913731
20
47.052224
0
VERTEX
8
CONTOUR_65-0
10
31.913911
20
47.052312
0
VERTEX
8
CONTOUR_65-0
10
31.914112
20
47.052412
0
VERTEX
8
CONTOUR_65-0
10
31.914384
20
47.052572
0
VERTEX
8
CONTOUR_65-0
10
31.914493
20
47.052635
0
VERTEX
8
CONTOUR_65-0
10
31.914839
20
47.052832
0
VERTEX
8
CONTOUR_65-0
10
31.914874
20
47.052855
0
VERTEX
8
CONTOUR_65-0
10
31.915202
20
47.053093
0
VERTEX
8
CONTOUR_65-0
10
31.915255
20
47.053135
0
VERTEX
8
CONTOUR_65-0
10
31.915554
20
47.053353
0
VERTEX
8
CONTOUR_65-0
10
31.915635
20
47.053413
0
VERTEX
8
CONTOUR_65-0
10
31.915893
20
47.053613
0
VERTEX
8
CONTOUR_65-0
10
31.916016
20
47.053713
0
VERTEX
8
CONTOUR_65-0
10
31.916208
20
47.053874
0
VERTEX
8
CONTOUR_65-0
10
31.916397
20
47.054040
0
VERTEX
8
CONTOUR_65-0
10
31.916507
20
47.054134
0
VERTEX
8
CONTOUR_65-0
10
31.916778
20
47.054349
0
VERTEX
8
CONTOUR_65-0
10
31.916844
20
47.054394
0
VERTEX
8
CONTOUR_65-0
10
31.917159
20
47.054603
0
VERTEX
8
CONTOUR_65-0
10
31.917234
20
47.054654
0
VERTEX
8
CONTOUR_65-0
10
31.917540
20
47.054857
0
VERTEX
8
CONTOUR_65-0
10
31.917624
20
47.054915
0
VERTEX
8
CONTOUR_65-0
10
31.917921
20
47.055111
0
VERTEX
8
CONTOUR_65-0
10
31.918012
20
47.055175
0
VERTEX
8
CONTOUR_65-0
10
31.918301
20
47.055384
0
VERTEX
8
CONTOUR_65-0
10
31.918372
20
47.055435
0
VERTEX
8
CONTOUR_65-0
10
31.918682
20
47.055651
0
VERTEX
8
CONTOUR_65-0
10
31.918760
20
47.055696
0
VERTEX
8
CONTOUR_65-0
10
31.919063
20
47.055844
0
VERTEX
8
CONTOUR_65-0
10
31.919274
20
47.055956
0
VERTEX
8
CONTOUR_65-0
10
31.919444
20
47.056048
0
VERTEX
8
CONTOUR_65-0
10
31.919743
20
47.056216
0
VERTEX
8
CONTOUR_65-0
10
31.919825
20
47.056263
0
VERTEX
8
CONTOUR_65-0
10
31.920200
20
47.056477
0
VERTEX
8
CONTOUR_65-0
10
31.920206
20
47.056480
0
VERTEX
8
CONTOUR_65-0
10
31.920587
20
47.056709
0
VERTEX
8
CONTOUR_65-0
10
31.920631
20
47.056737
0
VERTEX
8
CONTOUR_65-0
10
31.920968
20
47.056948
0
VERTEX
8
CONTOUR_65-0
10
31.921041
20
47.056997
0
VERTEX
8
CONTOUR_65-0
10
31.921348
20
47.057209
0
VERTEX
8
CONTOUR_65-0
10
31.921437
20
47.057257
0
VERTEX
8
CONTOUR_65-0
10
31.921729
20
47.057390
0
VERTEX
8
CONTOUR_65-0
10
31.921997
20
47.057518
0
VERTEX
8
CONTOUR_65-0
10
31.922110
20
47.057573
0
VERTEX
8
CONTOUR_65-0
10
31.922491
20
47.057774
0
VERTEX
8
CONTOUR_65-0
10
31.922498
20
47.057778
0
VERTEX
8
CONTOUR_65-0
10
31.922872
20
47.057969
0
VERTEX
8
CONTOUR_65-0
10
31.923009
20
47.058038
0
VERTEX
8
CONTOUR_65-0
10
31.923253
20
47.058159
0
VERTEX
8
CONTOUR_65-0
10
31.923521
20
47.058299
0
VERTEX
8
CONTOUR_65-0
10
31.923634
20
47.058357
0
VERTEX
8
CONTOUR_65-0
10
31.924015
20
47.058538
0
VERTEX
8
CONTOUR_65-0
10
31.924059
20
47.058559
0
VERTEX
8
CONTOUR_65-0
10
31.924396
20
47.058716
0
VERTEX
8
CONTOUR_65-0
10
31.924602
20
47.058819
0
VERTEX
8
CONTOUR_65-0
10
31.924777
20
47.058907
0
VERTEX
8
CONTOUR_65-0
10
31.925138
20
47.059079
0
VERTEX
8
CONTOUR_65-0
10
31.925157
20
47.059089
0
VERTEX
8
CONTOUR_65-0
10
31.925538
20
47.059262
0
VERTEX
8
CONTOUR_65-0
10
31.925739
20
47.059340
0
VERTEX
8
CONTOUR_65-0
10
31.925919
20
47.059399
0
VERTEX
8
CONTOUR_65-0
10
31.926300
20
47.059520
0
VERTEX
8
CONTOUR_65-0
10
31.926530
20
47.059600
0
VERTEX
8
CONTOUR_65-0
10
31.926681
20
47.059652
0
VERTEX
8
CONTOUR_65-0
10
31.927062
20
47.059808
0
VERTEX
8
CONTOUR_65-0
10
31.927181
20
47.059860
0
VERTEX
8
CONTOUR_65-0
10
31.927443
20
47.059969
0
VERTEX
8
CONTOUR_65-0
10
31.927746
20
47.060120
0
VERTEX
8
CONTOUR_65-0
10
31.927824
20
47.060162
0
VERTEX
8
CONTOUR_65-0
10
31.928205
20
47.060375
0
VERTEX
8
CONTOUR_65-0
10
31.928214
20
47.060381
0
VERTEX
8
CONTOUR_65-0
10
31.928586
20
47.060622
0
VERTEX
8
CONTOUR_65-0
10
31.928612
20
47.060641
0
VERTEX
8
CONTOUR_65-0
10
31.928925
20
47.060901
0
VERTEX
8
CONTOUR_65-0
10
31.928967
20
47.060949
0
VERTEX
8
CONTOUR_65-0
10
31.929142
20
47.061161
0
VERTEX
8
CONTOUR_65-0
10
31.929270
20
47.061422
0
VERTEX
8
CONTOUR_65-0
10
31.929313
20
47.061682
0
VERTEX
8
CONTOUR_65-0
10
31.929271
20
47.061942
0
VERTEX
8
CONTOUR_65-0
10
31.929172
20
47.062083
0
VERTEX
8
CONTOUR_65-0
10
31.929003
20
47.062203
0
VERTEX
8
CONTOUR_65-0
10
31.929189
20
47.062463
0
VERTEX
8
CONTOUR_65-0
10
31.929348
20
47.062559
0
VERTEX
8
CONTOUR_65-0
10
31.929603
20
47.062723
0
VERTEX
8
CONTOUR_65-0
10
31.929729
20
47.062794
0
VERTEX
8
CONTOUR_65-0
10
31.930048
20
47.062983
0
VERTEX
8
CONTOUR_65-0
10
31.930110
20
47.063019
0
VERTEX
8
CONTOUR_65-0
10
31.930491
20
47.063242
0
VERTEX
8
CONTOUR_65-0
10
31.930494
20
47.063244
0
VERTEX
8
CONTOUR_65-0
10
31.930872
20
47.063456
0
VERTEX
8
CONTOUR_65-0
10
31.930964
20
47.063504
0
VERTEX
8
CONTOUR_65-0
10
31.931253
20
47.063659
0
VERTEX
8
CONTOUR_65-0
10
31.931459
20
47.063764
0
VERTEX
8
CONTOUR_65-0
10
31.931634
20
47.063847
0
VERTEX
8
CONTOUR_65-0
10
31.931983
20
47.064024
0
VERTEX
8
CONTOUR_65-0
10
31.932015
20
47.064039
0
VERTEX
8
CONTOUR_65-0
10
31.932224
20
47.064141
0
VERTEX
8
CONTOUR_65-0
10
31.932396
20
47.064275
0
VERTEX
8
CONTOUR_65-0
10
31.932408
20
47.064285
0
VERTEX
8
CONTOUR_65-0
10
31.932747
20
47.064545
0
VERTEX
8
CONTOUR_65-0
10
31.932777
20
47.064566
0
VERTEX
8
CONTOUR_65-0
10
31.933158
20
47.064788
0
VERTEX
8
CONTOUR_65-0
10
31.933189
20
47.064805
0
VERTEX
8
CONTOUR_65-0
10
31.933539
20
47.064983
0
VERTEX
8
CONTOUR_65-0
10
31.933695
20
47.065065
0
VERTEX
8
CONTOUR_65-0
10
31.933920
20
47.065181
0
VERTEX
8
CONTOUR_65-0
10
31.934192
20
47.065326
0
VERTEX
8
CONTOUR_65-0
10
31.934301
20
47.065383
0
VERTEX
8
CONTOUR_65-0
10
31.934677
20
47.065586
0
VERTEX
8
CONTOUR_65-0
10
31.934682
20
47.065588
0
VERTEX
8
CONTOUR_65-0
10
31.935063
20
47.065795
0
VERTEX
8
CONTOUR_65-0
10
31.935153
20
47.065846
0
VERTEX
8
CONTOUR_65-0
10
31.935444
20
47.066010
0
VERTEX
8
CONTOUR_65-0
10
31.935613
20
47.066106
0
VERTEX
8
CONTOUR_65-0
10
31.935825
20
47.066227
0
VERTEX
8
CONTOUR_65-0
10
31.935944
20
47.066285
0
VERTEX
8
CONTOUR_65-0
10
31.936068
20
47.066367
0
VERTEX
8
CONTOUR_65-0
10
31.936206
20
47.066446
0
VERTEX
8
CONTOUR_65-0
10
31.936512
20
47.066627
0
VERTEX
8
CONTOUR_65-0
10
31.936587
20
47.066672
0
VERTEX
8
CONTOUR_65-0
10
31.936941
20
47.066887
0
VERTEX
8
CONTOUR_65-0
10
31.936968
20
47.066903
0
VERTEX
8
CONTOUR_65-0
10
31.937349
20
47.067133
0
VERTEX
8
CONTOUR_65-0
10
31.937374
20
47.067147
0
VERTEX
8
CONTOUR_65-0
10
31.937730
20
47.067358
0
VERTEX
8
CONTOUR_65-0
10
31.937814
20
47.067407
0
VERTEX
8
CONTOUR_65-0
10
31.938111
20
47.067586
0
VERTEX
8
CONTOUR_65-0
10
31.938251
20
47.067668
0
VERTEX
8
CONTOUR_65-0
10
31.938492
20
47.067788
0
VERTEX
8
CONTOUR_65-0
10
31.938803
20
47.067928
0
VERTEX
8
CONTOUR_65-0
10
31.938873
20
47.067958
0
VERTEX
8
CONTOUR_65-0
10
31.939254
20
47.068142
0
VERTEX
8
CONTOUR_65-0
10
31.939352
20
47.068188
0
VERTEX
8
CONTOUR_65-0
10
31.939635
20
47.068321
0
VERTEX
8
CONTOUR_65-0
10
31.939897
20
47.068448
0
VERTEX
8
CONTOUR_65-0
10
31.940016
20
47.068509
0
VERTEX
8
CONTOUR_65-0
10
31.940380
20
47.068708
0
VERTEX
8
CONTOUR_65-0
10
31.940397
20
47.068719
0
VERTEX
8
CONTOUR_65-0
10
31.940778
20
47.068938
0
VERTEX
8
CONTOUR_65-0
10
31.940834
20
47.068969
0
VERTEX
8
CONTOUR_65-0
10
31.941159
20
47.069155
0
VERTEX
8
CONTOUR_65-0
10
31.941290
20
47.069229
0
VERTEX
8
CONTOUR_65-0
10
31.941540
20
47.069378
0
VERTEX
8
CONTOUR_65-0
10
31.941725
20
47.069489
0
VERTEX
8
CONTOUR_65-0
10
31.941921
20
47.069620
0
VERTEX
8
CONTOUR_65-0
10
31.942123
20
47.069749
0
VERTEX
8
CONTOUR_65-0
10
31.942302
20
47.069876
0
VERTEX
8
CONTOUR_65-0
10
31.942515
20
47.070010
0
VERTEX
8
CONTOUR_65-0
10
31.942683
20
47.070132
0
VERTEX
8
CONTOUR_65-0
10
31.942890
20
47.070270
0
VERTEX
8
CONTOUR_65-0
10
31.943065
20
47.070405
0
VERTEX
8
CONTOUR_65-0
10
31.943245
20
47.070530
0
VERTEX
8
CONTOUR_65-0
10
31.943446
20
47.070706
0
VERTEX
8
CONTOUR_65-0
10
31.943555
20
47.070790
0
VERTEX
8
CONTOUR_65-0
10
31.943827
20
47.071045
0
VERTEX
8
CONTOUR_65-0
10
31.943833
20
47.071050
0
VERTEX
8
CONTOUR_65-0
10
31.944018
20
47.071311
0
VERTEX
8
CONTOUR_65-0
10
31.944090
20
47.071571
0
VERTEX
8
CONTOUR_65-0
10
31.943827
20
47.071820
70
1
0
SEQEND
8
CONTOUR_65-0
0
TEXT
8
CONTOUR_LABELS
10
31.970827
20
47.044820
40
0.050
1
65.0
0
POLYLINE
8
RUNWAY
66
1
10
0.0
20
0.0
0
VERTEX
8
RUNWAY
10
31.906184
20
47.050911
0
VERTEX
8
RUNWAY
10
31.932172
20
47.065500
0
VERTEX
8
RUNWAY
10
31.932539
20
47.065195
0
VERTEX
8
RUNWAY
10
31.906551
20
47.050606
0
VERTEX
8
RUNWAY
10
31.906184
20
47.050911
70
1
0
SEQEND
8
RUNWAY
0
TEXT
8
RUNWAY_LABELS
10
31.933368
20
47.023759
40
0.050
1
05
0
TEXT
8
RUNWAY_LABELS
10
31.959356
20
47.038347
40
0.050
1
23
0
ENDSEC
0
EOF
