0
SECTION
2
HEADER
9
$ACADVER
1
AC1009
0
ENDSEC
0
SECTION
2
TABLES
0
TABLE
2
VPORT
70
1
0
VPORT
2
*ACTIVE
70
0
10
0.0
20
0.0
11
1.0
21
1.0
12
0.0
22
0.0
13
0.0
23
0.0
14
1.0
24
1.0
15
0.0
25
0.0
16
0.0
26
0.0
36
1.0
17
0.0
27
0.0
37
0.0
40
100.0
41
1.5
42
50.0
43
0.0
44
0.0
50
0.0
51
0.0
71
0
72
100
73
1
74
1
75
0
76
0
77
0
78
0
0
ENDTAB
0
TABLE
2
LAYER
70
28
0
LAYER
2
0
70
64
62
7
6
CONTINUOUS
0
LAYER
2
CONTOUR_70-0
70
64
62
5
6
CONTINUOUS
0
LAYER
2
CONTOUR_75-0
70
64
62
6
6
CONTINUOUS
0
LAYER
2
CONTOUR_80-0
70
64
62
1
6
CONTINUOUS
0
LAYER
2
CONTOUR_LABELS
70
64
62
250
6
CONTINUOUS
0
LAYER
2
RUNWAY
70
64
62
8
6
CONTINUOUS
0
LAYER
2
RUNWAY_LABELS
70
64
62
250
6
CONTINUOUS
0
LAYER
2
TRACK_LABELS
70
64
62
250
6
CONTINUOUS
0
ENDTAB
0
TABLE
2
STYLE
70
1
0
STYLE
2
STANDARD
70
0
40
0.0
41
1.0
50
0.0
71
0
42
0.2
3
TXT
4

0
ENDTAB
0
TABLE
2
VIEW
70
0
0
ENDTAB
0
TABLE
2
UCS
70
0
0
ENDTAB
0
TABLE
2
APPID
70
1
0
APPID
2
ACAD
70
64
0
ENDTAB
0
TABLE
2
DIMSTYLE
70
0
0
ENDTAB
0
ENDSEC
0
SECTION
2
ENTITIES
0
POLYLINE
8
CONTOUR_70-0
66
1
10
0.0
20
0.0
0
VERTEX
8
CONTOUR_70-0
10
23.839104
20
49.902686
0
VERTEX
8
CONTOUR_70-0
10
23.838685
20
49.902744
0
VERTEX
8
CONTOUR_70-0
10
23.838246
20
49.902731
0
VERTEX
8
CONTOUR_70-0
10
23.837799
20
49.902665
0
VERTEX
8
CONTOUR_70-0
10
23.837356
20
49.902560
0
VERTEX
8
CONTOUR_70-0
10
23.836927
20
49.902423
0
VERTEX
8
CONTOUR_70-0
10
23.836527
20
49.902259
0
VERTEX
8
CONTOUR_70-0
10
23.836171
20
49.902069
0
VERTEX
8
CONTOUR_70-0
10
23.835883
20
49.901851
0
VERTEX
8
CONTOUR_70-0
10
23.835640
20
49.901552
0
VERTEX
8
CONTOUR_70-0
10
23.835441
20
49.901237
0
VERTEX
8
CONTOUR_70-0
10
23.835064
20
49.900720
0
VERTEX
8
CONTOUR_70-0
10
23.834887
20
49.900461
0
VERTEX
8
CONTOUR_70-0
10
23.834748
20
49.900195
0
VERTEX
8
CONTOUR_70-0
10
23.834672
20
49.899942
0
VERTEX
8
CONTOUR_70-0
10
23.834634
20
49.899682
0
VERTEX
8
CONTOUR_70-0
10
23.834615
20
49.899418
0
VERTEX
8
CONTOUR_70-0
10
23.834602
20
49.899155
0
VERTEX
8
CONTOUR_70-0
10
23.834516
20
49.898114
0
VERTEX
8
CONTOUR_70-0
10
23.834512
20
49.897073
0
VERTEX
8
CONTOUR_70-0
10
23.834566
20
49.896033
0
VERTEX
8
CONTOUR_70-0
10
23.834664
20
49.894992
0
VERTEX
8
CONTOUR_70-0
10
23.834794
20
49.893951
0
VERTEX
8
CONTOUR_70-0
10
23.834866
20
49.893438
0
VERTEX
8
CONTOUR_70-0
10
23.834949
20
49.892911
0
VERTEX
8
CONTOUR_70-0
10
23.834991
20
49.892637
0
VERTEX
8
CONTOUR_70-0
10
23.835005
20
49.892364
0
VERTEX
8
CONTOUR_70-0
10
23.834954
20
49.892104
0
VERTEX
8
CONTOUR_70-0
10
23.834793
20
49.891870
0
VERTEX
8
CONTOUR_70-0
10
23.834298
20
49.891622
0
VERTEX
8
CONTOUR_70-0
10
23.833909
20
49.891605
0
VERTEX
8
CONTOUR_70-0
10
23.833505
20
49.891675
0
VERTEX
8
CONTOUR_70-0
10
23.833095
20
49.891776
0
VERTEX
8
CONTOUR_70-0
10
23.832687
20
49.891859
0
VERTEX
8
CONTOUR_70-0
10
23.832617
20
49.891868
0
VERTEX
8
CONTOUR_70-0
10
23.831075
20
49.892049
0
VERTEX
8
CONTOUR_70-0
10
23.830273
20
49.892139
0
VERTEX
8
CONTOUR_70-0
10
23.829870
20
49.892175
0
VERTEX
8
CONTOUR_70-0
10
23.829464
20
49.892198
0
VERTEX
8
CONTOUR_70-0
10
23.828947
20
49.892198
0
VERTEX
8
CONTOUR_70-0
10
23.828492
20
49.892156
0
VERTEX
8
CONTOUR_70-0
10
23.828041
20
49.892090
0
VERTEX
8
CONTOUR_70-0
10
23.827591
20
49.892023
0
VERTEX
8
CONTOUR_70-0
10
23.827137
20
49.891976
0
VERTEX
8
CONTOUR_70-0
10
23.826692
20
49.891966
0
VERTEX
8
CONTOUR_70-0
10
23.826243
20
49.891974
0
VERTEX
8
CONTOUR_70-0
10
23.825799
20
49.891979
0
VERTEX
8
CONTOUR_70-0
10
23.825360
20
49.891960
0
VERTEX
8
CONTOUR_70-0
10
23.824952
20
49.891912
0
VERTEX
8
CONTOUR_70-0
10
23.824547
20
49.891846
0
VERTEX
8
CONTOUR_70-0
10
23.824142
20
49.891781
0
VERTEX
8
CONTOUR_70-0
10
23.823732
20
49.891735
0
VERTEX
8
CONTOUR_70-0
10
23.823377
20
49.891720
0
VERTEX
8
CONTOUR_70-0
10
23.823022
20
49.891710
0
VERTEX
8
CONTOUR_70-0
10
23.822616
20
49.891681
0
VERTEX
8
CONTOUR_70-0
10
23.822216
20
49.891633
0
VERTEX
8
CONTOUR_70-0
10
23.821820
20
49.891572
0
VERTEX
8
CONTOUR_70-0
10
23.821425
20
49.891504
0
VERTEX
8
CONTOUR_70-0
10
23.820628
20
49.891355
0
VERTEX
8
CONTOUR_70-0
10
23.819802
20
49.891211
0
VERTEX
8
CONTOUR_70-0
10
23.819357
20
49.891142
0
VERTEX
8
CONTOUR_70-0
10
23.818922
20
49.891065
0
VERTEX
8
CONTOUR_70-0
10
23.818526
20
49.890961
0
VERTEX
8
CONTOUR_70-0
10
23.818201
20
49.890811
0
VERTEX
8
CONTOUR_70-0
10
23.817984
20
49.890611
0
VERTEX
8
CONTOUR_70-0
10
23.817843
20
49.890367
0
VERTEX
8
CONTOUR_70-0
10
23.817763
20
49.890095
0
VERTEX
8
CONTOUR_70-0
10
23.817733
20
49.889807
0
VERTEX
8
CONTOUR_70-0
10
23.817751
20
49.889515
0
VERTEX
8
CONTOUR_70-0
10
23.817818
20
49.889230
0
VERTEX
8
CONTOUR_70-0
10
23.817938
20
49.888964
0
VERTEX
8
CONTOUR_70-0
10
23.818122
20
49.888729
0
VERTEX
8
CONTOUR_70-0
10
23.818472
20
49.888484
0
VERTEX
8
CONTOUR_70-0
10
23.818902
20
49.888286
0
VERTEX
8
CONTOUR_70-0
10
23.819363
20
49.888104
0
VERTEX
8
CONTOUR_70-0
10
23.819811
20
49.887910
0
VERTEX
8
CONTOUR_70-0
10
23.820086
20
49.887762
0
VERTEX
8
CONTOUR_70-0
10
23.820344
20
49.887603
0
VERTEX
8
CONTOUR_70-0
10
23.820591
20
49.887436
0
VERTEX
8
CONTOUR_70-0
10
23.820833
20
49.887267
0
VERTEX
8
CONTOUR_70-0
10
23.821075
20
49.887099
0
VERTEX
8
CONTOUR_70-0
10
23.821323
20
49.886937
0
VERTEX
8
CONTOUR_70-0
10
23.821582
20
49.886787
0
VERTEX
8
CONTOUR_70-0
10
23.821860
20
49.886652
0
VERTEX
8
CONTOUR_70-0
10
23.822433
20
49.886453
0
VERTEX
8
CONTOUR_70-0
10
23.823037
20
49.886279
0
VERTEX
8
CONTOUR_70-0
10
23.824698
20
49.885709
0
VERTEX
8
CONTOUR_70-0
10
23.825494
20
49.885389
0
VERTEX
8
CONTOUR_70-0
10
23.826262
20
49.885041
0
VERTEX
8
CONTOUR_70-0
10
23.826535
20
49.884900
0
VERTEX
8
CONTOUR_70-0
10
23.826791
20
49.884747
0
VERTEX
8
CONTOUR_70-0
10
23.827035
20
49.884577
0
VERTEX
8
CONTOUR_70-0
10
23.827358
20
49.884382
0
VERTEX
8
CONTOUR_70-0
10
23.827706
20
49.884204
0
VERTEX
8
CONTOUR_70-0
10
23.828069
20
49.884038
0
VERTEX
8
CONTOUR_70-0
10
23.828438
20
49.883876
0
VERTEX
8
CONTOUR_70-0
10
23.829309
20
49.883481
0
VERTEX
8
CONTOUR_70-0
10
23.829488
20
49.883392
0
VERTEX
8
CONTOUR_70-0
10
23.831100
20
49.882646
0
VERTEX
8
CONTOUR_70-0
10
23.831395
20
49.882500
0
VERTEX
8
CONTOUR_70-0
10
23.832713
20
49.881931
0
VERTEX
8
CONTOUR_70-0
10
23.833724
20
49.881462
0
VERTEX
8
CONTOUR_70-0
10
23.834325
20
49.881213
0
VERTEX
8
CONTOUR_70-0
10
23.835937
20
49.880508
0
VERTEX
8
CONTOUR_70-0
10
23.836120
20
49.880424
0
VERTEX
8
CONTOUR_70-0
10
23.836838
20
49.880134
0
VERTEX
8
CONTOUR_70-0
10
23.837199
20
49.879991
0
VERTEX
8
CONTOUR_70-0
10
23.837549
20
49.879839
0
VERTEX
8
CONTOUR_70-0
10
23.837973
20
49.879620
0
VERTEX
8
CONTOUR_70-0
10
23.838380
20
49.879386
0
VERTEX
8
CONTOUR_70-0
10
23.839162
20
49.878906
0
VERTEX
8
CONTOUR_70-0
10
23.839940
20
49.878347
0
VERTEX
8
CONTOUR_70-0
10
23.840775
20
49.877765
0
VERTEX
8
CONTOUR_70-0
10
23.841410
20
49.877307
0
VERTEX
8
CONTOUR_70-0
10
23.842388
20
49.876618
0
VERTEX
8
CONTOUR_70-0
10
23.842872
20
49.876268
0
VERTEX
8
CONTOUR_70-0
10
23.844001
20
49.875479
0
VERTEX
8
CONTOUR_70-0
10
23.844352
20
49.875229
0
VERTEX
8
CONTOUR_70-0
10
23.845614
20
49.874354
0
VERTEX
8
CONTOUR_70-0
10
23.845847
20
49.874190
0
VERTEX
8
CONTOUR_70-0
10
23.847227
20
49.873241
0
VERTEX
8
CONTOUR_70-0
10
23.847357
20
49.873150
0
VERTEX
8
CONTOUR_70-0
10
23.848781
20
49.872111
0
VERTEX
8
CONTOUR_70-0
10
23.848840
20
49.872065
0
VERTEX
8
CONTOUR_70-0
10
23.850053
20
49.871072
0
VERTEX
8
CONTOUR_70-0
10
23.850453
20
49.870748
0
VERTEX
8
CONTOUR_70-0
10
23.851328
20
49.870032
0
VERTEX
8
CONTOUR_70-0
10
23.852066
20
49.869436
0
VERTEX
8
CONTOUR_70-0
10
23.852609
20
49.868993
0
VERTEX
8
CONTOUR_70-0
10
23.853679
20
49.868131
0
VERTEX
8
CONTOUR_70-0
10
23.853898
20
49.867953
0
VERTEX
8
CONTOUR_70-0
10
23.854824
20
49.867215
0
VERTEX
8
CONTOUR_70-0
10
23.855292
20
49.866854
0
VERTEX
8
CONTOUR_70-0
10
23.856562
20
49.865874
0
VERTEX
8
CONTOUR_70-0
10
23.856904
20
49.865612
0
VERTEX
8
CONTOUR_70-0
10
23.857912
20
49.864835
0
VERTEX
8
CONTOUR_70-0
10
23.858517
20
49.864372
0
VERTEX
8
CONTOUR_70-0
10
23.859264
20
49.863795
0
VERTEX
8
CONTOUR_70-0
10
23.859813
20
49.863387
0
VERTEX
8
CONTOUR_70-0
10
23.860961
20
49.862504
0
VERTEX
8
CONTOUR_70-0
10
23.861742
20
49.861902
0
VERTEX
8
CONTOUR_70-0
10
23.861983
20
49.861716
0
VERTEX
8
CONTOUR_70-0
10
23.863349
20
49.860676
0
VERTEX
8
CONTOUR_70-0
10
23.863354
20
49.860673
0
VERTEX
8
CONTOUR_70-0
10
23.864720
20
49.859637
0
VERTEX
8
CONTOUR_70-0
10
23.864876
20
49.859520
0
VERTEX
8
CONTOUR_70-0
10
23.867680
20
49.857393
0
VERTEX
8
CONTOUR_70-0
10
23.868190
20
49.857021
0
VERTEX
8
CONTOUR_70-0
10
23.868855
20
49.856518
0
VERTEX
8
CONTOUR_70-0
10
23.869802
20
49.855809
0
VERTEX
8
CONTOUR_70-0
10
23.870240
20
49.855478
0
VERTEX
8
CONTOUR_70-0
10
23.871414
20
49.854607
0
VERTEX
8
CONTOUR_70-0
10
23.872008
20
49.854165
0
VERTEX
8
CONTOUR_70-0
10
23.872537
20
49.853762
0
VERTEX
8
CONTOUR_70-0
10
23.873016
20
49.853399
0
VERTEX
8
CONTOUR_70-0
10
23.874248
20
49.852485
0
VERTEX
8
CONTOUR_70-0
10
23.874483
20
49.852310
0
VERTEX
8
CONTOUR_70-0
10
23.874637
20
49.852198
0
VERTEX
8
CONTOUR_70-0
10
23.875833
20
49.851320
0
VERTEX
8
CONTOUR_70-0
10
23.876158
20
49.851085
0
VERTEX
8
CONTOUR_70-0
10
23.877118
20
49.850362
0
VERTEX
8
CONTOUR_70-0
10
23.879338
20
49.848677
0
VERTEX
8
CONTOUR_70-0
10
23.880230
20
49.848063
0
VERTEX
8
CONTOUR_70-0
10
23.881083
20
49.847487
0
VERTEX
8
CONTOUR_70-0
10
23.881527
20
49.847161
0
VERTEX
8
CONTOUR_70-0
10
23.882273
20
49.846617
0
VERTEX
8
CONTOUR_70-0
10
23.884148
20
49.845285
0
VERTEX
8
CONTOUR_70-0
10
23.884305
20
49.845171
0
VERTEX
8
CONTOUR_70-0
10
23.884350
20
49.845139
0
VERTEX
8
CONTOUR_70-0
10
23.884390
20
49.845109
0
VERTEX
8
CONTOUR_70-0
10
23.884426
20
49.845082
0
VERTEX
8
CONTOUR_70-0
10
23.884525
20
49.845011
0
VERTEX
8
CONTOUR_70-0
10
23.886373
20
49.843669
0
VERTEX
8
CONTOUR_70-0
10
23.887354
20
49.843002
0
VERTEX
8
CONTOUR_70-0
10
23.887527
20
49.842884
0
VERTEX
8
CONTOUR_70-0
10
23.888501
20
49.842179
0
VERTEX
8
CONTOUR_70-0
10
23.890310
20
49.840922
0
VERTEX
8
CONTOUR_70-0
10
23.890749
20
49.840625
0
VERTEX
8
CONTOUR_70-0
10
23.893301
20
49.838843
0
VERTEX
8
CONTOUR_70-0
10
23.893970
20
49.838394
0
VERTEX
8
CONTOUR_70-0
10
23.895179
20
49.837544
0
VERTEX
8
CONTOUR_70-0
10
23.896330
20
49.836763
0
VERTEX
8
CONTOUR_70-0
10
23.897191
20
49.836191
0
VERTEX
8
CONTOUR_70-0
10
23.899401
20
49.834683
0
VERTEX
8
CONTOUR_70-0
10
23.900412
20
49.834024
0
VERTEX
8
CONTOUR_70-0
10
23.900978
20
49.833643
0
VERTEX
8
CONTOUR_70-0
10
23.902022
20
49.832951
0
VERTEX
8
CONTOUR_70-0
10
23.902541
20
49.832604
0
VERTEX
8
CONTOUR_70-0
10
23.903087
20
49.832247
0
VERTEX
8
CONTOUR_70-0
10
23.903360
20
49.832067
0
VERTEX
8
CONTOUR_70-0
10
23.903632
20
49.831884
0
VERTEX
8
CONTOUR_70-0
10
23.904026
20
49.831564
0
VERTEX
8
CONTOUR_70-0
10
23.904177
20
49.831323
0
VERTEX
8
CONTOUR_70-0
10
23.904260
20
49.831062
0
VERTEX
8
CONTOUR_70-0
10
23.904315
20
49.830792
0
VERTEX
8
CONTOUR_70-0
10
23.904375
20
49.830523
0
VERTEX
8
CONTOUR_70-0
10
23.904516
20
49.830154
0
VERTEX
8
CONTOUR_70-0
10
23.904677
20
49.829791
0
VERTEX
8
CONTOUR_70-0
10
23.904846
20
49.829341
0
VERTEX
8
CONTOUR_70-0
10
23.904934
20
49.829117
0
VERTEX
8
CONTOUR_70-0
10
23.905036
20
49.828895
0
VERTEX
8
CONTOUR_70-0
10
23.905171
20
49.828666
0
VERTEX
8
CONTOUR_70-0
10
23.905327
20
49.828442
0
VERTEX
8
CONTOUR_70-0
10
23.905876
20
49.827718
0
VERTEX
8
CONTOUR_70-0
10
23.906042
20
49.827455
0
VERTEX
8
CONTOUR_70-0
10
23.906219
20
49.827196
0
VERTEX
8
CONTOUR_70-0
10
23.906525
20
49.826861
0
VERTEX
8
CONTOUR_70-0
10
23.906855
20
49.826533
0
VERTEX
8
CONTOUR_70-0
10
23.907014
20
49.826362
0
VERTEX
8
CONTOUR_70-0
10
23.907290
20
49.826073
0
VERTEX
8
CONTOUR_70-0
10
23.907586
20
49.825793
0
VERTEX
8
CONTOUR_70-0
10
23.907870
20
49.825555
0
VERTEX
8
CONTOUR_70-0
10
23.908164
20
49.825321
0
VERTEX
8
CONTOUR_70-0
10
23.908465
20
49.825086
0
VERTEX
8
CONTOUR_70-0
10
23.909600
20
49.824281
0
VERTEX
8
CONTOUR_70-0
10
23.910075
20
49.823983
0
VERTEX
8
CONTOUR_70-0
10
23.911420
20
49.823241
0
VERTEX
8
CONTOUR_70-0
10
23.911685
20
49.823108
0
VERTEX
8
CONTOUR_70-0
10
23.913294
20
49.822289
0
VERTEX
8
CONTOUR_70-0
10
23.913450
20
49.822201
0
VERTEX
8
CONTOUR_70-0
10
23.914903
20
49.821410
0
VERTEX
8
CONTOUR_70-0
10
23.915357
20
49.821162
0
VERTEX
8
CONTOUR_70-0
10
23.916512
20
49.820550
0
VERTEX
8
CONTOUR_70-0
10
23.917319
20
49.820122
0
VERTEX
8
CONTOUR_70-0
10
23.918122
20
49.819710
0
VERTEX
8
CONTOUR_70-0
10
23.918648
20
49.819422
0
VERTEX
8
CONTOUR_70-0
10
23.919350
20
49.819082
0
VERTEX
8
CONTOUR_70-0
10
23.919731
20
49.818894
0
VERTEX
8
CONTOUR_70-0
10
23.921340
20
49.818100
0
VERTEX
8
CONTOUR_70-0
10
23.921459
20
49.818042
0
VERTEX
8
CONTOUR_70-0
10
23.922949
20
49.817317
0
VERTEX
8
CONTOUR_70-0
10
23.923497
20
49.817002
0
VERTEX
8
CONTOUR_70-0
10
23.924558
20
49.816349
0
VERTEX
8
CONTOUR_70-0
10
23.925292
20
49.815961
0
VERTEX
8
CONTOUR_70-0
10
23.925725
20
49.815747
0
VERTEX
8
CONTOUR_70-0
10
23.926167
20
49.815541
0
VERTEX
8
CONTOUR_70-0
10
23.926955
20
49.815222
0
VERTEX
8
CONTOUR_70-0
10
23.927762
20
49.814921
0
VERTEX
8
CONTOUR_70-0
10
23.927775
20
49.814917
0
VERTEX
8
CONTOUR_70-0
10
23.928577
20
49.814667
0
VERTEX
8
CONTOUR_70-0
10
23.928985
20
49.814551
0
VERTEX
8
CONTOUR_70-0
10
23.929384
20
49.814425
0
VERTEX
8
CONTOUR_70-0
10
23.929712
20
49.814302
0
VERTEX
8
CONTOUR_70-0
10
23.930030
20
49.814168
0
VERTEX
8
CONTOUR_70-0
10
23.930649
20
49.813881
0
VERTEX
8
CONTOUR_70-0
10
23.930993
20
49.813715
0
VERTEX
8
CONTOUR_70-0
10
23.931786
20
49.813293
0
VERTEX
8
CONTOUR_70-0
10
23.932601
20
49.812892
0
VERTEX
8
CONTOUR_70-0
10
23.932722
20
49.812841
0
VERTEX
8
CONTOUR_70-0
10
23.933457
20
49.812539
0
VERTEX
8
CONTOUR_70-0
10
23.933830
20
49.812394
0
VERTEX
8
CONTOUR_70-0
10
23.934210
20
49.812259
0
VERTEX
8
CONTOUR_70-0
10
23.934603
20
49.812136
0
VERTEX
8
CONTOUR_70-0
10
23.935003
20
49.812022
0
VERTEX
8
CONTOUR_70-0
10
23.935808
20
49.811801
0
VERTEX
8
CONTOUR_70-0
10
23.935818
20
49.811798
0
VERTEX
8
CONTOUR_70-0
10
23.936630
20
49.811525
0
VERTEX
8
CONTOUR_70-0
10
23.937427
20
49.811230
0
VERTEX
8
CONTOUR_70-0
10
23.938910
20
49.810761
0
VERTEX
8
CONTOUR_70-0
10
23.939035
20
49.810722
0
VERTEX
8
CONTOUR_70-0
10
23.939833
20
49.810522
0
VERTEX
8
CONTOUR_70-0
10
23.940643
20
49.810339
0
VERTEX
8
CONTOUR_70-0
10
23.941446
20
49.810118
0
VERTEX
8
CONTOUR_70-0
10
23.942252
20
49.809904
0
VERTEX
8
CONTOUR_70-0
10
23.942721
20
49.809808
0
VERTEX
8
CONTOUR_70-0
10
23.943195
20
49.809721
0
VERTEX
8
CONTOUR_70-0
10
23.943530
20
49.809657
0
VERTEX
8
CONTOUR_70-0
10
23.943860
20
49.809583
0
VERTEX
8
CONTOUR_70-0
10
23.944287
20
49.809459
0
VERTEX
8
CONTOUR_70-0
10
23.944698
20
49.809310
0
VERTEX
8
CONTOUR_70-0
10
23.945092
20
49.809143
0
VERTEX
8
CONTOUR_70-0
10
23.945468
20
49.808960
0
VERTEX
8
CONTOUR_70-0
10
23.945975
20
49.808681
0
VERTEX
8
CONTOUR_70-0
10
23.947077
20
49.808087
0
VERTEX
8
CONTOUR_70-0
10
23.947868
20
49.807640
0
VERTEX
8
CONTOUR_70-0
10
23.948685
20
49.807173
0
VERTEX
8
CONTOUR_70-0
10
23.949691
20
49.806600
0
VERTEX
8
CONTOUR_70-0
10
23.950293
20
49.806260
0
VERTEX
8
CONTOUR_70-0
10
23.950831
20
49.805907
0
VERTEX
8
CONTOUR_70-0
10
23.951109
20
49.805734
0
VERTEX
8
CONTOUR_70-0
10
23.951384
20
49.805559
0
VERTEX
8
CONTOUR_70-0
10
23.951654
20
49.805368
0
VERTEX
8
CONTOUR_70-0
10
23.951901
20
49.805164
0
VERTEX
8
CONTOUR_70-0
10
23.952105
20
49.804973
0
VERTEX
8
CONTOUR_70-0
10
23.952320
20
49.804790
0
VERTEX
8
CONTOUR_70-0
10
23.952732
20
49.804518
0
VERTEX
8
CONTOUR_70-0
10
23.953509
20
49.803926
0
VERTEX
8
CONTOUR_70-0
10
23.954078
20
49.803478
0
VERTEX
8
CONTOUR_70-0
10
23.955117
20
49.802637
0
VERTEX
8
CONTOUR_70-0
10
23.955366
20
49.802437
0
VERTEX
8
CONTOUR_70-0
10
23.955735
20
49.802189
0
VERTEX
8
CONTOUR_70-0
10
23.956119
20
49.801946
0
VERTEX
8
CONTOUR_70-0
10
23.956463
20
49.801689
0
VERTEX
8
CONTOUR_70-0
10
23.956708
20
49.801397
0
VERTEX
8
CONTOUR_70-0
10
23.956725
20
49.801363
0
VERTEX
8
CONTOUR_70-0
10
23.957149
20
49.800356
0
VERTEX
8
CONTOUR_70-0
10
23.957683
20
49.799315
0
VERTEX
8
CONTOUR_70-0
10
23.958273
20
49.798275
0
VERTEX
8
CONTOUR_70-0
10
23.958333
20
49.798175
0
VERTEX
8
CONTOUR_70-0
10
23.958600
20
49.797700
0
VERTEX
8
CONTOUR_70-0
10
23.958739
20
49.797464
0
VERTEX
8
CONTOUR_70-0
10
23.958897
20
49.797234
0
VERTEX
8
CONTOUR_70-0
10
23.959118
20
49.796972
0
VERTEX
8
CONTOUR_70-0
10
23.959358
20
49.796717
0
VERTEX
8
CONTOUR_70-0
10
23.959593
20
49.796459
0
VERTEX
8
CONTOUR_70-0
10
23.959799
20
49.796193
0
VERTEX
8
CONTOUR_70-0
10
23.959941
20
49.795955
0
VERTEX
8
CONTOUR_70-0
10
23.960166
20
49.795552
0
VERTEX
8
CONTOUR_70-0
10
23.960403
20
49.795152
0
VERTEX
8
CONTOUR_70-0
10
23.960772
20
49.794623
0
VERTEX
8
CONTOUR_70-0
10
23.961199
20
49.794112
0
VERTEX
8
CONTOUR_70-0
10
23.961548
20
49.793751
0
VERTEX
8
CONTOUR_70-0
10
23.961891
20
49.793407
0
VERTEX
8
CONTOUR_70-0
10
23.962250
20
49.793071
0
VERTEX
8
CONTOUR_70-0
10
23.962690
20
49.792712
0
VERTEX
8
CONTOUR_70-0
10
23.963156
20
49.792365
0
VERTEX
8
CONTOUR_70-0
10
23.963576
20
49.792030
0
VERTEX
8
CONTOUR_70-0
10
23.963783
20
49.791785
0
VERTEX
8
CONTOUR_70-0
10
23.963948
20
49.791524
0
VERTEX
8
CONTOUR_70-0
10
23.964095
20
49.791256
0
VERTEX
8
CONTOUR_70-0
10
23.964250
20
49.790990
0
VERTEX
8
CONTOUR_70-0
10
23.964496
20
49.790648
0
VERTEX
8
CONTOUR_70-0
10
23.964763
20
49.790313
0
VERTEX
8
CONTOUR_70-0
10
23.965051
20
49.789949
0
VERTEX
8
CONTOUR_70-0
10
23.965532
20
49.789417
0
VERTEX
8
CONTOUR_70-0
10
23.966068
20
49.788908
0
VERTEX
8
CONTOUR_70-0
10
23.966370
20
49.788650
0
VERTEX
8
CONTOUR_70-0
10
23.967374
20
49.787867
0
VERTEX
8
CONTOUR_70-0
10
23.967977
20
49.787420
0
VERTEX
8
CONTOUR_70-0
10
23.968695
20
49.786827
0
VERTEX
8
CONTOUR_70-0
10
23.969584
20
49.786006
0
VERTEX
8
CONTOUR_70-0
10
23.969831
20
49.785786
0
VERTEX
8
CONTOUR_70-0
10
23.971002
20
49.784745
0
VERTEX
8
CONTOUR_70-0
10
23.971191
20
49.784576
0
VERTEX
8
CONTOUR_70-0
10
23.972202
20
49.783704
0
VERTEX
8
CONTOUR_70-0
10
23.972798
20
49.783193
0
VERTEX
8
CONTOUR_70-0
10
23.973436
20
49.782663
0
VERTEX
8
CONTOUR_70-0
10
23.974405
20
49.781860
0
VERTEX
8
CONTOUR_70-0
10
23.974700
20
49.781622
0
VERTEX
8
CONTOUR_70-0
10
23.975370
20
49.781113
0
VERTEX
8
CONTOUR_70-0
10
23.975993
20
49.780582
0
VERTEX
8
CONTOUR_70-0
10
23.976003
20
49.780571
0
VERTEX
8
CONTOUR_70-0
10
23.976607
20
49.779986
0
VERTEX
8
CONTOUR_70-0
10
23.977260
20
49.779425
0
VERTEX
8
CONTOUR_70-0
10
23.977618
20
49.779156
0
VERTEX
8
CONTOUR_70-0
10
23.978496
20
49.778500
0
VERTEX
8
CONTOUR_70-0
10
23.979225
20
49.778021
0
VERTEX
8
CONTOUR_70-0
10
23.980194
20
49.777459
0
VERTEX
8
CONTOUR_70-0
10
23.980832
20
49.777122
0
VERTEX
8
CONTOUR_70-0
10
23.982404
20
49.776418
0
VERTEX
8
CONTOUR_70-0
10
23.982438
20
49.776403
0
VERTEX
8
CONTOUR_70-0
10
23.983228
20
49.776096
0
VERTEX
8
CONTOUR_70-0
10
23.984045
20
49.775822
0
VERTEX
8
CONTOUR_70-0
10
23.984833
20
49.775594
0
VERTEX
8
CONTOUR_70-0
10
23.985629
20
49.775376
0
VERTEX
8
CONTOUR_70-0
10
23.985652
20
49.775370
0
VERTEX
8
CONTOUR_70-0
10
23.986444
20
49.775172
0
VERTEX
8
CONTOUR_70-0
10
23.987259
20
49.775016
0
VERTEX
8
CONTOUR_70-0
10
23.988071
20
49.774904
0
VERTEX
8
CONTOUR_70-0
10
23.988473
20
49.774843
0
VERTEX
8
CONTOUR_70-0
10
23.988865
20
49.774764
0
VERTEX
8
CONTOUR_70-0
10
23.989489
20
49.774573
0
VERTEX
8
CONTOUR_70-0
10
23.990080
20
49.774335
0
VERTEX
8
CONTOUR_70-0
10
23.990472
20
49.774150
0
VERTEX
8
CONTOUR_70-0
10
23.990920
20
49.773873
0
VERTEX
8
CONTOUR_70-0
10
23.991339
20
49.773574
0
VERTEX
8
CONTOUR_70-0
10
23.993009
20
49.772471
0
VERTEX
8
CONTOUR_70-0
10
23.993331
20
49.772252
0
VERTEX
8
CONTOUR_70-0
10
23.993441
20
49.772174
0
VERTEX
8
CONTOUR_70-0
10
23.993684
20
49.772013
0
VERTEX
8
CONTOUR_70-0
10
23.996508
20
49.770170
0
VERTEX
8
CONTOUR_70-0
10
23.996896
20
49.769911
0
VERTEX
8
CONTOUR_70-0
10
23.999726
20
49.768087
0
VERTEX
8
CONTOUR_70-0
10
24.000108
20
49.767835
0
VERTEX
8
CONTOUR_70-0
10
24.002983
20
49.766005
0
VERTEX
8
CONTOUR_70-0
10
24.003320
20
49.765785
0
VERTEX
8
CONTOUR_70-0
10
24.006280
20
49.763922
0
VERTEX
8
CONTOUR_70-0
10
24.006531
20
49.763760
0
VERTEX
8
CONTOUR_70-0
10
24.009616
20
49.761839
0
VERTEX
8
CONTOUR_70-0
10
24.009742
20
49.761759
0
VERTEX
8
CONTOUR_70-0
10
24.012953
20
49.759781
0
VERTEX
8
CONTOUR_70-0
10
24.012980
20
49.759765
0
VERTEX
8
CONTOUR_70-0
10
24.012994
20
49.759756
0
VERTEX
8
CONTOUR_70-0
10
24.014608
20
49.758747
0
VERTEX
8
CONTOUR_70-0
10
24.016164
20
49.757822
0
VERTEX
8
CONTOUR_70-0
10
24.016243
20
49.757777
0
VERTEX
8
CONTOUR_70-0
10
24.016419
20
49.757673
0
VERTEX
8
CONTOUR_70-0
10
24.019374
20
49.755888
0
VERTEX
8
CONTOUR_70-0
10
24.019707
20
49.755698
0
VERTEX
8
CONTOUR_70-0
10
24.019886
20
49.755590
0
VERTEX
8
CONTOUR_70-0
10
24.022584
20
49.753967
0
VERTEX
8
CONTOUR_70-0
10
24.022830
20
49.753826
0
VERTEX
8
CONTOUR_70-0
10
24.023373
20
49.753507
0
VERTEX
8
CONTOUR_70-0
10
24.025794
20
49.752069
0
VERTEX
8
CONTOUR_70-0
10
24.026513
20
49.751657
0
VERTEX
8
CONTOUR_70-0
10
24.026904
20
49.751424
0
VERTEX
8
CONTOUR_70-0
10
24.028254
20
49.750625
0
VERTEX
8
CONTOUR_70-0
10
24.028785
20
49.750311
0
VERTEX
8
CONTOUR_70-0
10
24.029004
20
49.750181
0
VERTEX
8
CONTOUR_70-0
10
24.030440
20
49.749340
0
VERTEX
8
CONTOUR_70-0
10
24.030608
20
49.749241
0
VERTEX
8
CONTOUR_70-0
10
24.032213
20
49.748303
0
VERTEX
8
CONTOUR_70-0
10
24.032221
20
49.748298
0
VERTEX
8
CONTOUR_70-0
10
24.033818
20
49.747367
0
VERTEX
8
CONTOUR_70-0
10
24.034010
20
49.747256
0
VERTEX
8
CONTOUR_70-0
10
24.035422
20
49.746435
0
VERTEX
8
CONTOUR_70-0
10
24.035806
20
49.746215
0
VERTEX
8
CONTOUR_70-0
10
24.037027
20
49.745506
0
VERTEX
8
CONTOUR_70-0
10
24.037608
20
49.745173
0
VERTEX
8
CONTOUR_70-0
10
24.038631
20
49.744580
0
VERTEX
8
CONTOUR_70-0
10
24.039416
20
49.744131
0
VERTEX
8
CONTOUR_70-0
10
24.040236
20
49.743657
0
VERTEX
8
CONTOUR_70-0
10
24.041229
20
49.743089
0
VERTEX
8
CONTOUR_70-0
10
24.041840
20
49.742736
0
VERTEX
8
CONTOUR_70-0
10
24.043064
20
49.742047
0
VERTEX
8
CONTOUR_70-0
10
24.043444
20
49.741828
0
VERTEX
8
CONTOUR_70-0
10
24.044914
20
49.741005
0
VERTEX
8
CONTOUR_70-0
10
24.045049
20
49.740927
0
VERTEX
8
CONTOUR_70-0
10
24.046653
20
49.740041
0
VERTEX
8
CONTOUR_70-0
10
24.046799
20
49.739963
0
VERTEX
8
CONTOUR_70-0
10
24.048257
20
49.739169
0
VERTEX
8
CONTOUR_70-0
10
24.048722
20
49.738920
0
VERTEX
8
CONTOUR_70-0
10
24.049861
20
49.738302
0
VERTEX
8
CONTOUR_70-0
10
24.050647
20
49.737878
0
VERTEX
8
CONTOUR_70-0
10
24.051465
20
49.737385
0
VERTEX
8
CONTOUR_70-0
10
24.052333
20
49.736836
0
VERTEX
8
CONTOUR_70-0
10
24.053069
20
49.736359
0
VERTEX
8
CONTOUR_70-0
10
24.053517
20
49.736084
0
VERTEX
8
CONTOUR_70-0
10
24.053938
20
49.735794
0
VERTEX
8
CONTOUR_70-0
10
24.054322
20
49.735452
0
VERTEX
8
CONTOUR_70-0
10
24.054672
20
49.735092
0
VERTEX
8
CONTOUR_70-0
10
24.055008
20
49.734753
0
VERTEX
8
CONTOUR_70-0
10
24.055696
20
49.734001
0
VERTEX
8
CONTOUR_70-0
10
24.056253
20
49.733343
0
VERTEX
8
CONTOUR_70-0
10
24.056516
20
49.733009
0
VERTEX
8
CONTOUR_70-0
10
24.056763
20
49.732670
0
VERTEX
8
CONTOUR_70-0
10
24.057083
20
49.732163
0
VERTEX
8
CONTOUR_70-0
10
24.057363
20
49.731646
0
VERTEX
8
CONTOUR_70-0
10
24.057599
20
49.731121
0
VERTEX
8
CONTOUR_70-0
10
24.057770
20
49.730588
0
VERTEX
8
CONTOUR_70-0
10
24.057825
20
49.730299
0
VERTEX
8
CONTOUR_70-0
10
24.057873
20
49.730011
0
VERTEX
8
CONTOUR_70-0
10
24.058260
20
49.728506
0
VERTEX
8
CONTOUR_70-0
10
24.058607
20
49.726424
0
VERTEX
8
CONTOUR_70-0
10
24.058929
20
49.724342
0
VERTEX
8
CONTOUR_70-0
10
24.059347
20
49.722261
0
VERTEX
8
CONTOUR_70-0
10
24.059880
20
49.720179
0
VERTEX
8
CONTOUR_70-0
10
24.059944
20
49.719840
0
VERTEX
8
CONTOUR_70-0
10
24.060021
20
49.719504
0
VERTEX
8
CONTOUR_70-0
10
24.060140
20
49.719153
0
VERTEX
8
CONTOUR_70-0
10
24.060282
20
49.718805
0
VERTEX
8
CONTOUR_70-0
10
24.060558
20
49.718097
0
VERTEX
8
CONTOUR_70-0
10
24.060652
20
49.717768
0
VERTEX
8
CONTOUR_70-0
10
24.060746
20
49.717439
0
VERTEX
8
CONTOUR_70-0
10
24.060869
20
49.717125
0
VERTEX
8
CONTOUR_70-0
10
24.061056
20
49.716840
0
VERTEX
8
CONTOUR_70-0
10
24.061299
20
49.716622
0
VERTEX
8
CONTOUR_70-0
10
24.061599
20
49.716424
0
VERTEX
8
CONTOUR_70-0
10
24.061934
20
49.716227
0
VERTEX
8
CONTOUR_70-0
10
24.062286
20
49.716014
0
VERTEX
8
CONTOUR_70-0
10
24.062798
20
49.715668
0
VERTEX
8
CONTOUR_70-0
10
24.063305
20
49.715327
0
VERTEX
8
CONTOUR_70-0
10
24.063798
20
49.715066
0
VERTEX
8
CONTOUR_70-0
10
24.064262
20
49.714984
0
VERTEX
8
CONTOUR_70-0
10
24.064621
20
49.715118
0
VERTEX
8
CONTOUR_70-0
10
24.064965
20
49.715380
0
VERTEX
8
CONTOUR_70-0
10
24.065313
20
49.715699
0
VERTEX
8
CONTOUR_70-0
10
24.065684
20
49.716011
0
VERTEX
8
CONTOUR_70-0
10
24.066149
20
49.716301
0
VERTEX
8
CONTOUR_70-0
10
24.066630
20
49.716548
0
VERTEX
8
CONTOUR_70-0
10
24.067088
20
49.716789
0
VERTEX
8
CONTOUR_70-0
10
24.067477
20
49.717062
0
VERTEX
8
CONTOUR_70-0
10
24.067689
20
49.717294
0
VERTEX
8
CONTOUR_70-0
10
24.067860
20
49.717550
0
VERTEX
8
CONTOUR_70-0
10
24.068010
20
49.717819
0
VERTEX
8
CONTOUR_70-0
10
24.068156
20
49.718090
0
VERTEX
8
CONTOUR_70-0
10
24.068853
20
49.719151
0
VERTEX
8
CONTOUR_70-0
10
24.069652
20
49.720170
0
VERTEX
8
CONTOUR_70-0
10
24.070211
20
49.720815
0
VERTEX
8
CONTOUR_70-0
10
24.070473
20
49.721143
0
VERTEX
8
CONTOUR_70-0
10
24.070697
20
49.721480
0
VERTEX
8
CONTOUR_70-0
10
24.070887
20
49.721863
0
VERTEX
8
CONTOUR_70-0
10
24.071065
20
49.722250
0
VERTEX
8
CONTOUR_70-0
10
24.071140
20
49.722393
0
VERTEX
8
CONTOUR_70-0
10
24.071890
20
49.723946
0
VERTEX
8
CONTOUR_70-0
10
24.072098
20
49.724330
0
VERTEX
8
CONTOUR_70-0
10
24.072394
20
49.724877
0
VERTEX
8
CONTOUR_70-0
10
24.072817
20
49.725727
0
VERTEX
8
CONTOUR_70-0
10
24.073200
20
49.726411
0
VERTEX
8
CONTOUR_70-0
10
24.073708
20
49.727381
0
VERTEX
8
CONTOUR_70-0
10
24.073762
20
49.727503
0
VERTEX
8
CONTOUR_70-0
10
24.073923
20
49.727943
0
VERTEX
8
CONTOUR_70-0
10
24.073992
20
49.728221
0
VERTEX
8
CONTOUR_70-0
10
24.074103
20
49.728491
0
VERTEX
8
CONTOUR_70-0
10
24.074343
20
49.728758
0
VERTEX
8
CONTOUR_70-0
10
24.074685
20
49.728988
0
VERTEX
8
CONTOUR_70-0
10
24.075090
20
49.729165
0
VERTEX
8
CONTOUR_70-0
10
24.075532
20
49.729267
0
VERTEX
8
CONTOUR_70-0
10
24.075928
20
49.729279
0
VERTEX
8
CONTOUR_70-0
10
24.076329
20
49.729241
0
VERTEX
8
CONTOUR_70-0
10
24.076733
20
49.729177
0
VERTEX
8
CONTOUR_70-0
10
24.077137
20
49.729112
0
VERTEX
8
CONTOUR_70-0
10
24.077940
20
49.729023
0
VERTEX
8
CONTOUR_70-0
10
24.078742
20
49.728962
0
VERTEX
8
CONTOUR_70-0
10
24.080347
20
49.728819
0
VERTEX
8
CONTOUR_70-0
10
24.081952
20
49.728685
0
VERTEX
8
CONTOUR_70-0
10
24.083557
20
49.728560
0
VERTEX
8
CONTOUR_70-0
10
24.084730
20
49.728480
0
VERTEX
8
CONTOUR_70-0
10
24.085162
20
49.728454
0
VERTEX
8
CONTOUR_70-0
10
24.086768
20
49.728379
0
VERTEX
8
CONTOUR_70-0
10
24.088373
20
49.728324
0
VERTEX
8
CONTOUR_70-0
10
24.089978
20
49.728294
0
VERTEX
8
CONTOUR_70-0
10
24.091584
20
49.728298
0
VERTEX
8
CONTOUR_70-0
10
24.091988
20
49.728290
0
VERTEX
8
CONTOUR_70-0
10
24.092392
20
49.728285
0
VERTEX
8
CONTOUR_70-0
10
24.092793
20
49.728290
0
VERTEX
8
CONTOUR_70-0
10
24.093189
20
49.728318
0
VERTEX
8
CONTOUR_70-0
10
24.093623
20
49.728383
0
VERTEX
8
CONTOUR_70-0
10
24.094054
20
49.728469
0
VERTEX
8
CONTOUR_70-0
10
24.094721
20
49.728617
0
VERTEX
8
CONTOUR_70-0
10
24.095040
20
49.728705
0
VERTEX
8
CONTOUR_70-0
10
24.095337
20
49.728813
0
VERTEX
8
CONTOUR_70-0
10
24.095610
20
49.728944
0
VERTEX
8
CONTOUR_70-0
10
24.095867
20
49.729092
0
VERTEX
8
CONTOUR_70-0
10
24.096403
20
49.729396
0
VERTEX
8
CONTOUR_70-0
10
24.097071
20
49.729680
0
VERTEX
8
CONTOUR_70-0
10
24.097768
20
49.729945
0
VERTEX
8
CONTOUR_70-0
10
24.098090
20
49.730079
0
VERTEX
8
CONTOUR_70-0
10
24.098373
20
49.730221
0
VERTEX
8
CONTOUR_70-0
10
24.098595
20
49.730374
0
VERTEX
8
CONTOUR_70-0
10
24.098733
20
49.730545
0
VERTEX
8
CONTOUR_70-0
10
24.098754
20
49.730803
0
VERTEX
8
CONTOUR_70-0
10
24.098634
20
49.731086
0
VERTEX
8
CONTOUR_70-0
10
24.098416
20
49.731382
0
VERTEX
8
CONTOUR_70-0
10
24.098129
20
49.731679
0
VERTEX
8
CONTOUR_70-0
10
24.097793
20
49.731967
0
VERTEX
8
CONTOUR_70-0
10
24.097420
20
49.732232
0
VERTEX
8
CONTOUR_70-0
10
24.097017
20
49.732460
0
VERTEX
8
CONTOUR_70-0
10
24.096587
20
49.732629
0
VERTEX
8
CONTOUR_70-0
10
24.096412
20
49.732677
0
VERTEX
8
CONTOUR_70-0
10
24.096055
20
49.732790
0
VERTEX
8
CONTOUR_70-0
10
24.095713
20
49.732922
0
VERTEX
8
CONTOUR_70-0
10
24.095057
20
49.733223
0
VERTEX
8
CONTOUR_70-0
10
24.094417
20
49.733544
0
VERTEX
8
CONTOUR_70-0
10
24.093770
20
49.733856
0
VERTEX
8
CONTOUR_70-0
10
24.093205
20
49.734113
0
VERTEX
8
CONTOUR_70-0
10
24.092617
20
49.734432
0
VERTEX
8
CONTOUR_70-0
10
24.092317
20
49.734585
0
VERTEX
8
CONTOUR_70-0
10
24.091996
20
49.734716
0
VERTEX
8
CONTOUR_70-0
10
24.091681
20
49.734819
0
VERTEX
8
CONTOUR_70-0
10
24.091444
20
49.734921
0
VERTEX
8
CONTOUR_70-0
10
24.089998
20
49.735444
0
VERTEX
8
CONTOUR_70-0
10
24.089577
20
49.735579
0
VERTEX
8
CONTOUR_70-0
10
24.089172
20
49.735730
0
VERTEX
8
CONTOUR_70-0
10
24.088684
20
49.735967
0
VERTEX
8
CONTOUR_70-0
10
24.088213
20
49.736223
0
VERTEX
8
CONTOUR_70-0
10
24.087592
20
49.736531
0
VERTEX
8
CONTOUR_70-0
10
24.086933
20
49.736803
0
VERTEX
8
CONTOUR_70-0
10
24.086790
20
49.736854
0
VERTEX
8
CONTOUR_70-0
10
24.085186
20
49.737436
0
VERTEX
8
CONTOUR_70-0
10
24.084138
20
49.737847
0
VERTEX
8
CONTOUR_70-0
10
24.083582
20
49.738034
0
VERTEX
8
CONTOUR_70-0
10
24.081977
20
49.738600
0
VERTEX
8
CONTOUR_70-0
10
24.081202
20
49.738890
0
VERTEX
8
CONTOUR_70-0
10
24.080789
20
49.739027
0
VERTEX
8
CONTOUR_70-0
10
24.080373
20
49.739161
0
VERTEX
8
CONTOUR_70-0
10
24.079939
20
49.739316
0
VERTEX
8
CONTOUR_70-0
10
24.079520
20
49.739488
0
VERTEX
8
CONTOUR_70-0
10
24.079126
20
49.739680
0
VERTEX
8
CONTOUR_70-0
10
24.078769
20
49.739898
0
VERTEX
8
CONTOUR_70-0
10
24.078719
20
49.739934
0
VERTEX
8
CONTOUR_70-0
10
24.077198
20
49.740976
0
VERTEX
8
CONTOUR_70-0
10
24.077166
20
49.740997
0
VERTEX
8
CONTOUR_70-0
10
24.075654
20
49.742018
0
VERTEX
8
CONTOUR_70-0
10
24.075563
20
49.742078
0
VERTEX
8
CONTOUR_70-0
10
24.074104
20
49.743061
0
VERTEX
8
CONTOUR_70-0
10
24.073959
20
49.743155
0
VERTEX
8
CONTOUR_70-0
10
24.072556
20
49.744103
0
VERTEX
8
CONTOUR_70-0
10
24.072356
20
49.744233
0
VERTEX
8
CONTOUR_70-0
10
24.070992
20
49.745145
0
VERTEX
8
CONTOUR_70-0
10
24.070752
20
49.745300
0
VERTEX
8
CONTOUR_70-0
10
24.069412
20
49.746187
0
VERTEX
8
CONTOUR_70-0
10
24.069149
20
49.746356
0
VERTEX
8
CONTOUR_70-0
10
24.067816
20
49.747229
0
VERTEX
8
CONTOUR_70-0
10
24.067545
20
49.747402
0
VERTEX
8
CONTOUR_70-0
10
24.066349
20
49.748271
0
VERTEX
8
CONTOUR_70-0
10
24.065942
20
49.748600
0
VERTEX
8
CONTOUR_70-0
10
24.065080
20
49.749313
0
VERTEX
8
CONTOUR_70-0
10
24.064339
20
49.749919
0
VERTEX
8
CONTOUR_70-0
10
24.063810
20
49.750355
0
VERTEX
8
CONTOUR_70-0
10
24.062735
20
49.751231
0
VERTEX
8
CONTOUR_70-0
10
24.062534
20
49.751397
0
VERTEX
8
CONTOUR_70-0
10
24.061738
20
49.752045
0
VERTEX
8
CONTOUR_70-0
10
24.061132
20
49.752521
0
VERTEX
8
CONTOUR_70-0
10
24.059909
20
49.753481
0
VERTEX
8
CONTOUR_70-0
10
24.059528
20
49.753774
0
VERTEX
8
CONTOUR_70-0
10
24.058567
20
49.754523
0
VERTEX
8
CONTOUR_70-0
10
24.057924
20
49.755018
0
VERTEX
8
CONTOUR_70-0
10
24.057222
20
49.755564
0
VERTEX
8
CONTOUR_70-0
10
24.056651
20
49.755993
0
VERTEX
8
CONTOUR_70-0
10
24.055523
20
49.756868
0
VERTEX
8
CONTOUR_70-0
10
24.054717
20
49.757497
0
VERTEX
8
CONTOUR_70-0
10
24.054522
20
49.757648
0
VERTEX
8
CONTOUR_70-0
10
24.053165
20
49.758690
0
VERTEX
8
CONTOUR_70-0
10
24.053113
20
49.758730
0
VERTEX
8
CONTOUR_70-0
10
24.051803
20
49.759732
0
VERTEX
8
CONTOUR_70-0
10
24.051617
20
49.759872
0
VERTEX
8
CONTOUR_70-0
10
24.048844
20
49.761992
0
VERTEX
8
CONTOUR_70-0
10
24.048300
20
49.762394
0
VERTEX
8
CONTOUR_70-0
10
24.047692
20
49.762857
0
VERTEX
8
CONTOUR_70-0
10
24.046696
20
49.763609
0
VERTEX
8
CONTOUR_70-0
10
24.046315
20
49.763899
0
VERTEX
8
CONTOUR_70-0
10
24.045091
20
49.764815
0
VERTEX
8
CONTOUR_70-0
10
24.044521
20
49.765241
0
VERTEX
8
CONTOUR_70-0
10
24.044013
20
49.765632
0
VERTEX
8
CONTOUR_70-0
10
24.043554
20
49.765982
0
VERTEX
8
CONTOUR_70-0
10
24.042377
20
49.766863
0
VERTEX
8
CONTOUR_70-0
10
24.042078
20
49.767087
0
VERTEX
8
CONTOUR_70-0
10
24.041882
20
49.767231
0
VERTEX
8
CONTOUR_70-0
10
24.040769
20
49.768065
0
VERTEX
8
CONTOUR_70-0
10
24.040386
20
49.768347
0
VERTEX
8
CONTOUR_70-0
10
24.039435
20
49.769055
0
VERTEX
8
CONTOUR_70-0
10
24.037250
20
49.770729
0
VERTEX
8
CONTOUR_70-0
10
24.036377
20
49.771339
0
VERTEX
8
CONTOUR_70-0
10
24.035463
20
49.771964
0
VERTEX
8
CONTOUR_70-0
10
24.035101
20
49.772232
0
VERTEX
8
CONTOUR_70-0
10
24.034307
20
49.772815
0
VERTEX
8
CONTOUR_70-0
10
24.032296
20
49.774259
0
VERTEX
8
CONTOUR_70-0
10
24.032253
20
49.774291
0
VERTEX
8
CONTOUR_70-0
10
24.032241
20
49.774300
0
VERTEX
8
CONTOUR_70-0
10
24.032230
20
49.774308
0
VERTEX
8
CONTOUR_70-0
10
24.032220
20
49.774315
0
VERTEX
8
CONTOUR_70-0
10
24.032193
20
49.774335
0
VERTEX
8
CONTOUR_70-0
10
24.030258
20
49.775751
0
VERTEX
8
CONTOUR_70-0
10
24.029316
20
49.776398
0
VERTEX
8
CONTOUR_70-0
10
24.029042
20
49.776588
0
VERTEX
8
CONTOUR_70-0
10
24.028107
20
49.777269
0
VERTEX
8
CONTOUR_70-0
10
24.026379
20
49.778482
0
VERTEX
8
CONTOUR_70-0
10
24.025831
20
49.778856
0
VERTEX
8
CONTOUR_70-0
10
24.023405
20
49.780565
0
VERTEX
8
CONTOUR_70-0
10
24.022620
20
49.781096
0
VERTEX
8
CONTOUR_70-0
10
24.020395
20
49.782648
0
VERTEX
8
CONTOUR_70-0
10
24.019408
20
49.783308
0
VERTEX
8
CONTOUR_70-0
10
24.017340
20
49.784731
0
VERTEX
8
CONTOUR_70-0
10
24.016197
20
49.785484
0
VERTEX
8
CONTOUR_70-0
10
24.015772
20
49.785772
0
VERTEX
8
CONTOUR_70-0
10
24.014590
20
49.786563
0
VERTEX
8
CONTOUR_70-0
10
24.014218
20
49.786814
0
VERTEX
8
CONTOUR_70-0
10
24.012984
20
49.787634
0
VERTEX
8
CONTOUR_70-0
10
24.012655
20
49.787855
0
VERTEX
8
CONTOUR_70-0
10
24.012333
20
49.788093
0
VERTEX
8
CONTOUR_70-0
10
24.012036
20
49.788345
0
VERTEX
8
CONTOUR_70-0
10
24.011780
20
49.788612
0
VERTEX
8
CONTOUR_70-0
10
24.011588
20
49.788896
0
VERTEX
8
CONTOUR_70-0
10
24.011464
20
49.789228
0
VERTEX
8
CONTOUR_70-0
10
24.011379
20
49.789567
0
VERTEX
8
CONTOUR_70-0
10
24.011267
20
49.789937
0
VERTEX
8
CONTOUR_70-0
10
24.011057
20
49.790461
0
VERTEX
8
CONTOUR_70-0
10
24.010807
20
49.790978
0
VERTEX
8
CONTOUR_70-0
10
24.010515
20
49.791504
0
VERTEX
8
CONTOUR_70-0
10
24.010181
20
49.792019
0
VERTEX
8
CONTOUR_70-0
10
24.009775
20
49.792555
0
VERTEX
8
CONTOUR_70-0
10
24.009580
20
49.792808
0
VERTEX
8
CONTOUR_70-0
10
24.009380
20
49.793060
0
VERTEX
8
CONTOUR_70-0
10
24.008902
20
49.793590
0
VERTEX
8
CONTOUR_70-0
10
24.008374
20
49.794101
0
VERTEX
8
CONTOUR_70-0
10
24.008169
20
49.794283
0
VERTEX
8
CONTOUR_70-0
10
24.007125
20
49.795142
0
VERTEX
8
CONTOUR_70-0
10
24.006563
20
49.795543
0
VERTEX
8
CONTOUR_70-0
10
24.005558
20
49.796184
0
VERTEX
8
CONTOUR_70-0
10
24.004956
20
49.796529
0
VERTEX
8
CONTOUR_70-0
10
24.003546
20
49.797225
0
VERTEX
8
CONTOUR_70-0
10
24.003349
20
49.797318
0
VERTEX
8
CONTOUR_70-0
10
24.001742
20
49.798200
0
VERTEX
8
CONTOUR_70-0
10
24.001623
20
49.798266
0
VERTEX
8
CONTOUR_70-0
10
24.000135
20
49.799070
0
VERTEX
8
CONTOUR_70-0
10
23.999697
20
49.799308
0
VERTEX
8
CONTOUR_70-0
10
23.998528
20
49.799920
0
VERTEX
8
CONTOUR_70-0
10
23.997710
20
49.800349
0
VERTEX
8
CONTOUR_70-0
10
23.996921
20
49.800749
0
VERTEX
8
CONTOUR_70-0
10
23.995648
20
49.801391
0
VERTEX
8
CONTOUR_70-0
10
23.995314
20
49.801553
0
VERTEX
8
CONTOUR_70-0
10
23.993706
20
49.802334
0
VERTEX
8
CONTOUR_70-0
10
23.993504
20
49.802432
0
VERTEX
8
CONTOUR_70-0
10
23.992099
20
49.803207
0
VERTEX
8
CONTOUR_70-0
10
23.991667
20
49.803473
0
VERTEX
8
CONTOUR_70-0
10
23.990492
20
49.804123
0
VERTEX
8
CONTOUR_70-0
10
23.989648
20
49.804514
0
VERTEX
8
CONTOUR_70-0
10
23.988884
20
49.804843
0
VERTEX
8
CONTOUR_70-0
10
23.988191
20
49.805107
0
VERTEX
8
CONTOUR_70-0
10
23.987277
20
49.805396
0
VERTEX
8
CONTOUR_70-0
10
23.986692
20
49.805556
0
VERTEX
8
CONTOUR_70-0
10
23.986168
20
49.805695
0
VERTEX
8
CONTOUR_70-0
10
23.985669
20
49.805861
0
VERTEX
8
CONTOUR_70-0
10
23.985322
20
49.806025
0
VERTEX
8
CONTOUR_70-0
10
23.984997
20
49.806211
0
VERTEX
8
CONTOUR_70-0
10
23.984362
20
49.806597
0
VERTEX
8
CONTOUR_70-0
10
23.984061
20
49.806760
0
VERTEX
8
CONTOUR_70-0
10
23.983279
20
49.807142
0
VERTEX
8
CONTOUR_70-0
10
23.982454
20
49.807485
0
VERTEX
8
CONTOUR_70-0
10
23.982020
20
49.807638
0
VERTEX
8
CONTOUR_70-0
10
23.981438
20
49.807845
0
VERTEX
8
CONTOUR_70-0
10
23.980846
20
49.808038
0
VERTEX
8
CONTOUR_70-0
10
23.980443
20
49.808146
0
VERTEX
8
CONTOUR_70-0
10
23.980035
20
49.808245
0
VERTEX
8
CONTOUR_70-0
10
23.979630
20
49.808349
0
VERTEX
8
CONTOUR_70-0
10
23.979238
20
49.808470
0
VERTEX
8
CONTOUR_70-0
10
23.978704
20
49.808680
0
VERTEX
8
CONTOUR_70-0
10
23.978174
20
49.808890
0
VERTEX
8
CONTOUR_70-0
10
23.977630
20
49.809083
0
VERTEX
8
CONTOUR_70-0
10
23.976835
20
49.809314
0
VERTEX
8
CONTOUR_70-0
10
23.976022
20
49.809521
0
VERTEX
8
CONTOUR_70-0
10
23.975218
20
49.809721
0
VERTEX
8
CONTOUR_70-0
10
23.974414
20
49.809920
0
VERTEX
8
CONTOUR_70-0
10
23.972806
20
49.810308
0
VERTEX
8
CONTOUR_70-0
10
23.972388
20
49.810380
0
VERTEX
8
CONTOUR_70-0
10
23.971971
20
49.810454
0
VERTEX
8
CONTOUR_70-0
10
23.971569
20
49.810545
0
VERTEX
8
CONTOUR_70-0
10
23.971198
20
49.810674
0
VERTEX
8
CONTOUR_70-0
10
23.971020
20
49.810762
0
VERTEX
8
CONTOUR_70-0
10
23.969590
20
49.811571
0
VERTEX
8
CONTOUR_70-0
10
23.969168
20
49.811803
0
VERTEX
8
CONTOUR_70-0
10
23.967982
20
49.812456
0
VERTEX
8
CONTOUR_70-0
10
23.967295
20
49.812844
0
VERTEX
8
CONTOUR_70-0
10
23.966374
20
49.813377
0
VERTEX
8
CONTOUR_70-0
10
23.965491
20
49.813884
0
VERTEX
8
CONTOUR_70-0
10
23.964766
20
49.814320
0
VERTEX
8
CONTOUR_70-0
10
23.963913
20
49.814925
0
VERTEX
8
CONTOUR_70-0
10
23.963158
20
49.815505
0
VERTEX
8
CONTOUR_70-0
10
23.962567
20
49.815966
0
VERTEX
8
CONTOUR_70-0
10
23.961550
20
49.816758
0
VERTEX
8
CONTOUR_70-0
10
23.961230
20
49.817007
0
VERTEX
8
CONTOUR_70-0
10
23.959941
20
49.818047
0
VERTEX
8
CONTOUR_70-0
10
23.959941
20
49.818047
0
VERTEX
8
CONTOUR_70-0
10
23.959940
20
49.818047
0
VERTEX
8
CONTOUR_70-0
10
23.959668
20
49.818287
0
VERTEX
8
CONTOUR_70-0
10
23.959432
20
49.818543
0
VERTEX
8
CONTOUR_70-0
10
23.959227
20
49.818811
0
VERTEX
8
CONTOUR_70-0
10
23.959056
20
49.819088
0
VERTEX
8
CONTOUR_70-0
10
23.958928
20
49.819347
0
VERTEX
8
CONTOUR_70-0
10
23.958816
20
49.819609
0
VERTEX
8
CONTOUR_70-0
10
23.958704
20
49.819871
0
VERTEX
8
CONTOUR_70-0
10
23.958576
20
49.820129
0
VERTEX
8
CONTOUR_70-0
10
23.958333
20
49.820522
0
VERTEX
8
CONTOUR_70-0
10
23.957957
20
49.821169
0
VERTEX
8
CONTOUR_70-0
10
23.957706
20
49.821692
0
VERTEX
8
CONTOUR_70-0
10
23.957579
20
49.821953
0
VERTEX
8
CONTOUR_70-0
10
23.957437
20
49.822210
0
VERTEX
8
CONTOUR_70-0
10
23.957273
20
49.822463
0
VERTEX
8
CONTOUR_70-0
10
23.957093
20
49.822713
0
VERTEX
8
CONTOUR_70-0
10
23.956724
20
49.823209
0
VERTEX
8
CONTOUR_70-0
10
23.956694
20
49.823251
0
VERTEX
8
CONTOUR_70-0
10
23.955871
20
49.824291
0
VERTEX
8
CONTOUR_70-0
10
23.955206
20
49.825332
0
VERTEX
8
CONTOUR_70-0
10
23.955178
20
49.825372
0
VERTEX
8
CONTOUR_70-0
10
23.955116
20
49.825443
0
VERTEX
8
CONTOUR_70-0
10
23.954725
20
49.825909
0
VERTEX
8
CONTOUR_70-0
10
23.954534
20
49.826143
0
VERTEX
8
CONTOUR_70-0
10
23.954332
20
49.826373
0
VERTEX
8
CONTOUR_70-0
10
23.954139
20
49.826567
0
VERTEX
8
CONTOUR_70-0
10
23.953935
20
49.826756
0
VERTEX
8
CONTOUR_70-0
10
23.953507
20
49.827126
0
VERTEX
8
CONTOUR_70-0
10
23.953163
20
49.827413
0
VERTEX
8
CONTOUR_70-0
10
23.952846
20
49.827663
0
VERTEX
8
CONTOUR_70-0
10
23.952531
20
49.827915
0
VERTEX
8
CONTOUR_70-0
10
23.952241
20
49.828175
0
VERTEX
8
CONTOUR_70-0
10
23.952003
20
49.828454
0
VERTEX
8
CONTOUR_70-0
10
23.951898
20
49.828620
0
VERTEX
8
CONTOUR_70-0
10
23.951627
20
49.829060
0
VERTEX
8
CONTOUR_70-0
10
23.951336
20
49.829495
0
VERTEX
8
CONTOUR_70-0
10
23.950926
20
49.830025
0
VERTEX
8
CONTOUR_70-0
10
23.950463
20
49.830535
0
VERTEX
8
CONTOUR_70-0
10
23.950289
20
49.830706
0
VERTEX
8
CONTOUR_70-0
10
23.949829
20
49.831147
0
VERTEX
8
CONTOUR_70-0
10
23.949345
20
49.831576
0
VERTEX
8
CONTOUR_70-0
10
23.949019
20
49.831834
0
VERTEX
8
CONTOUR_70-0
10
23.948680
20
49.832086
0
VERTEX
8
CONTOUR_70-0
10
23.947953
20
49.832616
0
VERTEX
8
CONTOUR_70-0
10
23.947071
20
49.833355
0
VERTEX
8
CONTOUR_70-0
10
23.946738
20
49.833657
0
VERTEX
8
CONTOUR_70-0
10
23.945584
20
49.834698
0
VERTEX
8
CONTOUR_70-0
10
23.945461
20
49.834808
0
VERTEX
8
CONTOUR_70-0
10
23.944399
20
49.835738
0
VERTEX
8
CONTOUR_70-0
10
23.943852
20
49.836214
0
VERTEX
8
CONTOUR_70-0
10
23.943180
20
49.836779
0
VERTEX
8
CONTOUR_70-0
10
23.942243
20
49.837565
0
VERTEX
8
CONTOUR_70-0
10
23.941930
20
49.837819
0
VERTEX
8
CONTOUR_70-0
10
23.941270
20
49.838330
0
VERTEX
8
CONTOUR_70-0
10
23.940650
20
49.838860
0
VERTEX
8
CONTOUR_70-0
10
23.940640
20
49.838869
0
VERTEX
8
CONTOUR_70-0
10
23.939305
20
49.839991
0
VERTEX
8
CONTOUR_70-0
10
23.939023
20
49.840231
0
VERTEX
8
CONTOUR_70-0
10
23.938203
20
49.840941
0
VERTEX
8
CONTOUR_70-0
10
23.937414
20
49.841527
0
VERTEX
8
CONTOUR_70-0
10
23.936734
20
49.841981
0
VERTEX
8
CONTOUR_70-0
10
23.936272
20
49.842283
0
VERTEX
8
CONTOUR_70-0
10
23.935804
20
49.842535
0
VERTEX
8
CONTOUR_70-0
10
23.934862
20
49.843021
0
VERTEX
8
CONTOUR_70-0
10
23.934194
20
49.843340
0
VERTEX
8
CONTOUR_70-0
10
23.932585
20
49.843985
0
VERTEX
8
CONTOUR_70-0
10
23.932352
20
49.844062
0
VERTEX
8
CONTOUR_70-0
10
23.931667
20
49.844287
0
VERTEX
8
CONTOUR_70-0
10
23.930975
20
49.844503
0
VERTEX
8
CONTOUR_70-0
10
23.930180
20
49.844720
0
VERTEX
8
CONTOUR_70-0
10
23.929366
20
49.844903
0
VERTEX
8
CONTOUR_70-0
10
23.928292
20
49.845101
0
VERTEX
8
CONTOUR_70-0
10
23.927756
20
49.845201
0
VERTEX
8
CONTOUR_70-0
10
23.927344
20
49.845255
0
VERTEX
8
CONTOUR_70-0
10
23.926928
20
49.845303
0
VERTEX
8
CONTOUR_70-0
10
23.926524
20
49.845364
0
VERTEX
8
CONTOUR_70-0
10
23.926147
20
49.845460
0
VERTEX
8
CONTOUR_70-0
10
23.925830
20
49.845596
0
VERTEX
8
CONTOUR_70-0
10
23.925540
20
49.845765
0
VERTEX
8
CONTOUR_70-0
10
23.925266
20
49.845951
0
VERTEX
8
CONTOUR_70-0
10
23.924998
20
49.846141
0
VERTEX
8
CONTOUR_70-0
10
23.924537
20
49.846450
0
VERTEX
8
CONTOUR_70-0
10
23.923426
20
49.847181
0
VERTEX
8
CONTOUR_70-0
10
23.922927
20
49.847522
0
VERTEX
8
CONTOUR_70-0
10
23.922038
20
49.848113
0
VERTEX
8
CONTOUR_70-0
10
23.920256
20
49.849262
0
VERTEX
8
CONTOUR_70-0
10
23.919706
20
49.849628
0
VERTEX
8
CONTOUR_70-0
10
23.917040
20
49.851342
0
VERTEX
8
CONTOUR_70-0
10
23.916486
20
49.851707
0
VERTEX
8
CONTOUR_70-0
10
23.913783
20
49.853422
0
VERTEX
8
CONTOUR_70-0
10
23.913265
20
49.853760
0
VERTEX
8
CONTOUR_70-0
10
23.910486
20
49.855502
0
VERTEX
8
CONTOUR_70-0
10
23.910043
20
49.855787
0
VERTEX
8
CONTOUR_70-0
10
23.907149
20
49.857582
0
VERTEX
8
CONTOUR_70-0
10
23.906822
20
49.857790
0
VERTEX
8
CONTOUR_70-0
10
23.903770
20
49.859662
0
VERTEX
8
CONTOUR_70-0
10
23.903600
20
49.859769
0
VERTEX
8
CONTOUR_70-0
10
23.900378
20
49.861724
0
VERTEX
8
CONTOUR_70-0
10
23.900369
20
49.861729
0
VERTEX
8
CONTOUR_70-0
10
23.900348
20
49.861742
0
VERTEX
8
CONTOUR_70-0
10
23.897156
20
49.863660
0
VERTEX
8
CONTOUR_70-0
10
23.896974
20
49.863762
0
VERTEX
8
CONTOUR_70-0
10
23.896877
20
49.863821
0
VERTEX
8
CONTOUR_70-0
10
23.896548
20
49.864018
0
VERTEX
8
CONTOUR_70-0
10
23.894724
20
49.865116
0
VERTEX
8
CONTOUR_70-0
10
23.893934
20
49.865582
0
VERTEX
8
CONTOUR_70-0
10
23.893390
20
49.865901
0
VERTEX
8
CONTOUR_70-0
10
23.892323
20
49.866532
0
VERTEX
8
CONTOUR_70-0
10
23.891624
20
49.866940
0
VERTEX
8
CONTOUR_70-0
10
23.890711
20
49.867479
0
VERTEX
8
CONTOUR_70-0
10
23.889853
20
49.867980
0
VERTEX
8
CONTOUR_70-0
10
23.889337
20
49.868286
0
VERTEX
8
CONTOUR_70-0
10
23.887868
20
49.869142
0
VERTEX
8
CONTOUR_70-0
10
23.887489
20
49.869365
0
VERTEX
8
CONTOUR_70-0
10
23.886295
20
49.870059
0
VERTEX
8
CONTOUR_70-0
10
23.885877
20
49.870304
0
VERTEX
8
CONTOUR_70-0
10
23.884509
20
49.871099
0
VERTEX
8
CONTOUR_70-0
10
23.884265
20
49.871241
0
VERTEX
8
CONTOUR_70-0
10
23.882718
20
49.872138
0
VERTEX
8
CONTOUR_70-0
10
23.882674
20
49.872164
0
VERTEX
8
CONTOUR_70-0
10
23.882089
20
49.872502
0
VERTEX
8
CONTOUR_70-0
10
23.881042
20
49.873107
0
VERTEX
8
CONTOUR_70-0
10
23.880918
20
49.873178
0
VERTEX
8
CONTOUR_70-0
10
23.879430
20
49.874035
0
VERTEX
8
CONTOUR_70-0
10
23.879110
20
49.874217
0
VERTEX
8
CONTOUR_70-0
10
23.877819
20
49.874960
0
VERTEX
8
CONTOUR_70-0
10
23.877296
20
49.875257
0
VERTEX
8
CONTOUR_70-0
10
23.876207
20
49.875881
0
VERTEX
8
CONTOUR_70-0
10
23.875470
20
49.876296
0
VERTEX
8
CONTOUR_70-0
10
23.874595
20
49.876797
0
VERTEX
8
CONTOUR_70-0
10
23.873628
20
49.877335
0
VERTEX
8
CONTOUR_70-0
10
23.872983
20
49.877704
0
VERTEX
8
CONTOUR_70-0
10
23.871774
20
49.878375
0
VERTEX
8
CONTOUR_70-0
10
23.871371
20
49.878604
0
VERTEX
8
CONTOUR_70-0
10
23.869905
20
49.879414
0
VERTEX
8
CONTOUR_70-0
10
23.869759
20
49.879497
0
VERTEX
8
CONTOUR_70-0
10
23.868147
20
49.880375
0
VERTEX
8
CONTOUR_70-0
10
23.868000
20
49.880453
0
VERTEX
8
CONTOUR_70-0
10
23.866535
20
49.881241
0
VERTEX
8
CONTOUR_70-0
10
23.866059
20
49.881492
0
VERTEX
8
CONTOUR_70-0
10
23.864923
20
49.882101
0
VERTEX
8
CONTOUR_70-0
10
23.864168
20
49.882531
0
VERTEX
8
CONTOUR_70-0
10
23.863310
20
49.883096
0
VERTEX
8
CONTOUR_70-0
10
23.862587
20
49.883571
0
VERTEX
8
CONTOUR_70-0
10
23.861697
20
49.884170
0
VERTEX
8
CONTOUR_70-0
10
23.861019
20
49.884610
0
VERTEX
8
CONTOUR_70-0
10
23.860085
20
49.885233
0
VERTEX
8
CONTOUR_70-0
10
23.859434
20
49.885650
0
VERTEX
8
CONTOUR_70-0
10
23.858472
20
49.886284
0
VERTEX
8
CONTOUR_70-0
10
23.857831
20
49.886689
0
VERTEX
8
CONTOUR_70-0
10
23.856859
20
49.887328
0
VERTEX
8
CONTOUR_70-0
10
23.856226
20
49.887728
0
VERTEX
8
CONTOUR_70-0
10
23.855246
20
49.888370
0
VERTEX
8
CONTOUR_70-0
10
23.854614
20
49.888767
0
VERTEX
8
CONTOUR_70-0
10
23.853940
20
49.889162
0
VERTEX
8
CONTOUR_70-0
10
23.852649
20
49.890035
0
VERTEX
8
CONTOUR_70-0
10
23.852343
20
49.890229
0
VERTEX
8
CONTOUR_70-0
10
23.852020
20
49.890409
0
VERTEX
8
CONTOUR_70-0
10
23.851774
20
49.890528
0
VERTEX
8
CONTOUR_70-0
10
23.851499
20
49.890678
0
VERTEX
8
CONTOUR_70-0
10
23.851360
20
49.890846
0
VERTEX
8
CONTOUR_70-0
10
23.851131
20
49.891132
0
VERTEX
8
CONTOUR_70-0
10
23.850576
20
49.891706
0
VERTEX
8
CONTOUR_70-0
10
23.850293
20
49.891992
0
VERTEX
8
CONTOUR_70-0
10
23.850029
20
49.892284
0
VERTEX
8
CONTOUR_70-0
10
23.849786
20
49.892601
0
VERTEX
8
CONTOUR_70-0
10
23.849564
20
49.892926
0
VERTEX
8
CONTOUR_70-0
10
23.849206
20
49.893453
0
VERTEX
8
CONTOUR_70-0
10
23.848791
20
49.893960
0
VERTEX
8
CONTOUR_70-0
10
23.848785
20
49.893965
0
VERTEX
8
CONTOUR_70-0
10
23.847817
20
49.895005
0
VERTEX
8
CONTOUR_70-0
10
23.847175
20
49.895754
0
VERTEX
8
CONTOUR_70-0
10
23.846875
20
49.896045
0
VERTEX
8
CONTOUR_70-0
10
23.845876
20
49.897085
0
VERTEX
8
CONTOUR_70-0
10
23.845561
20
49.897429
0
VERTEX
8
CONTOUR_70-0
10
23.845164
20
49.897771
0
VERTEX
8
CONTOUR_70-0
10
23.844733
20
49.898097
0
VERTEX
8
CONTOUR_70-0
10
23.844074
20
49.898615
0
VERTEX
8
CONTOUR_70-0
10
23.843765
20
49.898884
0
VERTEX
8
CONTOUR_70-0
10
23.843477
20
49.899164
0
VERTEX
8
CONTOUR_70-0
10
23.843205
20
49.899467
0
VERTEX
8
CONTOUR_70-0
10
23.842941
20
49.899773
0
VERTEX
8
CONTOUR_70-0
10
23.842659
20
49.900068
0
VERTEX
8
CONTOUR_70-0
10
23.842332
20
49.900337
0
VERTEX
8
CONTOUR_70-0
10
23.841938
20
49.900566
0
VERTEX
8
CONTOUR_70-0
10
23.841509
20
49.900777
0
VERTEX
8
CONTOUR_70-0
10
23.841085
20
49.900994
0
VERTEX
8
CONTOUR_70-0
10
23.840706
20
49.901242
0
VERTEX
8
CONTOUR_70-0
10
23.840327
20
49.901632
0
VERTEX
8
CONTOUR_70-0
10
23.839998
20
49.902051
0
VERTEX
8
CONTOUR_70-0
10
23.839625
20
49.902429
0
VERTEX
8
CONTOUR_70-0
10
23.839104
20
49.902686
70
1
0
SEQEND
8
CONTOUR_70-0
0
TEXT
8
CONTOUR_LABELS
10
23.866104
20
49.875686
40
0.050
1
70.0
0
POLYLINE
8
CONTOUR_75-0
66
1
10
0.0
20
0.0
0
VERTEX
8
CONTOUR_75-0
10
23.884283
20
49.860040
0
VERTEX
8
CONTOUR_75-0
10
23.883905
20
49.860171
0
VERTEX
8
CONTOUR_75-0
10
23.883528
20
49.860298
0
VERTEX
8
CONTOUR_75-0
10
23.883126
20
49.860397
0
VERTEX
8
CONTOUR_75-0
10
23.882672
20
49.860437
0
VERTEX
8
CONTOUR_75-0
10
23.882133
20
49.860381
0
VERTEX
8
CONTOUR_75-0
10
23.881792
20
49.860219
0
VERTEX
8
CONTOUR_75-0
10
23.881864
20
49.859955
0
VERTEX
8
CONTOUR_75-0
10
23.882130
20
49.859650
0
VERTEX
8
CONTOUR_75-0
10
23.882308
20
49.859414
0
VERTEX
8
CONTOUR_75-0
10
23.882443
20
49.859187
0
VERTEX
8
CONTOUR_75-0
10
23.882558
20
49.858965
0
VERTEX
8
CONTOUR_75-0
10
23.882675
20
49.858740
0
VERTEX
8
CONTOUR_75-0
10
23.882751
20
49.858609
0
VERTEX
8
CONTOUR_75-0
10
23.882968
20
49.858333
0
VERTEX
8
CONTOUR_75-0
10
23.883229
20
49.858073
0
VERTEX
8
CONTOUR_75-0
10
23.883512
20
49.857820
0
VERTEX
8
CONTOUR_75-0
10
23.883799
20
49.857569
0
VERTEX
8
CONTOUR_75-0
10
23.884287
20
49.857118
0
VERTEX
8
CONTOUR_75-0
10
23.884903
20
49.856529
0
VERTEX
8
CONTOUR_75-0
10
23.885899
20
49.855613
0
VERTEX
8
CONTOUR_75-0
10
23.886028
20
49.855489
0
VERTEX
8
CONTOUR_75-0
10
23.886337
20
49.855207
0
VERTEX
8
CONTOUR_75-0
10
23.886511
20
49.854980
0
VERTEX
8
CONTOUR_75-0
10
23.886646
20
49.854740
0
VERTEX
8
CONTOUR_75-0
10
23.886765
20
49.854493
0
VERTEX
8
CONTOUR_75-0
10
23.886891
20
49.854249
0
VERTEX
8
CONTOUR_75-0
10
23.887175
20
49.853827
0
VERTEX
8
CONTOUR_75-0
10
23.887466
20
49.853409
0
VERTEX
8
CONTOUR_75-0
10
23.887512
20
49.853334
0
VERTEX
8
CONTOUR_75-0
10
23.888125
20
49.852369
0
VERTEX
8
CONTOUR_75-0
10
23.888868
20
49.851328
0
VERTEX
8
CONTOUR_75-0
10
23.889125
20
49.851026
0
VERTEX
8
CONTOUR_75-0
10
23.889729
20
49.850288
0
VERTEX
8
CONTOUR_75-0
10
23.890638
20
49.849248
0
VERTEX
8
CONTOUR_75-0
10
23.890737
20
49.849148
0
VERTEX
8
CONTOUR_75-0
10
23.891638
20
49.848208
0
VERTEX
8
CONTOUR_75-0
10
23.892349
20
49.847501
0
VERTEX
8
CONTOUR_75-0
10
23.892672
20
49.847168
0
VERTEX
8
CONTOUR_75-0
10
23.893751
20
49.846128
0
VERTEX
8
CONTOUR_75-0
10
23.893960
20
49.845941
0
VERTEX
8
CONTOUR_75-0
10
23.894879
20
49.845088
0
VERTEX
8
CONTOUR_75-0
10
23.895571
20
49.844473
0
VERTEX
8
CONTOUR_75-0
10
23.896034
20
49.844048
0
VERTEX
8
CONTOUR_75-0
10
23.897182
20
49.843038
0
VERTEX
8
CONTOUR_75-0
10
23.897216
20
49.843008
0
VERTEX
8
CONTOUR_75-0
10
23.897453
20
49.842821
0
VERTEX
8
CONTOUR_75-0
10
23.897716
20
49.842648
0
VERTEX
8
CONTOUR_75-0
10
23.897987
20
49.842480
0
VERTEX
8
CONTOUR_75-0
10
23.898250
20
49.842307
0
VERTEX
8
CONTOUR_75-0
10
23.898488
20
49.842129
0
VERTEX
8
CONTOUR_75-0
10
23.898709
20
49.841942
0
VERTEX
8
CONTOUR_75-0
10
23.899121
20
49.841554
0
VERTEX
8
CONTOUR_75-0
10
23.899440
20
49.841236
0
VERTEX
8
CONTOUR_75-0
10
23.899775
20
49.840928
0
VERTEX
8
CONTOUR_75-0
10
23.900085
20
49.840682
0
VERTEX
8
CONTOUR_75-0
10
23.900404
20
49.840440
0
VERTEX
8
CONTOUR_75-0
10
23.901093
20
49.839888
0
VERTEX
8
CONTOUR_75-0
10
23.902015
20
49.839177
0
VERTEX
8
CONTOUR_75-0
10
23.902428
20
49.838848
0
VERTEX
8
CONTOUR_75-0
10
23.903625
20
49.837956
0
VERTEX
8
CONTOUR_75-0
10
23.904217
20
49.837532
0
VERTEX
8
CONTOUR_75-0
10
23.904711
20
49.837118
0
VERTEX
8
CONTOUR_75-0
10
23.905135
20
49.836767
0
VERTEX
8
CONTOUR_75-0
10
23.906287
20
49.835908
0
VERTEX
8
CONTOUR_75-0
10
23.906680
20
49.835620
0
VERTEX
8
CONTOUR_75-0
10
23.906846
20
49.835501
0
VERTEX
8
CONTOUR_75-0
10
23.907933
20
49.834687
0
VERTEX
8
CONTOUR_75-0
10
23.908456
20
49.834310
0
VERTEX
8
CONTOUR_75-0
10
23.908914
20
49.833985
0
VERTEX
8
CONTOUR_75-0
10
23.909347
20
49.833647
0
VERTEX
8
CONTOUR_75-0
10
23.909728
20
49.833282
0
VERTEX
8
CONTOUR_75-0
10
23.910066
20
49.832897
0
VERTEX
8
CONTOUR_75-0
10
23.910273
20
49.832607
0
VERTEX
8
CONTOUR_75-0
10
23.910366
20
49.832355
0
VERTEX
8
CONTOUR_75-0
10
23.910408
20
49.832095
0
VERTEX
8
CONTOUR_75-0
10
23.910429
20
49.831830
0
VERTEX
8
CONTOUR_75-0
10
23.910461
20
49.831566
0
VERTEX
8
CONTOUR_75-0
10
23.910526
20
49.831301
0
VERTEX
8
CONTOUR_75-0
10
23.910621
20
49.831040
0
VERTEX
8
CONTOUR_75-0
10
23.910735
20
49.830782
0
VERTEX
8
CONTOUR_75-0
10
23.910862
20
49.830526
0
VERTEX
8
CONTOUR_75-0
10
23.911156
20
49.829997
0
VERTEX
8
CONTOUR_75-0
10
23.911507
20
49.829485
0
VERTEX
8
CONTOUR_75-0
10
23.911679
20
49.829278
0
VERTEX
8
CONTOUR_75-0
10
23.912033
20
49.828857
0
VERTEX
8
CONTOUR_75-0
10
23.912411
20
49.828445
0
VERTEX
8
CONTOUR_75-0
10
23.912834
20
49.828063
0
VERTEX
8
CONTOUR_75-0
10
23.913289
20
49.827695
0
VERTEX
8
CONTOUR_75-0
10
23.913675
20
49.827405
0
VERTEX
8
CONTOUR_75-0
10
23.914899
20
49.826627
0
VERTEX
8
CONTOUR_75-0
10
23.915098
20
49.826494
0
VERTEX
8
CONTOUR_75-0
10
23.915304
20
49.826365
0
VERTEX
8
CONTOUR_75-0
10
23.916508
20
49.825597
0
VERTEX
8
CONTOUR_75-0
10
23.916927
20
49.825325
0
VERTEX
8
CONTOUR_75-0
10
23.918118
20
49.824579
0
VERTEX
8
CONTOUR_75-0
10
23.918579
20
49.824285
0
VERTEX
8
CONTOUR_75-0
10
23.919727
20
49.823581
0
VERTEX
8
CONTOUR_75-0
10
23.920265
20
49.823245
0
VERTEX
8
CONTOUR_75-0
10
23.921336
20
49.822602
0
VERTEX
8
CONTOUR_75-0
10
23.921988
20
49.822204
0
VERTEX
8
CONTOUR_75-0
10
23.922946
20
49.821646
0
VERTEX
8
CONTOUR_75-0
10
23.923757
20
49.821164
0
VERTEX
8
CONTOUR_75-0
10
23.924555
20
49.820713
0
VERTEX
8
CONTOUR_75-0
10
23.925579
20
49.820124
0
VERTEX
8
CONTOUR_75-0
10
23.926164
20
49.819802
0
VERTEX
8
CONTOUR_75-0
10
23.927339
20
49.819084
0
VERTEX
8
CONTOUR_75-0
10
23.927773
20
49.818821
0
VERTEX
8
CONTOUR_75-0
10
23.928164
20
49.818619
0
VERTEX
8
CONTOUR_75-0
10
23.928571
20
49.818430
0
VERTEX
8
CONTOUR_75-0
10
23.929382
20
49.818047
0
VERTEX
8
CONTOUR_75-0
10
23.929387
20
49.818044
0
VERTEX
8
CONTOUR_75-0
10
23.930991
20
49.817248
0
VERTEX
8
CONTOUR_75-0
10
23.931466
20
49.817004
0
VERTEX
8
CONTOUR_75-0
10
23.932599
20
49.816458
0
VERTEX
8
CONTOUR_75-0
10
23.933480
20
49.815963
0
VERTEX
8
CONTOUR_75-0
10
23.933840
20
49.815746
0
VERTEX
8
CONTOUR_75-0
10
23.934208
20
49.815536
0
VERTEX
8
CONTOUR_75-0
10
23.934870
20
49.815218
0
VERTEX
8
CONTOUR_75-0
10
23.935559
20
49.814923
0
VERTEX
8
CONTOUR_75-0
10
23.935817
20
49.814817
0
VERTEX
8
CONTOUR_75-0
10
23.936633
20
49.814518
0
VERTEX
8
CONTOUR_75-0
10
23.937038
20
49.814367
0
VERTEX
8
CONTOUR_75-0
10
23.937425
20
49.814199
0
VERTEX
8
CONTOUR_75-0
10
23.937721
20
49.814044
0
VERTEX
8
CONTOUR_75-0
10
23.938010
20
49.813883
0
VERTEX
8
CONTOUR_75-0
10
23.938506
20
49.813626
0
VERTEX
8
CONTOUR_75-0
10
23.939034
20
49.813400
0
VERTEX
8
CONTOUR_75-0
10
23.939434
20
49.813269
0
VERTEX
8
CONTOUR_75-0
10
23.939844
20
49.813150
0
VERTEX
8
CONTOUR_75-0
10
23.940252
20
49.813028
0
VERTEX
8
CONTOUR_75-0
10
23.940642
20
49.812886
0
VERTEX
8
CONTOUR_75-0
10
23.940744
20
49.812843
0
VERTEX
8
CONTOUR_75-0
10
23.941487
20
49.812517
0
VERTEX
8
CONTOUR_75-0
10
23.941864
20
49.812360
0
VERTEX
8
CONTOUR_75-0
10
23.942251
20
49.812215
0
VERTEX
8
CONTOUR_75-0
10
23.942592
20
49.812104
0
VERTEX
8
CONTOUR_75-0
10
23.942940
20
49.812001
0
VERTEX
8
CONTOUR_75-0
10
23.943641
20
49.811802
0
VERTEX
8
CONTOUR_75-0
10
23.943859
20
49.811738
0
VERTEX
8
CONTOUR_75-0
10
23.944682
20
49.811485
0
VERTEX
8
CONTOUR_75-0
10
23.945082
20
49.811346
0
VERTEX
8
CONTOUR_75-0
10
23.945468
20
49.811191
0
VERTEX
8
CONTOUR_75-0
10
23.945906
20
49.810981
0
VERTEX
8
CONTOUR_75-0
10
23.946336
20
49.810762
0
VERTEX
8
CONTOUR_75-0
10
23.947076
20
49.810416
0
VERTEX
8
CONTOUR_75-0
10
23.947828
20
49.810081
0
VERTEX
8
CONTOUR_75-0
10
23.948549
20
49.809722
0
VERTEX
8
CONTOUR_75-0
10
23.948684
20
49.809644
0
VERTEX
8
CONTOUR_75-0
10
23.950292
20
49.808681
0
VERTEX
8
CONTOUR_75-0
10
23.950293
20
49.808681
0
VERTEX
8
CONTOUR_75-0
10
23.951901
20
49.807732
0
VERTEX
8
CONTOUR_75-0
10
23.952053
20
49.807640
0
VERTEX
8
CONTOUR_75-0
10
23.953509
20
49.806700
0
VERTEX
8
CONTOUR_75-0
10
23.953649
20
49.806600
0
VERTEX
8
CONTOUR_75-0
10
23.955068
20
49.805559
0
VERTEX
8
CONTOUR_75-0
10
23.955117
20
49.805522
0
VERTEX
8
CONTOUR_75-0
10
23.956436
20
49.804519
0
VERTEX
8
CONTOUR_75-0
10
23.956725
20
49.804304
0
VERTEX
8
CONTOUR_75-0
10
23.957274
20
49.803896
0
VERTEX
8
CONTOUR_75-0
10
23.957804
20
49.803478
0
VERTEX
8
CONTOUR_75-0
10
23.958079
20
49.803235
0
VERTEX
8
CONTOUR_75-0
10
23.958333
20
49.802982
0
VERTEX
8
CONTOUR_75-0
10
23.958815
20
49.802437
0
VERTEX
8
CONTOUR_75-0
10
23.959361
20
49.801925
0
VERTEX
8
CONTOUR_75-0
10
23.959629
20
49.801667
0
VERTEX
8
CONTOUR_75-0
10
23.959860
20
49.801397
0
VERTEX
8
CONTOUR_75-0
10
23.959941
20
49.801278
0
VERTEX
8
CONTOUR_75-0
10
23.960579
20
49.800356
0
VERTEX
8
CONTOUR_75-0
10
23.961366
20
49.799315
0
VERTEX
8
CONTOUR_75-0
10
23.961549
20
49.799087
0
VERTEX
8
CONTOUR_75-0
10
23.962206
20
49.798274
0
VERTEX
8
CONTOUR_75-0
10
23.963156
20
49.797237
0
VERTEX
8
CONTOUR_75-0
10
23.963158
20
49.797235
0
VERTEX
8
CONTOUR_75-0
10
23.963159
20
49.797234
0
VERTEX
8
CONTOUR_75-0
10
23.963476
20
49.796988
0
VERTEX
8
CONTOUR_75-0
10
23.963771
20
49.796732
0
VERTEX
8
CONTOUR_75-0
10
23.964046
20
49.796467
0
VERTEX
8
CONTOUR_75-0
10
23.964299
20
49.796193
0
VERTEX
8
CONTOUR_75-0
10
23.964536
20
49.795903
0
VERTEX
8
CONTOUR_75-0
10
23.964764
20
49.795610
0
VERTEX
8
CONTOUR_75-0
10
23.964949
20
49.795378
0
VERTEX
8
CONTOUR_75-0
10
23.965150
20
49.795152
0
VERTEX
8
CONTOUR_75-0
10
23.965429
20
49.794885
0
VERTEX
8
CONTOUR_75-0
10
23.965733
20
49.794629
0
VERTEX
8
CONTOUR_75-0
10
23.966371
20
49.794130
0
VERTEX
8
CONTOUR_75-0
10
23.966395
20
49.794112
0
VERTEX
8
CONTOUR_75-0
10
23.967640
20
49.793071
0
VERTEX
8
CONTOUR_75-0
10
23.967978
20
49.792756
0
VERTEX
8
CONTOUR_75-0
10
23.968807
20
49.792030
0
VERTEX
8
CONTOUR_75-0
10
23.969586
20
49.791275
0
VERTEX
8
CONTOUR_75-0
10
23.969899
20
49.790989
0
VERTEX
8
CONTOUR_75-0
10
23.971186
20
49.789948
0
VERTEX
8
CONTOUR_75-0
10
23.971189
20
49.789946
0
VERTEX
8
CONTOUR_75-0
10
23.971193
20
49.789943
0
VERTEX
8
CONTOUR_75-0
10
23.971924
20
49.789445
0
VERTEX
8
CONTOUR_75-0
10
23.972584
20
49.788908
0
VERTEX
8
CONTOUR_75-0
10
23.972675
20
49.788827
0
VERTEX
8
CONTOUR_75-0
10
23.972800
20
49.788733
0
VERTEX
8
CONTOUR_75-0
10
23.973919
20
49.787867
0
VERTEX
8
CONTOUR_75-0
10
23.974407
20
49.787486
0
VERTEX
8
CONTOUR_75-0
10
23.975290
20
49.786826
0
VERTEX
8
CONTOUR_75-0
10
23.976014
20
49.786280
0
VERTEX
8
CONTOUR_75-0
10
23.976696
20
49.785785
0
VERTEX
8
CONTOUR_75-0
10
23.977621
20
49.785106
0
VERTEX
8
CONTOUR_75-0
10
23.978133
20
49.784744
0
VERTEX
8
CONTOUR_75-0
10
23.979228
20
49.783960
0
VERTEX
8
CONTOUR_75-0
10
23.979599
20
49.783703
0
VERTEX
8
CONTOUR_75-0
10
23.980834
20
49.782837
0
VERTEX
8
CONTOUR_75-0
10
23.981093
20
49.782662
0
VERTEX
8
CONTOUR_75-0
10
23.982441
20
49.781727
0
VERTEX
8
CONTOUR_75-0
10
23.982596
20
49.781621
0
VERTEX
8
CONTOUR_75-0
10
23.983304
20
49.781129
0
VERTEX
8
CONTOUR_75-0
10
23.984048
20
49.780661
0
VERTEX
8
CONTOUR_75-0
10
23.984197
20
49.780580
0
VERTEX
8
CONTOUR_75-0
10
23.984908
20
49.780216
0
VERTEX
8
CONTOUR_75-0
10
23.985654
20
49.779884
0
VERTEX
8
CONTOUR_75-0
10
23.986137
20
49.779707
0
VERTEX
8
CONTOUR_75-0
10
23.986629
20
49.779539
0
VERTEX
8
CONTOUR_75-0
10
23.986944
20
49.779431
0
VERTEX
8
CONTOUR_75-0
10
23.987261
20
49.779327
0
VERTEX
8
CONTOUR_75-0
10
23.988054
20
49.779115
0
VERTEX
8
CONTOUR_75-0
10
23.988460
20
49.779022
0
VERTEX
8
CONTOUR_75-0
10
23.988868
20
49.778936
0
VERTEX
8
CONTOUR_75-0
10
23.989261
20
49.778857
0
VERTEX
8
CONTOUR_75-0
10
23.989658
20
49.778787
0
VERTEX
8
CONTOUR_75-0
10
23.990061
20
49.778732
0
VERTEX
8
CONTOUR_75-0
10
23.990475
20
49.778699
0
VERTEX
8
CONTOUR_75-0
10
23.990894
20
49.778693
0
VERTEX
8
CONTOUR_75-0
10
23.991313
20
49.778688
0
VERTEX
8
CONTOUR_75-0
10
23.991715
20
49.778657
0
VERTEX
8
CONTOUR_75-0
10
23.992082
20
49.778566
0
VERTEX
8
CONTOUR_75-0
10
23.992233
20
49.778497
0
VERTEX
8
CONTOUR_75-0
10
23.992614
20
49.778287
0
VERTEX
8
CONTOUR_75-0
10
23.992975
20
49.778063
0
VERTEX
8
CONTOUR_75-0
10
23.993688
20
49.777611
0
VERTEX
8
CONTOUR_75-0
10
23.993955
20
49.777455
0
VERTEX
8
CONTOUR_75-0
10
23.995295
20
49.776648
0
VERTEX
8
CONTOUR_75-0
10
23.995697
20
49.776414
0
VERTEX
8
CONTOUR_75-0
10
23.996901
20
49.775694
0
VERTEX
8
CONTOUR_75-0
10
23.997460
20
49.775373
0
VERTEX
8
CONTOUR_75-0
10
23.998507
20
49.774752
0
VERTEX
8
CONTOUR_75-0
10
23.999246
20
49.774332
0
VERTEX
8
CONTOUR_75-0
10
24.000113
20
49.773822
0
VERTEX
8
CONTOUR_75-0
10
24.001055
20
49.773290
0
VERTEX
8
CONTOUR_75-0
10
24.001719
20
49.772903
0
VERTEX
8
CONTOUR_75-0
10
24.002889
20
49.772249
0
VERTEX
8
CONTOUR_75-0
10
24.003325
20
49.771997
0
VERTEX
8
CONTOUR_75-0
10
24.004749
20
49.771208
0
VERTEX
8
CONTOUR_75-0
10
24.004931
20
49.771103
0
VERTEX
8
CONTOUR_75-0
10
24.006537
20
49.770228
0
VERTEX
8
CONTOUR_75-0
10
24.006663
20
49.770166
0
VERTEX
8
CONTOUR_75-0
10
24.008143
20
49.769393
0
VERTEX
8
CONTOUR_75-0
10
24.008695
20
49.769125
0
VERTEX
8
CONTOUR_75-0
10
24.009749
20
49.768592
0
VERTEX
8
CONTOUR_75-0
10
24.010812
20
49.768083
0
VERTEX
8
CONTOUR_75-0
10
24.011355
20
49.767812
0
VERTEX
8
CONTOUR_75-0
10
24.012961
20
49.767053
0
VERTEX
8
CONTOUR_75-0
10
24.012989
20
49.767041
0
VERTEX
8
CONTOUR_75-0
10
24.014567
20
49.766335
0
VERTEX
8
CONTOUR_75-0
10
24.015363
20
49.765999
0
VERTEX
8
CONTOUR_75-0
10
24.016173
20
49.765643
0
VERTEX
8
CONTOUR_75-0
10
24.017779
20
49.764980
0
VERTEX
8
CONTOUR_75-0
10
24.017843
20
49.764957
0
VERTEX
8
CONTOUR_75-0
10
24.019385
20
49.764387
0
VERTEX
8
CONTOUR_75-0
10
24.020746
20
49.763915
0
VERTEX
8
CONTOUR_75-0
10
24.020991
20
49.763827
0
VERTEX
8
CONTOUR_75-0
10
24.021429
20
49.763732
0
VERTEX
8
CONTOUR_75-0
10
24.021892
20
49.763659
0
VERTEX
8
CONTOUR_75-0
10
24.022308
20
49.763556
0
VERTEX
8
CONTOUR_75-0
10
24.022597
20
49.763367
0
VERTEX
8
CONTOUR_75-0
10
24.022813
20
49.763014
0
VERTEX
8
CONTOUR_75-0
10
24.023088
20
49.762941
0
VERTEX
8
CONTOUR_75-0
10
24.023465
20
49.762950
0
VERTEX
8
CONTOUR_75-0
10
24.023863
20
49.762964
0
VERTEX
8
CONTOUR_75-0
10
24.024203
20
49.762900
0
VERTEX
8
CONTOUR_75-0
10
24.024256
20
49.762873
0
VERTEX
8
CONTOUR_75-0
10
24.025808
20
49.762062
0
VERTEX
8
CONTOUR_75-0
10
24.026262
20
49.761831
0
VERTEX
8
CONTOUR_75-0
10
24.027413
20
49.761230
0
VERTEX
8
CONTOUR_75-0
10
24.028282
20
49.760789
0
VERTEX
8
CONTOUR_75-0
10
24.029019
20
49.760401
0
VERTEX
8
CONTOUR_75-0
10
24.030315
20
49.759747
0
VERTEX
8
CONTOUR_75-0
10
24.030624
20
49.759574
0
VERTEX
8
CONTOUR_75-0
10
24.031404
20
49.759179
0
VERTEX
8
CONTOUR_75-0
10
24.032229
20
49.758826
0
VERTEX
8
CONTOUR_75-0
10
24.032549
20
49.758705
0
VERTEX
8
CONTOUR_75-0
10
24.033835
20
49.758187
0
VERTEX
8
CONTOUR_75-0
10
24.035261
20
49.757662
0
VERTEX
8
CONTOUR_75-0
10
24.035440
20
49.757593
0
VERTEX
8
CONTOUR_75-0
10
24.035679
20
49.757507
0
VERTEX
8
CONTOUR_75-0
10
24.036198
20
49.757502
0
VERTEX
8
CONTOUR_75-0
10
24.036634
20
49.757662
0
VERTEX
8
CONTOUR_75-0
10
24.036766
20
49.757878
0
VERTEX
8
CONTOUR_75-0
10
24.036732
20
49.758140
0
VERTEX
8
CONTOUR_75-0
10
24.036601
20
49.758422
0
VERTEX
8
CONTOUR_75-0
10
24.036432
20
49.758702
0
VERTEX
8
CONTOUR_75-0
10
24.036073
20
49.759251
0
VERTEX
8
CONTOUR_75-0
10
24.035883
20
49.759502
0
VERTEX
8
CONTOUR_75-0
10
24.035665
20
49.759744
0
VERTEX
8
CONTOUR_75-0
10
24.035444
20
49.759953
0
VERTEX
8
CONTOUR_75-0
10
24.034593
20
49.760785
0
VERTEX
8
CONTOUR_75-0
10
24.033840
20
49.761494
0
VERTEX
8
CONTOUR_75-0
10
24.033498
20
49.761826
0
VERTEX
8
CONTOUR_75-0
10
24.032397
20
49.762868
0
VERTEX
8
CONTOUR_75-0
10
24.032236
20
49.763009
0
VERTEX
8
CONTOUR_75-0
10
24.031950
20
49.763218
0
VERTEX
8
CONTOUR_75-0
10
24.031657
20
49.763425
0
VERTEX
8
CONTOUR_75-0
10
24.031413
20
49.763649
0
VERTEX
8
CONTOUR_75-0
10
24.031278
20
49.763909
0
VERTEX
8
CONTOUR_75-0
10
24.031191
20
49.764272
0
VERTEX
8
CONTOUR_75-0
10
24.030631
20
49.764473
0
VERTEX
8
CONTOUR_75-0
10
24.030331
20
49.764686
0
VERTEX
8
CONTOUR_75-0
10
24.030115
20
49.764951
0
VERTEX
8
CONTOUR_75-0
10
24.029870
20
49.765201
0
VERTEX
8
CONTOUR_75-0
10
24.029593
20
49.765432
0
VERTEX
8
CONTOUR_75-0
10
24.029027
20
49.765887
0
VERTEX
8
CONTOUR_75-0
10
24.028912
20
49.765992
0
VERTEX
8
CONTOUR_75-0
10
24.028676
20
49.766240
0
VERTEX
8
CONTOUR_75-0
10
24.028466
20
49.766498
0
VERTEX
8
CONTOUR_75-0
10
24.028276
20
49.766763
0
VERTEX
8
CONTOUR_75-0
10
24.028102
20
49.767033
0
VERTEX
8
CONTOUR_75-0
10
24.027790
20
49.767560
0
VERTEX
8
CONTOUR_75-0
10
24.027437
20
49.768074
0
VERTEX
8
CONTOUR_75-0
10
24.027423
20
49.768092
0
VERTEX
8
CONTOUR_75-0
10
24.026610
20
49.769115
0
VERTEX
8
CONTOUR_75-0
10
24.025819
20
49.770064
0
VERTEX
8
CONTOUR_75-0
10
24.025745
20
49.770157
0
VERTEX
8
CONTOUR_75-0
10
24.024778
20
49.771198
0
VERTEX
8
CONTOUR_75-0
10
24.024215
20
49.771772
0
VERTEX
8
CONTOUR_75-0
10
24.023772
20
49.772239
0
VERTEX
8
CONTOUR_75-0
10
24.022724
20
49.773280
0
VERTEX
8
CONTOUR_75-0
10
24.022610
20
49.773384
0
VERTEX
8
CONTOUR_75-0
10
24.021617
20
49.774322
0
VERTEX
8
CONTOUR_75-0
10
24.021005
20
49.774875
0
VERTEX
8
CONTOUR_75-0
10
24.020483
20
49.775363
0
VERTEX
8
CONTOUR_75-0
10
24.019400
20
49.776331
0
VERTEX
8
CONTOUR_75-0
10
24.019321
20
49.776404
0
VERTEX
8
CONTOUR_75-0
10
24.019091
20
49.776586
0
VERTEX
8
CONTOUR_75-0
10
24.018838
20
49.776755
0
VERTEX
8
CONTOUR_75-0
10
24.018577
20
49.776921
0
VERTEX
8
CONTOUR_75-0
10
24.018323
20
49.777090
0
VERTEX
8
CONTOUR_75-0
10
24.018085
20
49.777271
0
VERTEX
8
CONTOUR_75-0
10
24.017862
20
49.777460
0
VERTEX
8
CONTOUR_75-0
10
24.017452
20
49.777855
0
VERTEX
8
CONTOUR_75-0
10
24.017147
20
49.778175
0
VERTEX
8
CONTOUR_75-0
10
24.016825
20
49.778487
0
VERTEX
8
CONTOUR_75-0
10
24.016513
20
49.778739
0
VERTEX
8
CONTOUR_75-0
10
24.016189
20
49.778986
0
VERTEX
8
CONTOUR_75-0
10
24.015522
20
49.779528
0
VERTEX
8
CONTOUR_75-0
10
24.014583
20
49.780260
0
VERTEX
8
CONTOUR_75-0
10
24.014200
20
49.780569
0
VERTEX
8
CONTOUR_75-0
10
24.012977
20
49.781488
0
VERTEX
8
CONTOUR_75-0
10
24.012683
20
49.781691
0
VERTEX
8
CONTOUR_75-0
10
24.012397
20
49.781899
0
VERTEX
8
CONTOUR_75-0
10
24.012151
20
49.782101
0
VERTEX
8
CONTOUR_75-0
10
24.011915
20
49.782308
0
VERTEX
8
CONTOUR_75-0
10
24.011515
20
49.782652
0
VERTEX
8
CONTOUR_75-0
10
24.010419
20
49.783482
0
VERTEX
8
CONTOUR_75-0
10
24.009961
20
49.783820
0
VERTEX
8
CONTOUR_75-0
10
24.009766
20
49.783962
0
VERTEX
8
CONTOUR_75-0
10
24.008744
20
49.784735
0
VERTEX
8
CONTOUR_75-0
10
24.008160
20
49.785161
0
VERTEX
8
CONTOUR_75-0
10
24.007341
20
49.785776
0
VERTEX
8
CONTOUR_75-0
10
24.006553
20
49.786346
0
VERTEX
8
CONTOUR_75-0
10
24.006216
20
49.786574
0
VERTEX
8
CONTOUR_75-0
10
24.005922
20
49.786817
0
VERTEX
8
CONTOUR_75-0
10
24.005746
20
49.787056
0
VERTEX
8
CONTOUR_75-0
10
24.005629
20
49.787315
0
VERTEX
8
CONTOUR_75-0
10
24.005548
20
49.787585
0
VERTEX
8
CONTOUR_75-0
10
24.005485
20
49.787858
0
VERTEX
8
CONTOUR_75-0
10
24.005368
20
49.788384
0
VERTEX
8
CONTOUR_75-0
10
24.005209
20
49.788899
0
VERTEX
8
CONTOUR_75-0
10
24.005083
20
49.789177
0
VERTEX
8
CONTOUR_75-0
10
24.004949
20
49.789454
0
VERTEX
8
CONTOUR_75-0
10
24.004839
20
49.789698
0
VERTEX
8
CONTOUR_75-0
10
24.004723
20
49.789940
0
VERTEX
8
CONTOUR_75-0
10
24.004571
20
49.790208
0
VERTEX
8
CONTOUR_75-0
10
24.004396
20
49.790471
0
VERTEX
8
CONTOUR_75-0
10
24.004204
20
49.790728
0
VERTEX
8
CONTOUR_75-0
10
24.003995
20
49.790981
0
VERTEX
8
CONTOUR_75-0
10
24.003344
20
49.791659
0
VERTEX
8
CONTOUR_75-0
10
24.002960
20
49.792022
0
VERTEX
8
CONTOUR_75-0
10
24.002370
20
49.792490
0
VERTEX
8
CONTOUR_75-0
10
24.001737
20
49.792934
0
VERTEX
8
CONTOUR_75-0
10
24.001546
20
49.793063
0
VERTEX
8
CONTOUR_75-0
10
24.000131
20
49.793944
0
VERTEX
8
CONTOUR_75-0
10
23.999888
20
49.794104
0
VERTEX
8
CONTOUR_75-0
10
23.998524
20
49.794971
0
VERTEX
8
CONTOUR_75-0
10
23.998255
20
49.795146
0
VERTEX
8
CONTOUR_75-0
10
23.996917
20
49.795980
0
VERTEX
8
CONTOUR_75-0
10
23.996591
20
49.796187
0
VERTEX
8
CONTOUR_75-0
10
23.995310
20
49.796968
0
VERTEX
8
CONTOUR_75-0
10
23.994892
20
49.797228
0
VERTEX
8
CONTOUR_75-0
10
23.993703
20
49.797936
0
VERTEX
8
CONTOUR_75-0
10
23.993152
20
49.798269
0
VERTEX
8
CONTOUR_75-0
10
23.992096
20
49.798880
0
VERTEX
8
CONTOUR_75-0
10
23.991365
20
49.799310
0
VERTEX
8
CONTOUR_75-0
10
23.990489
20
49.799801
0
VERTEX
8
CONTOUR_75-0
10
23.989519
20
49.800352
0
VERTEX
8
CONTOUR_75-0
10
23.988882
20
49.800731
0
VERTEX
8
CONTOUR_75-0
10
23.987783
20
49.801393
0
VERTEX
8
CONTOUR_75-0
10
23.987274
20
49.801661
0
VERTEX
8
CONTOUR_75-0
10
23.985667
20
49.802397
0
VERTEX
8
CONTOUR_75-0
10
23.985598
20
49.802434
0
VERTEX
8
CONTOUR_75-0
10
23.984060
20
49.803204
0
VERTEX
8
CONTOUR_75-0
10
23.983835
20
49.803330
0
VERTEX
8
CONTOUR_75-0
10
23.983517
20
49.803475
0
VERTEX
8
CONTOUR_75-0
10
23.982452
20
49.804045
0
VERTEX
8
CONTOUR_75-0
10
23.981625
20
49.804516
0
VERTEX
8
CONTOUR_75-0
10
23.981218
20
49.804758
0
VERTEX
8
CONTOUR_75-0
10
23.980844
20
49.804912
0
VERTEX
8
CONTOUR_75-0
10
23.980025
20
49.805194
0
VERTEX
8
CONTOUR_75-0
10
23.979622
20
49.805342
0
VERTEX
8
CONTOUR_75-0
10
23.979237
20
49.805507
0
VERTEX
8
CONTOUR_75-0
10
23.979192
20
49.805528
0
VERTEX
8
CONTOUR_75-0
10
23.979129
20
49.805557
0
VERTEX
8
CONTOUR_75-0
10
23.977629
20
49.806281
0
VERTEX
8
CONTOUR_75-0
10
23.977365
20
49.806428
0
VERTEX
8
CONTOUR_75-0
10
23.976891
20
49.806598
0
VERTEX
8
CONTOUR_75-0
10
23.976021
20
49.806939
0
VERTEX
8
CONTOUR_75-0
10
23.974414
20
49.807517
0
VERTEX
8
CONTOUR_75-0
10
23.974073
20
49.807640
0
VERTEX
8
CONTOUR_75-0
10
23.972806
20
49.808064
0
VERTEX
8
CONTOUR_75-0
10
23.971986
20
49.808299
0
VERTEX
8
CONTOUR_75-0
10
23.971584
20
49.808424
0
VERTEX
8
CONTOUR_75-0
10
23.971198
20
49.808568
0
VERTEX
8
CONTOUR_75-0
10
23.970947
20
49.808681
0
VERTEX
8
CONTOUR_75-0
10
23.969590
20
49.809288
0
VERTEX
8
CONTOUR_75-0
10
23.969053
20
49.809501
0
VERTEX
8
CONTOUR_75-0
10
23.968524
20
49.809722
0
VERTEX
8
CONTOUR_75-0
10
23.967982
20
49.809991
0
VERTEX
8
CONTOUR_75-0
10
23.966650
20
49.810762
0
VERTEX
8
CONTOUR_75-0
10
23.966374
20
49.810926
0
VERTEX
8
CONTOUR_75-0
10
23.964874
20
49.811803
0
VERTEX
8
CONTOUR_75-0
10
23.964766
20
49.811866
0
VERTEX
8
CONTOUR_75-0
10
23.963158
20
49.812828
0
VERTEX
8
CONTOUR_75-0
10
23.963132
20
49.812844
0
VERTEX
8
CONTOUR_75-0
10
23.961637
20
49.813885
0
VERTEX
8
CONTOUR_75-0
10
23.961550
20
49.813950
0
VERTEX
8
CONTOUR_75-0
10
23.960279
20
49.814925
0
VERTEX
8
CONTOUR_75-0
10
23.959941
20
49.815177
0
VERTEX
8
CONTOUR_75-0
10
23.958865
20
49.815966
0
VERTEX
8
CONTOUR_75-0
10
23.958593
20
49.816166
0
VERTEX
8
CONTOUR_75-0
10
23.958333
20
49.816372
0
VERTEX
8
CONTOUR_75-0
10
23.957995
20
49.816684
0
VERTEX
8
CONTOUR_75-0
10
23.957677
20
49.817007
0
VERTEX
8
CONTOUR_75-0
10
23.956725
20
49.817924
0
VERTEX
8
CONTOUR_75-0
10
23.956587
20
49.818047
0
VERTEX
8
CONTOUR_75-0
10
23.956348
20
49.818295
0
VERTEX
8
CONTOUR_75-0
10
23.956139
20
49.818554
0
VERTEX
8
CONTOUR_75-0
10
23.955946
20
49.818820
0
VERTEX
8
CONTOUR_75-0
10
23.955762
20
49.819088
0
VERTEX
8
CONTOUR_75-0
10
23.955116
20
49.820030
0
VERTEX
8
CONTOUR_75-0
10
23.955048
20
49.820129
0
VERTEX
8
CONTOUR_75-0
10
23.954608
20
49.820653
0
VERTEX
8
CONTOUR_75-0
10
23.954142
20
49.821169
0
VERTEX
8
CONTOUR_75-0
10
23.953507
20
49.822009
0
VERTEX
8
CONTOUR_75-0
10
23.953356
20
49.822210
0
VERTEX
8
CONTOUR_75-0
10
23.953108
20
49.822479
0
VERTEX
8
CONTOUR_75-0
10
23.952831
20
49.822738
0
VERTEX
8
CONTOUR_75-0
10
23.952265
20
49.823251
0
VERTEX
8
CONTOUR_75-0
10
23.951899
20
49.823632
0
VERTEX
8
CONTOUR_75-0
10
23.951289
20
49.824291
0
VERTEX
8
CONTOUR_75-0
10
23.950818
20
49.824822
0
VERTEX
8
CONTOUR_75-0
10
23.950298
20
49.825332
0
VERTEX
8
CONTOUR_75-0
10
23.950290
20
49.825339
0
VERTEX
8
CONTOUR_75-0
10
23.948956
20
49.826372
0
VERTEX
8
CONTOUR_75-0
10
23.948681
20
49.826607
0
VERTEX
8
CONTOUR_75-0
10
23.948436
20
49.826851
0
VERTEX
8
CONTOUR_75-0
10
23.948186
20
49.827093
0
VERTEX
8
CONTOUR_75-0
10
23.947786
20
49.827413
0
VERTEX
8
CONTOUR_75-0
10
23.947072
20
49.828050
0
VERTEX
8
CONTOUR_75-0
10
23.946593
20
49.828454
0
VERTEX
8
CONTOUR_75-0
10
23.945514
20
49.829494
0
VERTEX
8
CONTOUR_75-0
10
23.945463
20
49.829535
0
VERTEX
8
CONTOUR_75-0
10
23.944094
20
49.830535
0
VERTEX
8
CONTOUR_75-0
10
23.943854
20
49.830716
0
VERTEX
8
CONTOUR_75-0
10
23.942759
20
49.831575
0
VERTEX
8
CONTOUR_75-0
10
23.942244
20
49.831981
0
VERTEX
8
CONTOUR_75-0
10
23.941403
20
49.832616
0
VERTEX
8
CONTOUR_75-0
10
23.940635
20
49.833201
0
VERTEX
8
CONTOUR_75-0
10
23.940013
20
49.833656
0
VERTEX
8
CONTOUR_75-0
10
23.939026
20
49.834386
0
VERTEX
8
CONTOUR_75-0
10
23.938589
20
49.834697
0
VERTEX
8
CONTOUR_75-0
10
23.938058
20
49.835112
0
VERTEX
8
CONTOUR_75-0
10
23.937416
20
49.835542
0
VERTEX
8
CONTOUR_75-0
10
23.937135
20
49.835737
0
VERTEX
8
CONTOUR_75-0
10
23.935807
20
49.836673
0
VERTEX
8
CONTOUR_75-0
10
23.935653
20
49.836777
0
VERTEX
8
CONTOUR_75-0
10
23.934197
20
49.837783
0
VERTEX
8
CONTOUR_75-0
10
23.934144
20
49.837818
0
VERTEX
8
CONTOUR_75-0
10
23.932671
20
49.838858
0
VERTEX
8
CONTOUR_75-0
10
23.932588
20
49.838914
0
VERTEX
8
CONTOUR_75-0
10
23.931812
20
49.839394
0
VERTEX
8
CONTOUR_75-0
10
23.930978
20
49.839829
0
VERTEX
8
CONTOUR_75-0
10
23.930824
20
49.839898
0
VERTEX
8
CONTOUR_75-0
10
23.930108
20
49.840209
0
VERTEX
8
CONTOUR_75-0
10
23.929743
20
49.840357
0
VERTEX
8
CONTOUR_75-0
10
23.929368
20
49.840493
0
VERTEX
8
CONTOUR_75-0
10
23.928990
20
49.840614
0
VERTEX
8
CONTOUR_75-0
10
23.928603
20
49.840725
0
VERTEX
8
CONTOUR_75-0
10
23.927824
20
49.840938
0
VERTEX
8
CONTOUR_75-0
10
23.927759
20
49.840957
0
VERTEX
8
CONTOUR_75-0
10
23.927367
20
49.841056
0
VERTEX
8
CONTOUR_75-0
10
23.926967
20
49.841142
0
VERTEX
8
CONTOUR_75-0
10
23.926561
20
49.841216
0
VERTEX
8
CONTOUR_75-0
10
23.926150
20
49.841275
0
VERTEX
8
CONTOUR_75-0
10
23.925344
20
49.841355
0
VERTEX
8
CONTOUR_75-0
10
23.924941
20
49.841395
0
VERTEX
8
CONTOUR_75-0
10
23.924540
20
49.841448
0
VERTEX
8
CONTOUR_75-0
10
23.924107
20
49.841533
0
VERTEX
8
CONTOUR_75-0
10
23.923687
20
49.841644
0
VERTEX
8
CONTOUR_75-0
10
23.923290
20
49.841783
0
VERTEX
8
CONTOUR_75-0
10
23.922931
20
49.841955
0
VERTEX
8
CONTOUR_75-0
10
23.922893
20
49.841978
0
VERTEX
8
CONTOUR_75-0
10
23.921321
20
49.842923
0
VERTEX
8
CONTOUR_75-0
10
23.921157
20
49.843018
0
VERTEX
8
CONTOUR_75-0
10
23.919711
20
49.843880
0
VERTEX
8
CONTOUR_75-0
10
23.919400
20
49.844058
0
VERTEX
8
CONTOUR_75-0
10
23.918722
20
49.844459
0
VERTEX
8
CONTOUR_75-0
10
23.918101
20
49.844826
0
VERTEX
8
CONTOUR_75-0
10
23.917622
20
49.845098
0
VERTEX
8
CONTOUR_75-0
10
23.916491
20
49.845760
0
VERTEX
8
CONTOUR_75-0
10
23.915819
20
49.846138
0
VERTEX
8
CONTOUR_75-0
10
23.914881
20
49.846683
0
VERTEX
8
CONTOUR_75-0
10
23.913992
20
49.847178
0
VERTEX
8
CONTOUR_75-0
10
23.913270
20
49.847593
0
VERTEX
8
CONTOUR_75-0
10
23.912139
20
49.848218
0
VERTEX
8
CONTOUR_75-0
10
23.911660
20
49.848491
0
VERTEX
8
CONTOUR_75-0
10
23.910257
20
49.849258
0
VERTEX
8
CONTOUR_75-0
10
23.910050
20
49.849375
0
VERTEX
8
CONTOUR_75-0
10
23.908440
20
49.850231
0
VERTEX
8
CONTOUR_75-0
10
23.908302
20
49.850298
0
VERTEX
8
CONTOUR_75-0
10
23.906829
20
49.851037
0
VERTEX
8
CONTOUR_75-0
10
23.906199
20
49.851337
0
VERTEX
8
CONTOUR_75-0
10
23.905219
20
49.851823
0
VERTEX
8
CONTOUR_75-0
10
23.904041
20
49.852377
0
VERTEX
8
CONTOUR_75-0
10
23.903608
20
49.852589
0
VERTEX
8
CONTOUR_75-0
10
23.901998
20
49.853327
0
VERTEX
8
CONTOUR_75-0
10
23.901783
20
49.853417
0
VERTEX
8
CONTOUR_75-0
10
23.900388
20
49.854025
0
VERTEX
8
CONTOUR_75-0
10
23.899338
20
49.854456
0
VERTEX
8
CONTOUR_75-0
10
23.898777
20
49.854696
0
VERTEX
8
CONTOUR_75-0
10
23.897167
20
49.855323
0
VERTEX
8
CONTOUR_75-0
10
23.896660
20
49.855496
0
VERTEX
8
CONTOUR_75-0
10
23.895556
20
49.855889
0
VERTEX
8
CONTOUR_75-0
10
23.895115
20
49.855988
0
VERTEX
8
CONTOUR_75-0
10
23.894671
20
49.856082
0
VERTEX
8
CONTOUR_75-0
10
23.894265
20
49.856207
0
VERTEX
8
CONTOUR_75-0
10
23.893946
20
49.856402
0
VERTEX
8
CONTOUR_75-0
10
23.893860
20
49.856479
0
VERTEX
8
CONTOUR_75-0
10
23.893411
20
49.856534
0
VERTEX
8
CONTOUR_75-0
10
23.892843
20
49.856633
0
VERTEX
8
CONTOUR_75-0
10
23.892336
20
49.856812
0
VERTEX
8
CONTOUR_75-0
10
23.890725
20
49.857386
0
VERTEX
8
CONTOUR_75-0
10
23.890289
20
49.857573
0
VERTEX
8
CONTOUR_75-0
10
23.889115
20
49.858092
0
VERTEX
8
CONTOUR_75-0
10
23.887886
20
49.858613
0
VERTEX
8
CONTOUR_75-0
10
23.887504
20
49.858780
0
VERTEX
8
CONTOUR_75-0
10
23.886765
20
49.859089
0
VERTEX
8
CONTOUR_75-0
10
23.885893
20
49.859435
0
VERTEX
8
CONTOUR_75-0
10
23.885293
20
49.859652
0
VERTEX
8
CONTOUR_75-0
10
23.884283
20
49.860040
70
1
0
SEQEND
8
CONTOUR_75-0
0
TEXT
8
CONTOUR_LABELS
10
23.911283
20
49.833040
40
0.050
1
75.0
0
POLYLINE
8
CONTOUR_80-0
66
1
10
0.0
20
0.0
0
VERTEX
8
CONTOUR_80-0
10
23.906836
20
49.844505
0
VERTEX
8
CONTOUR_80-0
10
23.906319
20
49.844340
0
VERTEX
8
CONTOUR_80-0
10
23.905990
20
49.844053
0
VERTEX
8
CONTOUR_80-0
10
23.905987
20
49.843790
0
VERTEX
8
CONTOUR_80-0
10
23.906161
20
49.843520
0
VERTEX
8
CONTOUR_80-0
10
23.906428
20
49.843257
0
VERTEX
8
CONTOUR_80-0
10
23.906716
20
49.843012
0
VERTEX
8
CONTOUR_80-0
10
23.906838
20
49.842911
0
VERTEX
8
CONTOUR_80-0
10
23.907906
20
49.841972
0
VERTEX
8
CONTOUR_80-0
10
23.908448
20
49.841525
0
VERTEX
8
CONTOUR_80-0
10
23.909127
20
49.840932
0
VERTEX
8
CONTOUR_80-0
10
23.910059
20
49.840171
0
VERTEX
8
CONTOUR_80-0
10
23.910380
20
49.839892
0
VERTEX
8
CONTOUR_80-0
10
23.911661
20
49.838852
0
VERTEX
8
CONTOUR_80-0
10
23.911669
20
49.838844
0
VERTEX
8
CONTOUR_80-0
10
23.912733
20
49.837811
0
VERTEX
8
CONTOUR_80-0
10
23.913280
20
49.837321
0
VERTEX
8
CONTOUR_80-0
10
23.913856
20
49.836771
0
VERTEX
8
CONTOUR_80-0
10
23.914890
20
49.835856
0
VERTEX
8
CONTOUR_80-0
10
23.915024
20
49.835731
0
VERTEX
8
CONTOUR_80-0
10
23.915226
20
49.835378
0
VERTEX
8
CONTOUR_80-0
10
23.915379
20
49.835006
0
VERTEX
8
CONTOUR_80-0
10
23.915560
20
49.834690
0
VERTEX
8
CONTOUR_80-0
10
23.915602
20
49.834438
0
VERTEX
8
CONTOUR_80-0
10
23.915562
20
49.834179
0
VERTEX
8
CONTOUR_80-0
10
23.915485
20
49.833915
0
VERTEX
8
CONTOUR_80-0
10
23.915410
20
49.833650
0
VERTEX
8
CONTOUR_80-0
10
23.915366
20
49.833388
0
VERTEX
8
CONTOUR_80-0
10
23.915352
20
49.833127
0
VERTEX
8
CONTOUR_80-0
10
23.915362
20
49.832867
0
VERTEX
8
CONTOUR_80-0
10
23.915394
20
49.832609
0
VERTEX
8
CONTOUR_80-0
10
23.915519
20
49.832085
0
VERTEX
8
CONTOUR_80-0
10
23.915608
20
49.831825
0
VERTEX
8
CONTOUR_80-0
10
23.915716
20
49.831568
0
VERTEX
8
CONTOUR_80-0
10
23.915855
20
49.831298
0
VERTEX
8
CONTOUR_80-0
10
23.916017
20
49.831032
0
VERTEX
8
CONTOUR_80-0
10
23.916204
20
49.830775
0
VERTEX
8
CONTOUR_80-0
10
23.916421
20
49.830528
0
VERTEX
8
CONTOUR_80-0
10
23.916504
20
49.830445
0
VERTEX
8
CONTOUR_80-0
10
23.917618
20
49.829488
0
VERTEX
8
CONTOUR_80-0
10
23.918114
20
49.829127
0
VERTEX
8
CONTOUR_80-0
10
23.919001
20
49.828448
0
VERTEX
8
CONTOUR_80-0
10
23.919724
20
49.827924
0
VERTEX
8
CONTOUR_80-0
10
23.920409
20
49.827407
0
VERTEX
8
CONTOUR_80-0
10
23.921333
20
49.826749
0
VERTEX
8
CONTOUR_80-0
10
23.921849
20
49.826367
0
VERTEX
8
CONTOUR_80-0
10
23.922943
20
49.825601
0
VERTEX
8
CONTOUR_80-0
10
23.923141
20
49.825455
0
VERTEX
8
CONTOUR_80-0
10
23.923319
20
49.825327
0
VERTEX
8
CONTOUR_80-0
10
23.924552
20
49.824478
0
VERTEX
8
CONTOUR_80-0
10
23.924820
20
49.824287
0
VERTEX
8
CONTOUR_80-0
10
23.926161
20
49.823381
0
VERTEX
8
CONTOUR_80-0
10
23.926354
20
49.823246
0
VERTEX
8
CONTOUR_80-0
10
23.927771
20
49.822310
0
VERTEX
8
CONTOUR_80-0
10
23.927924
20
49.822206
0
VERTEX
8
CONTOUR_80-0
10
23.929380
20
49.821267
0
VERTEX
8
CONTOUR_80-0
10
23.929532
20
49.821166
0
VERTEX
8
CONTOUR_80-0
10
23.930989
20
49.820251
0
VERTEX
8
CONTOUR_80-0
10
23.931186
20
49.820126
0
VERTEX
8
CONTOUR_80-0
10
23.932598
20
49.819270
0
VERTEX
8
CONTOUR_80-0
10
23.932896
20
49.819085
0
VERTEX
8
CONTOUR_80-0
10
23.934207
20
49.818324
0
VERTEX
8
CONTOUR_80-0
10
23.934678
20
49.818045
0
VERTEX
8
CONTOUR_80-0
10
23.935816
20
49.817371
0
VERTEX
8
CONTOUR_80-0
10
23.936479
20
49.817005
0
VERTEX
8
CONTOUR_80-0
10
23.937424
20
49.816558
0
VERTEX
8
CONTOUR_80-0
10
23.938574
20
49.815964
0
VERTEX
8
CONTOUR_80-0
10
23.939033
20
49.815718
0
VERTEX
8
CONTOUR_80-0
10
23.940591
20
49.814924
0
VERTEX
8
CONTOUR_80-0
10
23.940642
20
49.814902
0
VERTEX
8
CONTOUR_80-0
10
23.942250
20
49.814160
0
VERTEX
8
CONTOUR_80-0
10
23.942916
20
49.813884
0
VERTEX
8
CONTOUR_80-0
10
23.943859
20
49.813531
0
VERTEX
8
CONTOUR_80-0
10
23.944679
20
49.813229
0
VERTEX
8
CONTOUR_80-0
10
23.945467
20
49.812896
0
VERTEX
8
CONTOUR_80-0
10
23.945573
20
49.812843
0
VERTEX
8
CONTOUR_80-0
10
23.947076
20
49.812019
0
VERTEX
8
CONTOUR_80-0
10
23.947516
20
49.811803
0
VERTEX
8
CONTOUR_80-0
10
23.948684
20
49.811277
0
VERTEX
8
CONTOUR_80-0
10
23.949735
20
49.810762
0
VERTEX
8
CONTOUR_80-0
10
23.950292
20
49.810448
0
VERTEX
8
CONTOUR_80-0
10
23.951438
20
49.809722
0
VERTEX
8
CONTOUR_80-0
10
23.951901
20
49.809439
0
VERTEX
8
CONTOUR_80-0
10
23.953171
20
49.808681
0
VERTEX
8
CONTOUR_80-0
10
23.953509
20
49.808474
0
VERTEX
8
CONTOUR_80-0
10
23.954788
20
49.807641
0
VERTEX
8
CONTOUR_80-0
10
23.955117
20
49.807410
0
VERTEX
8
CONTOUR_80-0
10
23.956237
20
49.806600
0
VERTEX
8
CONTOUR_80-0
10
23.956490
20
49.806425
0
VERTEX
8
CONTOUR_80-0
10
23.956725
20
49.806241
0
VERTEX
8
CONTOUR_80-0
10
23.956936
20
49.806037
0
VERTEX
8
CONTOUR_80-0
10
23.957162
20
49.805842
0
VERTEX
8
CONTOUR_80-0
10
23.957666
20
49.805559
0
VERTEX
8
CONTOUR_80-0
10
23.958016
20
49.805334
0
VERTEX
8
CONTOUR_80-0
10
23.958333
20
49.805088
0
VERTEX
8
CONTOUR_80-0
10
23.959003
20
49.804519
0
VERTEX
8
CONTOUR_80-0
10
23.959941
20
49.803672
0
VERTEX
8
CONTOUR_80-0
10
23.960158
20
49.803478
0
VERTEX
8
CONTOUR_80-0
10
23.961385
20
49.802437
0
VERTEX
8
CONTOUR_80-0
10
23.961549
20
49.802280
0
VERTEX
8
CONTOUR_80-0
10
23.962432
20
49.801396
0
VERTEX
8
CONTOUR_80-0
10
23.963156
20
49.800568
0
VERTEX
8
CONTOUR_80-0
10
23.963350
20
49.800356
0
VERTEX
8
CONTOUR_80-0
10
23.963636
20
49.800092
0
VERTEX
8
CONTOUR_80-0
10
23.963942
20
49.799836
0
VERTEX
8
CONTOUR_80-0
10
23.964247
20
49.799581
0
VERTEX
8
CONTOUR_80-0
10
23.964528
20
49.799315
0
VERTEX
8
CONTOUR_80-0
10
23.964764
20
49.799043
0
VERTEX
8
CONTOUR_80-0
10
23.965085
20
49.798652
0
VERTEX
8
CONTOUR_80-0
10
23.965435
20
49.798274
0
VERTEX
8
CONTOUR_80-0
10
23.965653
20
49.798080
0
VERTEX
8
CONTOUR_80-0
10
23.965887
20
49.797892
0
VERTEX
8
CONTOUR_80-0
10
23.966372
20
49.797525
0
VERTEX
8
CONTOUR_80-0
10
23.966742
20
49.797234
0
VERTEX
8
CONTOUR_80-0
10
23.967886
20
49.796193
0
VERTEX
8
CONTOUR_80-0
10
23.967979
20
49.796109
0
VERTEX
8
CONTOUR_80-0
10
23.969210
20
49.795152
0
VERTEX
8
CONTOUR_80-0
10
23.969586
20
49.794864
0
VERTEX
8
CONTOUR_80-0
10
23.970575
20
49.794111
0
VERTEX
8
CONTOUR_80-0
10
23.971194
20
49.793635
0
VERTEX
8
CONTOUR_80-0
10
23.971972
20
49.793070
0
VERTEX
8
CONTOUR_80-0
10
23.972801
20
49.792461
0
VERTEX
8
CONTOUR_80-0
10
23.973406
20
49.792029
0
VERTEX
8
CONTOUR_80-0
10
23.974408
20
49.791320
0
VERTEX
8
CONTOUR_80-0
10
23.974911
20
49.790989
0
VERTEX
8
CONTOUR_80-0
10
23.976015
20
49.790230
0
VERTEX
8
CONTOUR_80-0
10
23.976448
20
49.789948
0
VERTEX
8
CONTOUR_80-0
10
23.977003
20
49.789547
0
VERTEX
8
CONTOUR_80-0
10
23.977622
20
49.789161
0
VERTEX
8
CONTOUR_80-0
10
23.978023
20
49.788907
0
VERTEX
8
CONTOUR_80-0
10
23.979229
20
49.788117
0
VERTEX
8
CONTOUR_80-0
10
23.979634
20
49.787866
0
VERTEX
8
CONTOUR_80-0
10
23.980836
20
49.787095
0
VERTEX
8
CONTOUR_80-0
10
23.981282
20
49.786825
0
VERTEX
8
CONTOUR_80-0
10
23.982443
20
49.786095
0
VERTEX
8
CONTOUR_80-0
10
23.982966
20
49.785784
0
VERTEX
8
CONTOUR_80-0
10
23.984050
20
49.785115
0
VERTEX
8
CONTOUR_80-0
10
23.984687
20
49.784743
0
VERTEX
8
CONTOUR_80-0
10
23.985657
20
49.784155
0
VERTEX
8
CONTOUR_80-0
10
23.986449
20
49.783702
0
VERTEX
8
CONTOUR_80-0
10
23.986853
20
49.783458
0
VERTEX
8
CONTOUR_80-0
10
23.987263
20
49.783219
0
VERTEX
8
CONTOUR_80-0
10
23.987836
20
49.782929
0
VERTEX
8
CONTOUR_80-0
10
23.988434
20
49.782660
0
VERTEX
8
CONTOUR_80-0
10
23.988870
20
49.782484
0
VERTEX
8
CONTOUR_80-0
10
23.989255
20
49.782357
0
VERTEX
8
CONTOUR_80-0
10
23.989653
20
49.782247
0
VERTEX
8
CONTOUR_80-0
10
23.990061
20
49.782152
0
VERTEX
8
CONTOUR_80-0
10
23.990477
20
49.782070
0
VERTEX
8
CONTOUR_80-0
10
23.991276
20
49.781956
0
VERTEX
8
CONTOUR_80-0
10
23.991679
20
49.781918
0
VERTEX
8
CONTOUR_80-0
10
23.992084
20
49.781897
0
VERTEX
8
CONTOUR_80-0
10
23.992485
20
49.781894
0
VERTEX
8
CONTOUR_80-0
10
23.992886
20
49.781903
0
VERTEX
8
CONTOUR_80-0
10
23.993691
20
49.781940
0
VERTEX
8
CONTOUR_80-0
10
23.994096
20
49.781956
0
VERTEX
8
CONTOUR_80-0
10
23.994500
20
49.781965
0
VERTEX
8
CONTOUR_80-0
10
23.994902
20
49.781958
0
VERTEX
8
CONTOUR_80-0
10
23.995299
20
49.781927
0
VERTEX
8
CONTOUR_80-0
10
23.995636
20
49.781876
0
VERTEX
8
CONTOUR_80-0
10
23.995967
20
49.781804
0
VERTEX
8
CONTOUR_80-0
10
23.996291
20
49.781717
0
VERTEX
8
CONTOUR_80-0
10
23.996606
20
49.781617
0
VERTEX
8
CONTOUR_80-0
10
23.996906
20
49.781509
0
VERTEX
8
CONTOUR_80-0
10
23.997330
20
49.781321
0
VERTEX
8
CONTOUR_80-0
10
23.997732
20
49.781112
0
VERTEX
8
CONTOUR_80-0
10
23.998512
20
49.780672
0
VERTEX
8
CONTOUR_80-0
10
23.998682
20
49.780576
0
VERTEX
8
CONTOUR_80-0
10
24.000118
20
49.779744
0
VERTEX
8
CONTOUR_80-0
10
24.000492
20
49.779535
0
VERTEX
8
CONTOUR_80-0
10
24.001725
20
49.778788
0
VERTEX
8
CONTOUR_80-0
10
24.002258
20
49.778493
0
VERTEX
8
CONTOUR_80-0
10
24.003331
20
49.777851
0
VERTEX
8
CONTOUR_80-0
10
24.004062
20
49.777452
0
VERTEX
8
CONTOUR_80-0
10
24.004937
20
49.776935
0
VERTEX
8
CONTOUR_80-0
10
24.005912
20
49.776410
0
VERTEX
8
CONTOUR_80-0
10
24.006543
20
49.776043
0
VERTEX
8
CONTOUR_80-0
10
24.007816
20
49.775369
0
VERTEX
8
CONTOUR_80-0
10
24.008149
20
49.775179
0
VERTEX
8
CONTOUR_80-0
10
24.008883
20
49.774770
0
VERTEX
8
CONTOUR_80-0
10
24.009655
20
49.774393
0
VERTEX
8
CONTOUR_80-0
10
24.009755
20
49.774352
0
VERTEX
8
CONTOUR_80-0
10
24.009825
20
49.774327
0
VERTEX
8
CONTOUR_80-0
10
24.011362
20
49.773734
0
VERTEX
8
CONTOUR_80-0
10
24.012719
20
49.773285
0
VERTEX
8
CONTOUR_80-0
10
24.012968
20
49.773195
0
VERTEX
8
CONTOUR_80-0
10
24.013157
20
49.773285
0
VERTEX
8
CONTOUR_80-0
10
24.012969
20
49.773710
0
VERTEX
8
CONTOUR_80-0
10
24.012807
20
49.774024
0
VERTEX
8
CONTOUR_80-0
10
24.012700
20
49.774326
0
VERTEX
8
CONTOUR_80-0
10
24.012523
20
49.774601
0
VERTEX
8
CONTOUR_80-0
10
24.012280
20
49.774865
0
VERTEX
8
CONTOUR_80-0
10
24.012000
20
49.775120
0
VERTEX
8
CONTOUR_80-0
10
24.011707
20
49.775367
0
VERTEX
8
CONTOUR_80-0
10
24.011364
20
49.775656
0
VERTEX
8
CONTOUR_80-0
10
24.010520
20
49.776408
0
VERTEX
8
CONTOUR_80-0
10
24.009758
20
49.777044
0
VERTEX
8
CONTOUR_80-0
10
24.009300
20
49.777450
0
VERTEX
8
CONTOUR_80-0
10
24.008797
20
49.777868
0
VERTEX
8
CONTOUR_80-0
10
24.008153
20
49.778399
0
VERTEX
8
CONTOUR_80-0
10
24.008048
20
49.778491
0
VERTEX
8
CONTOUR_80-0
10
24.006784
20
49.779532
0
VERTEX
8
CONTOUR_80-0
10
24.006547
20
49.779720
0
VERTEX
8
CONTOUR_80-0
10
24.005510
20
49.780573
0
VERTEX
8
CONTOUR_80-0
10
24.004941
20
49.781023
0
VERTEX
8
CONTOUR_80-0
10
24.004221
20
49.781615
0
VERTEX
8
CONTOUR_80-0
10
24.003335
20
49.782306
0
VERTEX
8
CONTOUR_80-0
10
24.002907
20
49.782656
0
VERTEX
8
CONTOUR_80-0
10
24.001729
20
49.783566
0
VERTEX
8
CONTOUR_80-0
10
24.001568
20
49.783697
0
VERTEX
8
CONTOUR_80-0
10
24.001244
20
49.783946
0
VERTEX
8
CONTOUR_80-0
10
24.000920
20
49.784198
0
VERTEX
8
CONTOUR_80-0
10
24.000626
20
49.784458
0
VERTEX
8
CONTOUR_80-0
10
24.000402
20
49.784738
0
VERTEX
8
CONTOUR_80-0
10
24.000294
20
49.784986
0
VERTEX
8
CONTOUR_80-0
10
24.000243
20
49.785246
0
VERTEX
8
CONTOUR_80-0
10
24.000233
20
49.785512
0
VERTEX
8
CONTOUR_80-0
10
24.000255
20
49.785779
0
VERTEX
8
CONTOUR_80-0
10
24.000358
20
49.786301
0
VERTEX
8
CONTOUR_80-0
10
24.000414
20
49.786560
0
VERTEX
8
CONTOUR_80-0
10
24.000454
20
49.786819
0
VERTEX
8
CONTOUR_80-0
10
24.000467
20
49.787080
0
VERTEX
8
CONTOUR_80-0
10
24.000454
20
49.787342
0
VERTEX
8
CONTOUR_80-0
10
24.000414
20
49.787603
0
VERTEX
8
CONTOUR_80-0
10
24.000344
20
49.787860
0
VERTEX
8
CONTOUR_80-0
10
24.000241
20
49.788116
0
VERTEX
8
CONTOUR_80-0
10
24.000126
20
49.788369
0
VERTEX
8
CONTOUR_80-0
10
24.000011
20
49.788637
0
VERTEX
8
CONTOUR_80-0
10
23.999883
20
49.788901
0
VERTEX
8
CONTOUR_80-0
10
23.999708
20
49.789175
0
VERTEX
8
CONTOUR_80-0
10
23.999497
20
49.789440
0
VERTEX
8
CONTOUR_80-0
10
23.999259
20
49.789696
0
VERTEX
8
CONTOUR_80-0
10
23.998997
20
49.789942
0
VERTEX
8
CONTOUR_80-0
10
23.998762
20
49.790139
0
VERTEX
8
CONTOUR_80-0
10
23.998520
20
49.790331
0
VERTEX
8
CONTOUR_80-0
10
23.997683
20
49.790983
0
VERTEX
8
CONTOUR_80-0
10
23.996914
20
49.791548
0
VERTEX
8
CONTOUR_80-0
10
23.996292
20
49.792024
0
VERTEX
8
CONTOUR_80-0
10
23.995307
20
49.792737
0
VERTEX
8
CONTOUR_80-0
10
23.994871
20
49.793065
0
VERTEX
8
CONTOUR_80-0
10
23.993700
20
49.793898
0
VERTEX
8
CONTOUR_80-0
10
23.993418
20
49.794106
0
VERTEX
8
CONTOUR_80-0
10
23.992093
20
49.795033
0
VERTEX
8
CONTOUR_80-0
10
23.991935
20
49.795148
0
VERTEX
8
CONTOUR_80-0
10
23.990486
20
49.796141
0
VERTEX
8
CONTOUR_80-0
10
23.990420
20
49.796189
0
VERTEX
8
CONTOUR_80-0
10
23.988879
20
49.797225
0
VERTEX
8
CONTOUR_80-0
10
23.988872
20
49.797230
0
VERTEX
8
CONTOUR_80-0
10
23.987290
20
49.798271
0
VERTEX
8
CONTOUR_80-0
10
23.987272
20
49.798282
0
VERTEX
8
CONTOUR_80-0
10
23.985707
20
49.799312
0
VERTEX
8
CONTOUR_80-0
10
23.985665
20
49.799337
0
VERTEX
8
CONTOUR_80-0
10
23.984058
20
49.800310
0
VERTEX
8
CONTOUR_80-0
10
23.983990
20
49.800353
0
VERTEX
8
CONTOUR_80-0
10
23.982451
20
49.801273
0
VERTEX
8
CONTOUR_80-0
10
23.982253
20
49.801394
0
VERTEX
8
CONTOUR_80-0
10
23.980843
20
49.802198
0
VERTEX
8
CONTOUR_80-0
10
23.980456
20
49.802435
0
VERTEX
8
CONTOUR_80-0
10
23.979236
20
49.803129
0
VERTEX
8
CONTOUR_80-0
10
23.978560
20
49.803476
0
VERTEX
8
CONTOUR_80-0
10
23.977628
20
49.803910
0
VERTEX
8
CONTOUR_80-0
10
23.976536
20
49.804517
0
VERTEX
8
CONTOUR_80-0
10
23.976021
20
49.804800
0
VERTEX
8
CONTOUR_80-0
10
23.975627
20
49.804965
0
VERTEX
8
CONTOUR_80-0
10
23.975215
20
49.805113
0
VERTEX
8
CONTOUR_80-0
10
23.974804
20
49.805262
0
VERTEX
8
CONTOUR_80-0
10
23.974413
20
49.805429
0
VERTEX
8
CONTOUR_80-0
10
23.974168
20
49.805558
0
VERTEX
8
CONTOUR_80-0
10
23.973499
20
49.805915
0
VERTEX
8
CONTOUR_80-0
10
23.972805
20
49.806249
0
VERTEX
8
CONTOUR_80-0
10
23.972367
20
49.806429
0
VERTEX
8
CONTOUR_80-0
10
23.971919
20
49.806599
0
VERTEX
8
CONTOUR_80-0
10
23.971197
20
49.806870
0
VERTEX
8
CONTOUR_80-0
10
23.970779
20
49.807034
0
VERTEX
8
CONTOUR_80-0
10
23.970368
20
49.807204
0
VERTEX
8
CONTOUR_80-0
10
23.969969
20
49.807385
0
VERTEX
8
CONTOUR_80-0
10
23.969589
20
49.807583
0
VERTEX
8
CONTOUR_80-0
10
23.969490
20
49.807640
0
VERTEX
8
CONTOUR_80-0
10
23.967981
20
49.808430
0
VERTEX
8
CONTOUR_80-0
10
23.967473
20
49.808681
0
VERTEX
8
CONTOUR_80-0
10
23.966374
20
49.809228
0
VERTEX
8
CONTOUR_80-0
10
23.965439
20
49.809722
0
VERTEX
8
CONTOUR_80-0
10
23.964766
20
49.810142
0
VERTEX
8
CONTOUR_80-0
10
23.963751
20
49.810763
0
VERTEX
8
CONTOUR_80-0
10
23.963158
20
49.811116
0
VERTEX
8
CONTOUR_80-0
10
23.962049
20
49.811803
0
VERTEX
8
CONTOUR_80-0
10
23.961549
20
49.812121
0
VERTEX
8
CONTOUR_80-0
10
23.960496
20
49.812844
0
VERTEX
8
CONTOUR_80-0
10
23.959941
20
49.813240
0
VERTEX
8
CONTOUR_80-0
10
23.959075
20
49.813885
0
VERTEX
8
CONTOUR_80-0
10
23.958333
20
49.814415
0
VERTEX
8
CONTOUR_80-0
10
23.957602
20
49.814925
0
VERTEX
8
CONTOUR_80-0
10
23.956725
20
49.815638
0
VERTEX
8
CONTOUR_80-0
10
23.956374
20
49.815966
0
VERTEX
8
CONTOUR_80-0
10
23.955287
20
49.817007
0
VERTEX
8
CONTOUR_80-0
10
23.955116
20
49.817149
0
VERTEX
8
CONTOUR_80-0
10
23.954540
20
49.817591
0
VERTEX
8
CONTOUR_80-0
10
23.954257
20
49.817814
0
VERTEX
8
CONTOUR_80-0
10
23.953997
20
49.818047
0
VERTEX
8
CONTOUR_80-0
10
23.953747
20
49.818319
0
VERTEX
8
CONTOUR_80-0
10
23.953508
20
49.818595
0
VERTEX
8
CONTOUR_80-0
10
23.953047
20
49.819088
0
VERTEX
8
CONTOUR_80-0
10
23.952614
20
49.819612
0
VERTEX
8
CONTOUR_80-0
10
23.952165
20
49.820129
0
VERTEX
8
CONTOUR_80-0
10
23.951899
20
49.820381
0
VERTEX
8
CONTOUR_80-0
10
23.951043
20
49.821169
0
VERTEX
8
CONTOUR_80-0
10
23.950290
20
49.821919
0
VERTEX
8
CONTOUR_80-0
10
23.949954
20
49.822210
0
VERTEX
8
CONTOUR_80-0
10
23.948682
20
49.823238
0
VERTEX
8
CONTOUR_80-0
10
23.948666
20
49.823250
0
VERTEX
8
CONTOUR_80-0
10
23.947516
20
49.824291
0
VERTEX
8
CONTOUR_80-0
10
23.947073
20
49.824630
0
VERTEX
8
CONTOUR_80-0
10
23.946569
20
49.825006
0
VERTEX
8
CONTOUR_80-0
10
23.946112
20
49.825332
0
VERTEX
8
CONTOUR_80-0
10
23.945464
20
49.825841
0
VERTEX
8
CONTOUR_80-0
10
23.944743
20
49.826372
0
VERTEX
8
CONTOUR_80-0
10
23.943855
20
49.827035
0
VERTEX
8
CONTOUR_80-0
10
23.943320
20
49.827413
0
VERTEX
8
CONTOUR_80-0
10
23.942246
20
49.828208
0
VERTEX
8
CONTOUR_80-0
10
23.941886
20
49.828453
0
VERTEX
8
CONTOUR_80-0
10
23.940637
20
49.829294
0
VERTEX
8
CONTOUR_80-0
10
23.940335
20
49.829494
0
VERTEX
8
CONTOUR_80-0
10
23.939027
20
49.830375
0
VERTEX
8
CONTOUR_80-0
10
23.938780
20
49.830534
0
VERTEX
8
CONTOUR_80-0
10
23.937418
20
49.831430
0
VERTEX
8
CONTOUR_80-0
10
23.937186
20
49.831574
0
VERTEX
8
CONTOUR_80-0
10
23.935809
20
49.832461
0
VERTEX
8
CONTOUR_80-0
10
23.935556
20
49.832615
0
VERTEX
8
CONTOUR_80-0
10
23.934199
20
49.833470
0
VERTEX
8
CONTOUR_80-0
10
23.933890
20
49.833655
0
VERTEX
8
CONTOUR_80-0
10
23.932590
20
49.834459
0
VERTEX
8
CONTOUR_80-0
10
23.932186
20
49.834695
0
VERTEX
8
CONTOUR_80-0
10
23.931577
20
49.835081
0
VERTEX
8
CONTOUR_80-0
10
23.930980
20
49.835428
0
VERTEX
8
CONTOUR_80-0
10
23.930444
20
49.835736
0
VERTEX
8
CONTOUR_80-0
10
23.929371
20
49.836376
0
VERTEX
8
CONTOUR_80-0
10
23.928659
20
49.836776
0
VERTEX
8
CONTOUR_80-0
10
23.928219
20
49.837021
0
VERTEX
8
CONTOUR_80-0
10
23.927761
20
49.837251
0
VERTEX
8
CONTOUR_80-0
10
23.927380
20
49.837410
0
VERTEX
8
CONTOUR_80-0
10
23.926983
20
49.837553
0
VERTEX
8
CONTOUR_80-0
10
23.926168
20
49.837816
0
VERTEX
8
CONTOUR_80-0
10
23.926152
20
49.837821
0
VERTEX
8
CONTOUR_80-0
10
23.925766
20
49.837924
0
VERTEX
8
CONTOUR_80-0
10
23.925366
20
49.838003
0
VERTEX
8
CONTOUR_80-0
10
23.924957
20
49.838065
0
VERTEX
8
CONTOUR_80-0
10
23.924543
20
49.838112
0
VERTEX
8
CONTOUR_80-0
10
23.923738
20
49.838170
0
VERTEX
8
CONTOUR_80-0
10
23.923336
20
49.838182
0
VERTEX
8
CONTOUR_80-0
10
23.922934
20
49.838178
0
VERTEX
8
CONTOUR_80-0
10
23.922130
20
49.838131
0
VERTEX
8
CONTOUR_80-0
10
23.921728
20
49.838104
0
VERTEX
8
CONTOUR_80-0
10
23.921325
20
49.838089
0
VERTEX
8
CONTOUR_80-0
10
23.920917
20
49.838094
0
VERTEX
8
CONTOUR_80-0
10
23.920510
20
49.838119
0
VERTEX
8
CONTOUR_80-0
10
23.920108
20
49.838165
0
VERTEX
8
CONTOUR_80-0
10
23.919715
20
49.838234
0
VERTEX
8
CONTOUR_80-0
10
23.919285
20
49.838344
0
VERTEX
8
CONTOUR_80-0
10
23.918872
20
49.838483
0
VERTEX
8
CONTOUR_80-0
10
23.918477
20
49.838643
0
VERTEX
8
CONTOUR_80-0
10
23.918106
20
49.838823
0
VERTEX
8
CONTOUR_80-0
10
23.918047
20
49.838854
0
VERTEX
8
CONTOUR_80-0
10
23.916496
20
49.839707
0
VERTEX
8
CONTOUR_80-0
10
23.916144
20
49.839894
0
VERTEX
8
CONTOUR_80-0
10
23.914886
20
49.840585
0
VERTEX
8
CONTOUR_80-0
10
23.914227
20
49.840934
0
VERTEX
8
CONTOUR_80-0
10
23.913276
20
49.841451
0
VERTEX
8
CONTOUR_80-0
10
23.912286
20
49.841974
0
VERTEX
8
CONTOUR_80-0
10
23.911666
20
49.842326
0
VERTEX
8
CONTOUR_80-0
10
23.910345
20
49.843014
0
VERTEX
8
CONTOUR_80-0
10
23.910056
20
49.843176
0
VERTEX
8
CONTOUR_80-0
10
23.909674
20
49.843390
0
VERTEX
8
CONTOUR_80-0
10
23.909283
20
49.843597
0
VERTEX
8
CONTOUR_80-0
10
23.908876
20
49.843788
0
VERTEX
8
CONTOUR_80-0
10
23.908446
20
49.843949
0
VERTEX
8
CONTOUR_80-0
10
23.908117
20
49.844054
0
VERTEX
8
CONTOUR_80-0
10
23.906836
20
49.844505
70
1
0
SEQEND
8
CONTOUR_80-0
0
TEXT
8
CONTOUR_LABELS
10
23.933836
20
49.817505
40
0.050
1
80.0
0
POLYLINE
8
RUNWAY
66
1
10
0.0
20
0.0
0
VERTEX
8
RUNWAY
10
23.942535
20
49.820561
0
VERTEX
8
RUNWAY
10
23.974561
20
49.799269
0
VERTEX
8
RUNWAY
10
23.974112
20
49.798986
0
VERTEX
8
RUNWAY
10
23.942085
20
49.820278
0
VERTEX
8
RUNWAY
10
23.942535
20
49.820561
70
1
0
SEQEND
8
RUNWAY
0
TEXT
8
RUNWAY_LABELS
10
23.969310
20
49.793419
40
0.050
1
13N
0
TEXT
8
RUNWAY_LABELS
10
24.001336
20
49.772128
40
0.050
1
31N
0
ENDSEC
0
EOF
