0
SECTION
2
HEADER
9
$ACADVER
1
AC1009
0
ENDSEC
0
SECTION
2
TABLES
0
TABLE
2
VPORT
70
1
0
VPORT
2
*ACTIVE
70
0
10
0.0
20
0.0
11
1.0
21
1.0
12
0.0
22
0.0
13
0.0
23
0.0
14
1.0
24
1.0
15
0.0
25
0.0
16
0.0
26
0.0
36
1.0
17
0.0
27
0.0
37
0.0
40
100.0
41
1.5
42
50.0
43
0.0
44
0.0
50
0.0
51
0.0
71
0
72
100
73
1
74
1
75
0
76
0
77
0
78
0
0
ENDTAB
0
TABLE
2
LAYER
70
27
0
LAYER
2
0
70
64
62
7
6
CONTINUOUS
0
LAYER
2
CONTOUR_60-0
70
64
62
5
6
CONTINUOUS
0
LAYER
2
CONTOUR_65-0
70
64
62
1
6
CONTINUOUS
0
LAYER
2
CONTOUR_LABELS
70
64
62
250
6
CONTINUOUS
0
LAYER
2
RUNWAY
70
64
62
8
6
CONTINUOUS
0
LAYER
2
RUNWAY_LABELS
70
64
62
250
6
CONTINUOUS
0
LAYER
2
TRACK_LABELS
70
64
62
250
6
CONTINUOUS
0
ENDTAB
0
TABLE
2
STYLE
70
1
0
STYLE
2
STANDARD
70
0
40
0.0
41
1.0
50
0.0
71
0
42
0.2
3
TXT
4

0
ENDTAB
0
TABLE
2
VIEW
70
0
0
ENDTAB
0
TABLE
2
UCS
70
0
0
ENDTAB
0
TABLE
2
APPID
70
1
0
APPID
2
ACAD
70
64
0
ENDTAB
0
TABLE
2
DIMSTYLE
70
0
0
ENDTAB
0
ENDSEC
0
SECTION
2
ENTITIES
0
POLYLINE
8
CONTOUR_60-0
66
1
10
0.0
20
0.0
0
VERTEX
8
CONTOUR_60-0
10
23.926156
20
49.831969
0
VERTEX
8
CONTOUR_60-0
10
23.925744
20
49.832070
0
VERTEX
8
CONTOUR_60-0
10
23.925298
20
49.832153
0
VERTEX
8
CONTOUR_60-0
10
23.924875
20
49.832186
0
VERTEX
8
CONTOUR_60-0
10
23.924547
20
49.832109
0
VERTEX
8
CONTOUR_60-0
10
23.924397
20
49.831858
0
VERTEX
8
CONTOUR_60-0
10
23.924460
20
49.831571
0
VERTEX
8
CONTOUR_60-0
10
23.924547
20
49.831484
0
VERTEX
8
CONTOUR_60-0
10
23.925465
20
49.830531
0
VERTEX
8
CONTOUR_60-0
10
23.926157
20
49.829896
0
VERTEX
8
CONTOUR_60-0
10
23.926574
20
49.829491
0
VERTEX
8
CONTOUR_60-0
10
23.927767
20
49.828457
0
VERTEX
8
CONTOUR_60-0
10
23.927774
20
49.828450
0
VERTEX
8
CONTOUR_60-0
10
23.929003
20
49.827410
0
VERTEX
8
CONTOUR_60-0
10
23.929154
20
49.827266
0
VERTEX
8
CONTOUR_60-0
10
23.929376
20
49.827106
0
VERTEX
8
CONTOUR_60-0
10
23.930240
20
49.826369
0
VERTEX
8
CONTOUR_60-0
10
23.930986
20
49.825741
0
VERTEX
8
CONTOUR_60-0
10
23.931458
20
49.825329
0
VERTEX
8
CONTOUR_60-0
10
23.932595
20
49.824405
0
VERTEX
8
CONTOUR_60-0
10
23.932735
20
49.824289
0
VERTEX
8
CONTOUR_60-0
10
23.934049
20
49.823248
0
VERTEX
8
CONTOUR_60-0
10
23.934204
20
49.823120
0
VERTEX
8
CONTOUR_60-0
10
23.934491
20
49.822897
0
VERTEX
8
CONTOUR_60-0
10
23.934781
20
49.822675
0
VERTEX
8
CONTOUR_60-0
10
23.935057
20
49.822449
0
VERTEX
8
CONTOUR_60-0
10
23.935286
20
49.822208
0
VERTEX
8
CONTOUR_60-0
10
23.935427
20
49.821960
0
VERTEX
8
CONTOUR_60-0
10
23.935526
20
49.821699
0
VERTEX
8
CONTOUR_60-0
10
23.935610
20
49.821433
0
VERTEX
8
CONTOUR_60-0
10
23.935696
20
49.821167
0
VERTEX
8
CONTOUR_60-0
10
23.935814
20
49.820829
0
VERTEX
8
CONTOUR_60-0
10
23.935891
20
49.820477
0
VERTEX
8
CONTOUR_60-0
10
23.935976
20
49.820127
0
VERTEX
8
CONTOUR_60-0
10
23.936094
20
49.819856
0
VERTEX
8
CONTOUR_60-0
10
23.936246
20
49.819592
0
VERTEX
8
CONTOUR_60-0
10
23.936421
20
49.819333
0
VERTEX
8
CONTOUR_60-0
10
23.936626
20
49.819086
0
VERTEX
8
CONTOUR_60-0
10
23.937010
20
49.818741
0
VERTEX
8
CONTOUR_60-0
10
23.937424
20
49.818408
0
VERTEX
8
CONTOUR_60-0
10
23.937647
20
49.818225
0
VERTEX
8
CONTOUR_60-0
10
23.937876
20
49.818046
0
VERTEX
8
CONTOUR_60-0
10
23.938438
20
49.817666
0
VERTEX
8
CONTOUR_60-0
10
23.939033
20
49.817306
0
VERTEX
8
CONTOUR_60-0
10
23.939573
20
49.817005
0
VERTEX
8
CONTOUR_60-0
10
23.940641
20
49.816442
0
VERTEX
8
CONTOUR_60-0
10
23.941699
20
49.815965
0
VERTEX
8
CONTOUR_60-0
10
23.942250
20
49.815702
0
VERTEX
8
CONTOUR_60-0
10
23.943858
20
49.814927
0
VERTEX
8
CONTOUR_60-0
10
23.943864
20
49.814924
0
VERTEX
8
CONTOUR_60-0
10
23.945467
20
49.814093
0
VERTEX
8
CONTOUR_60-0
10
23.945838
20
49.813884
0
VERTEX
8
CONTOUR_60-0
10
23.946133
20
49.813674
0
VERTEX
8
CONTOUR_60-0
10
23.946438
20
49.813472
0
VERTEX
8
CONTOUR_60-0
10
23.946752
20
49.813323
0
VERTEX
8
CONTOUR_60-0
10
23.947075
20
49.813181
0
VERTEX
8
CONTOUR_60-0
10
23.947382
20
49.813016
0
VERTEX
8
CONTOUR_60-0
10
23.947678
20
49.812844
0
VERTEX
8
CONTOUR_60-0
10
23.948684
20
49.812301
0
VERTEX
8
CONTOUR_60-0
10
23.949544
20
49.811803
0
VERTEX
8
CONTOUR_60-0
10
23.950292
20
49.811379
0
VERTEX
8
CONTOUR_60-0
10
23.951379
20
49.810762
0
VERTEX
8
CONTOUR_60-0
10
23.951900
20
49.810470
0
VERTEX
8
CONTOUR_60-0
10
23.953148
20
49.809722
0
VERTEX
8
CONTOUR_60-0
10
23.953509
20
49.809505
0
VERTEX
8
CONTOUR_60-0
10
23.954777
20
49.808681
0
VERTEX
8
CONTOUR_60-0
10
23.955117
20
49.808472
0
VERTEX
8
CONTOUR_60-0
10
23.956453
20
49.807641
0
VERTEX
8
CONTOUR_60-0
10
23.956725
20
49.807465
0
VERTEX
8
CONTOUR_60-0
10
23.957990
20
49.806600
0
VERTEX
8
CONTOUR_60-0
10
23.958333
20
49.806345
0
VERTEX
8
CONTOUR_60-0
10
23.958864
20
49.805962
0
VERTEX
8
CONTOUR_60-0
10
23.959358
20
49.805559
0
VERTEX
8
CONTOUR_60-0
10
23.959591
20
49.805333
0
VERTEX
8
CONTOUR_60-0
10
23.959941
20
49.805102
0
VERTEX
8
CONTOUR_60-0
10
23.960320
20
49.804818
0
VERTEX
8
CONTOUR_60-0
10
23.960672
20
49.804519
0
VERTEX
8
CONTOUR_60-0
10
23.961549
20
49.803776
0
VERTEX
8
CONTOUR_60-0
10
23.961902
20
49.803478
0
VERTEX
8
CONTOUR_60-0
10
23.963157
20
49.802443
0
VERTEX
8
CONTOUR_60-0
10
23.963164
20
49.802437
0
VERTEX
8
CONTOUR_60-0
10
23.964336
20
49.801396
0
VERTEX
8
CONTOUR_60-0
10
23.964764
20
49.801014
0
VERTEX
8
CONTOUR_60-0
10
23.965508
20
49.800356
0
VERTEX
8
CONTOUR_60-0
10
23.966372
20
49.799564
0
VERTEX
8
CONTOUR_60-0
10
23.966631
20
49.799315
0
VERTEX
8
CONTOUR_60-0
10
23.967779
20
49.798274
0
VERTEX
8
CONTOUR_60-0
10
23.967858
20
49.798195
0
VERTEX
8
CONTOUR_60-0
10
23.967979
20
49.798117
0
VERTEX
8
CONTOUR_60-0
10
23.969203
20
49.797233
0
VERTEX
8
CONTOUR_60-0
10
23.969587
20
49.796982
0
VERTEX
8
CONTOUR_60-0
10
23.969966
20
49.796767
0
VERTEX
8
CONTOUR_60-0
10
23.970360
20
49.796563
0
VERTEX
8
CONTOUR_60-0
10
23.970766
20
49.796369
0
VERTEX
8
CONTOUR_60-0
10
23.971194
20
49.796198
0
VERTEX
8
CONTOUR_60-0
10
23.971201
20
49.796196
0
VERTEX
8
CONTOUR_60-0
10
23.971219
20
49.796192
0
VERTEX
8
CONTOUR_60-0
10
23.971627
20
49.796089
0
VERTEX
8
CONTOUR_60-0
10
23.972017
20
49.795958
0
VERTEX
8
CONTOUR_60-0
10
23.972404
20
49.795823
0
VERTEX
8
CONTOUR_60-0
10
23.972802
20
49.795707
0
VERTEX
8
CONTOUR_60-0
10
23.973196
20
49.795633
0
VERTEX
8
CONTOUR_60-0
10
23.973601
20
49.795579
0
VERTEX
8
CONTOUR_60-0
10
23.974008
20
49.795528
0
VERTEX
8
CONTOUR_60-0
10
23.974410
20
49.795467
0
VERTEX
8
CONTOUR_60-0
10
23.975056
20
49.795320
0
VERTEX
8
CONTOUR_60-0
10
23.975692
20
49.795151
0
VERTEX
8
CONTOUR_60-0
10
23.976017
20
49.795058
0
VERTEX
8
CONTOUR_60-0
10
23.976445
20
49.794874
0
VERTEX
8
CONTOUR_60-0
10
23.976842
20
49.794659
0
VERTEX
8
CONTOUR_60-0
10
23.977624
20
49.794215
0
VERTEX
8
CONTOUR_60-0
10
23.977825
20
49.794110
0
VERTEX
8
CONTOUR_60-0
10
23.979232
20
49.793347
0
VERTEX
8
CONTOUR_60-0
10
23.979761
20
49.793069
0
VERTEX
8
CONTOUR_60-0
10
23.980839
20
49.792502
0
VERTEX
8
CONTOUR_60-0
10
23.981765
20
49.792028
0
VERTEX
8
CONTOUR_60-0
10
23.982446
20
49.791691
0
VERTEX
8
CONTOUR_60-0
10
23.983199
20
49.791353
0
VERTEX
8
CONTOUR_60-0
10
23.983917
20
49.790987
0
VERTEX
8
CONTOUR_60-0
10
23.983989
20
49.790945
0
VERTEX
8
CONTOUR_60-0
10
23.984053
20
49.790921
0
VERTEX
8
CONTOUR_60-0
10
23.984480
20
49.790736
0
VERTEX
8
CONTOUR_60-0
10
23.984876
20
49.790522
0
VERTEX
8
CONTOUR_60-0
10
23.985660
20
49.790085
0
VERTEX
8
CONTOUR_60-0
10
23.985947
20
49.789946
0
VERTEX
8
CONTOUR_60-0
10
23.987267
20
49.789225
0
VERTEX
8
CONTOUR_60-0
10
23.987939
20
49.788905
0
VERTEX
8
CONTOUR_60-0
10
23.988874
20
49.788424
0
VERTEX
8
CONTOUR_60-0
10
23.990141
20
49.787863
0
VERTEX
8
CONTOUR_60-0
10
23.990481
20
49.787705
0
VERTEX
8
CONTOUR_60-0
10
23.991144
20
49.787691
0
VERTEX
8
CONTOUR_60-0
10
23.991667
20
49.787863
0
VERTEX
8
CONTOUR_60-0
10
23.991690
20
49.788087
0
VERTEX
8
CONTOUR_60-0
10
23.991520
20
49.788356
0
VERTEX
8
CONTOUR_60-0
10
23.991270
20
49.788636
0
VERTEX
8
CONTOUR_60-0
10
23.990999
20
49.788904
0
VERTEX
8
CONTOUR_60-0
10
23.990482
20
49.789373
0
VERTEX
8
CONTOUR_60-0
10
23.989886
20
49.789945
0
VERTEX
8
CONTOUR_60-0
10
23.988875
20
49.790794
0
VERTEX
8
CONTOUR_60-0
10
23.988666
20
49.790986
0
VERTEX
8
CONTOUR_60-0
10
23.987431
20
49.792027
0
VERTEX
8
CONTOUR_60-0
10
23.987269
20
49.792169
0
VERTEX
8
CONTOUR_60-0
10
23.986283
20
49.793068
0
VERTEX
8
CONTOUR_60-0
10
23.985662
20
49.793632
0
VERTEX
8
CONTOUR_60-0
10
23.985131
20
49.794109
0
VERTEX
8
CONTOUR_60-0
10
23.984055
20
49.795010
0
VERTEX
8
CONTOUR_60-0
10
23.983892
20
49.795150
0
VERTEX
8
CONTOUR_60-0
10
23.982637
20
49.796191
0
VERTEX
8
CONTOUR_60-0
10
23.982448
20
49.796341
0
VERTEX
8
CONTOUR_60-0
10
23.982182
20
49.796614
0
VERTEX
8
CONTOUR_60-0
10
23.981911
20
49.796883
0
VERTEX
8
CONTOUR_60-0
10
23.981659
20
49.797059
0
VERTEX
8
CONTOUR_60-0
10
23.981400
20
49.797232
0
VERTEX
8
CONTOUR_60-0
10
23.981115
20
49.797475
0
VERTEX
8
CONTOUR_60-0
10
23.980841
20
49.797728
0
VERTEX
8
CONTOUR_60-0
10
23.980517
20
49.797995
0
VERTEX
8
CONTOUR_60-0
10
23.980235
20
49.798272
0
VERTEX
8
CONTOUR_60-0
10
23.980103
20
49.798518
0
VERTEX
8
CONTOUR_60-0
10
23.980022
20
49.798779
0
VERTEX
8
CONTOUR_60-0
10
23.979962
20
49.799046
0
VERTEX
8
CONTOUR_60-0
10
23.979901
20
49.799313
0
VERTEX
8
CONTOUR_60-0
10
23.979736
20
49.799846
0
VERTEX
8
CONTOUR_60-0
10
23.979624
20
49.800105
0
VERTEX
8
CONTOUR_60-0
10
23.979472
20
49.800354
0
VERTEX
8
CONTOUR_60-0
10
23.979235
20
49.800637
0
VERTEX
8
CONTOUR_60-0
10
23.979072
20
49.800910
0
VERTEX
8
CONTOUR_60-0
10
23.978904
20
49.801181
0
VERTEX
8
CONTOUR_60-0
10
23.978696
20
49.801395
0
VERTEX
8
CONTOUR_60-0
10
23.978441
20
49.801612
0
VERTEX
8
CONTOUR_60-0
10
23.978174
20
49.801822
0
VERTEX
8
CONTOUR_60-0
10
23.977628
20
49.802236
0
VERTEX
8
CONTOUR_60-0
10
23.977356
20
49.802436
0
VERTEX
8
CONTOUR_60-0
10
23.976706
20
49.802855
0
VERTEX
8
CONTOUR_60-0
10
23.976020
20
49.803250
0
VERTEX
8
CONTOUR_60-0
10
23.975574
20
49.803477
0
VERTEX
8
CONTOUR_60-0
10
23.974412
20
49.804055
0
VERTEX
8
CONTOUR_60-0
10
23.973411
20
49.804518
0
VERTEX
8
CONTOUR_60-0
10
23.973102
20
49.804658
0
VERTEX
8
CONTOUR_60-0
10
23.972805
20
49.804807
0
VERTEX
8
CONTOUR_60-0
10
23.972503
20
49.804988
0
VERTEX
8
CONTOUR_60-0
10
23.972197
20
49.805165
0
VERTEX
8
CONTOUR_60-0
10
23.971745
20
49.805365
0
VERTEX
8
CONTOUR_60-0
10
23.971285
20
49.805559
0
VERTEX
8
CONTOUR_60-0
10
23.971197
20
49.805601
0
VERTEX
8
CONTOUR_60-0
10
23.970797
20
49.805842
0
VERTEX
8
CONTOUR_60-0
10
23.970398
20
49.806082
0
VERTEX
8
CONTOUR_60-0
10
23.969995
20
49.806255
0
VERTEX
8
CONTOUR_60-0
10
23.969589
20
49.806426
0
VERTEX
8
CONTOUR_60-0
10
23.969272
20
49.806599
0
VERTEX
8
CONTOUR_60-0
10
23.967981
20
49.807280
0
VERTEX
8
CONTOUR_60-0
10
23.967288
20
49.807640
0
VERTEX
8
CONTOUR_60-0
10
23.966373
20
49.808117
0
VERTEX
8
CONTOUR_60-0
10
23.965363
20
49.808681
0
VERTEX
8
CONTOUR_60-0
10
23.964765
20
49.809016
0
VERTEX
8
CONTOUR_60-0
10
23.963549
20
49.809722
0
VERTEX
8
CONTOUR_60-0
10
23.963157
20
49.809955
0
VERTEX
8
CONTOUR_60-0
10
23.961924
20
49.810763
0
VERTEX
8
CONTOUR_60-0
10
23.961549
20
49.811020
0
VERTEX
8
CONTOUR_60-0
10
23.960454
20
49.811803
0
VERTEX
8
CONTOUR_60-0
10
23.959941
20
49.812168
0
VERTEX
8
CONTOUR_60-0
10
23.958943
20
49.812844
0
VERTEX
8
CONTOUR_60-0
10
23.958333
20
49.813287
0
VERTEX
8
CONTOUR_60-0
10
23.957522
20
49.813885
0
VERTEX
8
CONTOUR_60-0
10
23.956725
20
49.814505
0
VERTEX
8
CONTOUR_60-0
10
23.956182
20
49.814925
0
VERTEX
8
CONTOUR_60-0
10
23.955116
20
49.815738
0
VERTEX
8
CONTOUR_60-0
10
23.954816
20
49.815966
0
VERTEX
8
CONTOUR_60-0
10
23.953530
20
49.817007
0
VERTEX
8
CONTOUR_60-0
10
23.953508
20
49.817025
0
VERTEX
8
CONTOUR_60-0
10
23.952187
20
49.818047
0
VERTEX
8
CONTOUR_60-0
10
23.951899
20
49.818289
0
VERTEX
8
CONTOUR_60-0
10
23.951669
20
49.818539
0
VERTEX
8
CONTOUR_60-0
10
23.951428
20
49.818783
0
VERTEX
8
CONTOUR_60-0
10
23.950997
20
49.819088
0
VERTEX
8
CONTOUR_60-0
10
23.950631
20
49.819388
0
VERTEX
8
CONTOUR_60-0
10
23.950291
20
49.819701
0
VERTEX
8
CONTOUR_60-0
10
23.949821
20
49.820128
0
VERTEX
8
CONTOUR_60-0
10
23.948690
20
49.821169
0
VERTEX
8
CONTOUR_60-0
10
23.948682
20
49.821176
0
VERTEX
8
CONTOUR_60-0
10
23.948117
20
49.821697
0
VERTEX
8
CONTOUR_60-0
10
23.947537
20
49.822210
0
VERTEX
8
CONTOUR_60-0
10
23.947310
20
49.822383
0
VERTEX
8
CONTOUR_60-0
10
23.947073
20
49.822553
0
VERTEX
8
CONTOUR_60-0
10
23.946037
20
49.823250
0
VERTEX
8
CONTOUR_60-0
10
23.945756
20
49.823427
0
VERTEX
8
CONTOUR_60-0
10
23.945464
20
49.823598
0
VERTEX
8
CONTOUR_60-0
10
23.945089
20
49.823794
0
VERTEX
8
CONTOUR_60-0
10
23.944697
20
49.823978
0
VERTEX
8
CONTOUR_60-0
10
23.944290
20
49.824142
0
VERTEX
8
CONTOUR_60-0
10
23.943856
20
49.824264
0
VERTEX
8
CONTOUR_60-0
10
23.943702
20
49.824291
0
VERTEX
8
CONTOUR_60-0
10
23.942976
20
49.824467
0
VERTEX
8
CONTOUR_60-0
10
23.942616
20
49.824560
0
VERTEX
8
CONTOUR_60-0
10
23.942247
20
49.824631
0
VERTEX
8
CONTOUR_60-0
10
23.941845
20
49.824663
0
VERTEX
8
CONTOUR_60-0
10
23.941436
20
49.824674
0
VERTEX
8
CONTOUR_60-0
10
23.941029
20
49.824689
0
VERTEX
8
CONTOUR_60-0
10
23.940638
20
49.824735
0
VERTEX
8
CONTOUR_60-0
10
23.940237
20
49.824850
0
VERTEX
8
CONTOUR_60-0
10
23.939854
20
49.825004
0
VERTEX
8
CONTOUR_60-0
10
23.939478
20
49.825170
0
VERTEX
8
CONTOUR_60-0
10
23.939099
20
49.825331
0
VERTEX
8
CONTOUR_60-0
10
23.939055
20
49.825347
0
VERTEX
8
CONTOUR_60-0
10
23.939029
20
49.825356
0
VERTEX
8
CONTOUR_60-0
10
23.938597
20
49.825551
0
VERTEX
8
CONTOUR_60-0
10
23.938201
20
49.825780
0
VERTEX
8
CONTOUR_60-0
10
23.937420
20
49.826250
0
VERTEX
8
CONTOUR_60-0
10
23.937194
20
49.826371
0
VERTEX
8
CONTOUR_60-0
10
23.935811
20
49.827144
0
VERTEX
8
CONTOUR_60-0
10
23.935299
20
49.827411
0
VERTEX
8
CONTOUR_60-0
10
23.934202
20
49.827982
0
VERTEX
8
CONTOUR_60-0
10
23.933291
20
49.828452
0
VERTEX
8
CONTOUR_60-0
10
23.932593
20
49.828823
0
VERTEX
8
CONTOUR_60-0
10
23.931314
20
49.829492
0
VERTEX
8
CONTOUR_60-0
10
23.930984
20
49.829671
0
VERTEX
8
CONTOUR_60-0
10
23.929374
20
49.830508
0
VERTEX
8
CONTOUR_60-0
10
23.929319
20
49.830532
0
VERTEX
8
CONTOUR_60-0
10
23.928544
20
49.830913
0
VERTEX
8
CONTOUR_60-0
10
23.928160
20
49.831107
0
VERTEX
8
CONTOUR_60-0
10
23.927765
20
49.831290
0
VERTEX
8
CONTOUR_60-0
10
23.927413
20
49.831430
0
VERTEX
8
CONTOUR_60-0
10
23.927063
20
49.831572
0
VERTEX
8
CONTOUR_60-0
10
23.926156
20
49.831969
70
1
0
SEQEND
8
CONTOUR_60-0
0
TEXT
8
CONTOUR_LABELS
10
23.953156
20
49.804969
40
0.050
1
60.0
0
POLYLINE
8
CONTOUR_65-0
66
1
10
0.0
20
0.0
0
VERTEX
8
CONTOUR_65-0
10
23.943856
20
49.822642
0
VERTEX
8
CONTOUR_65-0
10
23.943462
20
49.822751
0
VERTEX
8
CONTOUR_65-0
10
23.943051
20
49.822848
0
VERTEX
8
CONTOUR_65-0
10
23.942640
20
49.822912
0
VERTEX
8
CONTOUR_65-0
10
23.942247
20
49.822903
0
VERTEX
8
CONTOUR_65-0
10
23.941834
20
49.822750
0
VERTEX
8
CONTOUR_65-0
10
23.941444
20
49.822525
0
VERTEX
8
CONTOUR_65-0
10
23.941054
20
49.822315
0
VERTEX
8
CONTOUR_65-0
10
23.940639
20
49.822218
0
VERTEX
8
CONTOUR_65-0
10
23.940223
20
49.822312
0
VERTEX
8
CONTOUR_65-0
10
23.939793
20
49.822490
0
VERTEX
8
CONTOUR_65-0
10
23.939380
20
49.822645
0
VERTEX
8
CONTOUR_65-0
10
23.939030
20
49.822656
0
VERTEX
8
CONTOUR_65-0
10
23.938837
20
49.822465
0
VERTEX
8
CONTOUR_65-0
10
23.938792
20
49.822209
0
VERTEX
8
CONTOUR_65-0
10
23.939031
20
49.821929
0
VERTEX
8
CONTOUR_65-0
10
23.939524
20
49.821542
0
VERTEX
8
CONTOUR_65-0
10
23.939765
20
49.821168
0
VERTEX
8
CONTOUR_65-0
10
23.939484
20
49.820927
0
VERTEX
8
CONTOUR_65-0
10
23.939031
20
49.820689
0
VERTEX
8
CONTOUR_65-0
10
23.938647
20
49.820418
0
VERTEX
8
CONTOUR_65-0
10
23.938464
20
49.820127
0
VERTEX
8
CONTOUR_65-0
10
23.938674
20
49.819770
0
VERTEX
8
CONTOUR_65-0
10
23.939032
20
49.819408
0
VERTEX
8
CONTOUR_65-0
10
23.939286
20
49.819087
0
VERTEX
8
CONTOUR_65-0
10
23.939569
20
49.818842
0
VERTEX
8
CONTOUR_65-0
10
23.939905
20
49.818618
0
VERTEX
8
CONTOUR_65-0
10
23.940264
20
49.818406
0
VERTEX
8
CONTOUR_65-0
10
23.940641
20
49.818209
0
VERTEX
8
CONTOUR_65-0
10
23.940995
20
49.818046
0
VERTEX
8
CONTOUR_65-0
10
23.941636
20
49.817756
0
VERTEX
8
CONTOUR_65-0
10
23.942249
20
49.817442
0
VERTEX
8
CONTOUR_65-0
10
23.942603
20
49.817235
0
VERTEX
8
CONTOUR_65-0
10
23.942908
20
49.817115
0
VERTEX
8
CONTOUR_65-0
10
23.943226
20
49.817006
0
VERTEX
8
CONTOUR_65-0
10
23.943558
20
49.816864
0
VERTEX
8
CONTOUR_65-0
10
23.943858
20
49.816697
0
VERTEX
8
CONTOUR_65-0
10
23.944126
20
49.816503
0
VERTEX
8
CONTOUR_65-0
10
23.944404
20
49.816319
0
VERTEX
8
CONTOUR_65-0
10
23.944838
20
49.816138
0
VERTEX
8
CONTOUR_65-0
10
23.945285
20
49.815965
0
VERTEX
8
CONTOUR_65-0
10
23.945466
20
49.815866
0
VERTEX
8
CONTOUR_65-0
10
23.945777
20
49.815593
0
VERTEX
8
CONTOUR_65-0
10
23.946097
20
49.815333
0
VERTEX
8
CONTOUR_65-0
10
23.946581
20
49.815155
0
VERTEX
8
CONTOUR_65-0
10
23.947075
20
49.814978
0
VERTEX
8
CONTOUR_65-0
10
23.947166
20
49.814925
0
VERTEX
8
CONTOUR_65-0
10
23.948683
20
49.813926
0
VERTEX
8
CONTOUR_65-0
10
23.948745
20
49.813884
0
VERTEX
8
CONTOUR_65-0
10
23.950292
20
49.812980
0
VERTEX
8
CONTOUR_65-0
10
23.950517
20
49.812844
0
VERTEX
8
CONTOUR_65-0
10
23.951900
20
49.811968
0
VERTEX
8
CONTOUR_65-0
10
23.952162
20
49.811803
0
VERTEX
8
CONTOUR_65-0
10
23.953509
20
49.810981
0
VERTEX
8
CONTOUR_65-0
10
23.953849
20
49.810763
0
VERTEX
8
CONTOUR_65-0
10
23.955117
20
49.809921
0
VERTEX
8
CONTOUR_65-0
10
23.955401
20
49.809722
0
VERTEX
8
CONTOUR_65-0
10
23.956725
20
49.808854
0
VERTEX
8
CONTOUR_65-0
10
23.956987
20
49.808681
0
VERTEX
8
CONTOUR_65-0
10
23.958333
20
49.807822
0
VERTEX
8
CONTOUR_65-0
10
23.958597
20
49.807641
0
VERTEX
8
CONTOUR_65-0
10
23.959941
20
49.806702
0
VERTEX
8
CONTOUR_65-0
10
23.960085
20
49.806600
0
VERTEX
8
CONTOUR_65-0
10
23.961549
20
49.805579
0
VERTEX
8
CONTOUR_65-0
10
23.961575
20
49.805559
0
VERTEX
8
CONTOUR_65-0
10
23.961860
20
49.805229
0
VERTEX
8
CONTOUR_65-0
10
23.962140
20
49.804901
0
VERTEX
8
CONTOUR_65-0
10
23.962502
20
49.804707
0
VERTEX
8
CONTOUR_65-0
10
23.962881
20
49.804519
0
VERTEX
8
CONTOUR_65-0
10
23.963157
20
49.804299
0
VERTEX
8
CONTOUR_65-0
10
23.964277
20
49.803478
0
VERTEX
8
CONTOUR_65-0
10
23.964765
20
49.803099
0
VERTEX
8
CONTOUR_65-0
10
23.965599
20
49.802437
0
VERTEX
8
CONTOUR_65-0
10
23.966372
20
49.801840
0
VERTEX
8
CONTOUR_65-0
10
23.966938
20
49.801396
0
VERTEX
8
CONTOUR_65-0
10
23.967980
20
49.800536
0
VERTEX
8
CONTOUR_65-0
10
23.968184
20
49.800355
0
VERTEX
8
CONTOUR_65-0
10
23.968699
20
49.799833
0
VERTEX
8
CONTOUR_65-0
10
23.968953
20
49.799571
0
VERTEX
8
CONTOUR_65-0
10
23.969221
20
49.799315
0
VERTEX
8
CONTOUR_65-0
10
23.969587
20
49.799014
0
VERTEX
8
CONTOUR_65-0
10
23.970061
20
49.798638
0
VERTEX
8
CONTOUR_65-0
10
23.970549
20
49.798274
0
VERTEX
8
CONTOUR_65-0
10
23.970857
20
49.798077
0
VERTEX
8
CONTOUR_65-0
10
23.971195
20
49.797891
0
VERTEX
8
CONTOUR_65-0
10
23.971581
20
49.797713
0
VERTEX
8
CONTOUR_65-0
10
23.971991
20
49.797555
0
VERTEX
8
CONTOUR_65-0
10
23.972405
20
49.797440
0
VERTEX
8
CONTOUR_65-0
10
23.972802
20
49.797419
0
VERTEX
8
CONTOUR_65-0
10
23.973226
20
49.797586
0
VERTEX
8
CONTOUR_65-0
10
23.973625
20
49.797850
0
VERTEX
8
CONTOUR_65-0
10
23.974017
20
49.798108
0
VERTEX
8
CONTOUR_65-0
10
23.974410
20
49.798248
0
VERTEX
8
CONTOUR_65-0
10
23.974802
20
49.798159
0
VERTEX
8
CONTOUR_65-0
10
23.975200
20
49.797947
0
VERTEX
8
CONTOUR_65-0
10
23.975603
20
49.797700
0
VERTEX
8
CONTOUR_65-0
10
23.976018
20
49.797473
0
VERTEX
8
CONTOUR_65-0
10
23.976320
20
49.797350
0
VERTEX
8
CONTOUR_65-0
10
23.976617
20
49.797232
0
VERTEX
8
CONTOUR_65-0
10
23.977122
20
49.796967
0
VERTEX
8
CONTOUR_65-0
10
23.977625
20
49.796710
0
VERTEX
8
CONTOUR_65-0
10
23.977955
20
49.796598
0
VERTEX
8
CONTOUR_65-0
10
23.978297
20
49.796499
0
VERTEX
8
CONTOUR_65-0
10
23.978640
20
49.796379
0
VERTEX
8
CONTOUR_65-0
10
23.978977
20
49.796191
0
VERTEX
8
CONTOUR_65-0
10
23.979233
20
49.796070
0
VERTEX
8
CONTOUR_65-0
10
23.979317
20
49.796191
0
VERTEX
8
CONTOUR_65-0
10
23.979233
20
49.796254
0
VERTEX
8
CONTOUR_65-0
10
23.978035
20
49.797232
0
VERTEX
8
CONTOUR_65-0
10
23.977626
20
49.797539
0
VERTEX
8
CONTOUR_65-0
10
23.977386
20
49.797716
0
VERTEX
8
CONTOUR_65-0
10
23.977151
20
49.797896
0
VERTEX
8
CONTOUR_65-0
10
23.976932
20
49.798081
0
VERTEX
8
CONTOUR_65-0
10
23.976744
20
49.798273
0
VERTEX
8
CONTOUR_65-0
10
23.976581
20
49.798511
0
VERTEX
8
CONTOUR_65-0
10
23.976440
20
49.798757
0
VERTEX
8
CONTOUR_65-0
10
23.976274
20
49.799005
0
VERTEX
8
CONTOUR_65-0
10
23.976019
20
49.799252
0
VERTEX
8
CONTOUR_65-0
10
23.975963
20
49.799314
0
VERTEX
8
CONTOUR_65-0
10
23.976019
20
49.799356
0
VERTEX
8
CONTOUR_65-0
10
23.976380
20
49.799589
0
VERTEX
8
CONTOUR_65-0
10
23.976675
20
49.799840
0
VERTEX
8
CONTOUR_65-0
10
23.976894
20
49.800097
0
VERTEX
8
CONTOUR_65-0
10
23.976978
20
49.800354
0
VERTEX
8
CONTOUR_65-0
10
23.976848
20
49.800605
0
VERTEX
8
CONTOUR_65-0
10
23.976595
20
49.800852
0
VERTEX
8
CONTOUR_65-0
10
23.976302
20
49.801097
0
VERTEX
8
CONTOUR_65-0
10
23.976019
20
49.801339
0
VERTEX
8
CONTOUR_65-0
10
23.975959
20
49.801395
0
VERTEX
8
CONTOUR_65-0
10
23.975619
20
49.801656
0
VERTEX
8
CONTOUR_65-0
10
23.975238
20
49.801897
0
VERTEX
8
CONTOUR_65-0
10
23.974836
20
49.802123
0
VERTEX
8
CONTOUR_65-0
10
23.974412
20
49.802329
0
VERTEX
8
CONTOUR_65-0
10
23.974148
20
49.802436
0
VERTEX
8
CONTOUR_65-0
10
23.972804
20
49.803068
0
VERTEX
8
CONTOUR_65-0
10
23.971979
20
49.803477
0
VERTEX
8
CONTOUR_65-0
10
23.971196
20
49.803888
0
VERTEX
8
CONTOUR_65-0
10
23.970078
20
49.804518
0
VERTEX
8
CONTOUR_65-0
10
23.969589
20
49.804791
0
VERTEX
8
CONTOUR_65-0
10
23.968207
20
49.805559
0
VERTEX
8
CONTOUR_65-0
10
23.967981
20
49.805686
0
VERTEX
8
CONTOUR_65-0
10
23.966456
20
49.806600
0
VERTEX
8
CONTOUR_65-0
10
23.966373
20
49.806645
0
VERTEX
8
CONTOUR_65-0
10
23.964765
20
49.807566
0
VERTEX
8
CONTOUR_65-0
10
23.964643
20
49.807640
0
VERTEX
8
CONTOUR_65-0
10
23.963157
20
49.808569
0
VERTEX
8
CONTOUR_65-0
10
23.962982
20
49.808681
0
VERTEX
8
CONTOUR_65-0
10
23.961549
20
49.809579
0
VERTEX
8
CONTOUR_65-0
10
23.961331
20
49.809722
0
VERTEX
8
CONTOUR_65-0
10
23.959941
20
49.810674
0
VERTEX
8
CONTOUR_65-0
10
23.959810
20
49.810763
0
VERTEX
8
CONTOUR_65-0
10
23.958333
20
49.811743
0
VERTEX
8
CONTOUR_65-0
10
23.958240
20
49.811803
0
VERTEX
8
CONTOUR_65-0
10
23.956725
20
49.812801
0
VERTEX
8
CONTOUR_65-0
10
23.956662
20
49.812844
0
VERTEX
8
CONTOUR_65-0
10
23.955233
20
49.813885
0
VERTEX
8
CONTOUR_65-0
10
23.955116
20
49.813971
0
VERTEX
8
CONTOUR_65-0
10
23.953757
20
49.814925
0
VERTEX
8
CONTOUR_65-0
10
23.953508
20
49.815108
0
VERTEX
8
CONTOUR_65-0
10
23.952423
20
49.815966
0
VERTEX
8
CONTOUR_65-0
10
23.951900
20
49.816349
0
VERTEX
8
CONTOUR_65-0
10
23.950889
20
49.817007
0
VERTEX
8
CONTOUR_65-0
10
23.950291
20
49.817459
0
VERTEX
8
CONTOUR_65-0
10
23.949566
20
49.818047
0
VERTEX
8
CONTOUR_65-0
10
23.948682
20
49.818731
0
VERTEX
8
CONTOUR_65-0
10
23.948272
20
49.819088
0
VERTEX
8
CONTOUR_65-0
10
23.947078
20
49.820128
0
VERTEX
8
CONTOUR_65-0
10
23.947074
20
49.820132
0
VERTEX
8
CONTOUR_65-0
10
23.946594
20
49.820651
0
VERTEX
8
CONTOUR_65-0
10
23.946362
20
49.820914
0
VERTEX
8
CONTOUR_65-0
10
23.946111
20
49.821169
0
VERTEX
8
CONTOUR_65-0
10
23.945802
20
49.821424
0
VERTEX
8
CONTOUR_65-0
10
23.945465
20
49.821664
0
VERTEX
8
CONTOUR_65-0
10
23.944660
20
49.822209
0
VERTEX
8
CONTOUR_65-0
10
23.944296
20
49.822494
0
VERTEX
8
CONTOUR_65-0
10
23.943856
20
49.822642
70
1
0
SEQEND
8
CONTOUR_65-0
0
TEXT
8
CONTOUR_LABELS
10
23.970856
20
49.795642
40
0.050
1
65.0
0
POLYLINE
8
RUNWAY
66
1
10
0.0
20
0.0
0
VERTEX
8
RUNWAY
10
23.942535
20
49.820561
0
VERTEX
8
RUNWAY
10
23.974561
20
49.799269
0
VERTEX
8
RUNWAY
10
23.974112
20
49.798986
0
VERTEX
8
RUNWAY
10
23.942085
20
49.820278
0
VERTEX
8
RUNWAY
10
23.942535
20
49.820561
70
1
0
SEQEND
8
RUNWAY
0
TEXT
8
RUNWAY_LABELS
10
23.969310
20
49.793419
40
0.050
1
13N
0
TEXT
8
RUNWAY_LABELS
10
24.001336
20
49.772128
40
0.050
1
31N
0
ENDSEC
0
EOF
